<svg id="Capa_1" data-name="Capa 1" xmlns="http://www.w3.org/2000/svg" viewBox="0 0 400 400"><defs><style>.cls-1{fill:#c7e9d3;}.cls-2{fill:#f8c95e;}.cls-3{fill:#009ac5;}.cls-4{fill:#f4b013;}.cls-5{fill:#009a37;}.cls-6{fill:#0fa0c8;}.cls-7{fill:#1fa6cc;}.cls-8{fill:#52bad8;}.cls-9{fill:#2eac5b;}.cls-10{fill:#d9f0e1;}.cls-11{fill:#fff;}.cls-12{fill:#e13c2d;}.cls-13{fill:#f4ae0e;}.cls-14{fill:#42b4d4;}.cls-15{fill:#059cc6;}.cls-16{fill:#29aace;}.cls-17{fill:#f6bd3c;}</style></defs><title>iconos</title><polygon class="cls-1" points="366.27 41.46 324.13 41.46 336.28 53.61 242.74 147.14 224.55 128.95 155.96 197.54 109.08 150.67 30.08 229.67 48.89 248.48 109.08 188.29 155.96 235.16 224.55 166.56 242.74 184.75 355.09 72.41 366.27 83.59 366.27 41.46"/><polygon class="cls-2" points="286.85 172.07 287.52 173.92 285.13 171.89 286 170.66 286 168.69 286.94 168.84 287.64 170.92 286.85 172.07"/><polygon class="cls-3" points="303.99 181.73 293.02 179.29 285.9 173.02 287.44 171.59 293.62 176.82 302.21 178.05 303.99 181.73"/><polygon class="cls-2" points="257.88 172.6 257.21 174.44 259.6 172.42 258.72 171.19 258.72 169.22 257.79 169.36 257.08 171.44 257.88 172.6"/><polygon class="cls-3" points="240.73 182.26 251.71 179.82 258.83 173.55 257.29 172.12 251.11 177.34 242.52 178.58 240.73 182.26"/><path class="cls-4" d="M361.54,294.18l16.2-3.95,3.22-6.08-27.13-32.9,6.88-7.31a139.81,139.81,0,0,0-2.55-16H168.05a72.64,72.64,0,0,0-.81,10.8c0,39.87,31.52,72.64,85.29,76.44,19.41,26.73,50.75,45,74.16,45h23.52L364,345l-5-8.22.72-10.54L364,321l-3.14-5.87,5.47-6.4-4.93-6.41,0-1.78C361.46,298.43,361.51,296.33,361.54,294.18Z"/><polygon class="cls-4" points="193.14 268.02 166.42 400 289.62 400 289.17 374.93 306.38 347.87 193.14 268.02"/><polygon class="cls-5" points="306.82 124.64 300.13 124.64 300.13 123.78 305.21 123.78 273.24 75.17 264.71 75.17 232.72 123.78 237.72 123.78 237.72 124.64 231.11 124.64 264.24 74.3 273.71 74.3 273.84 74.5 306.82 124.64"/><path class="cls-6" d="M273.47,74.57a4.51,4.51,0,1,1-4.5-4.51A4.51,4.51,0,0,1,273.47,74.57Z"/><path class="cls-6" d="M237.85,124.28a3,3,0,0,0,3,3v-6A3,3,0,0,0,237.85,124.28Z"/><path class="cls-6" d="M297.24,121.26v6a3,3,0,0,0,0-6Z"/><path class="cls-5" d="M269,79.51a5.42,5.42,0,0,1-5.42-5.41v-19h.87v19a4.55,4.55,0,0,0,9.09,0v-19h.87v19A5.42,5.42,0,0,1,269,79.51Z"/><polygon class="cls-5" points="284.4 188.21 269.36 192.97 254.15 188.21 254.15 162.78 284.4 162.78 284.4 188.21"/><path class="cls-7" d="M269.3,197.15c-2.79,0-4.85-1.85-4.85-4.29a2.25,2.25,0,0,1,2.25-2.26,2.28,2.28,0,0,1,2.27,2,1.28,1.28,0,0,0,.81-.07A2,2,0,0,1,272,190.4a2.36,2.36,0,0,1,2.18,2.46C274.13,195.3,272.05,197.15,269.3,197.15Z"/><path class="cls-8" d="M269.3,168.87c-9.24,0-20-2.75-20-10.52,0-1.24-1.62-6.23-2.77-9.86l-.13-.35c-2.47-7.62-5.56-17.12-5.56-23.39a28.47,28.47,0,1,1,56.93,0c0,6.35-3.2,16.2-5.54,23.39-1.16,3.55-2.9,8.92-2.9,10.21C289.3,166.12,278.52,168.87,269.3,168.87Z"/><path class="cls-9" d="M269.3,176.83a32.11,32.11,0,0,1-10.76-1.65c-5.25-1.93-6-5-6-6.65a2.27,2.27,0,1,1,4.53,0c0,1.56,4.67,3.75,12.27,3.75s12.23-2.19,12.23-3.75a2.27,2.27,0,1,1,4.53,0C286.06,174.67,277,176.83,269.3,176.83Z"/><path class="cls-9" d="M269.3,185.8a32.11,32.11,0,0,1-10.76-1.65c-5.25-1.94-6-5-6-6.68a2.27,2.27,0,0,1,4.53,0c0,1.59,4.67,3.78,12.27,3.78s12.23-2.19,12.23-3.78a2.27,2.27,0,0,1,4.53,0C286.06,183.62,277,185.8,269.3,185.8Z"/><path class="cls-9" d="M269.3,194.76a32.37,32.37,0,0,1-10.76-1.65c-5.25-1.94-6-5-6-6.66a2.27,2.27,0,1,1,4.53,0c0,1.57,4.67,3.75,12.27,3.75s12.23-2.18,12.23-3.75a2.27,2.27,0,1,1,4.53,0C286.06,192.58,277,194.76,269.3,194.76Z"/><path class="cls-8" d="M304.59,125.68a1.46,1.46,0,0,1-1.46-1.47h0a1.46,1.46,0,0,1,1.46-1.47h10.54a1.46,1.46,0,0,1,1.46,1.47h0a1.46,1.46,0,0,1-1.46,1.47Z"/><path class="cls-8" d="M222.8,125.68a1.46,1.46,0,0,1-1.45-1.47h0a1.45,1.45,0,0,1,1.45-1.47h10.54a1.46,1.46,0,0,1,1.46,1.46h0a1.47,1.47,0,0,1-1.46,1.47Z"/><path class="cls-8" d="M295.18,99.93a1.45,1.45,0,0,1-2.06,0h0a1.49,1.49,0,0,1,0-2.07l7.46-7.49a1.45,1.45,0,0,1,2.06,0h0a1.49,1.49,0,0,1,0,2.07Z"/><path class="cls-8" d="M237.34,158.05a1.44,1.44,0,0,1-2.05,0h0a1.47,1.47,0,0,1,0-2.07l7.46-7.48a1.44,1.44,0,0,1,2.06,0h0a1.44,1.44,0,0,1,0,2.05Z"/><path class="cls-8" d="M293.13,150.55a1.44,1.44,0,0,1,0-2.05h0a1.44,1.44,0,0,1,2.06,0l7.45,7.48a1.49,1.49,0,0,1,0,2.07h0a1.45,1.45,0,0,1-2.06,0Z"/><path class="cls-8" d="M235.29,92.44a1.49,1.49,0,0,1,0-2.07h0a1.45,1.45,0,0,1,2.06,0l7.46,7.49a1.48,1.48,0,0,1,0,2.08h0a1.47,1.47,0,0,1-2.06,0Z"/><path class="cls-8" d="M267.52,77.81A1.44,1.44,0,0,1,269,76.36h0a1.45,1.45,0,0,1,1.46,1.45l0,10.6A1.45,1.45,0,0,1,269,89.88h0a1.48,1.48,0,0,1-1.46-1.47Z"/><path class="cls-4" d="M120,172.22a1.07,1.07,0,0,1-.76-.32l-14.4-14.4a1.06,1.06,0,0,1,0-1.52l14.4-14.41a1.07,1.07,0,0,1,1.52,0L135.14,156a1.07,1.07,0,0,1,0,1.52l-14.41,14.4A1.07,1.07,0,0,1,120,172.22Zm-12.88-15.48L120,169.62l12.88-12.88L120,143.86Z"/><path class="cls-4" d="M120,200.84a1.06,1.06,0,0,1-.76-.31l-14.4-14.41a1.06,1.06,0,0,1,0-1.52l14.4-14.4a1.09,1.09,0,0,1,1.52,0l14.41,14.4a1.07,1.07,0,0,1,0,1.52l-14.41,14.41A1.06,1.06,0,0,1,120,200.84Zm-12.88-15.48L120,198.24l12.88-12.88L120,172.48Z"/><path class="cls-4" d="M120,114.79a1.07,1.07,0,0,1-.76-.32l-14.4-14.4a1.06,1.06,0,0,1,0-1.52,1.07,1.07,0,0,1,1.52,0L120,112.19l13.64-13.64a1.09,1.09,0,0,1,1.53,0,1.07,1.07,0,0,1,0,1.52l-14.41,14.4A1.07,1.07,0,0,1,120,114.79Z"/><path class="cls-4" d="M120,143.41a1.06,1.06,0,0,1-.76-.31l-14.4-14.41a1,1,0,0,1-.32-.76,1.05,1.05,0,0,1,.32-.76l14.4-14.4a1.07,1.07,0,0,1,1.52,0l14.41,14.4a1.08,1.08,0,0,1,.31.76,1.07,1.07,0,0,1-.31.76L120.73,143.1A1.06,1.06,0,0,1,120,143.41Zm-12.88-15.48L120,140.81l12.88-12.88L120,115.05Z"/><path class="cls-4" d="M120,229.65a1.07,1.07,0,0,1-.76-.32l-14.4-14.4a1.05,1.05,0,0,1-.32-.76,1,1,0,0,1,.32-.76L119.21,199a1.11,1.11,0,0,1,1.52,0l14.41,14.41a1.07,1.07,0,0,1,.31.76,1.08,1.08,0,0,1-.31.76l-14.41,14.4A1.07,1.07,0,0,1,120,229.65Zm-12.88-15.48L120,227.05l12.88-12.88L120,201.29Z"/><path class="cls-4" d="M120,258.45a1.06,1.06,0,0,1-.76-.31l-14.4-14.4a1.07,1.07,0,0,1,0-1.53l14.4-14.4a1.07,1.07,0,0,1,1.52,0l14.41,14.4a1.1,1.1,0,0,1,0,1.53l-14.41,14.4A1.06,1.06,0,0,1,120,258.45ZM107.09,243,120,255.85,132.85,243,120,230.09Z"/><path class="cls-4" d="M120,287.26a1.07,1.07,0,0,1-.76-.31l-14.4-14.41a1.06,1.06,0,0,1,0-1.52l14.4-14.41a1.11,1.11,0,0,1,1.52,0L135.14,271a1.07,1.07,0,0,1,0,1.52L120.73,287A1.07,1.07,0,0,1,120,287.26Zm-12.88-15.48L120,284.66l12.88-12.88L120,258.9Z"/><path class="cls-4" d="M120,316.07a1.07,1.07,0,0,1-.76-.32l-14.4-14.4a1.05,1.05,0,0,1-.32-.76,1,1,0,0,1,.32-.76l14.4-14.41a1.07,1.07,0,0,1,1.52,0l14.41,14.41a1.07,1.07,0,0,1,.31.76,1.08,1.08,0,0,1-.31.76l-14.41,14.4A1.07,1.07,0,0,1,120,316.07Zm-12.88-15.48L120,313.47l12.88-12.88L120,287.71Z"/><path class="cls-4" d="M120,373.68a1,1,0,0,1-.76-.32L104.81,359a1.06,1.06,0,0,1,0-1.52l14.4-14.4a1.07,1.07,0,0,1,1.52,0l14.41,14.4a1.09,1.09,0,0,1,0,1.52l-14.41,14.4A1,1,0,0,1,120,373.68ZM107.09,358.2,120,371.08l12.88-12.88L120,345.32Z"/><path class="cls-4" d="M134.37,388.09a1.09,1.09,0,0,1-.76-.32L120,374.13l-13.64,13.64a1.07,1.07,0,0,1-1.52,0,1.06,1.06,0,0,1,0-1.52l14.4-14.41a1.11,1.11,0,0,1,1.52,0l14.41,14.41a1.07,1.07,0,0,1,0,1.52A1.11,1.11,0,0,1,134.37,388.09Z"/><path class="cls-4" d="M134.37,400h-28.8a1.08,1.08,0,0,1-1.08-1.08V99.31a1.08,1.08,0,0,1,1.08-1.08h28.8a1.08,1.08,0,0,1,1.08,1.08V398.92A1.08,1.08,0,0,1,134.37,400Zm-27.73-2.15H133.3V100.39H106.64Z"/><path class="cls-4" d="M120,344.88a1.07,1.07,0,0,1-.76-.32l-14.4-14.4a1.07,1.07,0,0,1,0-1.53l14.4-14.4a1.09,1.09,0,0,1,1.52,0l14.41,14.4a1.09,1.09,0,0,1,0,1.53l-14.41,14.4A1.07,1.07,0,0,1,120,344.88ZM107.09,329.4,120,342.28l12.88-12.88L120,316.51Z"/><path class="cls-5" d="M249,57a1.07,1.07,0,0,1-.76-.31L238.05,46.59a1.09,1.09,0,0,1,0-1.53l10.14-10.13a1.07,1.07,0,0,1,1.52,0l10.13,10.13a1.12,1.12,0,0,1,.32.77,1.09,1.09,0,0,1-.32.76L249.71,56.72A1.07,1.07,0,0,1,249,57Zm-8.61-11.2,8.61,8.6,8.61-8.6L249,37.22Z"/><path class="cls-5" d="M228.81,57a1.07,1.07,0,0,1-.76-.31L217.92,46.59a1.09,1.09,0,0,1,0-1.53l10.13-10.13a1.07,1.07,0,0,1,1.52,0l10.14,10.13a1.09,1.09,0,0,1,0,1.53L229.57,56.72A1.06,1.06,0,0,1,228.81,57Zm-8.61-11.2,8.61,8.6,8.61-8.6-8.61-8.61Z"/><path class="cls-5" d="M289.35,57a1.06,1.06,0,0,1-.76-.31L278.46,46.59a1.09,1.09,0,0,1,0-1.53,1.07,1.07,0,0,1,1.52,0L290.11,55.2a1.07,1.07,0,0,1,0,1.52A1.06,1.06,0,0,1,289.35,57Z"/><path class="cls-5" d="M269.21,57a1.07,1.07,0,0,1-.76-.31L258.32,46.59a1.09,1.09,0,0,1,0-1.53l10.13-10.13a1.13,1.13,0,0,1,1.53,0l10.13,10.13a1.11,1.11,0,0,1,.31.77,1.08,1.08,0,0,1-.31.76L270,56.72A1.1,1.1,0,0,1,269.21,57Zm-8.61-11.2,8.61,8.6,8.61-8.6-8.61-8.61Z"/><path class="cls-5" d="M208.55,57h0a1.07,1.07,0,0,1-.76-.31L197.66,46.59a1.09,1.09,0,0,1,0-1.53l10.13-10.13a1.11,1.11,0,0,1,1.52,0l10.13,10.13a1.09,1.09,0,0,1,0,1.53L209.31,56.72A1.08,1.08,0,0,1,208.55,57Zm-8.61-11.2,8.61,8.6,8.61-8.6-8.61-8.61Z"/><path class="cls-5" d="M188.29,57a1.1,1.1,0,0,1-.77-.31L177.39,46.59a1.09,1.09,0,0,1,0-1.53l10.13-10.13a1.09,1.09,0,0,1,1.53,0l10.13,10.13a1.09,1.09,0,0,1,0,1.53L189.05,56.72A1.07,1.07,0,0,1,188.29,57Zm-8.61-11.2,8.61,8.6,8.61-8.6-8.61-8.61Z"/><path class="cls-5" d="M168,57a1.08,1.08,0,0,1-.76-.31L157.13,46.59a1.09,1.09,0,0,1,0-1.53l10.13-10.13a1.11,1.11,0,0,1,1.52,0l10.14,10.13a1.09,1.09,0,0,1,0,1.53L168.78,56.72A1.07,1.07,0,0,1,168,57Zm-8.61-11.2,8.61,8.6,8.61-8.6L168,37.22Z"/><path class="cls-5" d="M147.76,57a1.07,1.07,0,0,1-.76-.31L136.86,46.59a1.09,1.09,0,0,1,0-1.53L147,34.93a1.11,1.11,0,0,1,1.52,0l10.13,10.13a1.09,1.09,0,0,1,0,1.53L148.52,56.72A1.08,1.08,0,0,1,147.76,57Zm-8.61-11.2,8.61,8.6,8.61-8.6-8.61-8.61Z"/><path class="cls-5" d="M127.49,57a1.07,1.07,0,0,1-.76-1.83l9.37-9.37-9.37-9.38a1.07,1.07,0,0,1,0-1.52,1.09,1.09,0,0,1,1.53,0l10.13,10.13a1.09,1.09,0,0,1,0,1.53L128.26,56.72A1.08,1.08,0,0,1,127.49,57Z"/><path class="cls-5" d="M127.49,57A1.06,1.06,0,0,1,126.42,56V35.69a1.07,1.07,0,0,1,1.07-1.07H269.21a1.11,1.11,0,0,1,.77.31L290.11,55.2a1.07,1.07,0,0,1-.76,1.83Zm1.08-20.26V54.88H286.76l-18-18.11Z"/><path class="cls-5" d="M104.48,57a1.07,1.07,0,0,1-.76-.31L93.59,46.59a1.09,1.09,0,0,1,0-1.53l10.13-10.13a1.07,1.07,0,0,1,1.52,1.52l-9.37,9.38,9.37,9.37a1.07,1.07,0,0,1,0,1.52A1.06,1.06,0,0,1,104.48,57Z"/><path class="cls-5" d="M84.22,57a1.07,1.07,0,0,1-.76-.31L73.33,46.59a1.07,1.07,0,0,1,0-1.53L83.46,34.93a1.07,1.07,0,0,1,.76-.31h0a1.08,1.08,0,0,1,.76.31L95.11,45.06a1.09,1.09,0,0,1,0,1.53L85,56.72A1.08,1.08,0,0,1,84.22,57Zm-8.61-11.2,8.61,8.6,8.61-8.6-8.61-8.61Z"/><path class="cls-5" d="M64,57a1.07,1.07,0,0,1-.76-.31L53.06,46.59a1.09,1.09,0,0,1,0-1.53L63.19,34.93a1.09,1.09,0,0,1,1.53,0L74.85,45.06a1.09,1.09,0,0,1,0,1.53L64.72,56.72A1.1,1.1,0,0,1,64,57Zm-8.61-11.2L64,54.43l8.61-8.6L64,37.22Z"/><path class="cls-5" d="M43.69,57a1.07,1.07,0,0,1-.76-.31L32.8,46.59a1.09,1.09,0,0,1,0-1.53L42.93,34.93a1.11,1.11,0,0,1,1.52,0L54.58,45.06a1.09,1.09,0,0,1,0,1.53L44.45,56.72A1.07,1.07,0,0,1,43.69,57Zm-8.61-11.2,8.61,8.6,8.61-8.6-8.61-8.61Z"/><path class="cls-5" d="M23.43,57a1.1,1.1,0,0,1-.77-.31,1.07,1.07,0,0,1,0-1.52L32,45.83l-9.38-9.38a1.07,1.07,0,0,1,0-1.52,1.09,1.09,0,0,1,1.53,0L34.32,45.06a1.09,1.09,0,0,1,0,1.53L24.19,56.72A1.07,1.07,0,0,1,23.43,57Z"/><path class="cls-5" d="M23.43,57a1.11,1.11,0,0,1-.77-.31,1.08,1.08,0,0,1-.31-.76V35.69a1.07,1.07,0,0,1,1.08-1.07h81.05a1.07,1.07,0,0,1,.76.31,1.09,1.09,0,0,1,.32.76V56A1.07,1.07,0,0,1,104.48,57ZM24.5,36.77V54.88h78.9V36.77Z"/><polygon class="cls-10" points="160.55 77.98 148.14 93.21 148.14 77.98 98.81 77.98 98.81 31.65 148.14 31.65 148.14 24.06 160.55 31.65 160.55 77.98"/><rect class="cls-3" x="150.62" y="63.96" width="0.77" height="11.98" transform="translate(-12.11 36.94) rotate(-13.41)"/><rect class="cls-7" x="149.29" y="65.08" width="0.77" height="11.96" transform="translate(-14.61 92.61) rotate(-32.87)"/><polygon class="cls-5" points="155.96 77.72 153.92 74.57 150.19 74.57 148.14 77.98 148.14 81.34 153.66 81.34 155.96 77.72"/><rect class="cls-9" x="19.04" y="34.57" width="56.48" height="22.46"/><rect class="cls-9" x="19.04" y="58.84" width="56.48" height="21.39"/><rect class="cls-7" x="25.3" y="32.06" width="4.04" height="49.91"/><rect class="cls-7" x="65.21" y="32.06" width="4.04" height="49.91"/><polygon class="cls-2" points="190.85 156.26 190.85 155.63 191.61 153.22 192.5 153.22 192.5 154.74 191.84 155.93 190.85 156.26"/><rect class="cls-11" x="184.5" y="166.56" width="2.94" height="2.92"/><polygon class="cls-3" points="185.02 203.72 184.39 205.44 191.56 205.44 186.37 203.72 185.02 203.72"/><polygon class="cls-5" points="187.78 169.65 188.65 173.85 187.68 203.86 184.46 204.05 183.57 172.82 187.78 169.65"/><polygon class="cls-3" points="177.98 203.72 178.6 205.44 175.13 205.44 176.63 203.72 177.98 203.72"/><polygon class="cls-9" points="180.46 169.22 179.63 173.46 175.7 204.16 178.47 203.91 185.25 175.51 187.78 169.27 180.46 169.22"/><rect class="cls-2" x="185.64" y="168.81" width="1.44" height="1.16"/><polygon class="cls-7" points="186.57 156.28 185.34 159.64 191.53 164.95 193.04 162.31 192.6 155.04 190.65 155.04 190.65 160.63 186.57 156.28"/><polygon class="cls-7" points="177.05 156.92 180.5 154.08 183.09 154.81 186.57 156.28 188.77 169.67 189.38 174.8 188.65 175.1 186.11 167.19 184.9 175.06 178.38 173.75 179.56 169.28 179.9 164.79 177.05 156.92"/><polygon class="cls-3" points="179.95 154.54 179.41 154.98 181.4 157.71 182.26 157.71 181.78 158.8 185.63 164.55 185.41 158.32 184.53 157.53 185.17 157.34 183.83 155.13 183.83 155.13 179.95 154.54"/><polygon class="cls-11" points="181.73 156 185.08 162.02 183.93 156.39 183.11 155.41 182.41 156.48 181.73 156"/><polygon class="cls-12" points="182.78 155.92 183.11 156.39 183.49 156.39 183.66 156.06 183.11 155.41 182.78 155.92"/><polygon class="cls-12" points="183.11 156.42 183.66 159.46 185.08 162.02 184.54 159.35 183.49 156.42 183.11 156.42"/><polygon class="cls-3" points="178.38 173.75 180.97 174.12 181.54 172.92 179.44 171.68 179.9 169.81 180.47 164.79 179.44 159.71 178.56 161.08 179.9 164.79 179.56 169.28 178.38 173.75"/><polygon class="cls-7" points="177.11 165.8 179.44 159.71 177.05 156.92 174.35 166.23 177.81 172.18 179.22 170.77 177.11 165.8"/><polygon class="cls-2" points="182.86 155.05 183.97 153.73 186.97 153.73 187.18 152.46 186.06 151.81 187.18 151.81 187.18 151.06 188.27 150.33 186.88 148.75 186.84 146.99 184.99 145.15 180.9 145.36 179.3 146.82 179.3 149.8 181.15 151.68 180.64 154.38 182.86 155.05"/><polygon class="cls-13" points="182.87 150.66 182.39 150.99 180.33 150.99 181.15 151.68 180.64 154.38 183.31 155.19 183.97 153.73 185.93 153.73 183.97 152.27 182.87 150.66"/><polygon class="cls-7" points="181.17 151.84 179.06 149.84 179.06 146.87 180.92 145.22 185.18 144.97 187.57 146.91 187.57 147.59 185.71 148.96 183.31 149.68 182.93 148.65 181.93 148.65 181.93 150.07 182.87 150.66 182.69 151.06 181.17 151.84"/><polygon class="cls-14" points="179.06 146.87 180.92 145.22 185.18 144.97 187.57 146.91 187.54 146.94 185.24 145.91 181.39 146.08 179.48 147.1 179.06 149.84 179.06 146.87"/><polygon class="cls-13" points="187.18 151.06 187.18 150.53 188.27 150.33 187.18 151.06"/><polygon class="cls-11" points="179.9 154.52 180.67 153.5 183.09 154.81 183.78 154.31 183.95 155.18 183.88 156.2 183.1 155.27 182.39 156.36 179.9 154.52"/><polygon class="cls-2" points="179.22 170.77 178.44 171.63 178.87 172.24 180.07 172.72 180.93 173.59 181.54 172.92 180.92 171.61 179.22 170.77"/><polygon class="cls-3" points="176.18 165.8 177.2 166.02 177.11 165.8 177.18 165.63 176.18 165.8"/><polygon class="cls-14" points="193.82 150.82 193.82 153.16 197.84 154.56 197.84 149.42 193.82 150.82"/><polygon class="cls-15" points="192.45 154.82 191.47 154.82 191.81 153.09 192.79 153.09 192.45 154.82"/><polygon class="cls-12" points="190.83 150.82 193.82 150.82 193.82 153.16 190.83 153.16 190.1 151.99 190.83 150.82"/><polygon class="cls-12" points="197.78 149.19 197.39 149.58 197.39 154.39 197.78 154.79 198.18 154.39 198.18 149.58 197.78 149.19"/><polygon class="cls-12" points="191.45 155.01 192.46 155.01 192.59 154.88 192.46 154.75 191.45 154.75 191.32 154.88 191.45 155.01"/><polygon class="cls-16" points="191.63 152.44 191.7 152.51 191.78 152.44 191.78 151.54 191.7 151.46 191.63 151.54 191.63 152.44"/><polygon class="cls-16" points="191.23 152.44 191.3 152.51 191.37 152.44 191.37 151.54 191.3 151.46 191.23 151.54 191.23 152.44"/><polygon class="cls-16" points="190.83 152.44 190.9 152.51 190.97 152.44 190.97 151.54 190.9 151.46 190.83 151.54 190.83 152.44"/><polygon class="cls-2" points="192.59 154.58 193.12 153.22 192.3 153.22 192.09 154.58 192.59 154.58"/><polygon class="cls-2" points="192.26 153.56 192.38 153.22 191.67 153.22 191.37 154.24 191.88 154.03 191.99 153.56 192.26 153.56"/><polygon class="cls-3" points="190.47 160.44 191.13 162.02 190.65 160.17 190.64 160.54 190.47 160.44"/><polygon class="cls-3" points="248.84 226.37 248.21 228.1 255.37 228.1 250.19 226.37 248.84 226.37"/><polygon class="cls-5" points="247.75 192.31 248.62 196.5 251.49 226.51 248.28 226.7 243.54 195.48 247.75 192.31"/><polygon class="cls-3" points="243.72 226.37 244.34 228.1 240.87 228.1 242.37 226.37 243.72 226.37"/><polygon class="cls-9" points="242.35 191.88 241.52 196.11 241.44 226.81 244.21 226.57 247.15 198.16 248.21 191.91 242.35 191.88"/><polygon class="cls-2" points="243.99 179.63 243.44 176.24 245.86 174.66 245.35 173.52 244.1 173.59 245.01 173 244.62 172.39 245.11 171.23 243.17 170.69 242.2 169.3 239.74 168.79 236.55 171.12 235.9 173.18 237.47 175.58 240.09 176.08 241.16 178.4 243.99 179.63"/><polygon class="cls-13" points="241.18 174.56 240.72 174.86 239.06 175.94 240.09 176.08 241.16 178.4 244.31 179.34 243.44 176.24 245.03 175.2 242.67 175.06 241.18 174.56"/><polygon class="cls-7" points="240.88 173.46 239.91 172.41 241.34 171.01 242.27 169.4 242.33 168.56 241.37 167.75 239.74 168.79 236.38 170.99 235.73 173.29 237.33 175.74 240.13 176.22 240.72 174.86 239.64 174.47 239.05 173.56 239.87 173.02 240.88 173.46"/><polygon class="cls-13" points="244.62 172.39 244.34 171.97 245.11 171.23 244.62 172.39"/><polygon class="cls-14" points="239.35 168.26 236.38 170.99 235.73 173.29 237.33 175.74 236.41 173.38 236.95 171.41 239.74 168.79 241.3 168.37 242.33 168.56 241.37 167.75 239.35 168.26"/><polygon class="cls-7" points="239.59 177.97 244.54 177.97 247.9 186.13 249.67 195.72 241.2 195.72 241.18 187.29 239.13 179.23 239.59 177.97"/><polygon class="cls-11" points="240.08 177.25 239.81 178.16 244.84 178.69 243.83 177.33 240.08 177.25"/><polygon class="cls-2" points="250.97 168.21 250.17 168.21 250.43 166.78 251.96 165.73 252.88 164.54 253.59 165.16 253.21 166.82 250.97 168.21"/><polygon class="cls-3" points="242.08 179.34 247.14 186.42 243.96 178.69 242.08 179.34"/><polygon class="cls-7" points="243.23 181.68 250.67 175.26 251.88 167.75 249.95 167.5 248.19 174.55 240.88 178.7 243.23 181.68"/><polygon class="cls-3" points="296.61 226.44 297.24 228.16 290.08 228.16 295.26 226.44 296.61 226.44"/><polygon class="cls-5" points="297.7 192.37 296.83 196.57 293.96 226.57 297.17 226.76 301.9 195.54 297.7 192.37"/><polygon class="cls-3" points="301.73 226.44 301.1 228.16 304.58 228.16 303.08 226.44 301.73 226.44"/><polygon class="cls-9" points="303.1 191.94 303.93 196.18 304.01 226.88 301.24 226.63 298.3 198.22 297.24 191.97 303.1 191.94"/><polygon class="cls-2" points="303.26 179.67 300.66 177.41 298.05 178.62 297.35 177.59 298.07 176.57 297.08 177.03 296.78 176.38 295.53 176.18 296.1 174.24 295.42 172.69 296.3 170.33 299.96 168.86 302.06 169.4 303.26 171.99 302.3 174.48 303.7 176.62 303.26 179.67"/><polygon class="cls-13" points="300.44 174.6 300.93 174.38 302.73 173.54 302.3 174.48 303.7 176.62 302.84 179.79 300.66 177.41 298.94 178.2 300.08 176.13 300.44 174.6"/><polygon class="cls-7" points="299.66 173.77 299.28 172.38 297.33 172.86 295.48 172.8 294.74 172.4 294.56 171.17 296.3 170.33 299.94 168.64 302.24 169.3 303.47 171.96 302.4 174.59 300.93 174.38 301.17 173.25 300.71 172.26 299.82 172.68 299.66 173.77"/><polygon class="cls-13" points="296.78 176.38 296.57 175.92 295.53 176.18 296.78 176.38"/><polygon class="cls-14" points="296.06 169.72 299.94 168.64 302.24 169.3 303.47 171.96 301.96 169.93 299.99 169.35 296.3 170.33 295.12 171.43 294.74 172.4 294.56 171.17 296.06 169.72"/><polygon class="cls-7" points="304.01 176.15 300.42 178.03 297.55 186.2 295.78 195.78 304.25 195.78 304.26 187.35 305.38 179.29 304.01 176.15"/><polygon class="cls-11" points="303.13 175.75 304.01 176.15 300.01 179.2 300.36 177.76 303.13 175.75"/><polygon class="cls-2" points="286.74 187.9 287.54 187.85 287.36 189.29 286.77 190.82 285.04 191.66 284.29 191.09 285.45 189.8 286.74 187.9"/><polygon class="cls-3" points="302.09 182.62 297.61 191.03 300.21 181.97 302.09 182.62"/><polygon class="cls-7" points="304.58 180.33 294.81 187.13 287.3 189.16 286.69 187.73 294.66 184.46 302.23 178 304.58 180.33"/><rect class="cls-3" x="171.19" y="205.44" width="22.65" height="22.65"/><polygon class="cls-2" points="147.14 63.53 148.16 63.61 150.03 63.18 150.65 63.97 149.47 64.9 148.83 64.36 148.08 64.58 146.67 64.47 147.14 63.53"/><polygon class="cls-3" points="136.25 59.4 140.34 64.62 148.53 64.88 148.53 63.52 140.97 62.75 137.03 56.2 136.25 59.4"/><polygon class="cls-2" points="137.24 56.01 138.89 54.71 141.46 55.78 142.09 54.76 141.35 53.8 142.32 54.2 142.59 53.56 143.78 53.32 143.15 51.48 143.74 49.96 142.81 47.72 139.23 46.44 137.03 47.01 135.97 49.56 137.19 51.95 136.15 53.25 137.24 56.01"/><polygon class="cls-13" points="138.99 52 138.51 51.8 136.74 51.07 137.19 51.95 136.15 53.25 137.24 56.01 138.89 54.71 140.57 55.41 139.4 53.46 138.99 52"/><polygon class="cls-7" points="139.71 51.16 140.1 49.44 141.19 49.03 143.7 50.07 145.5 49.17 145.6 48.04 142.81 47.72 139.23 46.24 136.85 46.92 135.77 49.53 137.11 52.06 138.51 51.8 138.24 50.72 138.64 49.76 139.51 50.12 139.71 51.16"/><polygon class="cls-2" points="144.08 65.86 145.1 65.93 146.97 65.5 147.59 66.29 146.41 67.22 145.77 66.68 145.02 66.9 143.61 66.79 144.08 65.86"/><polygon class="cls-5" points="143.36 69.54 139.4 72.22 146.16 84.6 148.08 84.6 143.36 69.54"/><polygon class="cls-9" points="127.24 66 123.96 72.22 137.5 72.22 134.3 84.6 136.2 84.6 143.75 69.28 132.19 68.07 132.84 65.73 127.24 66"/><polygon class="cls-5" points="132.26 67.82 132.27 67.78 126.49 67.42 123.96 72.22 137.5 72.22 126.07 70.97 132.26 67.82"/><polygon class="cls-5" points="139.08 71.44 137.5 72.22 134.33 84.5 134.59 84.6 137.78 73.87 139.08 71.44"/><polygon class="cls-3" points="134.59 84.6 134.05 86.12 140.34 86.12 135.78 84.6 134.59 84.6"/><polygon class="cls-3" points="146.42 84.6 145.87 86.12 152.16 86.12 147.6 84.6 146.42 84.6"/><polygon class="cls-7" points="135.03 53.1 137.88 57.22 132.34 67.78 124.22 69.91 135.03 53.1"/><polygon class="cls-3" points="134.75 57.77 132.34 67.78 137.97 58.04 134.75 57.77"/><polygon class="cls-7" points="134.75 57.77 135.25 65.73 144.72 67.22 144.72 65.73 136.73 63.68 137.88 57.22 134.75 57.77"/><polygon class="cls-17" points="136.05 53.01 135.22 53.37 137.86 57.39 138.25 55.83 136.05 53.01"/><polygon class="cls-13" points="142.59 53.56 142.77 53.11 143.78 53.32 142.59 53.56"/><polygon class="cls-14" points="142.81 47.72 139.23 46.24 136.85 46.92 135.77 49.53 137.34 47.56 139.21 46.92 142.61 48.33 144.94 48.43 145.5 49.17 145.6 48.04 142.81 47.72"/><polygon class="cls-9" points="98.81 77.98 98.81 31.65 148.14 31.65 148.14 24.06 86.99 24.06 86.99 101.25 148.14 101.25 148.14 77.98 98.81 77.98"/><polygon class="cls-3" points="116.6 52.06 119.25 51.23 123.96 72.22 136.7 72.22 136.75 74.47 133.43 74.47 133.43 78.02 124.73 78.02 124.73 74.47 120.83 74.47 116.6 52.06"/><path class="cls-6" d="M266.49,60a3.87,3.87,0,1,1-3.87-3.87A3.87,3.87,0,0,1,266.49,60Z"/><path class="cls-6" d="M279.18,60a3.87,3.87,0,1,1-3.87-3.87A3.87,3.87,0,0,1,279.18,60Z"/><rect class="cls-6" x="262.62" y="53.5" width="12.69" height="6.49"/></svg>