<svg id="Capa_1" data-name="Capa 1" xmlns="http://www.w3.org/2000/svg" viewBox="0 0 400 400"><defs><style>.cls-1{fill:#adb5da;}.cls-2{fill:#531d34;}.cls-3{fill:#1f2535;}.cls-4{fill:#e79677;}.cls-5{fill:#242851;}.cls-6{fill:#f4a886;}.cls-7{fill:#e18a72;}.cls-8{fill:#272c34;}.cls-9{fill:#694896;}.cls-10{fill:#20242b;}.cls-11{fill:#30376c;}.cls-12{fill:#f4a37f;}.cls-13{fill:#e98e72;}.cls-14{fill:#422918;}.cls-15{fill:#fff;}.cls-16{fill:#096026;}.cls-17{fill:#39c668;}.cls-18{fill:#009a37;}.cls-19{fill:#056075;}.cls-20{fill:#23bee2;}.cls-21{fill:#009ac5;}.cls-22{fill:#212020;}.cls-23{fill:#030200;}.cls-24{fill:#183f70;}.cls-25{fill:#174891;}.cls-26{fill:#8d294e;}.cls-27{fill:#2d1a09;}.cls-28{isolation:isolate;}.cls-29{fill:#b77d08;}.cls-30{fill:#f9bb41;}.cls-31{fill:#f4ae0e;}.cls-32{fill:#143a6a;}.cls-33{fill:#007fa6;}.cls-34{fill:#141211;}.cls-35{fill:#334c87;}.cls-36{fill:#ffd77b;}.cls-37{fill:#452008;}.cls-38{fill:#aa211a;}.cls-39{fill:#f96862;}.cls-40{fill:#e13c2d;}.cls-41{fill:#551c2f;}.cls-42{fill:#014083;}.cls-43{fill:#004d9c;}.cls-44{fill:#f5bc93;}.cls-45{fill:#3a190f;}.cls-46{fill:#f7bc93;}.cls-47{fill:#e1a685;}.cls-48{fill:#ececec;}</style></defs><title>iconos</title><path class="cls-1" d="M236.92,250.9l-63.71-26.81-49.7,33.53,26.39,11.11a12.2,12.2,0,0,1-1.78,1.16,15.19,15.19,0,0,1-3.26.95c-2.22.4-4.94.34-6.52,1.4-2.47,1.67-.53,4.7,4.34,6.87l.43.19c5.18,2.18,11.44,2.55,14,.84,2.07-1.4.48-3.61,1.71-5.23a12.94,12.94,0,0,1,2.06-1.57l26.36,11.09,20.56-13.87-.26-.12a22.43,22.43,0,0,0-2.71-1c-3.06-.68-7.21.14-9.86-1-3.25-1.44-2.58-4.72,1.41-7.42s10-3.82,13.22-2.45c2,.9,1.95,2.32,2.73,3.49a6.1,6.1,0,0,0,1.82,1.74c.1.06.47.24.93.45s.85.36,1.28.51Z"/><path class="cls-1" d="M169.3,345c-1.61-1.08-4.38-1-6.63-1.43a14.65,14.65,0,0,1-3.32-1,12.35,12.35,0,0,1-1.8-1.18l26.82-11.29-20.9-14.1.27-.12a24.15,24.15,0,0,1,2.75-1c3.11-.69,7.33.14,10.13-1,3.19-1.42,2.52-4.75-1.54-7.49S165,302.51,161.54,304c-1.95.87-1.88,2.32-2.67,3.5a6.23,6.23,0,0,1-1.86,1.77,9.7,9.7,0,0,1-.95.46,12.19,12.19,0,0,1-1.28.51l-20.93-14.12L69.1,323.32l50.51,34.09,26.79-11.27a13.25,13.25,0,0,1,2.1,1.59c1.25,1.65-.37,3.9,1.73,5.31,2.59,1.75,9,1.37,14.22-.85l.43-.19C169.83,349.8,171.81,346.72,169.3,345Z"/><path class="cls-1" d="M219.39,281.46l26.79-11.27a12.54,12.54,0,0,1,2.09,1.59c1.25,1.65-.36,3.9,1.74,5.32,2.59,1.74,8.95,1.36,14.21-.86l.44-.18c4.94-2.21,6.93-5.29,4.41-7-1.61-1.08-4.38-1-6.63-1.43a14.41,14.41,0,0,1-3.31-1,11.8,11.8,0,0,1-1.81-1.18l26.82-11.29,50.52,34.09L269.9,315.55,249,301.45l.26-.12a25.59,25.59,0,0,1,2.76-1c3.12-.69,7.33.14,10-1,3.3-1.47,2.62-4.8-1.44-7.54s-10.12-3.89-13.43-2.49c-2.06.91-2,2.36-2.78,3.54a6.18,6.18,0,0,1-1.85,1.77c-.1.06-.48.25-1,.46a13.31,13.31,0,0,1-1.29.51Z"/><path class="cls-1" d="M305.68,355.49,279.32,344.4a12.46,12.46,0,0,0-2.06,1.57c-1.23,1.62.36,3.83-1.71,5.23-2.54,1.71-8.8,1.34-14-.84l-.43-.19c-4.87-2.17-6.81-5.2-4.34-6.87,1.58-1.06,4.3-1,6.52-1.4a15.19,15.19,0,0,0,3.26-.95,12.76,12.76,0,0,0,1.78-1.16L242,328.68l-20.59,13.89c-.42-.14-.88-.33-1.27-.5s-.83-.39-.93-.45a5.89,5.89,0,0,1-1.82-1.75c-.79-1.16-.71-2.58-2.63-3.44-3.36-1.41-9.28-.32-13.32,2.41s-4.66,6-1.52,7.38c2.76,1.16,6.9.34,10,1a24.45,24.45,0,0,1,2.7,1l.27.13-20.56,13.87L256,389Z"/><path class="cls-1" d="M155.8,245.83c0,8.95-16.29,16.2-36.39,16.2S83,254.78,83,245.83s16.29-16.19,36.39-16.19S155.8,236.89,155.8,245.83Z"/><polygon class="cls-2" points="129.21 244.75 129.8 244.64 130.4 239.63 128.83 237.77 129.21 244.75"/><polygon class="cls-3" points="128.49 244.34 129.21 244.75 129.09 236.55 127.83 236.26 128.49 244.34"/><path class="cls-4" d="M134,234l1.33,4.4a30.14,30.14,0,0,0,3.31,5.91s2.7,3.69-2.35,3.45c0,0-5.38-.29-5.3-3.74.07-3-2.66-6.66-2.66-6.66a3,3,0,0,1,.35-3.54l.94-1.07,4.52-.79Z"/><path class="cls-3" d="M138.93,245.69a6.78,6.78,0,0,1-5.86-1.78c-1.4-1.37-3-6.42-2.47-4.74.22.69-1.42-5.44-1-6.4l-.94,1.07a3.11,3.11,0,0,0-.44,3.63s2.82,3.6,2.75,6.57c-.08,3.45,5.3,3.74,5.3,3.74,3,.14,3.27-1.13,3-2.17Z"/><path class="cls-3" d="M141.47,247.16s.76,1.44-1.65,1.44c0,0-9-.57-9-4.45V241s.71,4.46,6.28,4.47c0,0,2.48,0,1.2-1.58Z"/><path class="cls-5" d="M126.93,38.07a6,6,0,1,1-6-6A6,6,0,0,1,126.93,38.07Z"/><path class="cls-6" d="M125.23,65.77h11.84c-.54-1.72-1.66-6.19.07-9.22l-12-7.86S127.31,61.87,125.23,65.77Z"/><path class="cls-7" d="M126.56,58.33a5.2,5.2,0,0,0,3.72,3.29,12.6,12.6,0,0,0,6,.44,9.35,9.35,0,0,1,.84-5.51l-12-7.86s.65,4,.88,8.28C126.22,57.42,126.38,57.88,126.56,58.33Z"/><path class="cls-6" d="M139.42,59.29l.62-1.78,1.54-5.24a5.25,5.25,0,0,0,0-2.78,8.51,8.51,0,0,1-.24-4.35c1-4.76-1.14-7.25-1.14-7.25-2.78-4.38-9.35-4.36-9.35-4.36-8.11.42-8.78,8.28-8.78,8.28C120.79,47,125,51.38,125,51.39a6,6,0,0,1,.84,2.12,6.45,6.45,0,0,0,1.19,2,14.55,14.55,0,0,0,4.16,3.34,16.06,16.06,0,0,0,6.26,1.48C138.24,60.3,139.06,60.31,139.42,59.29Z"/><polygon class="cls-2" points="101.53 245.69 102.13 245.78 104.3 241.22 103.41 238.96 101.53 245.69"/><polygon class="cls-3" points="100.98 245.07 101.53 245.69 104.05 237.88 102.94 237.21 100.98 245.07"/><path class="cls-6" d="M109.51,237.07c-.12,3.66-.39,7.78,1.09,11.25,0,0,1.37,4.36-3.33,2.51,0,0-5-2-3.82-5.24,1-2.79-.39-7.16-.39-7.16a3,3,0,0,1,1.47-3.24l1.23-.71h4.7Z"/><path class="cls-3" d="M110.44,249.7a6.76,6.76,0,0,1-5-3.56c-.89-1.75-.78-7-.82-5.29,0,.73.4-5.61,1.12-6.37l-1.23.71a3.12,3.12,0,0,0-1.59,3.3s1.52,4.31.51,7.1c-1.19,3.24,3.82,5.24,3.82,5.24,2.82,1.11,3.45,0,3.51-1.1Z"/><path class="cls-3" d="M112.37,251.91s.26,1.61-2,.83c0,0-8.37-3.44-7.12-7.11l1-3s-.76,4.45,4.52,6.25c0,0,2.35.79,1.64-1.11Z"/><path class="cls-6" d="M114.71,182.3c-6,11.08-7.06,15.59-8.13,24-.62,4.9-.42,25.55-1.06,28.63-.27,1.28,4.58.58,4.58.58.89-2.16,15-49.6,15-49.6s1.58-4.92.27-5.77C118.8,175.87,117.33,177.47,114.71,182.3Z"/><path class="cls-8" d="M110.25,236.52c.89-2.16,14.87-50.59,14.87-50.59s1.58-4.92.27-5.77c-6.59-4.29-8.06-2.69-10.68,2.14-6,11.08-7.06,15.59-8.13,24-.62,4.9-1.64,24.84-2.28,27.92C104.3,234.24,107.89,238.52,110.25,236.52Z"/><path class="cls-8" d="M141.66,102.14s4.61,19.52,4,21.66c-1.78,6.14-18.33,14.76-33.43,2.19,0,0,3.45-14.44,10.62-26.66C122.84,99.33,125.47,102.05,141.66,102.14Z"/><path class="cls-9" d="M139.3,62.46s6,11.68,8.74,18.08c-1.13,7.51-5.21,18.64-6.85,21-3.59,5.15-20,.55-20,.55l-4.74-15.8c13.82-5,6.54-19.52,6.54-19.52l2.17-1.37s2.21,7.16,11.2,6.9c0,0,3-1.92.78-10.09A12.59,12.59,0,0,1,139.3,62.46Z"/><path class="cls-4" d="M124.27,129.05s1.59,31.5,7.42,48.44c.87,2.53,10.83-.83,10.83-.83s5-27.1,4.72-38.33c-.17-6.34-2.44-20-2.44-20S126.12,115.86,124.27,129.05Z"/><path class="cls-4" d="M132,177.38l10.54-.72s-6.48,53.77-7.07,56c0,0-4.53,1.64-4.43.34.21-3.14-3.57-27.27-3.68-32.21C127.15,192.88,127.47,187.87,132,177.38Z"/><path class="cls-10" d="M124.27,129.05s1.59,31.5,7.42,48.44c.87,2.53,10.83-.83,10.83-.83s5-27.1,4.72-38.33c-.17-6.34-2.44-20-2.44-20S126.12,115.86,124.27,129.05Z"/><path class="cls-10" d="M136.76,233c1.07-2.08,5.76-56.37,5.76-56.37l-10.54.72c-4.51,10.49-4.83,15.5-4.64,23.44.11,4.94,2.51,29.07,2.29,32.21C129.63,233,135.36,235.76,136.76,233Z"/><path class="cls-4" d="M158.37,100.7l-8-29c-2.88-7.75-7.17-7.94-7.17-7.94-8.23,1.25-3,15.69-3,15.69l10.16,24.06"/><path class="cls-4" d="M181.53,122.35c-3.46-2.57-3.7-3.26-4.22-4.31-2.25-4.47,3.5-3.49,4.9-2.94.8.31.56,2.3,2.79,5.09,0,0,3.71,3,4.73,2.94,0,0,1,.31.91,1.06C190.64,124.19,187.54,125.45,181.53,122.35Z"/><path class="cls-4" d="M157.75,99l23.4,17.7c.65,3.23-.83,3.46-.83,3.46l-18.87-8.59c-8.09-3.5-10.9-7.52-10.9-7.52s-3.3-3.1,2-6.2C152.51,97.87,154.9,96.5,157.75,99Z"/><path class="cls-4" d="M181.54,114.89s-1,2,1.65,1.86l2.83-1.56s.86-.31.69-1.11c0,0-.24-.47-1.12-.16Z"/><path class="cls-6" d="M111.39,131.69s.12,31.51,4.27,48.94c.62,2.59,10.12,1.8,10.12,1.8s6.19-29.8,7-41c.45-6.33,1.71-17.41,1.71-17.41S112.25,121.8,111.39,131.69Z"/><path class="cls-6" d="M116,70.55c-4.84,3.54-2.36,8.86-2.36,8.86l9.14,22.22s14.84,5.05,18.43-.1c1.64-2.35,3.16-8.58,5.15-17.56,1.35-6.11,1.44-16.77-2-19.93-2-1.82-8.4-1.78-8.45-2l-10.39,3.35Z"/><path class="cls-6" d="M135.57,99.82c.88-.16,5.62,1.71,5.62,1.71s3.42,14.56,3.61,16.77-15,13.67-32,7.15c0,0,8.59-20.26,9.85-24.49C124.05,96.1,135.57,99.82,135.57,99.82Z"/><path class="cls-9" d="M143.83,71.47s5,5.91,5.44,10.3c.23,2.45-2.85,6.54-4.4,8C143.78,90.89,137.29,75.55,143.83,71.47Z"/><path class="cls-8" d="M116.93,120.62s-6,1.34-5.46,12.33c.53,10.73,20.08,13,22.59,2.15C136.76,123.46,127.6,116.63,116.93,120.62Z"/><path class="cls-11" d="M125.87,54.42c0-3.71.06-3.48.06-3.48.08-1.09,2.21,1.25,2.16-.16-.2-6.46,2.15-9.53,3.07-10a11.35,11.35,0,0,1,7.2-1.37c3.27.58,3.14,4.93,3.14,4.93,2.79-15.92-15-10.83-15-10.83a9.84,9.84,0,0,0-7.75,10.42C117.72,52.65,126,57.7,126,57.7Z"/><path class="cls-12" d="M126.44,53.16a1.74,1.74,0,0,1-1.12.34A2.57,2.57,0,0,1,123,50.87a2.35,2.35,0,0,1,2.22-2.55,2.21,2.21,0,0,1,1.56.71,3.14,3.14,0,0,1,.48,2.6A2.38,2.38,0,0,1,126.44,53.16Z"/><path class="cls-13" d="M125.71,49.65c-.07-.75-1.59,0-1.36.39a2.29,2.29,0,0,0,.61.59,1.11,1.11,0,0,1,.46.82s0,.18,0,.21-.84-.6-1-.76a1.25,1.25,0,0,1-.18-1.2.76.76,0,0,1,.83-.56c.34,0,.69,0,.67.47,0,0,0,.08,0,0Z"/><path class="cls-13" d="M125.23,50.43c.15-.16.31,0,.47.09A.71.71,0,0,1,126,51a1.79,1.79,0,0,1-.19,1.26,1,1,0,0,1-.82.43c-.45,0-.59-.42-.61-.81,0-.1,0-.34.09-.41s.19.1.26.18a.66.66,0,0,0,.39.14.84.84,0,0,0,.68-.3.37.37,0,0,0,.07-.12c0,.25,0,.31,0,.17a.76.76,0,0,0-.09-.18c-.1-.17-.28-.29-.4-.46s-.16-.35-.08-.43Z"/><path class="cls-14" d="M133.64,47.63c.05.45-.17.83-.47.86s-.59-.31-.63-.76.17-.83.47-.86S133.6,47.18,133.64,47.63Z"/><path class="cls-14" d="M139.89,46.79c0,.45-.22.82-.53.83s-.56-.34-.58-.79.22-.83.52-.84S139.87,46.33,139.89,46.79Z"/><path class="cls-11" d="M131,47c1.18-1.23,3.94-1.13,3.94-1.13s.18,0,.13-.58c0,0,0-.49-.41-.45C134.61,44.86,131.1,44.63,131,47Z"/><path class="cls-11" d="M141.47,44.66c-1.22-1-3.48-.22-3.48-.22-.39.06-.28.54-.28.54.1.56.28.52.28.52a7.77,7.77,0,0,1,3.33-.24C141.37,45.06,141.43,44.86,141.47,44.66Z"/><path class="cls-15" d="M139.1,53.33l-4.45.82c-.23.05-.33.18-.2.31a2.81,2.81,0,0,0,4.88-.92C139.4,53.4,139.29,53.32,139.1,53.33Z"/><path class="cls-13" d="M135.9,51.93c2.33-.17,2.46-.78,2.46-.78l-1.22-2.46S137.42,51.15,135.9,51.93Z"/><path class="cls-8" d="M111.39,131.69s.12,31.51,4.27,48.94c.62,2.59,10.12,1.8,10.12,1.8s6.19-29.8,7-41c.45-6.33,1.71-17.41,1.71-17.41S112.25,121.8,111.39,131.69Z"/><path class="cls-8" d="M141.66,102.14s4.61,19.52,4,21.66c-1.78,6.14-18.33,14.76-33.43,2.19,0,0,3.45-14.44,10.62-26.66C122.84,99.33,125.47,102.05,141.66,102.14Z"/><path class="cls-9" d="M121.18,102.08s16.88,5.21,20.48.06c1.64-2.35,5.25-14.09,6.38-21.6-2.7-6.4-8.74-18.08-8.74-18.08a12.59,12.59,0,0,0-2.17-.26c2.18,8.17-.78,10.09-.78,10.09-9,.26-11.2-6.9-11.2-6.9L123,66.76s6.7,13.91-6.23,20.27C116.75,87,116.44,102,121.18,102.08Z"/><path class="cls-15" d="M126.5,53.42a.77.77,0,1,1-.77-.77A.77.77,0,0,1,126.5,53.42Z"/><path class="cls-6" d="M123.24,72.57a7,7,0,0,1-.3,9.82c-2.8,2.63-11.58,7.64-11.66,3.8-.16-7.53.14-11.63,2.93-14.25S120.61,69.78,123.24,72.57Z"/><path class="cls-6" d="M123.55,79l-6.07-3.5-6.09,3.81s-3.57,22.74-2.26,27.94c1.4,5.55,4,1.46,5.15,0C114.28,107.15,124.24,83.36,123.55,79Z"/><path class="cls-6" d="M110.05,109.42s10.91,7.8,20.6,12c0,0,3.2-1.34,1.6-2.82-2.72-2.51-14.6-13.88-17.34-16.4C110.05,100.57,110.05,109.42,110.05,109.42Z"/><path class="cls-6" d="M136.17,125.8c-3.95-1.7-4.34-2.33-5.09-3.22-3.22-3.84,2.6-4.2,4.09-4,.86.12,1.08,2.11,3.88,4.33,0,0,4.29,2,5.29,1.77,0,0,1.06.06,1.12.82C145.46,125.51,142.73,127.45,136.17,125.8Z"/><path class="cls-6" d="M135,118.54s-1.69,1.45.83,2.34l3.21-.39s.91,0,1.05-.76c0,0-.05-.53-1-.58Z"/><path class="cls-16" d="M203.35,146.83l-.14,0-.22-.05-.16,0-.16,0-.11,12.41L182,173l.13-14.82,17-11.49-.76.1-.17,0-.29.05-.19,0-.28.06-.18,0-.45.11-.12,0-.55.15-.1,0-.76.24h0l-.76.28,0,0c-.29.11-.57.23-.84.35l0,0-.83.4,0,0-.81.44h0c-.27.16-.53.33-.79.5-2.27,1.53-3.46,3.25-3.48,4.71q.08-7.4.13-14.81c0-1.47,1.21-3.19,3.48-4.72.26-.17.52-.34.79-.5h0l.81-.45,0,0,.83-.4h0q.41-.19.84-.36h0l.05,0c.24-.1.49-.19.74-.27l0,0,.75-.24.06,0h0l.54-.15.12,0,.44-.11.09,0,.1,0,.27,0,.21,0,.27-.06.15,0h0l.76-.1h.11l.65-.05h.13c.2,0,.4,0,.6,0h.7a4.93,4.93,0,0,1,.55,0h.05l.55.06h.1l.21,0,.17,0,.2,0a.58.58,0,0,1,.14,0h0l.46.13.11,0,.44.16a2.39,2.39,0,0,1,.32.16l.09.05.11.06.09,0,.1.07.16.12.09.07,0,0a1.37,1.37,0,0,1,.18.16l0,0,.12.13h0l0,0,.06.06a1.34,1.34,0,0,0,.11.14l.05.07,0,0,0,.07.09.14.06.11s.05.09.07.14l0,0,0,0,.12.25,0,0,.15.34.09.22a.93.93,0,0,0,.05.1,2.59,2.59,0,0,0,.14.29l.07.15a.56.56,0,0,1,.05.08,2.39,2.39,0,0,0,.13.21l.1.14.15.2.06.08a2.62,2.62,0,0,0,.22.25v0l.26.26.07.07.2.18.1.08.22.17.1.07.33.23h0l0,0h0l0,0h0l.06,0,0,0,.07,0,.05,0,.08,0,.08,0,.06,0,.1,0,.06,0,.16.08c.39.17.85.36,1.28.5l20.58-13.89-.13,14.82-20.58,13.89c-.43-.14-.89-.33-1.28-.5l-.17-.08h0l-.13-.06-.05,0-.1,0-.05,0-.08,0,0,0-.07,0,0,0-.06,0h0l0,0h-.06l-.33-.22-.1-.07-.21-.17-.06,0-.05,0-.19-.18-.09-.08-.25-.25h0v0c-.08-.08-.15-.17-.22-.25l-.06-.09a1.25,1.25,0,0,1-.15-.19l0-.05-.06-.09a1.59,1.59,0,0,1-.13-.22l-.06-.1-.06-.11h0l-.15-.29,0-.09-.12-.26-.13-.31,0-.05a2.56,2.56,0,0,0-.11-.24l-.05-.1-.07-.13-.06-.11-.09-.14a.61.61,0,0,1-.07-.1l-.05-.07-.11-.14-.06-.07-.16-.16,0,0-.21-.17-.09-.07-.16-.12-.11-.07-.19-.12-.09-.05-.32-.15-.44-.17-.11,0Z"/><path class="cls-17" d="M118.29,146.18l.13-14.82,26.39,11.11-.11,12.33h0l.17,0,.62.06h.07l.45,0h1.52l.63,0h.05l.56-.06h.14l.46-.07h.06l.48-.1.12,0,.42-.11.06,0,.09,0,.22-.07.11,0,.19-.07.1,0,.18-.08.09,0,.17-.09.08,0,.23-.15a2.66,2.66,0,0,0,1.17-2.41v-.72a3.35,3.35,0,0,1,.54-2.1,13.22,13.22,0,0,1,2.06-1.56l26.36,11.09L182,173,155.64,161.9a13.75,13.75,0,0,0-2.06,1.56,3,3,0,0,0-.53,1.87c0,.24,0,.48,0,.72a2.77,2.77,0,0,1-1.17,2.64l-.23.15-.08,0-.17.09-.1.05-.17.07-.1,0-.06,0-.13.05-.11,0-.22.07-.09,0h0l-.44.12h-.11l-.48.09h-.05l-.47.07h-.14l-.56,0h-.06l-.63,0h-1l-.34,0h-.17l-.49,0h0l-.64-.06-.16,0-.57-.08h-.09l-.52-.08-.09,0-.45-.08-.2,0-.33-.07-.23-.05-.31-.07-.09,0h-.07l-.86-.23-.11,0-.87-.26-.08,0-.89-.31-.05,0-.9-.36-.43-.18-.59-.27-.19-.1-.36-.19-.21-.11-.32-.18-.2-.11-.12-.07-.19-.12-.17-.11-.34-.22-.11-.08-.42-.3-.09-.08-.24-.18,0,0-.27-.24-.12-.11a3.91,3.91,0,0,1-.35-.36h0a3.88,3.88,0,0,1-.26-.31l-.08-.1-.13-.17,0,0-.05-.09-.14-.22a.41.41,0,0,0-.05-.09l0-.05c0-.08-.07-.15-.1-.23l0,0-.06-.15,0-.1s0,0,0-.06a1.74,1.74,0,0,1,0-.22.09.09,0,0,1,0-.05.11.11,0,0,0,0,0,2.09,2.09,0,0,1,0-.25v0l.09-10.54Z"/><path class="cls-18" d="M231.83,124.63,168.12,97.82l-49.7,33.54,26.39,11.11a12.2,12.2,0,0,1-1.78,1.16,14.64,14.64,0,0,1-3.26.94c-2.22.41-4.94.35-6.52,1.41-2.47,1.67-.53,4.7,4.34,6.87l.43.19c5.18,2.17,11.44,2.55,14,.83,2.07-1.39.48-3.6,1.71-5.23a13.22,13.22,0,0,1,2.06-1.56l26.36,11.09,20.56-13.87-.26-.13a24.38,24.38,0,0,0-2.71-1c-3.06-.67-7.21.15-9.86-1-3.25-1.44-2.58-4.72,1.41-7.42s10-3.82,13.22-2.45c2,.9,1.95,2.32,2.73,3.48a6,6,0,0,0,1.82,1.75c.1.06.47.24.93.45s.85.36,1.28.5Z"/><path class="cls-19" d="M173.54,185v.11a.49.49,0,0,1,0,.12.28.28,0,0,1,0,.09.37.37,0,0,1,0,.11s0,.08,0,.11,0,.06,0,.09l0,.11s0,.05,0,.08,0,0,0,0a1.94,1.94,0,0,1-.13.3h0a1.53,1.53,0,0,1-.17.27s0,0,0,0l-.21.25-.06.07a.46.46,0,0,0-.07.07l-.09.08-.08.07-.08.07-.14.11-.08.05-.17.11-.07,0-.16.08-.08,0-.26.12a6.93,6.93,0,0,1-1.06.35c-.3.07-.6.12-.92.17s-.6.08-.92.1-.87.06-1.32.07c-1,0-2,0-3,.05-.44,0-.88,0-1.3.06l.13,15.06c.42,0,.86-.05,1.3-.06,1,0,2,0,3-.05.45,0,.89,0,1.33-.07s.61-.06.91-.1a8.81,8.81,0,0,0,.92-.17,6,6,0,0,0,1.06-.35l.26-.12.07,0,.17-.09h0l0,0,.17-.12.08-.05.15-.11,0,0,0,0a.27.27,0,0,0,.08-.07l.09-.08.07-.07,0,0s0,0,0,0a1.64,1.64,0,0,0,.21-.25v0l0,0a2,2,0,0,0,.16-.28h0a2,2,0,0,0,.12-.31v0l0-.09a.36.36,0,0,1,0-.1.29.29,0,0,0,0-.09s0-.05,0-.07v0s0-.08,0-.12a.28.28,0,0,1,0-.09V200Z"/><path class="cls-19" d="M161.4,188.67h0a25.49,25.49,0,0,0-2.73,1l-.27.13.13,15.06.27-.13a26.32,26.32,0,0,1,2.73-1h0c.24-.06.48-.1.73-.14l.91-.1L163,188.43l-.91.1C161.88,188.57,161.63,188.61,161.4,188.67Z"/><path class="cls-20" d="M179.41,219l-.13-15.06-26.82,11.29.11,12.53c-3.12.37-5.92.08-7.43-.94a2.72,2.72,0,0,1-1.18-2.45c0-.25,0-.49,0-.74a3.33,3.33,0,0,0-.54-2.12,12.65,12.65,0,0,0-2.1-1.59l-26.79,11.27.13,15.06,26.8-11.27a12.43,12.43,0,0,1,2.09,1.59,3.07,3.07,0,0,1,.54,1.89c0,.24,0,.49,0,.74a2.8,2.8,0,0,0,1.19,2.68c2.58,1.75,8.95,1.37,14.21-.85l.44-.19c3.5-1.56,5.51-3.56,5.5-5.2q0-5.35-.1-10.72Z"/><path class="cls-19" d="M171.53,187.63l.13,15.06c-2.8,1.18-7,.35-10.13,1a23.5,23.5,0,0,0-2.75,1l-.27.13-.13-15.06.27-.13a23.5,23.5,0,0,1,2.75-1C164.51,188,168.73,188.81,171.53,187.63Z"/><polygon class="cls-19" points="114.52 231.15 64 197.06 64.14 212.12 114.65 246.21 114.52 231.15"/><path class="cls-21" d="M164.21,218.76c-1.61-1.09-4.38-1-6.64-1.43a15.09,15.09,0,0,1-3.31-1,11.3,11.3,0,0,1-1.8-1.17l26.82-11.29-20.9-14.1.27-.13a23.5,23.5,0,0,1,2.75-1c3.11-.69,7.33.14,10.13-1,3.19-1.42,2.52-4.75-1.54-7.49s-10.12-3.89-13.54-2.45c-1.95.87-1.88,2.31-2.67,3.5a6.23,6.23,0,0,1-1.86,1.77,9.7,9.7,0,0,1-.95.46,12.19,12.19,0,0,1-1.28.51l-20.93-14.12L64,197.06l50.52,34.09,26.79-11.27a12.65,12.65,0,0,1,2.1,1.59c1.25,1.64-.37,3.89,1.73,5.31,2.59,1.75,9,1.36,14.22-.85l.43-.19C164.74,223.54,166.72,220.46,164.21,218.76Z"/><path class="cls-1" d="M298.36,276.49c0,8.95,16.3,16.2,36.4,16.2s36.39-7.25,36.39-16.2-16.3-16.19-36.39-16.19S298.36,267.55,298.36,276.49Z"/><path class="cls-22" d="M322.5,272.86a19.71,19.71,0,0,1-6.81,4,5.82,5.82,0,0,1-5.68-1.46,1.1,1.1,0,0,1,.17-1.67c7.53-5.72,9.79-7.35,9.79-7.35h6.91a15.61,15.61,0,0,1,.15,3.9,6,6,0,0,1-3.79,2.3c-.14,0-.41-.18-.54-.13Z"/><path class="cls-23" d="M310.15,273.73a2,2,0,0,0,.14.47,3.79,3.79,0,0,0,3.5,1.75,10.14,10.14,0,0,0,4.31-1.46,19.1,19.1,0,0,0,3.56-2.42,10.67,10.67,0,0,1,2.7-1.35,13.79,13.79,0,0,0,2.72-1.83c0,.75-.05,1.36-.05,1.36a6,6,0,0,1-3.79,2.3c-.14,0-.41-.18-.54-.13l-.2.44a19.71,19.71,0,0,1-6.81,4,5.82,5.82,0,0,1-5.68-1.46A1.08,1.08,0,0,1,310.15,273.73Z"/><path class="cls-4" d="M327.64,210.27c-7.69,8.49-10.73-.49-10.73-.49l-1-52.19c-.1.78-.35-5.26,9.36-4s12.13,5.08,12.13,5.08-5.33,36-9.8,51.55"/><path class="cls-4" d="M316.86,209.12s3.9,55,4.22,56.89c0,0,4.74,1.05,4.76,0,.06-2.64,5.47-34.8,5.54-38.94.18-10.47-2.52-12.45-5.22-19.5C326.16,207.53,316.84,200.63,316.86,209.12Z"/><path class="cls-24" d="M330,212.25c4.47-15.51,7.48-53.53,7.48-53.53s-2.45-3.78-12.13-5.08-9.46,4.73-9.36,4c0,0-2.94,28.3-.24,54C315.71,211.61,324,216,330,212.25Z"/><path class="cls-6" d="M344.63,129.6c1.38,4.89,7,23.52,7,23.52-20.27,24.25-35.54,3-35.74.82-.24-2.65,2.71-12.76,3.25-23.66C319.18,130.28,324.7,121.77,344.63,129.6Z"/><path class="cls-24" d="M316.05,160c-1-6.53,1-13.12,2.05-19.72h29.69c1.9,6.33,3.88,12.83,3.88,12.83s1.27,15-11.45,16.76C340.22,169.88,318.06,173.73,316.05,160Z"/><path class="cls-6" d="M349.82,211.41c-6.35,9.54-10.69,1.11-10.69,1.11l-10.3-50.84c0,.78.31-6.62,10.1-6.77s12.76,3.23,12.76,3.23.25,37.27-1.87,53.27"/><path class="cls-6" d="M339,211.87s10.2,57.92,10.8,59.78c0,0,4.84.33,4.7-.75-.33-2.61.54-39.13,0-43.23-1.38-10.39-2.82-12.17-6.53-18.75C348,208.92,337.71,203.48,339,211.87Z"/><path class="cls-22" d="M349.31,270.53l-2.86,8.75s.59,7.83,6.87,3l1.87-1.81a2,2,0,0,0,.67-1.92l-.55-3.35-.67-4.64S350.7,267.86,349.31,270.53Z"/><path class="cls-23" d="M353.32,281.14l1.87-1.82a1.94,1.94,0,0,0,.64-1l0,.2a2,2,0,0,1-.67,1.92l-1.87,1.81c-6.28,4.86-6.87-3-6.87-3l.11-.35C346.91,280.78,348.29,285,353.32,281.14Z"/><path class="cls-25" d="M337.87,213.92C334.29,203.43,327.54,160,327.54,160c0,.78,2-10.37,11.82-10.51s12.31,3.62,12.31,3.62,3.06,42.49.93,58.49C352.6,211.61,345.72,219.56,337.87,213.92Z"/><path class="cls-4" d="M320.68,96.2s-16.58,19.51-24.83,26c0,0-5.54-2-5.37-5.81,0,0,12.14-18,19.76-28.59C310.24,87.77,320.55,84.8,320.68,96.2Z"/><path class="cls-4" d="M292.88,114.73s-18.11,10.54-25.61,14.06c0,0-1.35,2.11.83,2.31,3.63.33,28.86-8.21,29.48-10.2C300.45,111.65,292.88,114.73,292.88,114.73Z"/><path class="cls-4" d="M309.43,94a6.76,6.76,0,0,0,8.63,4A6.66,6.66,0,0,0,322,89.41a6.76,6.76,0,0,0-8.64-4A6.67,6.67,0,0,0,309.43,94Z"/><path class="cls-26" d="M317.71,85a8.87,8.87,0,0,0-10,3.73l-14.47,21a24,24,0,0,0,10,10.33S329.19,96.23,317.71,85Z"/><path class="cls-12" d="M334.46,78s1.2-2.29,3.83-6.7c0,0,5.61-5.76,2.47-13,0,0-1.73-6-12.31-5.17C328.45,53.13,327.44,69.78,334.46,78Z"/><path class="cls-6" d="M334.88,68.57s-1.78,16.59,2,17.85l-13.54-.81s2.13-5-.34-8.71Z"/><path class="cls-7" d="M324.11,82.71c.22-3.79-.25-4.56-1.09-5.81l11.86-8.33a81.14,81.14,0,0,0-.37,10.22C331.07,82,328.24,82.8,324.11,82.71Z"/><path class="cls-6" d="M313.82,85c-3,2.2-3.36,7.46-2.28,10.75,1.23,3.78,1.72,8.6,3,14.06,1.67,7.41,2.81,13.11,4.68,20.46,1.54,6.08,26,1.18,26,1.18l8.75-29.92s1.51-7.81-5.56-10.41a105.69,105.69,0,0,0-12.92-5.88c-4.82-1.63-6.56-1.78-11.51-1.48C323.92,83.77,317.29,84,313.82,85Z"/><path class="cls-27" d="M318.17,54.39c-.7,3.18-1.49,4.84-.61,7.76.79,2.62.61,5.38,1.75,7.92,1.64,3.62,3.76,3.15,5.39-.18s3.39-8-.36-10.55c-2.41-1.63-3.28-4.42-6.17-5Z"/><path class="cls-12" d="M320.26,79.26l-.56-1.87-1.42-6.94a7,7,0,0,1,.11-2.89,7,7,0,0,0,.24-3c-.85-5,1.86-7.56,1.86-7.56,3.1-4.41,9.9-4.06,9.9-4.06,8.39.84,8.69,9,8.69,9,1.1,5.48-3.44,9.77-3.45,9.78-.36.35-.27,2.14-.4,2.64-.56,2.14-2.69,3.36-4.57,4.19a20.19,20.19,0,0,1-6.82,1.94C323,80.59,320.59,80.34,320.26,79.26Z"/><path class="cls-27" d="M318.45,70.32c1.1,1,2.6.54,3.78,1.26a2,2,0,0,0,2,.2,3.09,3.09,0,0,1,1.9.06c.7.2,2,.81,2.65,1.09a2.51,2.51,0,0,0,3-.7,6,6,0,0,0,1.57-2.47c.73-2.27,3-2.41,4.6-1.13a13.35,13.35,0,0,1-2.31,3.15c-.36.35-.27,3.62-.4,4.12-.56,2.14-2.69,3.36-4.57,4.19-2.06.9-5.21,1-7.47,1.12a3.59,3.59,0,0,1-2.93-1.95l-.56-1.87-1.42-6.94c0-.12,0-.26-.06-.39A2.85,2.85,0,0,0,318.45,70.32Z"/><path class="cls-27" d="M318.29,57.35c1.9,0,1.88,1.59,3.34,2.47,3.12,1.9,8-.88,10.48,2.2a6.27,6.27,0,0,1,.64,1,14.61,14.61,0,0,1,1.2,4.6c.07.46-.27,1.62.14,2a1.18,1.18,0,0,0,1.08,0c.09.69-.47,1.23-.71,1.87s-.62,1.18-.28,1.83c.88,1.66.21,1.39.28,4.73a14.7,14.7,0,0,1,2.3-2.12,16.62,16.62,0,0,0,3.25-3.6,22.89,22.89,0,0,0,2-4.33,12.25,12.25,0,0,0,.7-7.62s-.58-5.93-5.54-6.57c0,0,.63-3.82-8.44-4.83,0,0-7.16.11-7.55-2.36a3.52,3.52,0,0,0-1.09,3.15,3.52,3.52,0,0,1-4.27-2.47S313.35,56.11,318.29,57.35Z"/><path class="cls-12" d="M334.34,73.18a1.5,1.5,0,0,0,1,.57c1.13.21,2.26-.85,2.52-2.35s-.43-2.89-1.56-3.09a1.78,1.78,0,0,0-1.51.47,3.79,3.79,0,0,0-.87,2.65A2.81,2.81,0,0,0,334.34,73.18Z"/><path class="cls-13" d="M335.55,69.64c.18-.79,1.7.17,1.4.59a2.42,2.42,0,0,1-.72.55,1.16,1.16,0,0,0-.6.81s0,.19,0,.22c.2.17,1-.52,1.14-.67a1.33,1.33,0,0,0,.35-1.25.81.81,0,0,0-.81-.71c-.37,0-.74,0-.77.42,0,0,0,.08,0,0Z"/><path class="cls-13" d="M336,70.53c-.15-.19-.32-.07-.51,0a.75.75,0,0,0-.35.43,1.93,1.93,0,0,0,0,1.36,1,1,0,0,0,.81.56c.49,0,.69-.37.76-.77,0-.11,0-.37-.05-.45s-.21.08-.29.15a.67.67,0,0,1-.43.1.87.87,0,0,1-.69-.41.52.52,0,0,1-.06-.13c0,.27,0,.33,0,.19a.57.57,0,0,1,.12-.18,5.12,5.12,0,0,1,.49-.44c.06-.08.21-.35.14-.45Z"/><path class="cls-13" d="M322.68,69.91l2.28.88s-3.08.19-3.2-.7c0,0,.47-1.76,1-3.41C322.73,66.68,322.34,69.77,322.68,69.91Z"/><path class="cls-27" d="M326.67,66.68c0,.48.27.87.59.87s.6-.39.6-.87-.27-.88-.6-.88S326.67,66.19,326.67,66.68Z"/><path class="cls-27" d="M320.07,65.94c0,.49.27.88.6.88s.59-.39.59-.88-.27-.87-.59-.87S320.07,65.46,320.07,65.94Z"/><path class="cls-27" d="M326.05,65c-.21,0-.26-.24-.26-.24a1,1,0,0,1,0-.52.5.5,0,0,1,.25-.25,7.15,7.15,0,0,1,2.53.33c.5.15,1.32.52,1.37,1,0,.14,0,.38-.13.42A21.12,21.12,0,0,0,326.05,65Z"/><path class="cls-27" d="M318.55,64.23a17.16,17.16,0,0,1,2.95.31c.19.1.32-.16.32-.16a1,1,0,0,0,.13-.5.51.51,0,0,0-.18-.32,5.51,5.51,0,0,0-2.19-.34,3.91,3.91,0,0,0-1.09.15A2,2,0,0,0,318.55,64.23Z"/><path class="cls-15" d="M321.4,72.7c-.19,0-.29.08-.22.22a2.83,2.83,0,0,0,4.89.59c.11-.13,0-.25-.22-.28C325.85,73.23,323.36,72.91,321.4,72.7Z"/><path class="cls-25" d="M349.62,147.19a18.44,18.44,0,0,1,0,17.8c-5.2,9.41-21.08,6-21.13-6.2S339.4,142.15,349.62,147.19Z"/><path class="cls-26" d="M323.92,83.77s-6.63.25-10.1,1.24c-3,2.2-3.36,7.46-2.28,10.75,1.23,3.78,1.72,8.6,3,14.06,1.67,7.41-.44,12.82,1.43,20.17,1.54,6.08,33.88,0,33.88,0l4.1-28.45s1.51-7.81-5.56-10.41a97.68,97.68,0,0,0-12.58-5.76s.85,5.76-8.53,4.17C327.24,89.54,321.51,88.15,323.92,83.77Z"/><path class="cls-26" d="M349.81,130c1.37,4.89,2.45,21.35,2.45,21.35-3.71,15.42-37.91,4.33-38.11,2.11-.24-2.64.81-15.24,1.34-26.14C315.49,127.31,329.88,122.16,349.81,130Z"/><path class="cls-6" d="M339.73,102.27c2.23,4.53,10.51,27.44,13.17,31.06.71,1,7.54,5.36,9.07-.64-3.76-23.77-9.45-37.33-9.45-37.33s-6.65-5.54-12-.42C340.56,94.94,338.15,99.12,339.73,102.27Z"/><path class="cls-6" d="M338.79,98.21A8,8,0,1,0,348,91.65,8,8,0,0,0,338.79,98.21Z"/><path class="cls-26" d="M346.67,90.25s6.88,2.58,8.51,8.16l4.24,15.18s-5.56,8.08-13.85,7.82l-8.18-18.19S331.88,93,346.67,90.25Z"/><path class="cls-4" d="M258.68,133.68l2.11-.06s-3.86,1-5.1-.26c0,0-.32-.2.17-.64a29.69,29.69,0,0,0,4.92-.55,21.6,21.6,0,0,1-5.78.57s-.95-.62.07-1.18c-.77-.3-.11-.8-.11-.8a13.09,13.09,0,0,1,2.3-.89,55.92,55.92,0,0,0,5.27-2.05s-2.23-1.46-1.4-2.64l3.44,1.82,3.11,2,.42,2.11-3.24,2.25a20.26,20.26,0,0,1-4.93,1.32S254.83,134.49,258.68,133.68Z"/><path class="cls-25" d="M337.87,213.92l8.89,55.42s2.95,2.84,9.79,0l1.13-27.08s2-17.89-5.08-30.65C352.6,211.61,338.65,200.35,337.87,213.92Z"/><path class="cls-24" d="M330,212.25s3.79,5.47.39,26l-3.47,28.07a9.25,9.25,0,0,1-8.48.11l-2.8-55.92S318.11,201,330,212.25Z"/><g class="cls-28"><path class="cls-29" d="M265.07,144.59a2.16,2.16,0,0,0-1.09-1.78,2.71,2.71,0,0,0-.37-.21l-.12-.06-.28-.13-.07,0-.07,0c-.15-.06-.31-.12-.48-.17h0l-.51-.13-.06,0h-.07c-.21-.05-.42-.09-.64-.12h-.07l-.67-.1h-.07l-.72-.09h0l-.58-.07-.69-.08-.12,0-.66-.09-.33-.06-.68-.14-.13,0-.49-.12h0l-.49-.13-.16-.05-.33-.1-.16-.06a2.19,2.19,0,0,1-.33-.12l-.13,0-.4-.17a11.8,11.8,0,0,1-1.81-1.18l.13,15.06a12.31,12.31,0,0,0,1.81,1.18l.4.17h0l.1,0,.33.12.16.05.34.11.1,0h.05l.49.14h0l.51.12h.11l.69.14.28.05h.06l.65.09.13,0,.67.08h0l.44.05.18,0,.73.09h.05l.68.1h.08l.63.12.13,0,.52.13.48.17.14.05.28.13.12.06a2.22,2.22,0,0,1,.37.21,2.14,2.14,0,0,1,1.09,1.79Z"/><path class="cls-29" d="M243.25,177.76l.15,0,.21,0,.18,0,.15,0,.11,12.62,20.9,14.1-.14-15.06L247.5,177.61l.76.1.18,0,.29.06.2,0,.28,0,.19.05.45.11.12,0,.56.15.11,0,.76.25h0l.75.28.06,0c.29.11.58.23.86.36l0,0c.28.13.56.26.84.41h0c.28.14.55.3.82.45h0c.27.16.54.33.79.51,2.31,1.55,3.53,3.3,3.54,4.79q-.07-7.53-.13-15.06c0-1.49-1.23-3.24-3.54-4.79-.26-.18-.52-.35-.8-.51h0c-.27-.16-.54-.31-.82-.45l0,0c-.28-.14-.56-.28-.84-.4l0,0c-.29-.13-.57-.25-.86-.36h-.06c-.25-.1-.5-.2-.76-.28l0,0-.77-.24-.06,0h0l-.56-.16-.12,0-.46-.11-.08,0-.1,0-.28-.07-.2,0-.29-.06-.14,0h0l-.77-.11h-.1l-.67-.06h-.13c-.4,0-.8,0-1.19,0h-.13l-.56,0h-.05a5.32,5.32,0,0,0-.56.06h-.1l-.23,0-.15,0-.23,0-.12,0h0l-.48.13-.1,0a4.72,4.72,0,0,0-.45.16l-.33.16-.09.06-.11.06-.09.05a.41.41,0,0,1-.11.07l-.16.12-.09.07,0,0-.18.15,0,0-.13.14,0,0-.06.07a.76.76,0,0,0-.11.14l-.05.06,0,0-.05.07-.09.14-.06.11-.08.14s0,0,0,0l0,.05a2.56,2.56,0,0,0-.11.24l0,.06c-.05.1-.09.21-.14.32a2.72,2.72,0,0,1-.11.25.36.36,0,0,1,0,.09c0,.1-.09.2-.14.3a1.09,1.09,0,0,1-.08.15.43.43,0,0,1,0,.07c0,.08-.09.15-.14.23l-.09.13-.15.2L239,167c-.07.08-.14.17-.22.25s0,0,0,0a3.19,3.19,0,0,1-.26.26l-.08.08-.2.18-.1.09-.22.16-.1.08-.34.23,0,0h0l0,0,0,0-.06,0,0,0-.06,0,0,0-.06,0-.07,0-.07,0-.08,0-.11.05,0,0-.17.08c-.4.17-.86.37-1.29.51L214.3,155.2l.13,15.06,20.92,14.12a13.31,13.31,0,0,0,1.29-.51l.32-.15h0l.13-.06h0l.09-.05,0,0,.07,0,0,0,.06,0,0,0,0,0,0,0,0,0h0a4,4,0,0,0,.34-.23l.1-.07.22-.17.05-.05a.1.1,0,0,0,0,0l.2-.18.09-.08a3.07,3.07,0,0,0,.25-.26h0v0c.08-.08.15-.17.22-.25l.07-.09.15-.2,0-.05.05-.08.14-.22,0-.09.07-.13h0c.05-.1.1-.2.14-.3l0-.09c0-.08.07-.16.1-.25l.15-.33,0,0a1.92,1.92,0,0,1,.12-.25l0-.1a.64.64,0,0,0,.08-.14l.06-.11.09-.14a1,1,0,0,0,.08-.11l.05-.06a.76.76,0,0,1,.11-.14l.06-.07a1.29,1.29,0,0,1,.16-.17l0,0,.21-.19.09-.07.17-.11.1-.08.2-.11.09-.05a2.53,2.53,0,0,1,.33-.16,4.7,4.7,0,0,1,.45-.17l.11,0Z"/><polygon class="cls-30" points="329.57 162.04 329.7 177.1 264.95 204.35 264.81 189.29 329.57 162.04"/><path class="cls-31" d="M214.3,155.2l26.78-11.27a12.32,12.32,0,0,1,2.1,1.59c1.25,1.65-.36,3.9,1.74,5.31,2.59,1.75,9,1.37,14.21-.85l.44-.18c4.94-2.21,6.93-5.29,4.41-7-1.61-1.08-4.38-1-6.63-1.43a14.93,14.93,0,0,1-3.31-1,11.8,11.8,0,0,1-1.81-1.18L279.05,128,329.57,162l-64.76,27.25-20.9-14.1.26-.12a29,29,0,0,1,2.76-1c3.12-.68,7.33.15,10-1,3.3-1.47,2.62-4.8-1.44-7.54s-10.12-3.89-13.43-2.5c-2.06.92-2,2.36-2.78,3.55a6.18,6.18,0,0,1-1.85,1.77c-.1.05-.48.25-1,.46s-.86.37-1.29.51Z"/></g><path class="cls-12" d="M123.49,226.17s2.22-1.44.09-4.09c-5.5-.35-12-3.32-12-3.32C103.53,216.22,92.17,203.7,87,198c-5.81-6.39-14.6-1-9.88,6.33C86,218,109.15,227,123.37,226.47"/><path class="cls-32" d="M63.31,289.7c3.38-15.78,4.39-52.33,4.39-52.33s-2.71-3.6-12.46-4.22-9.1,5.37-9.05,4.59a340.38,340.38,0,0,0,4.48,51.34S57.62,293.88,63.31,289.7Z"/><path class="cls-33" d="M46.28,239.53c-1-6.53,1-13.11,2.06-19.71H78c1.9,6.32,3.88,12.82,3.88,12.82s1.27,15-11.45,16.77C70.46,249.41,48.3,253.25,46.28,239.53Z"/><path class="cls-1" d="M28.85,353.5c0,12.58,22.94,22.79,51.23,22.79s51.22-10.21,51.22-22.79-22.94-22.79-51.22-22.79S28.85,340.91,28.85,353.5Z"/><path class="cls-22" d="M109.87,352.67l-1.69-.09c-.58-.09-.57.81-.65.84a17.79,17.79,0,0,1-4,1.27s-3.13-.4-3.46-1.35l.44-5.81c3.49-.29,7.13-1,7.13-1l7.66-1.07c3.69-.39,4.36.95,4.36.95S121.91,349.81,109.87,352.67Z"/><path class="cls-34" d="M105.22,352.33a9.56,9.56,0,0,1,2-.65c3.78-.66,7.48-1,10.63-3.46A3.16,3.16,0,0,0,119.2,346a1.41,1.41,0,0,1,.45.44s2.26,3.37-9.78,6.23l-1.69-.09c-.58-.09-.57.81-.65.84a17.79,17.79,0,0,1-4,1.27s-3.13-.4-3.46-1.35l.11-1.42A6,6,0,0,0,105.22,352.33Z"/><path class="cls-22" d="M58.66,351.24l-1.69-.1c-.57-.09-.57.81-.65.85a19.08,19.08,0,0,1-4,1.27s-3.13-.41-3.47-1.36l.44-5.8c3.49-.3,7.13-1,7.13-1l7.67-1.08c3.68-.38,4.35.95,4.35.95S70.7,348.37,58.66,351.24Z"/><path class="cls-34" d="M54,350.89a9,9,0,0,1,2-.64c3.79-.67,7.48-1,10.63-3.47A3.14,3.14,0,0,0,68,344.57a1.21,1.21,0,0,1,.45.43s2.26,3.37-9.78,6.24l-1.69-.1c-.57-.09-.57.81-.65.85a19.08,19.08,0,0,1-4,1.27s-3.13-.41-3.47-1.36l.11-1.41A6.07,6.07,0,0,0,54,350.89Z"/><path class="cls-32" d="M58,346.52C59.27,345,63.39,290,63.39,290c.68-8.47-13.39-4.91-13.39-4.91-2,8.42-1.72,10-2.36,20.46-.25,4.13.4,38.33.25,41C47.89,346.48,54.42,350.81,58,346.52Z"/><path class="cls-35" d="M68.81,227.47s8.45,14.38,3.25,23.79S45,250.43,46.3,239.54C47.78,227.59,58.6,222.42,68.81,227.47Z"/><path class="cls-6" d="M74.87,209.13c1.37,4.88,7,23.51,7,23.51-15.52,14.63-35.54,3-35.74.82-.24-2.64,2.71-12.75,3.25-23.65C49.42,209.81,54.94,201.3,74.87,209.13Z"/><path class="cls-35" d="M93.54,287c-1.65-16.06-13.09-57-13.09-57s-3.34-3.08-12.81-.68-10.51,14.77-10.71,14c0,0,11,25.92,25.68,48.76C82.61,292.05,89.69,295.68,93.54,287Z"/><path class="cls-35" d="M107.82,345.91c-.27-1.94-14.55-59.47-14.55-59.47-3.36-7.09-13,.38-13,.38a61.44,61.44,0,0,0,3.5,21.29c1.31,3.93,13.45,39.45,14.3,41.95C98.05,350.06,105.22,352.33,107.82,345.91Z"/><path class="cls-4" d="M38.24,171.84s-1.54,25.84-.56,36.27c0,0,0,4.74,8.35,7.12,0,0,3-28.77,5.51-41.61C51.54,173.62,46.61,164.1,38.24,171.84Z"/><path class="cls-4" d="M47.56,178.52A6.77,6.77,0,0,1,38.71,175a6.68,6.68,0,0,1,3.56-8.78,6.77,6.77,0,0,1,8.85,3.53A6.67,6.67,0,0,1,47.56,178.52Z"/><path class="cls-36" d="M44.06,164.53A8.85,8.85,0,0,0,37.63,173l-1,25.47a24,24,0,0,0,14,3.36S59.74,167.84,44.06,164.53Z"/><path class="cls-6" d="M67.1,148.36s.05,9.1.85,18.16l-12-2a8.87,8.87,0,0,0-.72-7.84Z"/><path class="cls-6" d="M44.06,164.53c-3,2.2-3.36,7.47-2.29,10.76,1.24,3.78,1.73,8.6,3,14.06,1.67,7.4,2.81,13.1,4.68,20.46,1.54,6.08,26,1.18,26,1.18l8.75-29.93s1.51-7.81-5.57-10.41a105.84,105.84,0,0,0-12.91-5.87c-4.82-1.64-6.56-1.79-11.51-1.48C54.16,163.3,47.53,163.54,44.06,164.53Z"/><path class="cls-35" d="M79.85,226.72a18.43,18.43,0,0,1,0,17.8c-5.2,9.4-21.07,6-21.12-6.21S69.64,221.67,79.85,226.72Z"/><path class="cls-36" d="M54.16,163.3s-6.63.24-10.1,1.23c-3.14,2.29-3.08,6.79-2.48,10.2,1.16,6.51,2.33,13.09,2.94,19.67.26,2.92,1,8.86,1.21,11.78s1.11,4.4,4,5.9c2.2,1.14,3.84.23,6.24.3a123.25,123.25,0,0,0,18.2-1.25c.25,0,9.7,6.34,6.59,1.65l3.38-31.72s1.51-7.81-5.57-10.41a56.27,56.27,0,0,0-10.43-5S58.66,165.93,54.16,163.3Z"/><path class="cls-12" d="M71.14,158.87l.51-2,1.21-7.28a7.25,7.25,0,0,0-.23-3,7.51,7.51,0,0,1-.37-3.07c.7-5.22-2.22-7.81-2.22-7.81-3.41-4.47-10.48-3.85-10.48-3.85-3.67.56-6.87,2.08-8.7,5.42-1.65,3-2.55,6.74-1.57,10.13a20.45,20.45,0,0,0,5.91,9.24c1.76,1.69,3.56,1.9,5.87,2.74a23.73,23.73,0,0,0,6.38.94C68.35,160.35,70.84,160,71.14,158.87Z"/><path class="cls-37" d="M69.74,138.75l-1.13,4.52c-1.29.57-1.8,1.06-1.62,2.76l.4,3.73-1,.39c.08-1.49-2-1.52-2-1.52-1.52-.08-1.78,1.21-1.69,2.45.22,3.24-1,8.37-3.66,9.27-1.07.36-3.09.73-3.43-.72-.41-1.77-3.77-5.29-3.77-5.29-4-3.91-5-10.57-3.13-15.66a12.23,12.23,0,0,1,2.89-4.28,15.55,15.55,0,0,1,9-4s4.59-.56,7.18,1.25a14.92,14.92,0,0,1,3.34,3.05S72.11,136.76,69.74,138.75Z"/><path class="cls-12" d="M66,153.32a1.88,1.88,0,0,1-1.18.45,2.74,2.74,0,0,1-2.66-2.65,2.51,2.51,0,0,1,2.19-2.88,2.37,2.37,0,0,1,1.72.66,3.41,3.41,0,0,1,.68,2.74A2.51,2.51,0,0,1,66,153.32Z"/><path class="cls-13" d="M65,149.63c-.13-.8-1.71.07-1.43.51a2.46,2.46,0,0,0,.69.59,1.19,1.19,0,0,1,.55.84c0,.05,0,.19,0,.22-.2.16-.93-.58-1.1-.73a1.36,1.36,0,0,1-.27-1.27.8.8,0,0,1,.85-.66c.36,0,.74,0,.74.45,0,0,0,.09,0,0Z"/><path class="cls-13" d="M64.55,150.5c.16-.19.33-.06.51.06a.76.76,0,0,1,.32.45,1.86,1.86,0,0,1-.12,1.35,1,1,0,0,1-.84.52c-.49,0-.66-.4-.71-.82,0-.1,0-.37.07-.44s.21.09.29.17a.8.8,0,0,0,.42.13.93.93,0,0,0,.71-.37.83.83,0,0,0,.07-.13c0,.27,0,.33,0,.18a.52.52,0,0,0-.1-.18c-.12-.18-.32-.3-.46-.47s-.2-.36-.12-.45Z"/><path class="cls-6" d="M132,223.42c-.62-.92-.08-1.4-1.34-1.44-1.43,0-2.71-.75-3.69-.73-1.69.05-8.09,1.54-3.8,5.21,1,.85,3.86,4.68,5.84,3.54,2.93-1.67,1.94-1.05,3.42-4.7Z"/><path class="cls-6" d="M72.26,176.42a7.51,7.51,0,1,0,10.38-2.26A7.51,7.51,0,0,0,72.26,176.42Z"/><path class="cls-36" d="M81.68,204.26c1,10.24,1.61,35.33,1.61,35.33-3.64,9.7-38.32,1.51-38.52-.7-.24-2.65.47-21.29,1-32.19A41.79,41.79,0,0,1,81.68,204.26Z"/><path class="cls-36" d="M77,169.8c9.14,2.57,10.27,13.62,10.27,13.62l4.13,18.16S81,209.81,74.65,207.49a135,135,0,0,1-6.77-27.36S68,170.1,77,169.8Z"/><path class="cls-37" d="M71.68,138.65c-1,.83-2.34.28-3.52,0-1.61,1.89.31,3.77-2.12,4.69a27.28,27.28,0,0,1-4.63.85c-1.14.18-2.3-.08-3.11.77s0,3.8-1.09,4.35c-1.83,1-3.26-4-5.59-3.64-2,.34-2.34,3.49-1.64,5a2.31,2.31,0,0,0-.52-.35c-1-2.47-2.15-2.51-3.2-4.27-1.62-2.72-1.34-2.07-1.67-4.68,0,0,.32-1.14.33-1.16.76-2.78,2.06-3.25,2.68-4.43a23.07,23.07,0,0,1,2.52-3.22c.78-1,1.17-2.37,2.06-3.27A9.72,9.72,0,0,1,57.63,127c2-.26,3.92,1,5.91.64.82-.15,1.58-.89,2.4-.84,1,.06,1.69,1,2.55,1.44,1.61.72,4.14.43,5.51,1.56s1.19,3,.26,4.58c-.52.86-1.59,1.36-2.06,2.25C72.07,136.9,71.72,138.62,71.68,138.65Z"/><path class="cls-6" d="M353.89,131.35a282.3,282.3,0,0,0-14.91,31s.13,3.13,2.42,2.16,20.87-27.25,20.88-29.64C362.33,128.68,353.89,131.35,353.89,131.35Z"/><path class="cls-6" d="M334.54,168.57l2-.68s-3.4,2.09-5,1.26c0,0-.36-.09,0-.67a29.53,29.53,0,0,0,4.53-2,21.74,21.74,0,0,1-5.35,2.26s-1.09-.32-.28-1.15c-.82-.06-.34-.74-.34-.74a13.43,13.43,0,0,1,1.93-1.53,53.58,53.58,0,0,0,4.43-3.52s-2.56-.73-2.11-2.1l3.82.71,3.56,1,1,1.89-2.43,3.11a20.44,20.44,0,0,1-4.31,2.72S331.1,170.49,334.54,168.57Z"/><path class="cls-38" d="M250.63,218.79a2.58,2.58,0,0,1,1.44-2l.12-.06.28-.13.07,0,.06,0,.47-.16h0l.5-.13.06,0h.08l.61-.12h.09l.63-.09h.08l.7-.09h0l.15,0,.47-.05.65-.08.13,0,.63-.09.33-.06.67-.13.13,0,.48-.12h0l.48-.13.14,0,.33-.11.16,0,.32-.12.13-.05.4-.17a11.62,11.62,0,0,0,1.78-1.15l-.13,14.81a11.88,11.88,0,0,1-1.78,1.16l-.41.17,0,0-.09,0-.32.12-.16,0-.33.1-.1,0-.05,0-.47.13h0l-.48.12h-.13l-.67.14-.27.05h-.06l-.63.09-.14,0-.63.07h0l-.44.05-.22,0-.69.08-.08,0q-.31,0-.63.09h-.09l-.61.12-.13,0-.51.13h0l-.47.16-.13.05-.28.13-.12.06a2.58,2.58,0,0,0-1.44,2Z"/><path class="cls-38" d="M192.76,232.76s0-.06,0-.08,0-.06,0-.08a0,0,0,0,1,0,0s0-.08,0-.11a.28.28,0,0,1,0-.09s0-.09,0-.13v-.1l.13-14.82v.1c0,.05,0,.09,0,.13s0,.06,0,.09,0,.07,0,.11a.43.43,0,0,1,0,.11s0,0,0,.08l0,.11s0,0,0,.08,0,0,0,0,.08.2.12.3h0a1.91,1.91,0,0,0,.16.27l0,0,.2.25.06.07a.23.23,0,0,1,.07.07l.09.08.08.07.07.06.14.11.08.05.17.11.07,0,.16.09.07,0,.26.12.52.2.18,0,.38.1.1,0,.43.09.17,0,.42.05.13,0,.55.06.35,0,.3,0h3.73l.34,0h.32l.32,0h.11l.36,0h.07l.47.06h0c.23,0,.45.07.67.12h.15l.07,0,0,0,.08,0,0,0,.09,0,.06,0,.1,0,.06,0,.12,0,.06,0,.12,0,.07,0,.11,0,.09,0,.11,0,.1,0,.11,0,.1,0,.11,0,.09,0,.12,0,.09,0,.11,0,.1,0,.12.05.08,0,.19.08.27.12-.13,14.82-.27-.12-.19-.08-.06,0-.14-.06-.08,0-.13-.05-.09,0-.12,0-.09,0-.12,0-.09,0-.11,0-.1,0-.11,0-.09,0-.1,0-.1,0-.09,0-.1,0-.08,0-.08,0-.08,0-.08,0-.07,0-.07,0-.06,0-.06,0,0,0h-.16c-.22,0-.44-.09-.67-.12l-.51-.07h-.09l-.46,0-.32,0-.32,0H198.2l-.31,0-.33,0h0l-.52,0-.13,0-.25,0h0l-.17,0-.17,0-.43-.08-.11,0h0l-.35-.1-.18,0a4.6,4.6,0,0,1-.52-.19l-.25-.12-.09-.05-.15-.08h0l0,0-.17-.1-.08-.06-.14-.1s0,0,0,0h0l0,0-.08-.06-.09-.09-.07-.07,0,0,0,0-.2-.25v0l0,0a1.2,1.2,0,0,1-.16-.27h0a1.48,1.48,0,0,1-.12-.29s0,0,0,0h0v0s0-.05,0-.07Z"/><polygon class="cls-39" points="187.18 235.96 187.04 250.78 250.76 277.59 250.89 262.77 187.18 235.96"/><polygon class="cls-38" points="250.89 262.77 250.76 277.59 300.46 244.05 300.59 229.23 250.89 262.77"/><path class="cls-40" d="M300.59,229.23l-26.36-11.09a13.22,13.22,0,0,0-2.06,1.56c-1.23,1.62.36,3.84-1.71,5.23-2.54,1.72-8.8,1.34-14-.83l-.43-.19c-4.87-2.17-6.82-5.2-4.34-6.87,1.58-1.07,4.3-1,6.52-1.41a14.13,14.13,0,0,0,3.26-.95,11.62,11.62,0,0,0,1.78-1.15l-26.39-11.11-20.59,13.89c-.42-.14-.88-.33-1.27-.5s-.83-.4-.93-.46a5.87,5.87,0,0,1-1.82-1.74c-.79-1.16-.71-2.58-2.63-3.44-3.36-1.42-9.28-.32-13.32,2.41s-4.66,6-1.52,7.37c2.76,1.17,6.9.35,10,1a24.45,24.45,0,0,1,2.7,1l.27.12L187.18,236l63.71,26.81Z"/><path class="cls-1" d="M337.4,383.81c0,8.94-16.29,16.19-36.39,16.19s-36.39-7.25-36.39-16.19,16.29-16.19,36.39-16.19S337.4,374.87,337.4,383.81Z"/><path class="cls-4" d="M282.56,383.31s-3.86-.7-2.77,2.45c0,0,9,3.87,15.31,3,0,0,4.42-.15,3.72-4.95l.08-3.9L293,381l.34,3.71Z"/><path class="cls-41" d="M298.82,383.81a2.41,2.41,0,0,1-.59,1.67c-1.55,1.79-4.6,1.85-6.75,1.71a72.45,72.45,0,0,1-10.28-1.44c-.74-.15-.94-.39-.95-.61a3,3,0,0,1,2.31-1.83l-3.28-.42c-3-.1-4.41.59-5.12,1.05-.84,2.4,3.25,4,3.25,4a66.9,66.9,0,0,0,9.57,2.67s11.53,2.72,12.92-.83Z"/><path class="cls-4" d="M305.48,378s-3.86-.7-2.78,2.45c0,0,9,3.87,15.31,3,0,0,4.42-.15,3.73-4.95l.07-3.9-5.93,1.12.34,3.71Z"/><path class="cls-41" d="M321.74,378.45a2.55,2.55,0,0,1-.59,1.67c-1.55,1.79-4.61,1.84-6.76,1.71a72.86,72.86,0,0,1-10.28-1.44c-.73-.16-.94-.4-.95-.61a3,3,0,0,1,2.32-1.83l-3.29-.42c-3-.1-4.41.59-5.11,1.05-.84,2.4,3.24,4,3.24,4a66.9,66.9,0,0,0,9.57,2.67s11.54,2.72,12.93-.83Z"/><path class="cls-42" d="M304.41,273.78a11,11,0,1,0,11-11A11,11,0,0,0,304.41,273.78Z"/><path class="cls-42" d="M322.36,326.81s-.16,2.77-5.13,2.84c0,0-4.71,1.61-6.74-4.53-8-24.14-5.9-49.34-5.9-49.34s11.31-6.3,21.85-2C326.44,273.78,324.74,305.48,322.36,326.81Z"/><path class="cls-42" d="M310.49,325.12s3.88,52.19,4.24,54.06a6.48,6.48,0,0,0,7.13-.07c0-2.56,2.77-23.9,3.06-27.91.5-6.88,1.32-15.59-3-25.49Z"/><path class="cls-43" d="M290.43,328.4s-1.06,2.57-5.78,1c0,0-5,0-4.86-6.5.44-25.44,11.59-51.8,11.59-51.8s12.55-1.2,21.07,6.35C312.45,277.43,299.74,309.07,290.43,328.4Z"/><path class="cls-43" d="M291.66,270.14a11,11,0,1,0,14-6.75A11,11,0,0,0,291.66,270.14Z"/><path class="cls-43" d="M326.44,272.18c-1.33-12.25-7.48-17.93-7.48-17.93l-21.29-2.69s-5.87,10.21-6.48,20.62c2.54,6.94,11.61,9,11.61,9l6.89,2S325.3,280.82,326.44,272.18Z"/><path class="cls-43" d="M280.77,328s10.57,54.82,11.2,56.61c-.28-.13,5,2.42,7.32-.88-.39-2.52-.62-30.37-.92-34.38-.53-6.89-.46-13.31-6.23-22.46C292.14,326.84,277.72,316.52,280.77,328Z"/><path class="cls-4" d="M328,232s-3.88,4.57-11.6,15.59l1.33,2.26s13.22-6.65,17.43-14.12Z"/><path class="cls-4" d="M317.09,215.61s10,21.7,15.92,20.87c0,0,2.07.13,2.48-1.42,0,0,4.22-3.74-13.32-30.73a5.43,5.43,0,0,0-5.23-1.7S311.61,206.15,317.09,215.61Z"/><rect class="cls-44" x="301.01" y="198.62" width="10.75" height="11.43"/><path class="cls-6" d="M294.36,198.88l-.41-1.83-.8-6.69a6,6,0,0,1,.4-2.72,6.12,6.12,0,0,0,.54-2.78,7.85,7.85,0,0,1,2.68-7c3.67-3.89,10.74-3,10.74-3,3.66.69,6.79,2.24,8.44,5.38,1.49,2.85,2.18,6.26,1,9.3a18.84,18.84,0,0,1-6.46,8.12c-1.87,1.44-3.69,1.54-6.05,2.19a26.44,26.44,0,0,1-6.47.52C297.07,200.37,294.59,199.92,294.36,198.88Z"/><path class="cls-45" d="M299.25,192.68c.53-.75,2.47-1.22,2.47-1.22,2.33,0,2,3.12,2.25,4.47.07.44.15.89.25,1.34,1.11,4,4.44,3.93,7.29,4.41a2.59,2.59,0,0,1,.33-.19,11.45,11.45,0,0,1,2.15-3.58c4.28-3.7,5.67-10.34,4-15.56a12.36,12.36,0,0,0-2.66-4.46,15.67,15.67,0,0,0-8.83-4.55c-3.31-.63-15.14,1-11.92,8.17,0,0,4.87,5.61,4.63,11.17"/><path class="cls-46" d="M299.25,192.68a2.24,2.24,0,0,1,2.64-1.54,1.77,1.77,0,0,1,1.29,1.9c0,.19-.06.38-.08.57a4.07,4.07,0,0,1-2.5,2.84"/><path class="cls-47" d="M301.67,192.11a1.15,1.15,0,0,0-.52-.14c-.78-.05-1.42,1.16-.63,1.37a.45.45,0,0,1,0,.62c-.27.3-.64.72-.55,1.13.05.25.32.38.56.44s.24-.11.08-.18a.79.79,0,0,1-.29-.25l0,0,0,0a.37.37,0,0,1,0-.18.47.47,0,0,0,.61,0c.15-.17,0-.45.09-.66a1.44,1.44,0,0,1,.18-.4.42.42,0,0,0-.29-.7h-.24c-.32-.17,0-.66.24-.74a.64.64,0,0,1,.69.12,1,1,0,0,1,.21.69,2.16,2.16,0,0,1-.21.83l-.23.47c-.08.17.11.24.19.07a5,5,0,0,0,.56-1.36A1,1,0,0,0,301.67,192.11Z"/><path class="cls-47" d="M299.25,192.68s.1-.13.25-.37a2.58,2.58,0,0,1,.32-.38,2.89,2.89,0,0,1,.5-.39,2.05,2.05,0,0,1,.67-.24,1.69,1.69,0,0,1,.77.06,2,2,0,0,1,.38.16,1.72,1.72,0,0,1,.31.24,1.32,1.32,0,0,1,.41.69,2,2,0,0,1,0,.87l0,.23v0h0s0,0,0,0h0v.06l0,.11a3.16,3.16,0,0,1-.11.42,3.49,3.49,0,0,1-.37.72,4.68,4.68,0,0,1-.47.59,5.76,5.76,0,0,1-.88.73l-.38.24a3.19,3.19,0,0,0,.42-.15,4.31,4.31,0,0,0,1.05-.59,3.53,3.53,0,0,0,.58-.58,3,3,0,0,0,.49-.8,2.9,2.9,0,0,0,.16-.47l0-.11v-.06h0v-.08l0-.23a2.53,2.53,0,0,0,0-1.06,2,2,0,0,0-.57-.94c-.07-.05-.14-.12-.22-.17l-.24-.14a2.25,2.25,0,0,0-.48-.16,1.94,1.94,0,0,0-1,0,2.09,2.09,0,0,0-.76.38,2.06,2.06,0,0,0-.48.51,3.34,3.34,0,0,0-.26.46C299.3,192.53,299.25,192.68,299.25,192.68Z"/><path class="cls-15" d="M300.6,195.94a.66.66,0,1,1-.66-.65A.65.65,0,0,1,300.6,195.94Z"/><path class="cls-48" d="M300.1,196.29a.51.51,0,0,1-.51-.51.52.52,0,0,1,.35-.49h0a.65.65,0,1,0,.66.65v0A.5.5,0,0,1,300.1,196.29Z"/><path class="cls-41" d="M329,259.35c0-.06-11.87-17-11.87-17-.56-2.5.69-7.48.69-7.48l3.79-26.1c-.45-3-.65-6.79-4.7-6.11a25.45,25.45,0,0,0-5.18,1.44c.52,2.43-3.67,4-3.67,4-5.75,2.49-7.08.85-7.08.85-1.53.83-6.71,3.42-8.06,4.52s-2.24,2.94-1.8,6l4.14,24.74-.73,6.15L287,269.44a16.2,16.2,0,0,1,7.37-.88c2.35.28,4.38,1.67,6.72,1.93,3.53.39,6.15-.89,8.81-2.58a42.56,42.56,0,0,0,10.2-3.58h.23c2.64,0,5.63,0,7.58-2.1C328.32,261.79,329.53,260.07,329,259.35Z"/><path class="cls-6" d="M288.06,253l.07-30.05c.73-8.23,4.82-9.55,4.82-9.55,8.27-1,7,14.35,7,14.35l-3.45,25.89"/><path class="cls-6" d="M261.75,269.45c3.79-2,4.13-2.68,4.8-3.63,2.88-4.1-2.95-4-4.41-3.64-.84.19-.9,2.2-3.51,4.64,0,0-4.1,2.38-5.11,2.21,0,0-1.05.15-1.05.91C252.47,269.94,255.35,271.64,261.75,269.45Z"/><path class="cls-6" d="M288.68,249.86l-25.74,14.08c-1.11,3.1.32,3.55.32,3.55l19.93-5.74c8.51-2.27,11.88-5.84,11.88-5.84s3.72-2.58-1-6.42C294,249.49,291.88,247.78,288.68,249.86Z"/><path class="cls-45" d="M297,190.84c.67,5-.09,11.58,2.4,17,1.1,2.42,2.32,3.63,1.66,6.44-.54,2.3-1.63,4.47-2.22,6.86-1.31,5.26.46,10.4,6.6,8.49,2.94-.91,3.27-.89,5.94.14a7.78,7.78,0,0,0,6.6,0c3.47-1.69,2.42-4.24,4.37-6.8,1.48-1.94,3.57-1.9,4.68-4.51,1.35-3.16-.25-4.85-1.89-7.53s-2-4.63-1.42-8c.47-2.83-.23-4.26-1.16-6.86s-.55-5-1-7.66c-.9-5.28-3.79-12.45-9.32-14-2.72-.76-6.22-1.35-8.83-.4-3.56,1.31-7.52,2.7-7.36,7.07A69.88,69.88,0,0,0,297,190.84Z"/><path class="cls-6" d="M262.83,262.08s.72,2.11-1.91,1.59l-2.57-2a1,1,0,0,1-.52-1.19s.31-.43,1.13,0Z"/></svg>