<svg id="Capa_1" data-name="Capa 1" xmlns="http://www.w3.org/2000/svg" viewBox="0 0 400 400"><defs><style>.cls-1{fill:#d6eff6;}.cls-2{fill:#b0e0ed;opacity:0.2;}.cls-3{fill:#33ae5f;}.cls-4{fill:#6ec58d;}.cls-5{fill:#a8ddbb;}.cls-6{fill:#009a37;}.cls-7{fill:#1fa64f;}.cls-8{fill:#f4ae0e;}.cls-9{fill:#e13c2d;}.cls-10{fill:#fef5e2;}.cls-11{fill:#17a3ca;}.cls-12{fill:#089dc7;}.cls-13{fill:#f1a59e;}.cls-14{fill:#f8ce6e;}.cls-15{fill:#ea776c;}.cls-16{fill:#e5574a;}.cls-17{fill:#33aed1;}.cls-18{fill:#52bad8;}.cls-19{fill:#fff;}.cls-20{fill:#f09e96;}.cls-21{fill:#ee8e85;}.cls-22{fill:#80cde2;}.cls-23{fill:#ed8a81;}.cls-24{fill:#0d9fc8;}.cls-25{fill:#009ac5;}.cls-26{fill:#f6ba32;}</style></defs><title>iconos</title><path class="cls-1" d="M172.26,163.51c-3-2-6.06-3.88-9-5.93a2.58,2.58,0,0,1-1-2c.36-4.15,1-8.28,1.29-12.43a2.2,2.2,0,0,1,1.52-2.31c4.07-1.62,8.09-3.35,12.13-5.05.66-.27,1.31-.57,2.44-1.07-2-6.21-3.94-12.35-5.94-18.64-5.21,1.07-10,2-14.67,3.06-1.66.38-2.56.2-3.65-1.34-2.2-3.13-4.85-6-7.22-9a2.33,2.33,0,0,1-.32-2c1.57-4.15,3.14-8.32,5-12.37.87-2,.42-3-1.32-3.88a11.47,11.47,0,0,1-1.82-1.4l-9-4.77a6,6,0,0,1-1.12-.23c-3.67-1.47-3-1.44-5,1.62-2.51,3.74-5,7.52-7.1,10.78l-16.25-1.41c-2.08-5-4.26-10.13-6.44-15.34A62.43,62.43,0,0,0,86.15,85.8c1.06,5.12,2.09,10.12,3.15,15.11a1.72,1.72,0,0,1-.74,2.1c-3.42,2.6-6.78,5.29-10,8.11a2,2,0,0,1-2.54.41c-4.18-1.73-8.39-3.35-12.57-5.06a1.76,1.76,0,0,0-2.47.64,55.58,55.58,0,0,0-7.6,15c-.38,1.05.13,1.5.93,2,3.69,2.37,7.33,4.82,11,7.16a2.2,2.2,0,0,1,1.2,2.64c-.7,4.75-1.13,9.55-1.7,14.71L50.09,154.8a58.22,58.22,0,0,0,5.79,18.85l15.93-3.39c3.1,3.52,5.89,6.87,8.89,10a2.78,2.78,0,0,1,.69,3.58c-1.72,4-3.29,8-4.89,12-.31.8-.94,1.72.3,2.37l15.12,7.85c1.07.56,1.75.2,2.38-.81,2.38-3.76,4.93-7.42,7.24-11.21.9-1.47,1.87-1.53,3.38-1.34a101.91,101.91,0,0,0,11.28.94c1.63,0,2.22.45,2.78,1.89,1.79,4.63,3.77,9.18,5.63,13.67,4,0,15-3.54,18.89-6-1.07-4.93-2.1-9.92-3.27-14.89a2.12,2.12,0,0,1,1-2.53c3.06-2.44,5.94-5.09,9-7.55a2.57,2.57,0,0,1,2.13-.43c3.73,1.43,7.4,3,11.08,4.55,2,.87,2.88,1.23,3.66.7l8.47-16C175.57,165.73,174.68,165.12,172.26,163.51Zm-31.93-5.38a29.31,29.31,0,0,1-39.63,12.2h0A29.32,29.32,0,0,1,88.5,130.7h0a29.32,29.32,0,0,1,39.63-12.2h0a29.31,29.31,0,0,1,12.2,39.63Z"/><path class="cls-2" d="M292.38,143.05c-1.1-.73-2.23-1.42-3.31-2.17a1,1,0,0,1-.35-.73c.13-1.52.35-3,.47-4.56a.8.8,0,0,1,.56-.85c1.49-.6,3-1.23,4.45-1.85l.89-.4c-.72-2.28-1.44-4.53-2.17-6.84-1.92.39-3.66.72-5.39,1.12a1.06,1.06,0,0,1-1.34-.49c-.81-1.15-1.78-2.18-2.65-3.29a.92.92,0,0,1-.12-.72c.58-1.52,1.16-3,1.83-4.54.32-.72.15-1.1-.49-1.42a4.64,4.64,0,0,1-.67-.52L280.78,114a2.7,2.7,0,0,1-.41-.08c-1.35-.54-1.09-.53-1.85.59-.92,1.37-1.81,2.76-2.6,4l-6-.52-2.36-5.63a22.93,22.93,0,0,0-6.82,2.17c.39,1.88.77,3.71,1.16,5.54a.65.65,0,0,1-.27.78c-1.26,1-2.5,1.94-3.68,3a.76.76,0,0,1-.94.15c-1.53-.63-3.08-1.23-4.61-1.85a.64.64,0,0,0-.91.23,20.37,20.37,0,0,0-2.79,5.5c-.14.39.05.55.34.74,1.36.87,2.69,1.77,4.05,2.63a.8.8,0,0,1,.44,1c-.26,1.74-.41,3.5-.62,5.4l-5.41,2.27a21.37,21.37,0,0,0,2.13,6.91l5.85-1.24c1.13,1.29,2.16,2.52,3.26,3.68a1,1,0,0,1,.25,1.31c-.63,1.46-1.21,2.93-1.79,4.41-.12.29-.35.63.11.86l5.55,2.89c.39.2.64.07.87-.3.88-1.38,1.81-2.72,2.66-4.12.33-.53.68-.56,1.24-.49a35.93,35.93,0,0,0,4.14.35.89.89,0,0,1,1,.69c.66,1.7,1.38,3.37,2.07,5a20.5,20.5,0,0,0,6.93-2.21c-.39-1.81-.77-3.64-1.2-5.46a.78.78,0,0,1,.38-.93c1.12-.9,2.18-1.87,3.29-2.78a.92.92,0,0,1,.78-.15c1.37.52,2.72,1.09,4.07,1.67.75.32,1.05.45,1.34.25l3.11-5.88C293.6,143.87,293.27,143.64,292.38,143.05Zm-11.72-2a10.77,10.77,0,0,1-14.55,4.48h0A10.77,10.77,0,0,1,261.63,131h0a10.77,10.77,0,0,1,14.55-4.48h0a10.77,10.77,0,0,1,4.48,14.55Z"/><path class="cls-3" d="M102,346.76S45.76,319,36.09,304.56s4.55-15.28,4.55-15.28-25.1-24.41-21.57-34.69,16.53-.85,16.53-.85-16.14-35.93-8.53-39.54c14.18-6.72,34.06,31.93,34.06,31.93s-4.27-16.79,5.49-16.25c14.72.83,14.11,38.81,14.11,38.81s1.66-14.56,10.53-9.83C107.18,267.35,102,346.76,102,346.76Z"/><path class="cls-4" d="M94.47,253c-6.93-3.84-13.83,7.4-13.83,7.4s.7-29.67-14-30.5c-9.76-.54-5.49,16.25-5.49,16.25S41.25,207.48,27.07,214.2l75,131.94C102.6,336.93,108.19,260.6,94.47,253Z"/><path class="cls-3" d="M100.56,347.1s-46,5.72-57.92.63-3.37-11.38-3.37-11.38-25.58-5-27.55-12.88,9.83-7.22,9.83-7.22S-3,300.37.3,295c6.11-10,34.22,6.07,34.22,6.07s-9.49-8.73-3.18-12.36c9.52-5.47,24.57,18.47,24.57,18.47s-.93-5.9,6.52-6.55C75.81,299.49,100.56,347.1,100.56,347.1Z"/><path class="cls-4" d="M62.73,296.37c-7.45.66-6.82,10.84-6.82,10.84S40.58,278.84,31.07,284.3c-6.31,3.63,1.15,15.54,1.15,15.54S6.41,285.07.3,295l100.4,51.82C97.28,340.89,75.23,295.27,62.73,296.37Z"/><path class="cls-4" d="M365.07,279.92l2.47-6a8.43,8.43,0,0,1,11-4.68h0c10.42,4.55,14.95,17.2,10.11,28.27l-3.53,8.09a10.15,10.15,0,0,0,1.08,10.2,9,9,0,0,1,.89,9l-1.86,4.26a17,17,0,0,1-10.59,9.45,10.32,10.32,0,0,0-6.4,5.78l-2.63,6c-2.92,6.68-10.38,9.87-16.66,7.12l-3.59-1.56c-6.29-2.75-9-10.39-6.1-17.06h0c4.71-8,4.33-13.95,2.66-18a24.24,24.24,0,0,1,.23-18.87l.38-.85a24,24,0,0,1,14.66-13.27C360,287,363,284.74,365.07,279.92Z"/><path class="cls-5" d="M202.31,397.88c-6.68-8.66-43.29-55-67.17-62.77-26.35-8.53-1.51,25.36-1.51,25.36S86.88,309.35,69.72,314c-15.72,4.22,0,35.91,0,35.91S52,332.32,30.53,332.32c-20.9,0,14.61,62.23,16.52,65.56Z"/><path class="cls-6" d="M399.53,212.2s-6.74,8.71-10.71,12.12S381.07,231,376,241.86s-4.91,12.11-6.25,14.91-8.41,13.75-8.94,15.94-12.06,12.65-15.63,18-9.42,12.76-10.18,17.05l1,0a46.84,46.84,0,0,1,12.25-18.13c9.14-8.43,8.6-10.54,17.54-13.88s17.24-16.38,17.24-16.38,11.46-13.6,13-21.7S401.31,222.78,399.53,212.2Z"/><path class="cls-6" d="M392.54,194.79s-1.75,6.33-4.7,9.65-5.26,5.22-6.59,9.25-5.1,14.32-12.06,18.16S357.89,251,352.42,254.7s-6.83,6.92-7.89,15.15-.91,20-10.65,33.11l-.59-4s7.33-10.92,7.86-18.18-.84-18.76,1.75-23.51-2.4-7,2.52-13.92,4.26-9.93,10.08-15.58c0,0,.51-.21,2.94-5.57s13.89-13.56,18.88-16.11S389.64,199.35,392.54,194.79Z"/><path class="cls-3" d="M368.17,222.51s-7,7.4-8.34,12.89-1.8,10.11-6.08,17.07-.37,12.89-2.79,16.72-3.67,8.73-4.5,12.48-9.47,14.78-11.81,20.84-1.21,6.34-1.21,6.34,2.88-8.05,4.84-10.47,8.19-10.92,10-14.35,4.9-5.18,8.54-10.84,8-10.15,9.78-19S374.06,237,368.17,222.51Z"/><path class="cls-3" d="M338.09,303.88S343,293.57,353,294.77s15.4,4.48,24.19-1.84,15.75-18,18.47-19.62c0,0-3.07-2.61-10.13,1.47s-12.09,7.23-16.18,9.61-6.34-.32-10.37.94c-3.38,1.06-8.39,5.2-10.7,7.45a12,12,0,0,1-2.49,1.88c-.83.47-1.82,1-2.47,1.5-1.31.89-6,7.59-6,7.59Z"/><path class="cls-3" d="M335.07,301.16s6.56-12.47,5.75-19.51-7-13.54-5.72-17.56,8.48-14,6.58-23.06c0,0-3.14,7-4.95,8.29s-13.11,5.6-13.4,14.68,8.75,13.33,10.5,16.43,4.91,3.83,4.54,5.54-1.2,8-3.67,13.88Z"/><path class="cls-7" d="M340.93,293.15l8.12-12.88s5.48-10.61,9.33-19.63,9.79-38.13,9.79-38.13-7,7.4-8.34,12.89-1.8,10.11-6.08,17.07-.37,12.89-2.79,16.72-3.67,8.73-4.5,12.48-9.47,14.78-11.81,20.84c-1.28,3.32-1.52,4.9-1.48,5.66C333.67,302.51,340.93,293.15,340.93,293.15Z"/><path class="cls-7" d="M366.84,290.38c-4.54-.14-8.36-1.34-14.4,1.29a44.25,44.25,0,0,0-10,6s-3.28,3.6-4.74,5.56l-.35.49.77.13S343,293.57,353,294.77s15.4,4.48,24.19-1.84,15.75-18,18.47-19.62a114.25,114.25,0,0,0-14.46,8.05C375.48,285.38,371.38,290.52,366.84,290.38Z"/><path class="cls-7" d="M336.73,249.32c-1.8,1.3-13.11,5.6-13.4,14.68s8.75,13.33,10.5,16.43,4.91,3.83,4.54,5.54-1.2,8-3.67,13.88l.16.57a78.4,78.4,0,0,0,3.5-8.42c1.42-4.38,1.12-6.39.53-10.35s-7.81-13.4-9.14-17.8,6.72-9.36,8.9-12.15,3-10.67,3-10.67S338.54,248,336.73,249.32Z"/><path class="cls-5" d="M215.81,397.88c6.68-8.66,43.29-55,67.16-62.77,26.36-8.53,1.52,25.36,1.52,25.36s46.75-51.12,63.9-46.51c15.73,4.22,0,35.91,0,35.91s17.72-17.55,39.2-17.55c20.9,0-14.61,62.23-16.52,65.56Z"/><path class="cls-6" d="M98.33,397.61a385.07,385.07,0,0,0-78.14-79.18c-.31-.23-.73.31-.42.54a384.35,384.35,0,0,1,76.94,79.08Z"/><path class="cls-6" d="M37.4,344.42c.72-.51,2.57-2.43,5-3a10.57,10.57,0,0,1,5.19-.2,11.33,11.33,0,0,0-5.08-2.8c-3-.88-7.15-.14-8.5,1.05-3.07,2.08-3.31,5.61-1.79,6.26S35.78,345.44,37.4,344.42Z"/><path class="cls-6" d="M24.84,333.34c.71-.5,2.56-2.42,5-3a10.53,10.53,0,0,1,5.18-.2,11.25,11.25,0,0,0-5.08-2.8c-3-.88-7.14-.14-8.49,1.05-3.07,2.08-3.32,5.61-1.8,6.26S23.21,334.37,24.84,333.34Z"/><path class="cls-6" d="M58.56,339.5c-.67.41-3.05,1.25-4.14,3.15a7.47,7.47,0,0,0-1.17,4.43,12.4,12.4,0,0,1-2-5.53c-.38-3,1.17-6.26,2.68-7,2.77-1.83,6.56-.63,7,1S59.94,338.5,58.56,339.5Z"/><path class="cls-6" d="M61.81,299.93a308,308,0,0,1,41,98.18l1.31-.35a310.3,310.3,0,0,0-40.85-97.35c-4.44-6.93-9.22-15.14-17.52-17.84-.16-.05-.22.19-.07.25C53.27,285.67,57.66,293.46,61.81,299.93Z"/><path class="cls-6" d="M60.06,281.43c-.49.73-2.37,2.61-2.92,5.09a10.47,10.47,0,0,0-.1,5.19,11.22,11.22,0,0,1-2.9-5c-.94-3-.28-7.14.89-8.52,2-3.11,5.53-3.42,6.22-1.92S61.05,279.79,60.06,281.43Z"/><path class="cls-6" d="M55.49,308.06c.72-.5,2.56-2.42,5-3a10.51,10.51,0,0,1,5.19-.19,11.33,11.33,0,0,0-5.08-2.8c-3-.88-7.15-.14-8.5,1-3.07,2.08-3.31,5.6-1.79,6.26S53.87,309.08,55.49,308.06Z"/><path class="cls-6" d="M62.39,319.73c.71-.5,2.56-2.42,5-3a10.46,10.46,0,0,1,5.18-.19,11.18,11.18,0,0,0-5.07-2.8c-3-.88-7.15-.14-8.5,1.05-3.07,2.08-3.32,5.6-1.8,6.26S60.76,320.75,62.39,319.73Z"/><path class="cls-6" d="M69.71,294.64c-.6.64-2.75,2.2-3.69,4.56a10.5,10.5,0,0,0-.91,5.11A11.33,11.33,0,0,1,63,298.89c-.45-3.1.85-7.09,2.22-8.27,2.48-2.75,6-2.5,6.45-.91S71,293.17,69.71,294.64Z"/><path class="cls-6" d="M79.85,307.87c-.85.46-3.83,1.28-5.33,3.51a9,9,0,0,0-1.8,5.31c.16.15-2.13-3.28-2-6.94-.21-3.66,2-7.55,3.88-8.28,3.54-2,8.08-.21,8.45,1.76S81.63,306.77,79.85,307.87Z"/><path class="cls-6" d="M90.52,327.92c-.91.3-4,.61-5.84,2.56A9.05,9.05,0,0,0,82,335.41c.13.17-1.55-3.59-.83-7.18.41-3.64,3.2-7.12,5.21-7.51,3.83-1.38,8,1.15,8,3.15S92.46,327.13,90.52,327.92Z"/><path class="cls-6" d="M42.5,286.13a8,8,0,0,1,2.84-2,6.29,6.29,0,0,1,3.06-.35,6.59,6.59,0,0,0-3.12-1.43c-1.82-.39-4.24.23-5,1-1.73,1.37-1.72,3.46-.79,3.78S41.58,286.8,42.5,286.13Z"/><path class="cls-6" d="M46.33,277.61a8.13,8.13,0,0,0,.14,3.48,6.31,6.31,0,0,0,1.6,2.63,6.88,6.88,0,0,1-3-1.6c-1.41-1.2-2.4-3.49-2.25-4.55,0-2.2,1.69-3.47,2.51-2.93S46.31,276.47,46.33,277.61Z"/><path class="cls-6" d="M15.79,322.07a8,8,0,0,1,2.84-2,6.29,6.29,0,0,1,3.06-.35,6.66,6.66,0,0,0-3.13-1.43c-1.82-.39-4.23.23-5,1-1.72,1.37-1.71,3.46-.78,3.78S14.87,322.74,15.79,322.07Z"/><path class="cls-6" d="M20.41,313.48a8.14,8.14,0,0,0-.15,3.47,6.36,6.36,0,0,0,1.38,2.76,6.63,6.63,0,0,1-2.9-1.85c-1.32-1.31-2.11-3.67-1.88-4.72.21-2.19,2-3.32,2.75-2.71S20.48,312.34,20.41,313.48Z"/><path class="cls-6" d="M24.52,370.78c19.5,2.14,37.67,10.75,55.15,19.15,11.79,5.66,11.2,7.27,13.6,8.11a.48.48,0,0,0,.59-.66c-.92-1.83-3.35-3.07-5-4.12a66.36,66.36,0,0,0-6.09-3.32c-4.46-2.16-9-4.1-13.56-6.07a196.27,196.27,0,0,0-28.36-10.34,98.94,98.94,0,0,0-16.29-2.9.08.08,0,1,0,0,.15Z"/><path class="cls-6" d="M40.43,364.48c-.13.8-1,3.13-.45,5.42a9.66,9.66,0,0,0,2,4.39,10.57,10.57,0,0,1-4.42-3.06c-2-2.14-3.05-5.88-2.61-7.49.46-3.4,3.29-5.06,4.45-4.06S40.61,362.72,40.43,364.48Z"/><path class="cls-6" d="M57.61,370.64c-.13.8-1,3.12-.45,5.42a9.77,9.77,0,0,0,2,4.38,10.4,10.4,0,0,1-4.41-3.06c-2-2.14-3.06-5.88-2.62-7.49.46-3.4,3.29-5.05,4.46-4.06S57.79,368.87,57.61,370.64Z"/><path class="cls-6" d="M75.07,378.42c-.13.8-1,3.12-.45,5.42a9.59,9.59,0,0,0,2,4.38,10.29,10.29,0,0,1-4.41-3.06c-2-2.14-3.06-5.88-2.62-7.49.46-3.4,3.29-5.05,4.46-4.06S75.25,376.65,75.07,378.42Z"/><path class="cls-6" d="M35.3,380.54A11.52,11.52,0,0,1,38,376.3a9,9,0,0,1,3.9-2.14,9.79,9.79,0,0,0-5-.2c-2.64.47-5.53,2.62-6.11,4.05-1.56,2.77-.4,5.56,1,5.48S34.44,381.94,35.3,380.54Z"/><path class="cls-6" d="M53.17,386.86a11.6,11.6,0,0,1,2.69-4.24,9,9,0,0,1,3.9-2.13,9.6,9.6,0,0,0-5-.21c-2.64.48-5.53,2.63-6.11,4.06-1.56,2.76-.39,5.56,1,5.48S52.31,388.27,53.17,386.86Z"/><path class="cls-6" d="M21.69,374a7.27,7.27,0,0,1,2.25-2.31,5.81,5.81,0,0,1,2.73-.83,6.33,6.33,0,0,0-3.09-.78,6.09,6.09,0,0,0-4.37,1.74c-1.35,1.53-1,3.44-.09,3.58S21,374.79,21.69,374Z"/><path class="cls-6" d="M23.75,365.62a7.45,7.45,0,0,0,.71,3.15,5.67,5.67,0,0,0,1.9,2.13,6.28,6.28,0,0,1-3.05-.95,6.09,6.09,0,0,1-2.81-3.77c-.35-2,1-3.44,1.8-3.09S23.53,364.59,23.75,365.62Z"/><circle class="cls-8" cx="208.75" cy="259.96" r="138.09" transform="translate(-122.68 223.75) rotate(-45)"/><circle class="cls-9" cx="208.75" cy="259.96" r="125.93" transform="translate(-122.68 223.75) rotate(-45)"/><circle class="cls-10" cx="208.75" cy="259.96" r="105.9" transform="translate(-122.68 223.75) rotate(-45)"/><circle class="cls-9" cx="208.75" cy="259.96" r="79.6" transform="translate(-122.68 223.75) rotate(-45)"/><circle class="cls-10" cx="208.75" cy="259.96" r="56.53" transform="translate(-89.04 110.04) rotate(-24.51)"/><path class="cls-9" d="M223.16,260a14.42,14.42,0,1,1-14.41-14.41A14.42,14.42,0,0,1,223.16,260Z"/><polygon class="cls-11" points="297.25 188.42 296.73 179.05 328.44 154.26 326.78 167.82 295.71 192.12 297.25 188.42"/><polygon class="cls-12" points="299.59 191.57 308.55 194.32 340.26 169.53 326.7 167.87 295.63 192.17 299.59 191.57"/><path class="cls-11" d="M207.66,261.16h0a2.13,2.13,0,0,0,3,.36L300,191.66l-2.61-3.33L208,258.19A2.12,2.12,0,0,0,207.66,261.16Z"/><path class="cls-13" d="M340.93,287.1c0,.89.34,1.62.75,1.62s.75-.73.75-1.62-.34-1.62-.75-1.62S340.93,286.2,340.93,287.1Z"/><path class="cls-13" d="M333.89,392.2a47.37,47.37,0,0,0,.23-6H339c-.51,3.51-.9,6.23-.9,6.23l.12,1.11v3.27H327.54a48.27,48.27,0,0,0,5.44-3A2.16,2.16,0,0,0,333.89,392.2Z"/><path class="cls-13" d="M354.73,391.37l-1.42-4.07H357c.2,2.62.27,4.38.27,4.38l.94,2.68,1,3.18s-3.17.81-4.83-.1l.18-3.17Z"/><path class="cls-14" d="M335.43,302.87c1.29-1.76,6.62-6.87,7.21-6.86,1.72,0,7.38,0,8.49.6l-.06,9.72c-.18.82-4.08,13.54-3.86,16.32l0,0a7.84,7.84,0,0,1-11.44-.55h0a63.61,63.61,0,0,0-.44-7.38C334.58,309.24,332.23,307.26,335.43,302.87Z"/><path class="cls-13" d="M344.37,290.54a28,28,0,0,0,.18,4.95c.32,1.36.75,1.46-2,1.87-1.08.17-2.13.41-2.13.41s.28-2,.32-2.84c.07-1.39-.32-5.68-.32-5.68Z"/><path class="cls-15" d="M342.27,292.32a5,5,0,0,1-1.59.57c-.1-1.7-.28-3.64-.28-3.64l3.79,1.23A4.94,4.94,0,0,1,342.27,292.32Z"/><path class="cls-16" d="M354.57,394.26a5.27,5.27,0,0,0,3.66.05l.21.56.8,2.69s-3.2.79-4.86-.12Z"/><path class="cls-16" d="M338.34,397.6H327.22c-.41,0-.51-.37-.36-.58.29-.43,1.59-.74,3-1.42,2.56.27,7.93-1.49,8.33-2.09C338.46,394.7,338.57,397.55,338.34,397.6Z"/><path class="cls-17" d="M339.18,322.84l6.52,46.34,5.93,21.37h6.45s-1.49-17.22-4.71-23.32c0,0-1.4-16.34-2.8-26.33-.21-1.5.83-5.38.56-6.38a91.58,91.58,0,0,0-3.92-11.87Z"/><path class="cls-18" d="M343.21,342.87l-1.51,17.81s1.54,10.17.49,16.92-2.46,12.95-2.46,12.95h-5.94l-1.18-33.62s-2.28-18.27-1.49-23.22,4.63-11.58,4.63-11.58l9.34.42s2.53,9.07,2.1,12.11C346.87,336.92,343.21,342.87,343.21,342.87Z"/><path class="cls-11" d="M352.39,312.34c7.05-2.12,5.16-8.33,5.12-8.1,0-.19.69-1,1-1.64,1.37-2.79-.43-6.15-2.5-7.31,1.37-3.54,0-6.94-2.58-8.36a10.41,10.41,0,0,1-3.28-2.91c-2-2.61-5.52-5.24-9.8-4.38-4.23,1.08,1.44,3.54.88,7.61-.29,2.06.53,1.77,1.81,3.43-1.84,3.22-.78,8.64,2,11.1C343.71,307.59,345.19,314.5,352.39,312.34Z"/><path class="cls-11" d="M347.14,283.92c.84,3.43-3.67,5.93-7.24,6-2.32.06-3.39-.18-3.77-2.62-.6-4,1-6.39,3.32-7.39C342.41,278.64,346.46,281.08,347.14,283.92Z"/><path class="cls-13" d="M341.9,281.61a4.66,4.66,0,0,1,2.41,2.11c.83,1.58.42,6.66-3.06,8.33s-5.09-2.12-4.83-4.93S337.68,280.65,341.9,281.61Z"/><path class="cls-19" d="M339.73,289.42l-2.48,0a1.1,1.1,0,0,0,1.13,1C339.71,290.45,339.73,289.42,339.73,289.42Z"/><path class="cls-11" d="M345.54,287.56c.52-2.62.32-4.61-1.55-5.57s-3.45-1.91-5.12-.19l-.38.22s3.15.87,3.33,2.54,1.84,3.66,1.59,4.48-.56,2.45-.56,2.45l.69-.56S345,290.18,345.54,287.56Z"/><path class="cls-13" d="M342.3,286.56c-.26.72-.06,1.45.44,1.62s1.12-.27,1.38-1,.06-1.45-.44-1.62S342.56,285.83,342.3,286.56Z"/><path class="cls-14" d="M77.63,349h32.06L102,397.71h3.3L148.49,123.2h-3.3l-.65,4.13H112.41l.65-4.13h-3.3L66.56,397.71h3.31Zm55-145.93-5.3,33.67H95.24l5.29-33.67ZM101,200.3l5.28-33.67h32.11l-5.29,33.67Zm25.92,39.29-5.29,33.67H89.52l5.28-33.67Zm-5.73,36.48-5.29,33.67H83.8l5.28-33.67ZM144.1,130.15l-5.3,33.66H106.69L112,130.15Zm-66,216.07,5.28-33.66h32.07l-5.29,33.66Z"/><path class="cls-20" d="M214.2,77.9c0,.12-.3,1-.71,2.22l4.29.87c0-.7.09-1.29.14-1.72.35-3,1.75-3.78,2.47-5.43s3.5-2.7,3.16-3.26-2.94,1.71-3.57,1.47,2.23-3.66,1.88-4.11c-.63-.84-3.33,3.58-3.65,3.21s2.25-5,1.22-5.08-2.17,5-2.71,4.82,1.5-4.71.46-5.37c-.55-.36-2.51,8-3.39,8.45s-2.11-2.81-2.95-2.53S214.35,77.38,214.2,77.9Z"/><path class="cls-20" d="M174.28,60.2c0,.12-.12,1-.27,2.32l-4.26-1c.25-.66.45-1.21.58-1.62.91-2.85,0-4.17,0-6s-2.08-3.9-1.54-4.27,2,2.77,2.65,2.81-.52-4.25,0-4.52c.92-.51,1.56,4.63,2,4.43s0-5.51,1-5.14-.11,5.49.48,5.51.57-4.9,1.79-5.08c.65-.1-1,8.3-.39,9.1s3.08-1.69,3.73-1.09S174.36,59.67,174.28,60.2Z"/><path class="cls-14" d="M218.29,79.72s-5.11-1.22-5.16-.81c-1.07,9-1.55,12.23-1.73,12.32-.62.32-8.83-7.18-10.29-7.69a6.2,6.2,0,0,0-2.19-.18l-2.09.06h-.06v1.64c2,1.76,6.45,28.49,6.83,28.47s9.29,2.21,9.14,1.47c0-.13-6-5-7.72-12.1-.57-2.38-.85-4.93-1.16-7.17,2,1,9.67,4.78,10.89,4.27C218.56,98.45,218.29,79.72,218.29,79.72Z"/><path class="cls-13" d="M233.57,127.17s8.26,6.46,8.53,7.61c.4,1.65,8-.52,6.14-.85-.42-.08-1.77-.42-1.88-.48-.59-.32-7.93-9.17-7.93-9.17Z"/><path class="cls-14" d="M251.78,133.93l-5.27-.43a7.52,7.52,0,0,1-4.4,1.3,6.77,6.77,0,0,0-.24,2.87c0,.27.08,1.07.35,1.05,1-.06,3.57-.71,6.52-1.3a25.6,25.6,0,0,0,6.27-2.21C257.3,133.83,251.78,133.93,251.78,133.93Z"/><path class="cls-17" d="M196.58,111a36.22,36.22,0,0,0,12.73-.55c7.74-1.81,16.3-3.48,18.8-2,2,1.18,14.62,20.21,14.62,20.21l-4.87,3.55L224,116.6s-17.7,6.53-21.67,5.81C193.26,120.76,193.14,113.53,196.58,111Z"/><path class="cls-13" d="M215.48,139.94s-.36,10-.59,11.68,4.24,6.75,3.67,5a18.19,18.19,0,0,1-.47-1.88c0-.67,1.65-12.06,1.65-12.06Z"/><path class="cls-14" d="M221.41,160.24l-3.3-5.36a7.47,7.47,0,0,1-3.24-3.25,6.75,6.75,0,0,0-2.64,1.15c-.21.16-1.69,1.24-1.59,1.49.38.91,2.39,2.88,4.59,5a57.92,57.92,0,0,0,5.42,3.88C222.94,164.54,221.41,160.24,221.41,160.24Z"/><path class="cls-18" d="M225.28,120.25c-2.11-2.81-19.17-5.49-19.17-5.49l-4.76-9.14-10.52,6.48s1,8.37,1.84,10.61c1.05,3,8.12,3.13,12.44,3.09,4,0,11.23.77,11.23.77l-2.45,21.65s4.82,1.1,6.18.92C220.22,149.12,227.91,123.76,225.28,120.25Z"/><path class="cls-11" d="M196.83,83.44l-5.94.33-.17,0c-.49.09-.05,17.38.38,23.84a43,43,0,0,0,1.31,9.18s8.05-1.43,10.52-2.39c1-.4,3.51-3.5,3.51-3.5a26,26,0,0,1-3.82-9c-1-4.27-2.2-11.83-2.89-13.41A22.66,22.66,0,0,0,196.83,83.44Z"/><path class="cls-13" d="M191.06,78.53l-.17,5.24s3.85,6.62,5.82,5.7c1.65-.78.18-5.81.18-5.81s-.28-1.16-.68-2.49a9.36,9.36,0,0,1-.49-2.66C195.76,76.72,191.06,78.53,191.06,78.53Z"/><path class="cls-15" d="M195.72,78.51c0-1.79-4.66,0-4.66,0V79a2.56,2.56,0,0,0,.52.6A6.49,6.49,0,0,0,196.15,81,8.72,8.72,0,0,1,195.72,78.51Z"/><path class="cls-14" d="M195.65,66.58A13.7,13.7,0,0,1,197.76,72a13.12,13.12,0,0,1-.38,4.18l-6.29-7.51Z"/><path class="cls-21" d="M198.41,71.5c.09.87-.25,1.62-.76,1.67s-1-.61-1.07-1.48.25-1.62.75-1.67S198.32,70.63,198.41,71.5Z"/><path class="cls-13" d="M189.06,69.88c-.14,0-.13,7.2,2,8.9s5.74,1.85,6.81.14c1.17-1.89,0-9.51-3.06-11.13S189.06,69.88,189.06,69.88Z"/><path class="cls-14" d="M188.53,65.4a11.68,11.68,0,0,0-3.46,4.92c-1.33,3.07,1.31,6.24,3.53,7.51s2.4,2.79,2.4,2.79l.09-1a2.39,2.39,0,0,0,0-.86,3.47,3.47,0,0,0-.32-.76c-.18-.41-.79-1.79-1-2.15-.62-1-.74-1.17-.43-2.08.23-.71,0-2.26.32-3.42l3-.64a6.28,6.28,0,0,0,2.81-1.53C198.1,65.11,192.75,61.63,188.53,65.4Z"/><path class="cls-13" d="M190,74.61c.37.79.3,1.61-.17,1.82s-1.13-.26-1.5-1.05-.29-1.61.17-1.82S189.62,73.81,190,74.61Z"/><path class="cls-14" d="M190.89,83.77s-5.88-.28-7.4-1c-.92-.42-8.48-6.51-8.48-6.51L175.1,60l-5.32-.41s-2.76,18-1.8,20S180,90,182.24,93.65c1.28,2.1,3.94,30.63,4.34,30.89,2.86,1.49,11.71,3,11.5,2.07A327.89,327.89,0,0,1,190.89,83.77Z"/><path class="cls-19" d="M193.4,76.49l3.43-1.09a1.58,1.58,0,0,1-1.16,1.85C193.85,77.89,193.4,76.49,193.4,76.49Z"/><path class="cls-14" d="M339.55,140a.7.7,0,0,0,.44-1l-1.07-1.78c-.78-1.31-.85-1.34-.79-1.49.15-.35.82-.19,1.07-.11a7.66,7.66,0,0,0,1.6.58c1.11.14,1.92-.71,1.43-1.79s-1-1.95-1.49-2.91c1.2.24,2.38.52,3.58.74a.48.48,0,0,0,.55-.69c-.38-.87-1.51-3.45-1.88-4.31-.1-.22-.66-1.19-.47-1.38s1,.06,1.19.09c1,.15,1.4.19,4.79.6a.57.57,0,0,0,.5-.84c-2.37-3.3-1.95-3.6-2.8-4.07a.26.26,0,0,0-.39.22c-.08.5-.06.63.83,2.2.23.41.47.81.72,1.21-4.1-.58-5.12-.83-5.68.09-.39.64-.2.82,1.94,5.7-1.24-.32-2.49-.56-3.74-.83a.55.55,0,0,0-.62.79c1.64,3.52,1.82,3.55,1.89,3.9,0,0,.21.06-.11,0-.54,0-1.55-.84-2.59-.72a1.66,1.66,0,0,0-1.59,1.86c.12.58.34.78,1.43,2.73a14.22,14.22,0,0,0-3.2,1,2.29,2.29,0,0,0-1,.84.59.59,0,0,0,.48.89C335.76,141.46,336.29,140.52,339.55,140Z"/><path class="cls-15" d="M361.12,149.72a16.77,16.77,0,0,1-.2-3.11c0-.2,0-.58.18-.71.49-.31,1.24.55,3.15,1,.84.19,2.54.63,2.9-.48a6.29,6.29,0,0,0,.07-1.89c0-.45,0-.9,0-1.35,3.11.88,2.93,1.06,3.63.75a.39.39,0,0,0,.17-.53c-.4-.64-.32-.46-4.23-1.6a.61.61,0,0,0-.79.54c0,.61.16,3.38.13,3.72a.81.81,0,0,0-.22,0,9.87,9.87,0,0,1-3.56-1c-1-.4-2.28-.4-2.58.83a12,12,0,0,0,0,3.12c-1.89-.61-3.78-1.23-5.68-1.82-.37-.11-.9.16-.87.6.08,1.24.12,2.47.16,3.71a11.35,11.35,0,0,1-3.12-1.59c-.7-.51-1.6.47.26,1.63a11.13,11.13,0,0,0,3.35,1.5.68.68,0,0,0,.87-.61c0-1.22-.05-2.45-.12-3.67l5.68,1.72A.63.63,0,0,0,361.12,149.72Z"/><path class="cls-22" d="M367.67,174.52a.66.66,0,0,0,.6.68,14.73,14.73,0,0,0,5.21.18c.9-.15.58-1.51-.31-1.41a18.13,18.13,0,0,1-4.23.05,13.94,13.94,0,0,1,.42-3.09.7.7,0,0,0-.61-.89c-1.12,0-5.36.28-5.4.33a.39.39,0,0,0,0-.12c-.09-.45.24-2,.21-2.68s-1.08-1.08-1.72-1.14c-1.28-.12-2.71.81-4,.31s.15-2.37-.82-3.85c-.75-1.14-2-.79-4.07-.4a1.5,1.5,0,0,0-1.23.68.36.36,0,0,0,0,.41c.61.57,1.34.31,3.2,0,.24,0,.63-.18.84,0,.71.58-.32,2.18.51,3.53a3,3,0,0,0,3,1.11c.86-.11,1.92-.61,2.79-.3-.05.75-.11,1.5-.1,2.25a1.31,1.31,0,0,0,1.24,1.45,23.14,23.14,0,0,0,2.76-.09l1.83-.09A15.87,15.87,0,0,0,367.67,174.52Z"/><path class="cls-22" d="M317.65,127.09c-4.85-4-7.33-.4-5.93,1.25a1.35,1.35,0,0,0,2.2,0c.24-.37-.12-1-.58-.83s-.46-.31-.06-.48,1.2.17,1.66.42c1.09.58,2.51,1.31,2.69,2.67.28,2-1.79,4.19-4.86,3-4.42-1.71-4.21-9,.48-10.15a6.65,6.65,0,0,1,6.86,2.53c.31.41.86-.07.69-.48-1.25-3.12-5.23-4.31-8.25-3.25a6.74,6.74,0,0,0-4.17,7.5,6.42,6.42,0,0,0,6.76,5.71C318.92,134.56,321.05,129.87,317.65,127.09Z"/><path class="cls-3" d="M365.48,185.55c-.8-.56-2.43-.9-3,.18A.89.89,0,0,0,363,187c.57.19,1.1-.12,1.54.41a1.21,1.21,0,0,1-.19,1.51c-1,1.24-3.29.86-4.55.17a3,3,0,0,1-.19-5.31,6.93,6.93,0,0,1,2.22-.7c.42-.09.62-.76.18-1-1.71-.87-3.82.24-4.83,1.69a4.87,4.87,0,0,0,0,5.25,6.25,6.25,0,0,0,5.31,2.58C366.6,191.61,368,187.34,365.48,185.55Z"/><path class="cls-13" d="M283.57,313.52a3.71,3.71,0,0,1-.36.88,34.1,34.1,0,0,1-3.47,4.6l-1.87-4.21s.31-1.33.84-3.22C280.51,312,282.24,312.32,283.57,313.52Z"/><path class="cls-18" d="M272.84,309.86s10.44,4.5,10.77,4.41,4.28-6.85,4.33-13.25c0-2.95-3.05-6.51-6.47-5.8-1.73.35-1.7.83-4.25,4.53S272.84,309.86,272.84,309.86Z"/><path class="cls-13" d="M263.93,390.42l.25,4.11a22.36,22.36,0,0,1,.45,2.28c0,1.77-8.43-1.51-6.54-2.3.17-.07,1.06-.61,1.12-1.22.09-.93.31-2.81.31-2.81Z"/><path class="cls-3" d="M258.11,394.49a30.28,30.28,0,0,0,3,.68c1,.14,2.36-1,3.07-.7s.76,3.41.76,3.41-10.62.87-13.61,0C250.14,397.49,254.06,395.76,258.11,394.49Z"/><path class="cls-13" d="M281.19,390.42l.25,4.11a22.36,22.36,0,0,1,.45,2.28c0,1.77-8.43-1.51-6.54-2.3.17-.07,1.33-1,1.39-1.62.08-.93,0-2.41,0-2.41Z"/><path class="cls-3" d="M275.37,394.49a30.28,30.28,0,0,0,3,.68c1,.14,2.35-1,3.07-.7s.82,3.41.82,3.41-10.67,1-13.67,0C267.42,397.44,271.32,395.76,275.37,394.49Z"/><path class="cls-13" d="M280.41,288.53l1,6.05s-3.65,2.93-5.77,2.31c-1.78-.52-.56-2.85-.56-2.85s.95-3.23.66-4.92S280.41,288.53,280.41,288.53Z"/><path class="cls-23" d="M279.72,290.36a14.83,14.83,0,0,1-4.12,1.16,8.29,8.29,0,0,0,.1-2.4c-.14-.78.86-1,2-.94,1.46.12,2.75.35,2.75.35l.18,1.16A2.83,2.83,0,0,1,279.72,290.36Z"/><path class="cls-13" d="M285,281.55c.15,0-1.44,6.76-3.9,7.92s-6.14.56-6.83-1.26c-.76-2,2-8.91,5.49-9.78S285,281.55,285,281.55Z"/><path class="cls-24" d="M282.16,275.34a7.72,7.72,0,0,1,3.17,3.51c.93.44,2.05,1.39,2.58,3.94.66,3.14-1.68,5.56-4.17,6.29s-2.87,2.37-2.87,2.37l-.28-1.77a7,7,0,0,1,1.38-2.31c.84-.77-.39-1.9-.5-2.82-.08-.7.44-2.07.33-3.23a8,8,0,0,0-2.74-2.61C276.73,277.83,279.64,273.89,282.16,275.34Z"/><path class="cls-13" d="M281.11,285.73c-.32.78-.19,1.56.3,1.73s1.14-.31,1.46-1.09.19-1.56-.3-1.73S281.44,285,281.11,285.73Z"/><path class="cls-13" d="M271.94,316l-14.33-2.34s1.63-4.11,2.21-4.11S270.66,314,270.66,314l.82,1.64Z"/><path class="cls-11" d="M279.28,325.78s1.43,6.92.85,12.16-.63,23.86-.63,23.86l2.23,29.79-5.28.11s-6.26-29.77-6.14-29-2.1-21-2.1-21l7.46-16.6Z"/><path class="cls-24" d="M277.89,325.46s.93,6.22-.24,9-10,29.52-10.11,31.7-3.05,26.32-3.05,26.32l-6.14-.17L257,365.42l2.78-33.73,2.7-8.53Z"/><path class="cls-13" d="M281.37,294.58a5.59,5.59,0,0,1-2.93.88A9.77,9.77,0,0,1,275,294l.27-.94s3.66-.53,3.75-.47S281.37,294.58,281.37,294.58Z"/><path class="cls-13" d="M265.24,309.31s-5.42,5.12-7.87,4.24-3.46-3.85,2.52-8.22C265.23,301.42,265.24,309.31,265.24,309.31Z"/><path class="cls-4" d="M261.57,315.63c.81-4.38,6.64-18,7.11-20.53.23-1.22,3.37-1.25,6.37-1.09,3.17.17,6.32.57,6.32.57s2.8.46,4,1.62,1.56,4.35-.22,10.42c-1.4,4.79-3.13,7.42-4,10.91-.18,1.17-.32,2.33-.52,3.68-.32,5.22,0,12.11,0,12.11s-15.26,3.17-21-1.64C259.71,331.68,260.74,320.12,261.57,315.63Z"/><path class="cls-18" d="M257.68,306.21s6,4.94,6.34,4.94S272.57,305,274.49,300c1.06-2.78-1.17-5.89-3.71-5.88-1.77,0-2.55.46-6,3.41S257.68,306.21,257.68,306.21Z"/><path class="cls-19" d="M274.71,285.29l2.25,1.23a1.22,1.22,0,0,1-1.6.44A1.19,1.19,0,0,1,274.71,285.29Z"/><path class="cls-13" d="M132.34,311.64c-.18-.5,2.27-.91,2.4-1.42s-3.09-.55-3.21-1c-.21-.82,3.54-.17,3.46-.56s-3.9-1.25-3.49-1.91,3.88,1.31,4,.86-3.39-1.54-3.33-2.53c0-.53,5.74,2.63,6.4,2.34s-.71-2.76-.19-3.13,2,5,2.41,5.21,8.06,4.58,10.8,5.28c.34-.92,4.26-6.6,4.56-7.47,1.54,1.09,3.11,1.24,4.7,2.24-1.15,2.88-6.43,10.89-7.23,11.25-2.44,1.1-11.88-6.73-13.76-8.07s-3-.9-4.24-1.32S132.51,312.15,132.34,311.64Z"/><path class="cls-11" d="M184.69,290.76a8.07,8.07,0,0,0-8.94-5.34,8.46,8.46,0,0,0-5.29-3.77c-4.22-.9-9.92.76-9.77,5.23-1.63,3-1.7,7.29.81,9.57-.87,4,2.91,7.94,7.82,7.8a8.7,8.7,0,0,0,8.21,4.25,18,18,0,0,1,2.16-.24c-.25-.05,5.21,4.13,9.83-2.3S190.92,291.46,184.69,290.76Z"/><path class="cls-13" d="M171.45,327.05a23.11,23.11,0,0,1-3.8,4.44,16.62,16.62,0,0,0-3.54,6.83c-.77,3.86-.13,22.92-.8,24.27-5.75,5.62-9.91,19.72-11.08,24a4.65,4.65,0,0,1-1.32,2.18h0l.25,4.86,2.86,2.63a14.53,14.53,0,0,1,.63-6.9S169.12,367.47,170,365.8c1.64-4.77,7.62-29.21,7.62-29.21L179,331Z"/><path class="cls-17" d="M147.78,390.36a17.66,17.66,0,0,1,2,3.87c.15,1.09,1.12,3.55,2.18,3.71.24,0,4.38.34,4.35-.18s-1.52-1-2.21-1.44c-1.21-.83-3.08-7.6-3.08-7.6S147.85,389.49,147.78,390.36Z"/><path class="cls-20" d="M172.05,297.28s6.06-10.89,7.53-13.21,5.31-11.51,5.45-11.87-2.64-4.72-2-4.87,1.31,2.3,2,2,2.59-6.17,3-5.88c.71.54-1,3.65-.67,3.84s1.52-3.41,2.26-3.3-1.41,3.31-1.2,3.59,2.43-2.74,2.84-2.09c.22.35-2.05,2.63-1.61,2.85s2.45-1.27,2.66-.84-1.86,1-2.49,2.15-1.67,1.65-2.11,3.77-1.1,9.81-3.35,13.64-7.2,12.33-7.2,12.33Z"/><path class="cls-13" d="M183.82,335.49s9.32,19.93,9.38,23.44c.05,3-1.63,19.85-1.16,33.88,0,.51.66,1.19,1.59,1.61l3.06,1.38.35.91-8.74-.63-.12-2.38s-3.48-21-3.13-26.93c.06-.94.51-6.52.51-6.52L175.05,340l6.61-8.68Z"/><path class="cls-15" d="M162.45,359.43Z"/><path class="cls-3" d="M175.78,303.18c.25-1.53,2.63-5.37,3-6.31,0,0-2.75-3.49-5-3.23,0,0-3,5-4.7,5.14s-7.71.43-8.76,1.07-5.51,7.48-5.51,7.48,4,4.1,5.62,4.09a17.22,17.22,0,0,1,1.2-2.06c.24.79,4,12.89,4,15.63l0,0a7.84,7.84,0,0,0,11.28-1.45h0a61.81,61.81,0,0,1-.14-7.25C177.07,310.86,178.18,308,175.78,303.18Z"/><path class="cls-14" d="M195.22,350l-18.29-26.43a17.72,17.72,0,0,1-3.4,1.09,35.48,35.48,0,0,1-7.91.34,2.09,2.09,0,0,1,0,.26c-.31,2.18-3.2,5.55-3.8,12.16a162.26,162.26,0,0,0,0,21.4C173.94,357.33,191.77,353.61,195.22,350Z"/><path class="cls-13" d="M166,294.37a27.74,27.74,0,0,1,.51,4.84c-.12,1.36.5,5.77,3.27,5.78s.53-5.6.27-6.94a53.5,53.5,0,0,1-.32-5.48Z"/><path class="cls-15" d="M169.79,294.65c0-1.14,0-2.08,0-2.08l-3.73,1.8s.13.71.26,1.62A3.19,3.19,0,0,0,169.79,294.65Z"/><path class="cls-13" d="M164.65,284.81a4.74,4.74,0,0,0-2,2.63c-.53,1.8.07,6.43,3.78,7.55s5.31-2.55,4.55-5.42S168.59,283.06,164.65,284.81Z"/><path class="cls-13" d="M171.48,288.45c-.07.78-.48,1.37-.91,1.32s-.72-.7-.65-1.47.48-1.37.91-1.32S171.56,287.68,171.48,288.45Z"/><path class="cls-13" d="M163.76,291.43c.43.67.43,1.47,0,1.77s-1.14,0-1.58-.66-.43-1.47,0-1.78S163.32,290.75,163.76,291.43Z"/><path class="cls-17" d="M188.27,397.75h11c.41,0,.51-.37.37-.57-.29-.42-1.58-.73-3-1.39-2.54.26-8.07-1.48-8.47-2.06C188,394.9,188,397.7,188.27,397.75Z"/><path class="cls-19" d="M166.54,292.19l2.37-.69a1.1,1.1,0,0,1-.82,1.27C166.83,293.18,166.54,292.19,166.54,292.19Z"/><path class="cls-3" d="M106.39,237.48c.31,0,1.16.3,2.39,2.63,1.58,3,3.89,12,3.89,12l-6.89,2.56-.88-1.88-1.46-14.49S106.31,237.48,106.39,237.48Z"/><path class="cls-5" d="M97.28,236.18a42.1,42.1,0,0,1,9.11,1.3s1.66,14.29-1.49,25.15c-.71,2.43.58,10.07.58,10.07l-20.42-.27S87.48,254,86.57,251s-.93-13.38-.93-13.38l4.58-.79A46.51,46.51,0,0,1,97.28,236.18Z"/><path class="cls-13" d="M94.9,299.22s.46,5.21,1.29,6.66,0,3.89-.09,4.23-1.75.82-4.46.53-2.67-.91-2.45-1.92,1.66-2.31,1.75-3.28a24.83,24.83,0,0,0-.83-4.42Z"/><path class="cls-17" d="M103.18,268.4s14.09-.79,17.24,1.12-2.24,11.26-2.24,11.26-9.8-.45-29,.66c-4.55.26-5-11.86-4.1-12.87S103.18,268.4,103.18,268.4Z"/><path class="cls-24" d="M91.3,311c-2.79-.29-2.44-1.66-2.22-2.7.14-.66.94-1.42,1.42-2.15a4.69,4.69,0,0,0,1.87.91c1.26.37,3-.37,4.08-.83a13.38,13.38,0,0,1,.37,3.6C96.78,310.22,94.09,311.34,91.3,311Z"/><path class="cls-18" d="M92.84,278.48c.57,4.26,3.35,25.47,3.35,25.47l-6.46.81s-8-27.69-7.55-31.93,3.38-4.59,3.38-4.59S91.35,267.2,92.84,278.48Z"/><path class="cls-13" d="M85.42,239.16c1.9-.71,2.84,16.49,3.1,23.57a84.11,84.11,0,0,0,10.74-.11c.69-.05,2.28-.63,3-.72a7,7,0,0,1,1.69-.08,30.69,30.69,0,0,1,4,1.78c.38.39,1.39,1.38,1.22,1.8s-2-1.19-2-1.19l-.86-.48c1.07,1,3.13,2.44,2.84,2.94s-2.15-.91-3.47-1.87c1.13,1,2.54,2.86,2.22,3.14s-1.9-1.86-3.61-2.47c-.64-.23-1.27.4-1.77.47a3.32,3.32,0,0,1-1.29.07l-1.86-.52c-.63.06-.65.43-1.29.57s-2,.32-2.9.55c-5.43,1.33-7.24,1.94-8.91,1.94C81.2,268.55,80.9,240.86,85.42,239.16Z"/><path class="cls-3" d="M81.79,255.31c-.36-7.25-.3-16.19,3.76-17.71,1.61-.6,4.43,3,3.93,17.86A30.6,30.6,0,0,1,81.79,255.31Z"/><path class="cls-13" d="M113.82,303.68a3.52,3.52,0,0,0,.45,3c1,1.2,5.21,2.38,5.76,3a1.83,1.83,0,0,1,.51,1.2l-11.79-.32.13-3.56.54-2.56Z"/><path class="cls-24" d="M115,307.28s-3,1.23-4.49.5-1.42-.93-1.84-.65-.58,3.6-.58,3.6l13.26.39c.92,0,1.39-.7.64-1.28a11.67,11.67,0,0,0-1.45-.86A41.84,41.84,0,0,0,115,307.28Z"/><path class="cls-18" d="M113.38,271.74c.91-1.92,3-4.42,6.62-2.91,3.48,1.43,4.42,5,3.32,8.56s-8.32,24.83-8.57,27.75l-5.77,0s1-16.79,1.3-20.86A39.33,39.33,0,0,1,113.38,271.74Z"/><path class="cls-12" d="M122.74,252.2H103.46a1.25,1.25,0,0,0-1.16.78l-5.94,14.53H85.73a.54.54,0,0,0-.54.54h0a.55.55,0,0,0,.54.54H116a2.11,2.11,0,0,0,1.93-1.26l6-13.35A1.26,1.26,0,0,0,122.74,252.2Z"/><path class="cls-19" d="M112.36,260.66a1.06,1.06,0,1,1-.8-1.39A1.13,1.13,0,0,1,112.36,260.66Z"/><path class="cls-25" d="M101.87,218.73a16,16,0,0,1-1.71-.68,8.63,8.63,0,0,0-1.94-.74,4.71,4.71,0,0,0-4,1.06c-1.27,1.38-3.53.24-3.08,7.47.52,8.18,5.07,7.28,5.18,7.14l4-5.23s1.38,3,1.38,2.91S108.84,221.08,101.87,218.73Z"/><path class="cls-13" d="M98.41,233.58l.4,2.93s.88,4.21-.26,5-4.81-5.14-4.81-5.14l.39-7.41Z"/><path class="cls-15" d="M94,231.38a8.35,8.35,0,0,0,4.74,4.68l-.34-2.48L94.13,229Z"/><path class="cls-13" d="M98.18,220.93a3.9,3.9,0,0,1,4.49,3.94,29.67,29.67,0,0,1-.33,3.74c-.52,3.38-2.82,6.35-4.34,6.08s-5.35-3.17-4.68-8C93.74,223.75,95.67,221.33,98.18,220.93Z"/><path class="cls-13" d="M94.38,227.29a1.13,1.13,0,1,1-2.19-.38,1.24,1.24,0,0,1,1.32-1.15A1.26,1.26,0,0,1,94.38,227.29Z"/><path class="cls-25" d="M93.51,225.76s1.84.45,2.53-.73,3.12-3.74,6.22-2.68-2.73-2.57-3-2.57l-3.22,0s-2.3,1.89-2.38,2.09-.75,2.47-.75,2.47Z"/><path class="cls-19" d="M96.88,230.69l3.35.64a1.5,1.5,0,0,1-1.8,1C96.62,232.06,96.88,230.69,96.88,230.69Z"/><path class="cls-12" d="M387,397.52H37.88a1.25,1.25,0,0,0-1.24,1.24h0A1.24,1.24,0,0,0,37.88,400H387a1.23,1.23,0,0,0,1.24-1.24h0A1.24,1.24,0,0,0,387,397.52Z"/><path class="cls-13" d="M315.51,307.61c-.18-.5,2.28-.91,2.41-1.42s-3.1-.55-3.22-1c-.21-.82,3.54-.17,3.47-.56s-3.91-1.25-3.5-1.91,3.89,1.31,4,.86-3.39-1.54-3.33-2.53c0-.53,5.74,2.63,6.4,2.34s-.71-2.76-.18-3.13,2,5,2.4,5.21,8.07,4.58,10.81,5.28c.33-.92,1.05-2.16,1.34-3,1.54,1.09,2.68,1.64,4.27,2.64-1.15,2.88-2.79,6-3.59,6.4-2.44,1.1-11.87-6.73-13.76-8.06s-3-.91-4.24-1.33S315.68,308.12,315.51,307.61Z"/><path class="cls-26" d="M344,302.12c.73,3-3.16,9.69-3.16,9.69s-5.53-2.61-6.51-3.74c0,0,3.76-6.49,4-6.89a3.39,3.39,0,0,1,3.62-1.67C342.73,299.6,344,302.12,344,302.12Z"/></svg>