<svg id="Capa_1" data-name="Capa 1" xmlns="http://www.w3.org/2000/svg" viewBox="0 0 400 278"><defs><style>.cls-1{fill:#009a37;}</style></defs><title>index-icon</title><path class="cls-1" d="M216.63,5.22c-.38.3-.38.3.13.32.3,0,.6.08.66.19s0,.2-.18.2-.32.1-.32.24-.06.18-.23,0c-.34-.34-.56-.3-.56.12a.94.94,0,0,1-.24.6c-.42.41-.75.27-.75-.3s0-.52-1,.47a3.66,3.66,0,0,1-2,1.22,4.52,4.52,0,0,1-1.33.09c-.48-.11-.79.5-.4.74s.12,2.36-.39,3.35a7.63,7.63,0,0,1-5.32,3.4,6.67,6.67,0,0,0-3.88,1.77,11.83,11.83,0,0,1-1.44,1.31,17.86,17.86,0,0,0-1.57,1.31,29.89,29.89,0,0,1-3.42,2.91,17.52,17.52,0,0,1-3.53.26l-3.18.08-1.72-.83c-1-.46-1.79-.76-1.85-.64a1.31,1.31,0,0,1-.79.18c-.4,0-.7.12-.78.3a.45.45,0,0,1-.38.3c-.13,0-.41.33-.59.75a2.73,2.73,0,0,0-.16,1.83c.18,1.05.16,1.11-.42,1.72a2.29,2.29,0,0,1-1.72.76c-1.18.12-2.07-.1-4.43-1.17-1.85-.84-2.2-.84-2.82,0a3.55,3.55,0,0,1-1,.93,1.85,1.85,0,0,0-.76.7,7.68,7.68,0,0,1-2.6,2.16,1.93,1.93,0,0,0-.87.87c-.18.46-.38.6-.79.6s-.78.28-1.47,1c-.94,1-1,1.05-.7,1.79s.12,1.35-.14.67c-.1-.28-.18-.24-.51.18a1.17,1.17,0,0,0-.32.73.8.8,0,0,1-.28.6,1.52,1.52,0,0,0-.36,1c0,.32-.1.6-.21.6s-.18.16-.16.34c.08.49-.38,1.25-.72,1.25a.29.29,0,0,0-.3.27c0,.62.44.52,1.2-.25s1.09-1,1.27-.5.13.68-.2.68-.28.09-.2.31,0,.28-.32.16-.4-.06-.3.22a1.69,1.69,0,0,1,.14.52c0,.1.3.35.66.57s.51.4.3.4c-.44,0-1.28,1.51-1.41,2.56a3.67,3.67,0,0,1-.52,1.43c-.52.69-.52.69,0,.83a2.61,2.61,0,0,1,1.21,1.89,4.31,4.31,0,0,1-1,2.16,4,4,0,0,1-1.29.34c-.88.12-1,.08-.93-.16.21-.53-1.65-.26-2.29.36a1.83,1.83,0,0,1-1,.51c-.54,0-1.23.58-1.23,1,0,.16-.22.43-.5.57s-.49.42-.49,1.19-.08,1-.6,1.35a1.28,1.28,0,0,0-.59.94c0,.33-.18.57-.6.79a2.14,2.14,0,0,0-.83.8.73.73,0,0,1-.72.49c-.34,0-.46.08-.38.28s0,.34-.27.42a5.78,5.78,0,0,0-1.29.91c-.5.42-1.08.85-1.27,1a1.14,1.14,0,0,0-.5.6c-.14.41-.52.55-2.14.77-.7.1-1,.22-1,.4s-.14.3-.35.36c-.4.1-.5.37-.28.93.1.28.16.28.59,0,.28-.18.52-.28.56-.24s.32.52.61,1a3.84,3.84,0,0,1,.6,2.19A13.31,13.31,0,0,0,145.9,72a.64.64,0,0,1,0,.63,2.46,2.46,0,0,0-.22,1,1.12,1.12,0,0,1-1.47,1.07c-.86-.16-1-.32-.84-1.15.1-.5.28-.78.64-.9.65-.25.69-1.49.06-1.64a.82.82,0,0,1-.52-.54c-.06-.24-.22-.38-.35-.32-.4.14-.52-.08-.28-.51s-.06-.94-.5-.58-.63.16-1.11-.75-1.35-2-1.73-2-1-.77-1.05-1.21a1.22,1.22,0,0,0-.46-.69,9.71,9.71,0,0,1-.87-1c-.44-.57-.44-.57-.46-.14a1.91,1.91,0,0,1-.39,1c-.56.71-.5,1.39.28,2.66a8,8,0,0,1,.81,1.78A4.19,4.19,0,0,0,138,70a4.76,4.76,0,0,1,1.1,2.37,1,1,0,0,0,.17.61c.12.06.12.32,0,.66a3.3,3.3,0,0,0-.13,1c0,.4-.08.53-.66.69a2.78,2.78,0,0,0-2,1.71c-.7,1.47-2.09,3.28-2.53,3.28-.21,0-.49-.24-.67-.62a10.65,10.65,0,0,0-.74-1.19c-.41-.56-.43-.56-.79-.22s-.36.66-.36,1.69v1.33l-.63.06c-.58.06-.66.14-.78.79a22.71,22.71,0,0,1-.57,2.54c-.1.34.1.62,1,1.39,1.79,1.53,2.84,3.26,2,3.26-.34,0-.58.87-.42,1.41.1.32.2.36.4.18s.39-.14.75.08a2.31,2.31,0,0,1,.93,2c0,.38.08.7.18.7a2.26,2.26,0,0,1,.54.13c.26.1.32.06.22-.19a.53.53,0,0,1,.18-.54c.35-.32.69-.06,1.36,1.09a2.53,2.53,0,0,1,.28,2.5c-.18.54-.31.72-.53.62s-.28,0-.14.28a6.75,6.75,0,0,1,.24,1.47l.08,1.09-.34-.66c-.42-.81-.74-.71-.9.28a2.54,2.54,0,0,0,1.16,2.44,3.53,3.53,0,0,1,.85,1.79,7.71,7.71,0,0,0,.77,2c.58.84.52,1.31-.25,2.17a4.89,4.89,0,0,0-.8,1.19c-.12.38-.2.42-.49.22-.52-.32-1.91.24-1.91.75a1.51,1.51,0,0,1-.18.64c-.24.39.26.89.6.61s.39-.12.77.28.46.52.2.62c-.46.17-.4,1.25.1,1.4s.55.5.2.5c-.1,0-.2.42-.2.91,0,.82,0,.92.4.82.53-.14.71.2.17.36s-.41.21-.27,2.26c.16,2.34.18,2.4,1.17,3.45.71.78.89,1.13.51,1.13a.2.2,0,0,1-.19-.19c0-.12-.12-.2-.28-.2s-.3.51-.4,2.12a14.13,14.13,0,0,0,0,2.48c.08.2.06.36,0,.36-.3,0-1.37,1.15-1.73,1.83s-.31.63-.43.19-.14-.41-.4-.09c-.71.95-.08,3.05,1.23,4,.36.27.68.63.68.81a.53.53,0,0,0,.29.46c.22.08.34,0,.42-.44a3,3,0,0,1,.6-1.13c.41-.54.49-.56.77-.28s.28.4.08.83-.32.48-.42.42-.22,0-.28.2a.44.44,0,0,1-.39.32c-.44,0-.34.59.18,1a2.11,2.11,0,0,0,2.7.06s0-.18-.16-.34-.18-.32,0-.44a.36.36,0,0,1,.45.14.62.62,0,0,0,.56.22c.56-.12.42.3-.14.44a.56.56,0,0,0-.5.65c0,.42-.06.48-.23.3-.36-.36-.74-.3-.74.1a5.84,5.84,0,0,1-.14,1,1.15,1.15,0,0,0,.12.94c.2.25.16.39-.28.79a1.81,1.81,0,0,1-1,.5c-.57,0-1.43,1.47-1.09,1.88s.06.9-.32.9a1.89,1.89,0,0,0-.83.55c-.3.3-.95.87-1.43,1.27l-.87.76h.63c.34,0,.68.08.74.19s-.14.2-.48.2-.62.1-.62.32a3.73,3.73,0,0,1-1,1.27c-1,1-1.19,1.49-.75,2,.21.2.18.31-.2.55a1.08,1.08,0,0,0-.44.74c0,.57-.32,1-.71,1a.49.49,0,0,0-.44.26c0,.14.1.24.34.24s.41.09.41.21-.27.2-.79.12c-.87-.12-.89-.1-.58.5s.06.69-.41.26-.42-.34-.8,0a1.3,1.3,0,0,0-.39.77c0,.4,0,.4-.28.06s-.52-.42-.52.14a1,1,0,0,1-.3.71.92.92,0,0,0-.29.52.29.29,0,0,1-.3.28c-.42,0-.38-.18.2-.72a1.46,1.46,0,0,0,.49-.89c0-.42,0-.44-.39-.08-.22.2-.4.26-.4.14a.27.27,0,0,0-.3-.24c-.24,0-.26.08-.1.38a2.21,2.21,0,0,1,.2.65c0,.14-.16,0-.32-.29-.43-.82-.93-.7-1.56.39-.38.66-1.06,1-1.37.66-.14-.14,0-.2.33-.2.6,0,.94-.48.58-.83a.83.83,0,0,0-.72-.08c-.37.1-.51.28-.57.77l-.08.64,0-.74c0-.39.06-.75.2-.79a.23.23,0,0,0,.08-.34c-.12-.18-.26-.18-.62.06a1,1,0,0,1-.77.2c-.2-.08-.32,0-.32.18a.82.82,0,0,1-.28.53c-.39.32-.18.8.36.8s.42,0-.06.39a1.77,1.77,0,0,1-1,.4c-.64,0-1,.32-1,.85a1.83,1.83,0,0,1-.39.88c-.5.63-.52,1.17,0,1.31s.71,1.13.4,1.13c-.1,0-.18-.18-.18-.38,0-.53-.54-.67-1.12-.29s-.65,1.07-.19,1.07a2.13,2.13,0,0,1,.85.51c.48.44.58.46.77.2.54-.73.68.12.18,1.07-.37.76-.51.76-.37,0s-.32-1.15-.82-.95a.65.65,0,0,0-.1,1c.12.08.1.26-.06.52s-.16.46.3.79a1.22,1.22,0,0,1,.56.88.53.53,0,0,0,.39.55c.46.12.56,1,.16,1.27a8.79,8.79,0,0,1-2.34.06c-2-.12-2.1-.1-2.38.28-.16.22-.66.85-1.11,1.41-1,1.21-.92,1.59.39,2.36.5.3.92.68.92.86a10.58,10.58,0,0,0,2,2.18,13,13,0,0,1,2,2.14c0,.16.37.32.91.4,1.31.18,1.47.28,1.47.81s1.13,1.47,1.94,1.47c.42,0,.64.12.74.38a3.79,3.79,0,0,0,1.17,1.07,26.22,26.22,0,0,1,2.18,1.63l1.13.91,1.24-.29c.67-.16,1.5-.38,1.86-.48.52-.16.68-.14,1,.16s.26.45.1.89-.14.64.34,1.13a3.34,3.34,0,0,0,1.29.8c.68.2.74.27.64.73a4.22,4.22,0,0,0-.14.62,3.49,3.49,0,0,0,.91,1.88,2.66,2.66,0,0,1,.68.74c.14.26.23.33.25.2,0-.28,1-.32,1.29-.06a2.63,2.63,0,0,0,2,.14c.58-.14.83-.1,1.11.15a1.4,1.4,0,0,0,.82.32,2.34,2.34,0,0,1,1.23.74c.59.57.79.67,1,.47a1,1,0,0,1,.77-.12c.34.1.52,0,.6-.16s.32-.27,1-.19a3.6,3.6,0,0,1,1.13.31,4.28,4.28,0,0,0,1.53.28l1.25,0,.06-1.23c.06-1.15.1-1.23.52-1.17s.43,0,.43-.24c0-.52.36-.53,1.08,0a1.74,1.74,0,0,0,1.19.38c.41-.08.51,0,.51.28s.12.39.74.37.79,0,1.25.9c.81,1.51,1.47,2.36,1.8,2.36a.86.86,0,0,1,.58.32,2.09,2.09,0,0,0,1.85.69c.73,0,1.33.24,3.51,1.59,1.13.69,3.06,1,3.24.5s1.66-.42,2.5.29c.39.34,1.15,1,1.68,1.37,1,.78,1,.78,1.55.44s.6-.32.88.06a4.5,4.5,0,0,1,.51,1.19c.28.91.46,1.09,1.19,1.09.42,0,.7.2,1.16.84a3.74,3.74,0,0,0,1.21,1.09,1.45,1.45,0,0,1,.69.55.48.48,0,0,0,.4.3c.16,0,.26.06.24.16a4.22,4.22,0,0,0,.41,1.33,2.23,2.23,0,0,1,.08,1c-.06.48.08.76.64,1.33.81.86.85,1.12.26,1.33l-.44.16.44.24a.85.85,0,0,1,.43.72,1.09,1.09,0,0,0,1,1.09,2.89,2.89,0,0,1,1.13.49c.71.5.73.5.79.1s.38-.51.54,0,.83,1.19,1.13,1.07.43.2.65.62c.56,1,1.1,1.33,2.09,1.17.79-.14.85-.1,1.68.81a4.76,4.76,0,0,1,1,1.49,2,2,0,0,0,.49.88,2.14,2.14,0,0,1,.52,1,2.25,2.25,0,0,0,.34.87c.14.18.14.32,0,.4a3.55,3.55,0,0,0-.52.83c-.38.76-.22,1.29.44,1.49a.52.52,0,0,1,.39.42c0,.2.14.26.48.16s.54,0,.6.1c.18.3,1.57.28,1.84,0s1.25.28,1.25.73a.48.48,0,0,0,.3.4c.22.1.3.46.3,1.53s.08,1.49.34,1.76.27.42.1.6a1,1,0,0,0-.24.62.55.55,0,0,1-.4.47c-.46.12-.48.3-.16,1.17a2.05,2.05,0,0,0,1.93,1.27c.63,0,1,.44,1,1.18,0,.51.69.55,1.39.07a2.92,2.92,0,0,1,1.23-.37c.6,0,.77,0,.87.37s.14.4.58-.09a3.22,3.22,0,0,0,.54-.78c.05-.2.19-.18.55.08a3,3,0,0,0,1.63.34c.93,0,1.17.08,1.35.39.28.52.87.5,1.71,0,.61-.38.69-.38,1.15-.08s.49.31.77-.34c.4-.93.82-1.23,1.55-1.07s1.59-.28,2.14-1.31a7.76,7.76,0,0,1,1.08-1.43c.59-.56.61-.56.77-.14a.61.61,0,0,0,.64.41,3.13,3.13,0,0,1,.95.18,10.5,10.5,0,0,0,1,.32c.5.1.56.18.46.7s0,.59.18.67c.43.16.41.18.55-.32l.12-.45.4.47a1.73,1.73,0,0,1,.39.94c0,.59.54.63,1.28.06a1.23,1.23,0,0,1,1.64.06c.38.29,1.06-.18,1.06-.74s.51-.89,1.25-.75c.43.08.53,0,.53-.32s.12-.42.93-.42a2,2,0,0,1,1.31.34,8.12,8.12,0,0,0,1.3.85c.51.28,1,.66,1,.86a2,2,0,0,0,.45.79c.2.24.54.62.74.83.34.4.34.4.4-.13a1.48,1.48,0,0,1,.13-.56,3.06,3.06,0,0,1,1.49.91c0,.34.44.46.82.22s1.13,0,.81.3a1,1,0,0,0-.24.61c0,.28.08.34.36.24.83-.36,1.23-.36,1.23,0a2.83,2.83,0,0,0,.7,1.15c.67.78.69.78,1.11.4s.43-.32.57-.08a1.55,1.55,0,0,1,.2.78c0,.35-7.26,12.94-9.29,16.06-.3.43-.28.45.2.33s.54,0,.62.18.37.32.89.32a2.18,2.18,0,0,1,1.13.28c.46.31,1,.2,1.75-.42a1.49,1.49,0,0,1,2.12,0,2.42,2.42,0,0,1,1.05,1.57,3,3,0,0,0,1,1.61A8.29,8.29,0,0,1,242,258a5.27,5.27,0,0,0,.79,1c.3-.3,7.32-42.13,7.17-42.56-.06-.14.06-.38.25-.56s.34-.48.18-1.37a3.33,3.33,0,0,1,.06-1.79c.2-.59.2-.85,0-1.15a1.67,1.67,0,0,1-.24-.83,1.63,1.63,0,0,0-.51-1,6,6,0,0,1-1-1.49,5,5,0,0,0-.91-1.45c-.43-.4-.43-.48-.2-1.07a3.45,3.45,0,0,0,.1-2.39c-.12-.85-.22-1-.85-1.29a10.83,10.83,0,0,1-1.67-1.07,3.67,3.67,0,0,0-1.35-.75,3,3,0,0,1-1.27-.9c-.65-.65-.89-1-.89-1.47s-.08-.65-.2-.71a27.23,27.23,0,0,1-.2-4.9c0-4.23,0-4.81.36-5.2a.83.83,0,0,1,.71-.36.71.71,0,0,0,.58-.14,2.27,2.27,0,0,1,1.15-.22,1.54,1.54,0,0,0,1.53-.67c.55-.64.63-.66,1.11-.42s.58.22,1.43-.44,1-.67,1.37-.49a3.06,3.06,0,0,1,.91.81c.5.7.86.77,1.13.28.18-.28.22-.28.42.1s1.21.61,1.21.14c0-.18.18-.3.46-.3a1.55,1.55,0,0,0,.71-.18c.24-.16.18-.3-.33-.77s-.6-.6-.28-.92.28-.39.1-.69-.18-.4,0-.5a.46.46,0,0,0,0-.85c-.2-.08-.28-.26-.2-.58a.52.52,0,0,0-.14-.61,2.06,2.06,0,0,1-.52-.82c-.16-.37-.39-.63-.63-.63a.57.57,0,0,1-.48-.2c-.2-.32-.91-.24-1.33.14s-.42.28-.59.1a2.21,2.21,0,0,0-1.18-.24,2,2,0,0,1-1.07-.2c-.18-.28-.95-.26-1.25,0s-.24.18-.24-.06a.77.77,0,0,0-.37-.52c-.32-.19-.44-.15-.84.26a1.61,1.61,0,0,1-.61.48,37.61,37.61,0,0,1-.16-4.78c0-4.61,0-4.77.38-4.65a.48.48,0,0,0,.51-.1,2.17,2.17,0,0,1,1.11-.2,1.94,1.94,0,0,0,1.31-.32,1,1,0,0,1,.84-.21,10.86,10.86,0,0,1,2.1.53c.22.1,4.37.22,9.23.28,8,.08,8.8.06,8.4-.22a1,1,0,0,1-.46-.59.25.25,0,0,0-.33-.22.36.36,0,0,1-.42-.34,1,1,0,0,0-.28-.52c-.14-.08-.1-.29.12-.59a1.89,1.89,0,0,0,.32-.91c0-.56.39-.82.61-.42a1.14,1.14,0,0,0,.66.44,2.61,2.61,0,0,1,1.11,1,3.29,3.29,0,0,0,2.26,1.71c.48,0,.52-.06.52-.9s.06-.93.5-1.09c.27-.1.49-.28.49-.4s.22-.2.48-.2c.87,0,3.69-2.16,3.69-2.83,0-.28.64-.72,1-.74a2.2,2.2,0,0,1,.92.32c.49.3.51.36.45,1.75-.1,1.74.24,2.52,1.71,4a2.57,2.57,0,0,1,1.13,2.18,6.59,6.59,0,0,0,.48,1.81,8.85,8.85,0,0,1,.41,3l.1,2.39.5-.06c.28,0,.73,0,1,0a3,3,0,0,0,1.13-.3c.54-.28.58-.36.38-.74a2,2,0,0,1-.1-1.13,1.81,1.81,0,0,0-.28-1.35,8.43,8.43,0,0,1-.65-2,9.35,9.35,0,0,0-.92-2.46,9.88,9.88,0,0,1-.85-2.39,6.93,6.93,0,0,0-.51-1.72.73.73,0,0,1,0-.94,1.76,1.76,0,0,0-.78-2.06,2.83,2.83,0,0,1-.77-1.09c-.24-.64-.22-.8,0-1.21a1.44,1.44,0,0,0-.56-1.91,22.8,22.8,0,0,1-2-2.24c-1.14-1.39-1.61-1.85-1.89-1.77s-.46-.16-.81-1.07c-.58-1.41-.52-1.35-.88-1s-.41.16-.87-.16-.64-.4-1.35-.14-.77.24-.85-.06.57-.91,1.78-2c1-.93,2.48-2.3,3.22-3a8.6,8.6,0,0,1,1.55-1.35c.1,0,.18-.22.18-.5s.11-.55.27-.61c.36-.14.88-1.71.6-1.81-.62-.2-.93-.74-1.59-2.54-.85-2.42-1.13-2.76-2.06-2.48a1.93,1.93,0,0,1-.74.12,3.26,3.26,0,0,1-.2-.84,3.53,3.53,0,0,0-.45-1.27,9.87,9.87,0,0,1-.9-3.13,3.2,3.2,0,0,0-.59-1.2l-.46-.55.38-1.21.4-1.21L273.5,127a3.05,3.05,0,0,0-1-1.33c-.5-.14-.48-.58.12-2.17.47-1.25.47-1.37.2-2.3a2.3,2.3,0,0,1-.08-1.49c.21-.6.25-1.67.13-4.37l-.09-2,.65-.5a4.77,4.77,0,0,1,1.25-.71,1.91,1.91,0,0,0,1.21-2.05c-.14-2.64-.08-3.21.4-4.17.67-1.43,1.55-2.34,2-2.18s.38.06.28-.62a2.74,2.74,0,0,0-.61-1.27c-.34-.35-.44-.61-.34-.79.26-.4-.1-1.27-.74-1.85-.45-.43-.77-.51-2.3-.61-2-.12-2.46,0-3.51,1l-.74.68-.79-.42a1.71,1.71,0,0,0-1.81-.1,3.44,3.44,0,0,0-1.11.48,4.28,4.28,0,0,1-1.75.2,4.44,4.44,0,0,0-2,.27,1,1,0,0,1-.76.18,1.79,1.79,0,0,0-.93.12,10.45,10.45,0,0,1-4.72-.67,3.42,3.42,0,0,0-1.57-.3c-.93,0-1.09.06-1.09.38a1.1,1.1,0,0,1-.48.69,1.55,1.55,0,0,0-.61.71c-.16.52-.74.52-1.2,0a1.28,1.28,0,0,0-1.15-.35l-.77.06L245,95.26c-2.54-3.43-4.84-6.37-5.08-6.49a1.54,1.54,0,0,0-1.9.16c-.32.38-.38.38-1.08.1a3.73,3.73,0,0,0-1.13-.32.59.59,0,0,1-.49-.3.6.6,0,0,0-.52-.29,1.55,1.55,0,0,1-.91-.58,1,1,0,0,0-.84-.49,3,3,0,0,1-.93-.08c-.73-.22-2.68.29-4,1-1,.57-1.87.65-2.22.24-.16-.2-.68-.26-2-.22A5.26,5.26,0,0,1,222,87.9a3.41,3.41,0,0,0-1.41-.18,5.86,5.86,0,0,1-1.69-.2,1.38,1.38,0,0,0-1.11,0c-.6.18-.8.14-1.09-.1s-.42-.28-1.28.2a2.34,2.34,0,0,1-2.42.28c-.57-.22-.81-.52-1.47-1.83-.57-1.15-.75-1.72-.67-2.14s0-.7-.46-1.19-.59-.62-1.13-.4c-.73.3-2.12-.14-2.22-.69a1.45,1.45,0,0,0-.26-.56A2.39,2.39,0,0,1,206.6,80a7,7,0,0,0-.18-1.55,2.54,2.54,0,0,1,.08-1.57,5.31,5.31,0,0,0,.16-2.06c-.1-1.06-.08-1.13.36-1.27a1.7,1.7,0,0,0,.67-.44,10.48,10.48,0,0,0,.18-2.78v-2.5L207,67a17.21,17.21,0,0,1-1.75-2c-.48-.62-1-1.13-1.11-1.13s-.3-.32-.34-.76-.4-1.76-.73-3-.72-2.64-.78-3.06c-.12-.7-.22-.81-.81-1s-.74-.1-1,.14c-.48.43-.8.21-.8-.52,0-1.51-1.61-2.64-2.18-1.57a5.78,5.78,0,0,1-2.82,1.39c-.3,0-.36-.08-.26-.36s.22-.81.34-1.41a3.35,3.35,0,0,1,1-1.82c.5-.52.68-.86.56-1s0-.4.55-.72A5.45,5.45,0,0,0,198.54,47a1.78,1.78,0,0,1,.68-1.08l.65-.55-.4-.42c-.55-.6-.51-1.23.16-2.76a3.84,3.84,0,0,0,.48-2.5,2,2,0,0,1,.65-2.14c.44-.52,1-1.23,1.2-1.55a33.2,33.2,0,0,0,2.52-5.36c.83-2.84,2.1-4.43,4-5l1.19-.38,1.82-3.65,1.83-3.66L216,17c6.11-2.18,6.49-2.38,6.23-3.45-.1-.34,0-.48.18-.48s.3.1.3.22.32,0,.7-.34,1-.77,1.29-1,.59-.6.59-.78a7.41,7.41,0,0,0-.77-1.6,9.49,9.49,0,0,1-.92-1.87A1.5,1.5,0,0,0,223.2,7a6.82,6.82,0,0,0-2.45-.82.76.76,0,0,1-.61-.32A2,2,0,0,0,219,5.3L217.52,5A1.18,1.18,0,0,0,216.63,5.22Zm-2.29,3c.3.35.12.89-.28.89a.54.54,0,0,0-.39.3.49.49,0,0,1-.82.12c-.06-.1,0-.32.2-.48a1.13,1.13,0,0,0,.3-.6C213.35,7.88,214,7.72,214.34,8.22ZM163.13,37.89c-.12.22-.3.36-.42.28s-.12-.22,0-.4C163.09,37.36,163.36,37.44,163.13,37.89ZM143.47,71c0,.39-.25.69-.45.49s.08-.87.27-.87S143.47,70.83,143.47,71Zm-2.18,66.72c0,.29-.14.39-.5.39s-.47,0-.14-.37C141.09,137.27,141.29,137.25,141.29,137.75Zm-18.78,18.83c-.14.14-.67-.41-.56-.61s.24,0,.38.18S122.57,156.54,122.51,156.58Z"/><path class="cls-1" d="M125.49,148.82a2.69,2.69,0,0,0-.66.78c-.2.39-.18.45.12.45s.52-.29.74-.69C126.14,148.54,126.06,148.37,125.49,148.82Z"/><path class="cls-1" d="M125.37,153.65c0,.12-.54.27-1.11.33s-1,.18-1,.32c.1.32.92.4,1.26.1a1.6,1.6,0,0,1,.81-.3c.59-.06.73-.18.56-.45S125.47,153.37,125.37,153.65Z"/></svg>