<svg xmlns="http://www.w3.org/2000/svg" xmlns:xlink="http://www.w3.org/1999/xlink" viewBox="0 0 400 400"><defs><style>.cls-1{fill:none;}.cls-2{isolation:isolate;}.cls-3{clip-path:url(#clip-path);}.cls-4{fill:#009ac5;}.cls-5{fill:#0070a6;}.cls-6{fill:#155a88;}.cls-16,.cls-7{fill:#fff;}.cls-8{fill:#ededed;mix-blend-mode:multiply;}.cls-9{fill:#056798;}.cls-10{fill:#8cd3f6;}.cls-11{clip-path:url(#clip-path-2);}.cls-12{fill:#f4ae0e;}.cls-13{clip-path:url(#clip-path-3);}.cls-14{fill:#ffc38d;}.cls-15{clip-path:url(#clip-path-4);}.cls-16{opacity:0.3;}</style><clipPath id="clip-path"><circle class="cls-1" cx="200" cy="200" r="200"/></clipPath><clipPath id="clip-path-2"><circle class="cls-1" cx="-220" cy="200" r="200"/></clipPath><clipPath id="clip-path-3"><path id="SVGID" class="cls-1" d="M-103.85,108.53C-117.48,43.38-89.51-11.44-228-28.11S-427.78,15.23-433.44,38.77c-7.82,32.51,79.43,38,65.44,66.54-7.74,15.78-27.37,32.87-39.44,52.76-9.76,16.07-14.58,34-4.22,54.45,5.38,10.64-69.73,179.22,113.8,203.7C-213,427.53-103.94,382.64-24.2,316.59c156.71-129.81-66-142.92-79.65-208.06Z"/></clipPath><clipPath id="clip-path-4"><circle class="cls-1" cx="620" cy="200" r="200"/></clipPath></defs><title>icons</title><g class="cls-2"><g id="Capa_1" data-name="Capa 1"><g class="cls-3"><rect class="cls-4" x="-231" y="-11" width="661.5" height="441"/><path class="cls-5" d="M145.75,47l60.68,49,28-25.23L153,41a1.42,1.42,0,0,0-1.22.12l-5.92,3.66A1.4,1.4,0,0,0,145.75,47Z"/><path class="cls-6" d="M146,44.65l-.13.08a1.4,1.4,0,0,0-.15,2.28l60.68,49,28-25.23-9.32-3.42C213.54,83.09,184.26,77.69,146,44.65Z"/><path class="cls-5" d="M251.73,184.75l-31.85-71.22L251.43,93l8,86.29a1.42,1.42,0,0,1-.43,1.15L254,185.2A1.4,1.4,0,0,1,251.73,184.75Z"/><path class="cls-6" d="M254.09,185.09l-.12.11a1.4,1.4,0,0,1-2.24-.45l-31.85-71.22L251.43,93l.92,9.89C234.23,110,231.94,139.67,254.09,185.09Z"/><path class="cls-7" d="M157.32,141.27C191,109.79,238,65,250.26,56.44s28.85-9.19,32.74-4.13-5.05,24-14.11,30.36-96,61.5-104.84,67.35S147.67,150.86,157.32,141.27Z"/><path class="cls-8" d="M227.32,101.64c-38,25.76-64.19,44.63-74.45,46.8-.58,4.44,5,5.69,11.18,1.58,8.81-5.85,95.79-61,104.84-67.35s18-25.3,14.11-30.36a4.82,4.82,0,0,0-.84-.85C279.35,63.51,252.61,84.5,227.32,101.64Z"/><path class="cls-9" d="M137.65,120.06l20.28,22.26,12.36-11.49-29-13.14a.54.54,0,0,0-.48,0l-3,1.47A.56.56,0,0,0,137.65,120.06Z"/><path class="cls-9" d="M179.36,174.28,163.05,149l14.27-9,5.27,31.4a.56.56,0,0,1-.13.46l-2.19,2.52A.57.57,0,0,1,179.36,174.28Z"/><path class="cls-10" d="M275.88,71a19.88,19.88,0,0,0,2.49-8.32l-3.83,3A19.86,19.86,0,0,1,275.88,71Z"/><path class="cls-10" d="M273.78,64l4.51-3.47a8.9,8.9,0,0,0-1.43-3.85l-5.21,4A21.74,21.74,0,0,1,273.78,64Z"/><path class="cls-10" d="M262.39,53.45a23.75,23.75,0,0,1,4.12,2.38L270.24,53A22.38,22.38,0,0,0,262.39,53.45Z"/><path class="cls-10" d="M268,56.94a24.35,24.35,0,0,1,2.54,2.4l5.21-4a8.7,8.7,0,0,0-3.24-1.86Z"/><path class="cls-10" d="M228.55,76.59l2.18,2.82,3.34-2.94-2.22-2.88Z"/><path class="cls-10" d="M224.39,80.4l2.1,2.73,3.35-2.94-2.16-2.81Z"/><path class="cls-10" d="M191.38,111.26l1.26,1.64L196,110l-1.36-1.77Z"/><path class="cls-10" d="M195.48,107.38l1.39,1.8,3.35-2.94-1.49-1.93Z"/><path class="cls-10" d="M207.83,95.77,209.57,98l3.34-2.94-1.81-2.36Z"/><path class="cls-10" d="M199.6,103.5l1.5,2,3.35-2.94-1.6-2.08Z"/><path class="cls-10" d="M212,91.91l1.84,2.39,3.34-3-1.91-2.48Z"/><path class="cls-10" d="M216.1,88.06,218,90.57l3.34-2.94-2-2.6C218.28,86,217.19,87.05,216.1,88.06Z"/><path class="cls-10" d="M220.24,84.22l2,2.63,3.35-2.94-2.09-2.71Z"/><path class="cls-10" d="M203.71,99.63l1.62,2.11,3.35-2.94L207,96.58Z"/><path class="cls-10" d="M187.27,115.15l1.14,1.48,3.34-2.95-1.23-1.6Z"/><path class="cls-10" d="M241.16,65.31l2.26,2.93,3.35-2.94-2.23-2.89Q243,63.7,241.16,65.31Z"/><path class="cls-10" d="M248.4,59.31c-.81.6-1.8,1.39-3,2.35l2.2,2.86L250.49,62S249.29,60.48,248.4,59.31Z"/><path class="cls-10" d="M236.93,69,239.19,72l3.34-3-2.26-2.94C239.21,67,238.1,68,236.93,69Z"/><path class="cls-10" d="M183.17,119.05l1,1.3,3.35-2.94L186.41,116Z"/><path class="cls-10" d="M179.4,122.65l.9,1.1,3-2.62-1-1.27Z"/><path class="cls-10" d="M232.73,72.79l2.23,2.9,3.34-2.94-2.25-2.93Z"/><path class="cls-10" d="M244.39,97.17l-2.17-2.82,3.7-2.48,2.22,2.88Z"/><path class="cls-10" d="M239.64,100.22l-2.1-2.73,3.7-2.48,2.16,2.8C242.17,98.61,240.91,99.41,239.64,100.22Z"/><path class="cls-10" d="M201.35,124.22l-1.27-1.64,3.7-2.48,1.37,1.77Z"/><path class="cls-10" d="M206.15,121.25l-1.38-1.81,3.7-2.48,1.48,1.93Z"/><path class="cls-10" d="M220.54,112.28,218.81,110l3.7-2.48,1.82,2.36Z"/><path class="cls-10" d="M211,118.27l-1.5-2,3.7-2.48,1.6,2.07Z"/><path class="cls-10" d="M225.33,109.28l-1.84-2.38,3.7-2.48,1.92,2.48Z"/><path class="cls-10" d="M230.11,106.27l-1.94-2.51,3.71-2.48,2,2.61Z"/><path class="cls-10" d="M234.88,103.25l-2-2.63,3.7-2.48,2.09,2.72Z"/><path class="cls-10" d="M215.75,115.28l-1.62-2.11,3.7-2.48,1.71,2.22Z"/><path class="cls-10" d="M196.53,127.19l-1.13-1.47,3.7-2.48,1.24,1.6Z"/><path class="cls-10" d="M258.53,87.88l-2.26-2.94,3.7-2.48,2.22,2.89C261.1,86.12,259.87,87,258.53,87.88Z"/><path class="cls-10" d="M266.18,82.42c-.79.62-1.81,1.38-3,2.25L261,81.8l3.14-2.1Z"/><path class="cls-10" d="M253.84,91l-2.26-2.93,3.71-2.48,2.26,2.94C256.39,89.32,255.15,90.15,253.84,91Z"/><path class="cls-10" d="M191.72,130.15l-1-1.3,3.7-2.47,1.11,1.43Z"/><path class="cls-10" d="M187.27,132.88l-.84-1.15,3.31-2.22,1,1.26C188.53,132.12,187.27,132.88,187.27,132.88Z"/><path class="cls-10" d="M249.13,94.11l-2.23-2.9,3.7-2.48,2.26,2.93Z"/><path class="cls-6" d="M139.32,118.43l-1.5.74a.56.56,0,0,0-.17.89l20.28,22.26,12.36-11.49-3.38-1.53C160.84,137.1,147.57,132.68,139.32,118.43Z"/><path class="cls-6" d="M181.37,173.08l-1.1,1.27a.57.57,0,0,1-.91-.07L163.05,149l14.27-9,.61,3.66C168.84,147.49,169.71,161.45,181.37,173.08Z"/><path class="cls-7" d="M402.15,342.82a11.25,11.25,0,0,0-21.18-.49,18.37,18.37,0,0,0-33.34,5.58,18.15,18.15,0,0,0,.54,10.46,297,297,0,0,1-76.43,3.44A38.49,38.49,0,0,0,217.39,318c0-.22,0-.45,0-.68a15.12,15.12,0,1,0-16.82,17,38.5,38.5,0,0,0-3.78,10.24,175.55,175.55,0,0,1-31.91-16.83,17,17,0,0,0-25-22.25c-10.17-12.26-16.66-26.21-18.36-41.57a19,19,0,0,0,3,.27,18.78,18.78,0,0,0,18.78-18.78c0-9.76-14.55-15.81-24.07-16.73-3.42-14.45,2.67-39.18,28.56-72.54C97.46,206.36,62.17,202.69,44,196.18a17.15,17.15,0,1,0-28.19-6.48l-.21-.08a4.74,4.74,0,0,0-5.93,2.72,37.27,37.27,0,0,1-37.06,23,37.36,37.36,0,0,1-34.5-33.57,37.29,37.29,0,0,1,17.48-35.3,6.5,6.5,0,0,0,2.67-7.93l0-.11a17.69,17.69,0,0,0,9.94,3.05c.26,0,.5,0,.76,0,1-.18,2.05-.31,3.1-.4a17.71,17.71,0,0,0,13.84-18.21,17.83,17.83,0,0,0-16.3-16.75,17.71,17.71,0,0,0-16.75,8.85C-50.21,80.83-40,24.12,6.08-11H-231V430H430.5V328.8A225.55,225.55,0,0,1,402.15,342.82ZM-46.27,50.53a2.56,2.56,0,0,1,2.55,2.56,2.55,2.55,0,0,1-2.55,2.55,2.55,2.55,0,0,1-2.55-2.55A2.56,2.56,0,0,1-46.27,50.53Zm-14.29,7.15A12.76,12.76,0,0,1-47.8,70.44,12.76,12.76,0,0,1-60.56,83.2,12.76,12.76,0,0,1-73.33,70.44,12.76,12.76,0,0,1-60.56,57.68Zm-18-41.91a3.44,3.44,0,0,1,3.43,3.43,3.43,3.43,0,0,1-3.43,3.43A3.43,3.43,0,0,1-82,19.2,3.44,3.44,0,0,1-78.6,15.77ZM-106,122.67a6.86,6.86,0,0,1-6.86-6.86A6.86,6.86,0,0,1-106,109a6.86,6.86,0,0,1,6.86,6.86A6.86,6.86,0,0,1-106,122.67Zm27.1,26.38a17.86,17.86,0,0,1-17.87-17.86,17.87,17.87,0,0,1,17.87-17.87,17.87,17.87,0,0,1,17.87,17.87A17.86,17.86,0,0,1-78.94,149.05Zm99.54,63.3a5.62,5.62,0,1,1,5.62-5.61A5.61,5.61,0,0,1,20.6,212.35ZM161.74,353.12a5.68,5.68,0,0,1-3.15-.95,17.86,17.86,0,1,1-.78-8.83,5.68,5.68,0,1,1,3.93,9.78Zm20.61,28.19a4,4,0,1,1,4-4A4,4,0,0,1,182.35,381.31ZM355.8,405A21.17,21.17,0,1,1,377,383.84,21.16,21.16,0,0,1,355.8,405Zm34.69-28.81a3.53,3.53,0,1,1,3.53-3.53A3.53,3.53,0,0,1,390.49,376.2Z"/><circle class="cls-7" cx="7.3" cy="44.68" r="20.09" transform="translate(-28.03 16.37) rotate(-42.02)"/><path class="cls-7" d="M30.84,5.41a32,32,0,0,1-32,32,32,32,0,0,1-32-32A31.89,31.89,0,0,1-28.69-11h55A31.89,31.89,0,0,1,30.84,5.41Z"/><path class="cls-7" d="M60.86,182.82a3.55,3.55,0,1,0-3.54-3.54A3.55,3.55,0,0,0,60.86,182.82Z"/><path class="cls-7" d="M42,146.78a3,3,0,1,0-3-2.95A2.95,2.95,0,0,0,42,146.78Z"/><circle class="cls-7" cx="94.95" cy="181.29" r="6.5"/><path class="cls-7" d="M136.13,277.5a5.37,5.37,0,1,0,5.36-5.36A5.36,5.36,0,0,0,136.13,277.5Z"/><circle class="cls-7" cx="168.32" cy="298.07" r="2.68"/><path class="cls-7" d="M283.92,325.34a5.5,5.5,0,1,0-6.17-4.75A5.5,5.5,0,0,0,283.92,325.34Z"/><path class="cls-7" d="M383.71,332.26a10.88,10.88,0,1,0-12.2-9.39A10.88,10.88,0,0,0,383.71,332.26Z"/><path class="cls-7" d="M403.31,326.62a3.28,3.28,0,1,0-3.68-2.83A3.29,3.29,0,0,0,403.31,326.62Z"/><path class="cls-7" d="M42,27.92a3.6,3.6,0,1,1-3.59-3.59A3.59,3.59,0,0,1,42,27.92Z"/></g><g class="cls-11"><g id="Layer_1"><g id="_187700000" data-name=" 187700000"><path id="_184523544" data-name=" 184523544" class="cls-12" d="M-103.85,108.53C-117.48,43.38-89.51-11.44-228-28.11S-427.78,15.23-433.44,38.77c-7.82,32.51,79.43,38,65.44,66.54-7.74,15.78-27.37,32.87-39.44,52.76-9.76,16.07-14.58,34-4.22,54.45,5.38,10.64-69.73,179.22,113.8,203.7C-213,427.53-103.94,382.64-24.2,316.59c156.71-129.81-66-142.92-79.65-208.06Z"/><g class="cls-13"><path id="_184523472" data-name=" 184523472" class="cls-14" d="M18.57,355.47l-166.35-69.78c-14.91-6.26-51.63,13.8-68.28,13.14h0c-8.4-.33-16,1.87-24.14,3.67a3.92,3.92,0,0,1-4.76-3.58c-.83-13,16.69-19.13,26.52-21.34l3.21-.72c18.51-4.17-17-15.38-19.85-16.45l-36.49-13.48-26.39-14c-10-3.7-6.76-18.21,4.73-14.52l24.65,10.86,32.25,8.84a1,1,0,0,0,1.26-.82,1,1,0,0,0-.55-1l-41.76-20.44-22.21-12.24c-8.8-5.36-1-18.21,7.85-14.61l22.21,10.87,41.33,17c.88.36,1.93-1,.9-1.49l-34.4-17.86-17.09-11c-7-3.89-6.68-8.77-5.22-11.42,2.47-4.46,7.43-4.57,12.39-2.7,4.77,1.8,10.14,6.18,18.34,9.77,16.86,7.36,36.42,16.34,40,18a.87.87,0,0,0,1-1.42l-25.45-17-14.79-11.51a7,7,0,0,1,1-10.28h0c2.61-1.94,4.86-1.34,8.67.28a93.46,93.46,0,0,0,13.54,9.15c12.61,6.93,29.55,16.39,34.41,19.29,31.81,17.23,39.85,14.47,68,40.59L39.64,289.48a9.43,9.43,0,0,1,6.61,10.69h0c-1.42,8-12.15,61.46-27.68,55.3Z"/></g><path class="cls-1" d="M-103.85,108.53C-117.48,43.38-89.51-11.44-228-28.11S-427.78,15.23-433.44,38.77c-7.82,32.51,79.43,38,65.44,66.54-7.74,15.78-27.37,32.87-39.44,52.76-9.76,16.07-14.58,34-4.22,54.45,5.38,10.64-69.73,179.22,113.8,203.7C-213,427.53-103.94,382.64-24.2,316.59c156.71-129.81-66-142.92-79.65-208.06Z"/></g></g></g><g class="cls-15"><path class="cls-16" d="M401.24,191.69c5.2,9.18,13.45,16.91,19.8,25.5,18.37,24.82-.74,53.86,7.64,80.62,7.31,23.31,37.69,29.56,59.9,30.5,37.42,1.6,74.79-.79,110.87-10.94,25-7,50.1-16.26,76.49-16.82,27-.57,52.35,10.26,78.41,15.38,28.62,5.62,62.84-.48,69.74-32.44,4.28-19.8-7.23-38-8.31-57.52-1.42-25.8,24.3-40,27.63-64.09,2.1-15.21-5.74-28.8-16-39.8-10.8-11.61-25.31-21.87-42-22.82-17.41-1-33,8.14-49.22,12.5C690.53,124,664.58,83.13,622.5,77.42c-19-2.57-42.3-1.35-59.53,7.49-16,8.21-23.8,26.46-41.77,31.82-19,5.67-36.43-5.67-54.51-9.29a48.18,48.18,0,0,0-48.1,17.49c-11.36,14.15-23.64,32.78-22.23,51.45A36.41,36.41,0,0,0,401.24,191.69Z"/></g></g></g></svg>