<svg xmlns="http://www.w3.org/2000/svg" xmlns:xlink="http://www.w3.org/1999/xlink" viewBox="0 0 400 400"><defs><style>.cls-1{fill:none;}.cls-2{isolation:isolate;}.cls-3{clip-path:url(#clip-path);}.cls-4{fill:#009ac5;}.cls-5{fill:#fff;}.cls-6{clip-path:url(#clip-path-2);}.cls-7{fill:#f4ae0e;}.cls-8{clip-path:url(#clip-path-3);}.cls-9{fill:#f9a872;}.cls-10{fill:#fa85cf;}.cls-11{fill:#fa96d5;}.cls-12{fill:#663636;}.cls-13{fill:#2a88aa;}.cls-14{fill:#1a1a1a;}.cls-15{fill:#ffc38d;}.cls-16{fill:#e2e2e2;}.cls-16,.cls-18{mix-blend-mode:multiply;}.cls-17{fill:#9f4743;}.cls-18{fill:#f9e9e1;}.cls-19{fill:#a85252;}.cls-20{fill:#132144;}.cls-21{fill:#ffd5b3;}.cls-22{fill:#009a37;}.cls-23{fill:#083a75;}</style><clipPath id="clip-path"><circle class="cls-1" cx="620" cy="200" r="200"/></clipPath><clipPath id="clip-path-2"><circle class="cls-1" cx="200" cy="200" r="200"/></clipPath><clipPath id="clip-path-3"><path id="SVGID" class="cls-1" d="M316.15,108.53C302.52,43.38,330.49-11.44,192-28.11S-7.78,15.23-13.44,38.77C-21.26,71.28,66,76.77,52,105.31c-7.74,15.78-27.37,32.87-39.44,52.76C2.8,174.14-2,192,8.34,212.52c5.38,10.64-69.73,179.22,113.8,203.7C207,427.53,316.06,382.64,395.8,316.59c156.71-129.81-66-142.92-79.65-208.06Z"/></clipPath></defs><title>icons</title><g class="cls-2"><g id="Capa_1" data-name="Capa 1"><g class="cls-3"><rect class="cls-4" x="189" y="-11" width="661.5" height="441"/><path class="cls-5" d="M822.15,342.82a11.25,11.25,0,0,0-21.18-.49,18.37,18.37,0,0,0-33.34,5.58,18.15,18.15,0,0,0,.54,10.46,297,297,0,0,1-76.43,3.44A38.49,38.49,0,0,0,637.39,318c0-.22,0-.45,0-.68a15.12,15.12,0,1,0-16.82,17,38.5,38.5,0,0,0-3.78,10.24,175.55,175.55,0,0,1-31.91-16.83,17,17,0,0,0-25-22.25c-10.17-12.26-16.66-26.21-18.36-41.57a19,19,0,0,0,3,.27,18.78,18.78,0,0,0,18.78-18.78c0-9.76-14.55-15.81-24.07-16.73-3.42-14.45,2.67-39.18,28.56-72.54-50.31,50.32-85.6,46.65-103.81,40.14a17.15,17.15,0,1,0-28.19-6.48l-.21-.08a4.74,4.74,0,0,0-5.93,2.72,37.27,37.27,0,1,1-54.08-45.88,6.5,6.5,0,0,0,2.67-7.93l-.05-.11a17.69,17.69,0,0,0,9.94,3.05c.26,0,.5,0,.76,0,1-.18,2.05-.31,3.1-.4a17.72,17.72,0,1,0-19.21-26.11c-3-34.09,7.28-90.8,53.32-125.92H189V430H850.5V328.8A225.55,225.55,0,0,1,822.15,342.82ZM373.73,50.53a2.56,2.56,0,1,1-2.55,2.56A2.56,2.56,0,0,1,373.73,50.53Zm-14.29,7.15a12.76,12.76,0,1,1-12.77,12.76A12.76,12.76,0,0,1,359.44,57.68Zm-18-41.91A3.43,3.43,0,1,1,338,19.2,3.44,3.44,0,0,1,341.4,15.77ZM314,122.67a6.86,6.86,0,1,1,6.86-6.86A6.86,6.86,0,0,1,314,122.67Zm27.1,26.38a17.87,17.87,0,1,1,17.87-17.86A17.86,17.86,0,0,1,341.06,149.05Zm99.54,63.3a5.62,5.62,0,1,1,5.62-5.61A5.61,5.61,0,0,1,440.6,212.35ZM581.74,353.12a5.68,5.68,0,0,1-3.15-.95,17.86,17.86,0,1,1-.78-8.83,5.68,5.68,0,1,1,3.93,9.78Zm20.61,28.19a4,4,0,1,1,4-4A4,4,0,0,1,602.35,381.31ZM775.8,405A21.17,21.17,0,1,1,797,383.84,21.16,21.16,0,0,1,775.8,405Zm34.69-28.81a3.53,3.53,0,1,1,3.53-3.53A3.53,3.53,0,0,1,810.49,376.2Z"/><path class="cls-5" d="M450.84,5.41A32,32,0,1,1,391.31-11h55A31.89,31.89,0,0,1,450.84,5.41Z"/><path class="cls-5" d="M396.1,52.94a5.89,5.89,0,1,0-5.89,5.89A5.88,5.88,0,0,0,396.1,52.94Z"/><path class="cls-5" d="M399.93,104.84a3,3,0,1,0-3-3A2.95,2.95,0,0,0,399.93,104.84Z"/><path class="cls-5" d="M392,141c-1.05.09-2.08.22-3.1.4A17.52,17.52,0,0,0,392,141Z"/></g><g class="cls-6"><g id="Layer_1"><g id="_187700000" data-name=" 187700000"><path id="_184523544" data-name=" 184523544" class="cls-7" d="M316.15,108.53C302.52,43.38,330.49-11.44,192-28.11S-7.78,15.23-13.44,38.77C-21.26,71.28,66,76.77,52,105.31c-7.74,15.78-27.37,32.87-39.44,52.76C2.8,174.14-2,192,8.34,212.52c5.38,10.64-69.73,179.22,113.8,203.7C207,427.53,316.06,382.64,395.8,316.59c156.71-129.81-66-142.92-79.65-208.06Z"/><g class="cls-8"><path id="_1845237601" data-name=" 1845237601" class="cls-9" d="M122.09,40.9l48.75,92.64c7.53,14.31,48.06,23.39,60.21,34.78h0c6.14,5.76,13.33,9.09,20.64,13a3.92,3.92,0,0,1,1.26,5.82c-7.9,10.38-25.14,3.53-34-1.24l-2.9-1.55c-16.72-9,2.81,22.77,4.23,25.42L239,243.9l10.79,27.86c5.15,9.35-6.82,18.18-13.09,7.86l-11.52-24.34-18.58-27.8a1,1,0,0,0-1.75.94L223,271.21,231.8,295c3.14,9.81-11.19,14.4-15.5,5.9l-9.67-22.76-20.08-39.92c-.43-.85-2.09-.55-1.66.53l14.3,36,5.7,19.53c2.72,7.51-.71,11-3.54,12.05-4.79,1.76-8.61-1.41-11.13-6.08-2.43-4.48-3.62-11.3-7.47-19.38-7.92-16.61-16.82-36.2-18.44-39.77a.87.87,0,0,0-1.69.41l8.1,29.52,3.63,18.38a7,7,0,0,1-7.49,7.11h0c-3.23-.24-4.54-2.16-6.37-5.88a93.13,93.13,0,0,0-4.23-15.79c-5-13.49-11.6-31.74-13.37-37.11-12.76-33.85-20.65-37-24.78-75.18L69,68.47a9.44,9.44,0,0,1,2-12.41h0c6.35-5.15,43.35-30,51.05-15.16Z"/><path id="_184523784" data-name=" 184523784" class="cls-10" d="M152.51,83.48c-17.46,19.61-39.58,30.06-65.41,33.22L19.93,2.4l79-40.11Z"/><path id="_185133000" data-name=" 185133000" class="cls-11" d="M75.64,96.5l69.48-31.77a6.32,6.32,0,0,1,8.37,3.12l10.83,23.69a6.32,6.32,0,0,1-3.12,8.37L91.72,131.68a6.32,6.32,0,0,1-8.37-3.12L72.52,104.87A6.32,6.32,0,0,1,75.64,96.5Z"/><path id="_184523664" data-name=" 184523664" class="cls-12" d="M369.4,96.53l-86,84.14c-11.55,11.3-6.7,53-13.59,68.19h0c-3.48,7.65-4.32,15.54-5.72,23.74a3.9,3.9,0,0,1-5.1,3C246.6,271.51,247.55,253,249.21,243l.54-3.24c3.13-18.72-20.66,10-22.72,12.17l-26.25,28.7-22.92,19.17c-7.2,7.88-19.41-.61-11.65-9.86l19.35-18.73,20.36-26.53a1,1,0,0,0-.29-1.47,1,1,0,0,0-1.17.11l-34.68,31-19.72,15.95c-8.28,6.13-17.23-6-10.57-12.78L157.94,261l31.35-31.85c.67-.68-.15-2.15-1-1.39l-29.52,25.11-16.66,11.67c-6.24,5-10.65,2.87-12.55.52-3.2-4-1.43-8.6,2.18-12.49,3.46-3.74,9.54-7.06,16-13.3,13.18-12.84,28.87-27.57,31.73-30.25a.87.87,0,0,0-.94-1.46l-25.34,17.15-16.24,9.35a7,7,0,0,1-9.15-4.81h0c-.81-3.14.6-5,3.53-7.92a93.11,93.11,0,0,0,13.59-9.09c11.18-9,26.33-21.18,30.85-24.58,28-23,28.43-31.45,63.23-47.61l87.32-84.92a9.44,9.44,0,0,1,12.4-2.09h0c6.91,4.35,42.32,31.41,30.75,43.47Z"/><path id="_184523688" data-name=" 184523688" class="cls-13" d="M329.72,143.47c-24.18-10.24-41.18-27.83-52.47-51.27L333.94,24,397.3,85.94l-67.58,57.53Z"/><path id="_184523568" data-name=" 184523568" class="cls-14" d="M248.24,127.4l19.2-18.17c.13-.12.48,0,.78.35l42.85,45.29c.3.32.44.68.3.8l-19.19,18.17c-.14.12-.49,0-.79-.35L248.54,128.2C248.24,127.88,248.1,127.52,248.24,127.4Z"/><rect id="_185669112" data-name=" 185669112" class="cls-13" x="261.96" y="123.87" width="35.7" height="35.32" rx="0.57" transform="translate(-20.72 231.03) rotate(-43.42)"/><path id="_184523472" data-name=" 184523472" class="cls-15" d="M438.57,355.47,272.22,285.69c-14.91-6.26-51.63,13.8-68.28,13.14h0c-8.4-.33-16,1.87-24.14,3.67a3.92,3.92,0,0,1-4.76-3.58c-.83-13,16.69-19.13,26.52-21.34l3.21-.72c18.51-4.17-17-15.38-19.85-16.45l-36.49-13.48-26.39-14c-10-3.7-6.76-18.21,4.73-14.52l24.65,10.86,32.25,8.84a1,1,0,0,0,.71-1.86l-41.76-20.44-22.21-12.24c-8.8-5.36-1-18.21,7.85-14.61l22.21,10.87,41.33,17c.88.36,1.93-1,.9-1.49l-34.4-17.86-17.09-11c-7-3.89-6.68-8.77-5.22-11.42,2.47-4.46,7.43-4.57,12.39-2.7,4.77,1.8,10.14,6.18,18.34,9.77,16.86,7.36,36.42,16.34,40,18a.87.87,0,0,0,1-1.42l-25.45-17-14.79-11.51a7,7,0,0,1,1-10.28h0c2.61-1.94,4.86-1.34,8.67.28a93.46,93.46,0,0,0,13.54,9.15c12.61,6.93,29.55,16.39,34.41,19.29,31.81,17.23,39.85,14.47,68,40.59l166.59,60.28a9.43,9.43,0,0,1,6.61,10.69h0c-1.42,8-12.15,61.46-27.68,55.3Z"/><path class="cls-9" d="M120.47,202.28a8.89,8.89,0,0,0-1.12.54,9.56,9.56,0,0,0,1.06.76l22.21,12.24L155.2,222c-5.17-8.32-15.15-21.07-27.77-21.07A18.48,18.48,0,0,0,120.47,202.28Z"/><path class="cls-16" d="M225.09,188.61c-4.86-2.9-21.8-12.36-34.41-19.29a93.46,93.46,0,0,1-13.54-9.15c-3.81-1.62-6.06-2.22-8.67-.28a7,7,0,0,0-1,10.28l14.79,11.51,25.45,17a.87.87,0,0,1-1,1.42c-3.56-1.63-23.12-10.61-40-18a82.52,82.52,0,0,1-9.1-4.76L157,196.64l1.34.87,34.4,17.86c1,.54,0,1.85-.9,1.49l-35-14.43-.07,2c0,.3,0,.92,0,1.77a147.53,147.53,0,0,1-.87,16.11l28.58,14a1,1,0,0,1-.71,1.86l-32.25-8.84-24.65-10.86c-3.8-1.22-6.7-.44-8.51,1.27,3.09,5.09,6,9.95,7.76,15.36l22.41,11.88,36.49,13.48c2.81,1.07,38.36,12.28,19.85,16.45l-3.21.72c-9.83,2.21-27.35,8.32-26.52,21.34a3.92,3.92,0,0,0,4.76,3.58c8.12-1.8,15.74-4,24.14-3.67,7.4.29,18.78-3.51,30.44-7.27,7.93-19.14,9-29.7,10.43-43.66.73-7.28,1.57-15.52,3.55-26.65.72-3.26,2.21-10.86,3.87-19.53C244.9,198.42,236.54,194.81,225.09,188.61Z"/><path id="_184523856" data-name=" 184523856" class="cls-17" d="M96.11,217.81l12-3.42c15.55-4.44,32.89-42.13,46.57-51.64h0c6.9-4.8,11.66-11.15,17.05-17.47a3.92,3.92,0,0,1,5.95,0c8.51,9.89-1.79,25.32-8.3,33l-2.12,2.51c-12.26,14.49,22.86,2,25.75,1.17l37.24-11.24,29.5-4.74c10.22-3.09,16.36,10.46,5,14.44l-26.21,6.19L207.43,199a1,1,0,0,0,.56,1.91L253.62,192l25.11-3.61c10.25-1,11.75,13.94,2.54,16.39L257,209.52l-43.23,11.32c-.92.25-1,1.93.18,1.73l38.21-6.47,20.29-1.51c7.9-1.1,10.61,3,11,6,.72,5-3.17,8.12-8.26,9.61-4.89,1.44-11.81,1.19-20.52,3.27-17.89,4.28-38.91,8.91-42.74,9.75a.87.87,0,0,0,.06,1.74l30.55-1.77,18.74.27a7,7,0,0,1,5.4,8.81h0c-.91,3.11-3.07,4-7.09,5a93.58,93.58,0,0,0-16.33.86c-14.23,2.06-33.45,4.73-39.07,5.34-35.77,5.42-40.53,12.47-78.7,8.56L112,275.44a9.43,9.43,0,0,1-11.72-4.55h0c-3.71-7.27-20.29-48.64-4.18-53.08Z"/><path class="cls-18" d="M183.12,260.31a136.64,136.64,0,0,1-44.22,3.79c-4-.32-8.43-1.09-10.67-4.38a15,15,0,0,1-1.67-4c-.84-15.49-5.29-28.43-15.15-42.79a16,16,0,0,1-3.31,1.43l-12,3.42h0c-16.11,4.44.47,45.81,4.18,53.08A9.43,9.43,0,0,0,112,275.44l10.46-2.65h0l3-.78c34.52,3.54,41.72-1.89,69.23-7,.06-.56.11-1.13.16-1.68a5.32,5.32,0,0,1,.51-2.28Z"/><path class="cls-18" d="M213.76,220.84l36.63-9.59,6.6-1.73,24.28-4.71a8.08,8.08,0,0,0,6-6.63l-19.3,4.47c-2,.46-4,.92-6,1.18a30.88,30.88,0,0,1-4.9.23,4.18,4.18,0,0,1-3.28-1.17,4.35,4.35,0,0,1-.68-2.38l-.19-2.15c.4-2.11.8-4.25,1.2-6.39l-.46.06L208,200.89a1,1,0,0,1-.56-1.91l31.06-12.38,17.36-4.1,8.85-2.09c3.93-1.37,5.77-3.87,6.09-6.44a23.49,23.49,0,0,1-10.63,2.74c-.77,0-1.68-.11-2-.79s-.09-1.24-.25-1.82c1.1-3.78,2.1-6.3,2.11-6.34l.31-.77.07-.83c0-.11,0-.24,0-.36-.22,0-.44.1-.66.17l-29.5,4.74L193,182c-2.89.84-38,13.32-25.75-1.17l2.12-2.51c6.51-7.69,16.81-23.12,8.3-33a3.92,3.92,0,0,0-5.95,0c-4.17,4.89-8,9.8-12.69,14l-1,5.94-1.33,39.18c0,.3,0,.92,0,1.77a143.62,143.62,0,0,1-.94,16.69c-5-8.27-15.23-21.94-28.3-21.94a17.7,17.7,0,0,0-3.48.34,62.37,62.37,0,0,1-9.36,9.57,9.44,9.44,0,0,0,1.32,5c.69,1.16,1.38,2.3,2.07,3.43,3.44,5.64,6.69,11,8.44,17,2.23,7.74,9.09,17.09,16.36,27,2.28,3.11,4.72,6.43,7,9.77,18.5-.72,28-5.6,54.41-9.6,5.62-.61,24.84-3.28,39.07-5.34l.39-.05h0a93.09,93.09,0,0,1,15.94-.81c3.8-.95,5.93-1.82,6.91-4.54a48.29,48.29,0,0,1-15.64-.46,12.91,12.91,0,0,1-4.38-1.53,6.05,6.05,0,0,1-1.7-2.82c.15-1.51.31-3.08.48-4.69l-2.72,0L212,244.94a.87.87,0,0,1-.06-1.74c2.89-.64,15.6-3.43,29.36-6.61h0l.23-.05,4.64-1.08h0l8.51-2c8.71-2.08,15.63-1.83,20.52-3.27,4.2-1.23,7.59-3.55,8.23-7.17a148.32,148.32,0,0,1-19.38,4.6c-4.2.7-8.59,1.2-12.64-.1a4.92,4.92,0,0,1-2.52-1.56,6.06,6.06,0,0,1-.9-2.67c.11-.67.22-1.33.35-2,.24-1.1.57-2.71,1-4.67l-35.39,6C212.79,222.77,212.84,221.09,213.76,220.84Z"/><path class="cls-19" d="M269.22,176.83a7,7,0,0,0-.62-9.1,4.12,4.12,0,0,0-3.57-1.22c-1.65.23-3.29.52-4.91.89a2.19,2.19,0,0,0-1.14.5,2.17,2.17,0,0,0-.43,1.52,23,23,0,0,0,1.05,7.09,3.11,3.11,0,0,0,1.11,1.81,3.28,3.28,0,0,0,1.84.35c1.26,0,2.51-.09,3.76-.21A4.23,4.23,0,0,0,269.22,176.83Z"/><path class="cls-19" d="M288.13,197.81c.57-3.68-1.95-8.14-6.06-7.86l-6.17.43a5.17,5.17,0,0,0-2.27.51c-1.62,1-1.7,3.23-1.57,5.1a12.34,12.34,0,0,0,.61,3.64,4.19,4.19,0,0,0,2.47,2.58,6.19,6.19,0,0,0,2.39.11c2.58-.22,5.4,0,7.87-1A4.32,4.32,0,0,0,288.13,197.81Z"/><path class="cls-19" d="M282.77,224.65a7,7,0,0,0,.76-4.6,6.55,6.55,0,0,0-.52-1.77,4.57,4.57,0,0,0-4.33-2.56,56.6,56.6,0,0,0-7.69.78,2.9,2.9,0,0,0-1.87.84,2.51,2.51,0,0,0-.43,1.46,24.43,24.43,0,0,0,0,3.2c.1,1.64.32,3.64,1.66,4.72,1.13.92,2.74.91,4.2.8,1.67-.12,3.33-.33,5-.6A4.53,4.53,0,0,0,282.77,224.65Z"/><path class="cls-19" d="M256.66,251a4,4,0,0,0,.69,2.24,3.34,3.34,0,0,0,2.67.85c2.38,0,5.65.74,7.28-1.42a3.64,3.64,0,0,0-.71-5.28,10.06,10.06,0,0,0-6.48-1.76C256.15,245.77,256.29,247.22,256.66,251Z"/><path id="_185668848" data-name=" 185668848" class="cls-5" d="M103.35,211.26c15.54,21.18,19.46,38.65,17.17,64.56l-127.37,41-21.08-79.27,131.28-26.32Z"/><path id="_184523880" data-name=" 184523880" class="cls-20" d="M93,211.18c15.54,21.17,21.15,45,18.85,70.9l-127.36,41L-38.24,237.5,93,211.18Z"/><path id="_185668896" data-name=" 185668896" class="cls-15" d="M162.56,334l3.09-38.56c1.29-16.11-29.34-44.67-34-60.68h0c-2.33-8.08-6.82-14.62-11.08-21.76a3.92,3.92,0,0,1,1.9-5.64c12.1-4.89,23.41,9.82,28.6,18.46l1.7,2.82c9.78,16.26,9.23-21,9.37-24l1.31-38.87,5-29.46c.36-10.67,15.16-12.14,15.27-.07L181.2,163l1.75,33.4a1,1,0,0,0,2,.08l6.26-46.06,4.64-24.94c2.32-10,17-6.65,16.34,2.86l-3.33,24.5-3.16,44.58c-.07.95,1.51,1.54,1.7.39l6.13-38.27,5.09-19.7c1.5-7.84,6.23-9.09,9.2-8.54,5,.94,6.67,5.62,6.46,10.91-.21,5.1-2.68,11.57-3.5,20.48-1.69,18.32-4.05,39.71-4.49,43.61a.87.87,0,0,0,1.67.51l8.13-29.51,6.28-17.66a7,7,0,0,1,10.07-2.28h0c2.66,1.86,2.8,4.19,2.47,8.32a93.09,93.09,0,0,0-4.44,15.73c-2.61,14.14-6.26,33.21-7.49,38.73-6.34,35.61-1.19,42.38-17.15,77.27l-3.58,40a9.45,9.45,0,0,1-8.07,9.64h0c-8.08,1.17-52.58,3.59-51.61-13.09Z"/><path class="cls-18" d="M253.34,158.37c-.17-.09-10.08,31.69-10.8,34.67a282.88,282.88,0,0,0-6.49,37.9c-1.22,11.92-1.43,23.3-4.52,34.95a209.25,209.25,0,0,1-13.14,35.28c-1.77,3.75-3.8,7.53-7.06,10.1-5.83,4.58-13.74,1.31-20.44,1a97.61,97.61,0,0,0-26.78,2.4L162.56,334c-1,16.68,43.53,14.26,51.61,13.09a9.45,9.45,0,0,0,8.07-9.64l1.61-18,2-22c16-34.89,10.81-41.66,17.15-77.27,4.1-18.42,7.13-36.94,11.64-55.27C255.18,162.58,255.45,159.5,253.34,158.37Z"/><path class="cls-18" d="M226.3,211.34c.62-.26.81-1,.92-1.67s.28-1.6.42-2.4a.87.87,0,0,1-1.36-.93c.44-3.9,2.8-25.29,4.49-43.61.82-8.91,3.29-15.38,3.5-20.48.18-4.37-.93-8.31-4.14-10.09-2.22,17-6.92,33.68-7.69,50.8-.3,6.54,0,13.09.26,19.64.11,2.62.26,5.36,1.6,7.61C224.73,210.93,225.53,211.66,226.3,211.34Z"/><path class="cls-18" d="M204.56,202.36c1,.42,2-.57,2.23-1.61a12.27,12.27,0,0,0,.6-2.9c-.19,1.15-1.77.56-1.7-.39l3.16-44.58,3.33-24.51a8.06,8.06,0,0,0-4.38-7.77c.55,11.26-2.27,22.45-4.15,33.6a205.77,205.77,0,0,0-2.85,33.7c0,4.7.23,9.68,2.85,13.58A2.27,2.27,0,0,0,204.56,202.36Z"/><path class="cls-18" d="M174.67,171.56a135.58,135.58,0,0,0,1.93,17.63,44.49,44.49,0,0,0,2.66,11,3.68,3.68,0,0,0,1.43,1.89c1.21.67,2.81-.14,3.49-1.34a8.21,8.21,0,0,0,.71-4,1,1,0,0,1-.76.68,1,1,0,0,1-1.18-.93L181.2,163l2.55-26.81c0-4.64-2.26-7.28-5-8.16C178.69,142.58,174.35,157,174.67,171.56Z"/><path class="cls-21" d="M132.66,223.26a3.26,3.26,0,0,0-.11-1.8A19.65,19.65,0,0,0,128,213a5.55,5.55,0,0,0-4.51-1.7,4.26,4.26,0,0,0-2.81,1.78c2.82,4.72,5.71,9.18,8,14a12.65,12.65,0,0,0,3.24-2.73A3.25,3.25,0,0,0,132.66,223.26Z"/><path class="cls-21" d="M182.29,129.94a7,7,0,0,0-8.8-2.41,4.1,4.1,0,0,0-2.32,3c-.33,1.63-.6,3.27-.78,4.93a1.65,1.65,0,0,0,1.39,2.14,22.88,22.88,0,0,0,7,1.35,3.2,3.2,0,0,0,2.07-.45,3.27,3.27,0,0,0,.94-1.62c.4-1.2.74-2.41,1-3.63A4.22,4.22,0,0,0,182.29,129.94Z"/><path class="cls-21" d="M208.33,119c-3.29-1.75-8.33-.83-9.42,3.14-.54,2-1.09,4-1.63,6a5.18,5.18,0,0,0-.26,2.3c.36,1.85,2.49,2.67,4.3,3.17a12.24,12.24,0,0,0,3.63.62,4.21,4.21,0,0,0,3.25-1.48,6.06,6.06,0,0,0,.89-2.22c.64-2.51,1.79-5.1,1.64-7.76A4.29,4.29,0,0,0,208.33,119Z"/><path class="cls-21" d="M231.9,132.89a6.94,6.94,0,0,0-4.09-2.23,6.52,6.52,0,0,0-1.84-.09,4.56,4.56,0,0,0-3.84,3.25,55.44,55.44,0,0,0-1.8,7.51,2.91,2.91,0,0,0,.18,2,2.48,2.48,0,0,0,1.23.89,24.7,24.7,0,0,0,3,1c1.57.44,3.53.89,5,0,1.24-.77,1.76-2.29,2.14-3.71.43-1.61.79-3.25,1.07-4.9A4.53,4.53,0,0,0,231.9,132.89Z"/><path class="cls-21" d="M248.22,166.24a4.11,4.11,0,0,0,2.35.09,3.37,3.37,0,0,0,1.68-2.25c.81-2.24,2.56-5.09,1.06-7.34a3.66,3.66,0,0,0-5.23-1.07,10.12,10.12,0,0,0-3.79,5.54C243.08,165,244.5,165.32,248.22,166.24Z"/><path id="_183740848" data-name=" 183740848" class="cls-22" d="M157.5,326.72c25-7.92,49.4-5.59,73.2,4.91l-1.76,115.76-88.39-5.93L157.5,326.72Z"/><rect id="_185668968" data-name=" 185668968" class="cls-23" x="260.91" y="256" width="66.58" height="12.54" rx="2.03" transform="translate(-51.45 451.64) rotate(-70.43)"/></g><path class="cls-1" d="M316.15,108.53C302.52,43.38,330.49-11.44,192-28.11S-7.78,15.23-13.44,38.77C-21.26,71.28,66,76.77,52,105.31c-7.74,15.78-27.37,32.87-39.44,52.76C2.8,174.14-2,192,8.34,212.52c5.38,10.64-69.73,179.22,113.8,203.7C207,427.53,316.06,382.64,395.8,316.59c156.71-129.81-66-142.92-79.65-208.06Z"/><path id="_186382408" data-name=" 186382408" class="cls-4" d="M36.58,416.22s.2-16.48-22.35-13c0,0-7.38-11.07-18.87-11.07-10.66,0-15.58,10.25-15.58,10.25s-8.41,0-8.61,8.09c0,0-6.36-.55-8.41,5.73Z"/><path id="_186382624" data-name=" 186382624" class="cls-4" d="M114.15,416.22s.27-21.83-29.6-17.22c0,0-9.78-14.66-25-14.66-14.13,0-20.64,13.58-20.64,13.58s-11.14,0-11.41,10.71c0,0-8.42-.73-11.14,7.59Z"/><path id="_382362040" data-name=" 382362040" class="cls-5" d="M313.81,36.84s.38-30.62-41.53-24.14c0,0-13.71-20.57-35-20.57-19.81,0-29,19.05-29,19.05s-15.61,0-16,15c0,0-11.81-1-15.62,10.63Z"/><path id="_382362040-2" data-name=" 382362040" class="cls-5" d="M-2.09,172s-.28-22.55,30.59-17.78c0,0,10.1-15.15,25.81-15.15,14.59,0,21.33,14,21.33,14s11.5,0,11.78,11.07c0,0,8.7-.76,11.5,7.83Z"/><path id="_186881608" data-name=" 186881608" class="cls-5" d="M310.8,219.64S310.5,196,342.91,201c0,0,10.6-15.91,27.1-15.91,15.32,0,22.39,14.73,22.39,14.73s12.08,0,12.37,11.62c0,0,9.14-.79,12.08,8.23Z"/></g></g></g></g></g></svg>