<svg xmlns="http://www.w3.org/2000/svg" xmlns:xlink="http://www.w3.org/1999/xlink" viewBox="0 0 400 400"><defs><style>.cls-1{fill:none;}.cls-2{isolation:isolate;}.cls-3{fill:#e13c2d;}.cls-4{clip-path:url(#clip-path);}.cls-5{fill:#009ac5;}.cls-187,.cls-6,.cls-8,.cls-9{fill:#fff;}.cls-7{clip-path:url(#clip-path-2);}.cls-190,.cls-8{opacity:0.3;}.cls-9{opacity:0.5;}.cls-10{fill:url(#linear-gradient);}.cls-11{fill:url(#linear-gradient-2);}.cls-12{fill:#f0f0f0;}.cls-13{fill:url(#linear-gradient-3);}.cls-14{fill:url(#linear-gradient-4);}.cls-15{fill:url(#linear-gradient-5);}.cls-16{fill:url(#linear-gradient-6);}.cls-17{mix-blend-mode:soft-light;}.cls-18{fill:url(#linear-gradient-7);}.cls-19{fill:url(#linear-gradient-8);}.cls-20{fill:url(#linear-gradient-9);}.cls-21{fill:url(#linear-gradient-10);}.cls-22{fill:url(#linear-gradient-11);}.cls-23{fill:url(#linear-gradient-12);}.cls-24{fill:url(#linear-gradient-13);}.cls-25{fill:url(#linear-gradient-14);}.cls-26{fill:url(#linear-gradient-15);}.cls-27{fill:url(#linear-gradient-16);}.cls-28{fill:url(#linear-gradient-17);}.cls-29{fill:url(#linear-gradient-18);}.cls-30{fill:url(#linear-gradient-19);}.cls-31{fill:url(#linear-gradient-20);}.cls-32{fill:url(#linear-gradient-21);}.cls-33{fill:url(#linear-gradient-22);}.cls-34{fill:url(#linear-gradient-23);}.cls-35{fill:url(#linear-gradient-24);}.cls-36{fill:url(#linear-gradient-25);}.cls-37{fill:url(#linear-gradient-26);}.cls-38{fill:url(#linear-gradient-27);}.cls-39{fill:url(#linear-gradient-28);}.cls-40{clip-path:url(#clip-path-3);}.cls-41{fill:url(#linear-gradient-29);}.cls-42{fill:url(#linear-gradient-30);}.cls-43{fill:url(#linear-gradient-31);}.cls-44{fill:url(#linear-gradient-32);}.cls-45{fill:url(#linear-gradient-33);}.cls-46{fill:url(#linear-gradient-34);}.cls-47{fill:url(#linear-gradient-35);}.cls-48{fill:url(#linear-gradient-36);}.cls-49{fill:url(#linear-gradient-37);}.cls-50{fill:url(#linear-gradient-38);}.cls-51{fill:url(#linear-gradient-39);}.cls-52{fill:url(#linear-gradient-40);}.cls-53{fill:url(#linear-gradient-41);}.cls-54{fill:url(#linear-gradient-42);}.cls-55{fill:url(#linear-gradient-43);}.cls-56{fill:url(#linear-gradient-44);}.cls-57{fill:url(#linear-gradient-45);}.cls-58{fill:url(#linear-gradient-46);}.cls-59{fill:url(#linear-gradient-47);}.cls-60{fill:url(#linear-gradient-48);}.cls-61{fill:url(#linear-gradient-49);}.cls-62{fill:url(#linear-gradient-50);}.cls-63{fill:url(#linear-gradient-51);}.cls-64{fill:url(#linear-gradient-52);}.cls-65{fill:url(#linear-gradient-53);}.cls-66{fill:url(#linear-gradient-54);}.cls-67{fill:url(#linear-gradient-55);}.cls-68{fill:url(#linear-gradient-56);}.cls-69{fill:url(#linear-gradient-57);}.cls-70{fill:url(#linear-gradient-58);}.cls-71{fill:url(#linear-gradient-59);}.cls-72{fill:url(#linear-gradient-60);}.cls-73{fill:url(#linear-gradient-61);}.cls-74{fill:url(#linear-gradient-62);}.cls-75{fill:url(#linear-gradient-63);}.cls-76{fill:url(#linear-gradient-64);}.cls-77{fill:url(#linear-gradient-65);}.cls-78{fill:url(#linear-gradient-66);}.cls-79{fill:url(#linear-gradient-67);}.cls-80{fill:url(#linear-gradient-68);}.cls-81{fill:url(#linear-gradient-69);}.cls-82{fill:url(#linear-gradient-70);}.cls-83{fill:url(#linear-gradient-71);}.cls-84{fill:url(#linear-gradient-72);}.cls-85{fill:url(#linear-gradient-73);}.cls-86{fill:url(#linear-gradient-74);}.cls-87{fill:url(#linear-gradient-75);}.cls-88{fill:url(#linear-gradient-76);}.cls-89{fill:url(#linear-gradient-77);}.cls-90{fill:url(#linear-gradient-78);}.cls-91{fill:url(#linear-gradient-79);}.cls-92{fill:url(#linear-gradient-80);}.cls-93{fill:url(#linear-gradient-81);}.cls-94{fill:url(#linear-gradient-82);}.cls-95{fill:url(#linear-gradient-83);}.cls-96{fill:url(#linear-gradient-84);}.cls-97{fill:url(#linear-gradient-85);}.cls-98{fill:url(#linear-gradient-86);}.cls-99{fill:url(#linear-gradient-87);}.cls-100{fill:url(#linear-gradient-88);}.cls-101{fill:url(#linear-gradient-89);}.cls-102{fill:url(#linear-gradient-90);}.cls-103{fill:url(#linear-gradient-91);}.cls-104{fill:url(#linear-gradient-92);}.cls-105{fill:url(#linear-gradient-93);}.cls-106{fill:url(#linear-gradient-94);}.cls-107{fill:url(#linear-gradient-95);}.cls-108{fill:url(#linear-gradient-96);}.cls-109{fill:url(#linear-gradient-97);}.cls-110{fill:url(#linear-gradient-98);}.cls-111{fill:url(#linear-gradient-99);}.cls-112{fill:url(#linear-gradient-100);}.cls-113{fill:url(#linear-gradient-101);}.cls-114{fill:url(#linear-gradient-102);}.cls-115{fill:url(#linear-gradient-103);}.cls-116{fill:url(#linear-gradient-104);}.cls-117{fill:url(#linear-gradient-105);}.cls-118{fill:url(#linear-gradient-106);}.cls-119{fill:url(#linear-gradient-107);}.cls-120{fill:url(#linear-gradient-108);}.cls-121{fill:url(#linear-gradient-109);}.cls-122{fill:url(#linear-gradient-110);}.cls-123{fill:url(#linear-gradient-111);}.cls-124{fill:url(#linear-gradient-112);}.cls-125{fill:url(#linear-gradient-113);}.cls-126{fill:url(#linear-gradient-114);}.cls-127{fill:url(#linear-gradient-115);}.cls-128{fill:url(#linear-gradient-116);}.cls-129{fill:url(#linear-gradient-117);}.cls-130{fill:url(#linear-gradient-118);}.cls-131{fill:url(#linear-gradient-119);}.cls-132{fill:url(#linear-gradient-120);}.cls-133{fill:url(#linear-gradient-121);}.cls-134{fill:url(#linear-gradient-122);}.cls-135{fill:url(#linear-gradient-123);}.cls-136{fill:url(#linear-gradient-124);}.cls-137{fill:url(#linear-gradient-125);}.cls-138{fill:url(#linear-gradient-126);}.cls-139{fill:url(#linear-gradient-127);}.cls-140{fill:url(#linear-gradient-128);}.cls-141{fill:url(#linear-gradient-129);}.cls-142{fill:url(#linear-gradient-130);}.cls-143{fill:url(#linear-gradient-131);}.cls-144{fill:url(#linear-gradient-132);}.cls-145{fill:url(#linear-gradient-133);}.cls-146{fill:url(#linear-gradient-134);}.cls-147{fill:url(#linear-gradient-135);}.cls-148{fill:url(#linear-gradient-136);}.cls-149{fill:url(#linear-gradient-137);}.cls-150{fill:url(#linear-gradient-138);}.cls-151{fill:url(#linear-gradient-139);}.cls-152{fill:url(#linear-gradient-140);}.cls-153{fill:url(#linear-gradient-141);}.cls-154{fill:url(#linear-gradient-142);}.cls-155{fill:url(#linear-gradient-143);}.cls-156{fill:url(#linear-gradient-144);}.cls-157{fill:url(#linear-gradient-145);}.cls-158{fill:url(#linear-gradient-146);}.cls-159{fill:url(#linear-gradient-147);}.cls-160{fill:url(#linear-gradient-148);}.cls-161{fill:url(#linear-gradient-149);}.cls-162{fill:url(#linear-gradient-150);}.cls-163{fill:url(#linear-gradient-151);}.cls-164{fill:url(#linear-gradient-152);}.cls-165{fill:url(#linear-gradient-153);}.cls-166{fill:url(#linear-gradient-154);}.cls-167{fill:url(#linear-gradient-155);}.cls-168{fill:url(#linear-gradient-156);}.cls-169{fill:url(#linear-gradient-157);}.cls-170{fill:url(#linear-gradient-158);}.cls-171{fill:url(#linear-gradient-159);}.cls-172{fill:url(#linear-gradient-160);}.cls-173{fill:url(#linear-gradient-161);}.cls-174{fill:url(#linear-gradient-162);}.cls-175{fill:url(#linear-gradient-163);}.cls-176{fill:url(#linear-gradient-164);}.cls-177{fill:url(#linear-gradient-165);}.cls-178{fill:url(#linear-gradient-166);}.cls-179{fill:url(#linear-gradient-167);}.cls-180{fill:url(#linear-gradient-168);}.cls-181{fill:url(#linear-gradient-169);}.cls-182{fill:url(#linear-gradient-170);}.cls-183{fill:url(#linear-gradient-171);}.cls-184{fill:url(#linear-gradient-172);}.cls-185{fill:url(#linear-gradient-173);}.cls-186{fill:url(#linear-gradient-174);}.cls-187{opacity:0.58;}.cls-188{fill:url(#linear-gradient-175);}.cls-189{fill:url(#linear-gradient-176);}.cls-191{fill:url(#linear-gradient-177);}.cls-192{fill:url(#linear-gradient-178);}.cls-193{fill:url(#linear-gradient-179);}.cls-194{fill:url(#linear-gradient-180);}.cls-195{fill:url(#linear-gradient-181);}.cls-196{fill:url(#linear-gradient-182);}.cls-197{fill:url(#linear-gradient-183);}.cls-198{fill:url(#linear-gradient-184);}.cls-199{fill:url(#linear-gradient-185);}.cls-200{fill:url(#linear-gradient-186);}.cls-201{fill:url(#linear-gradient-187);}.cls-202{fill:url(#linear-gradient-188);}.cls-203{fill:url(#linear-gradient-189);}.cls-204{fill:url(#linear-gradient-190);}.cls-205{fill:url(#linear-gradient-191);}.cls-206{fill:url(#linear-gradient-192);}.cls-207{fill:url(#linear-gradient-193);}.cls-208{fill:url(#linear-gradient-194);}.cls-209{fill:url(#linear-gradient-195);}</style><clipPath id="clip-path"><circle class="cls-1" cx="-220" cy="200" r="200"/></clipPath><clipPath id="clip-path-2"><circle class="cls-1" cx="200" cy="200" r="200"/></clipPath><linearGradient id="linear-gradient" x1="88.24" y1="268.96" x2="72.46" y2="205.83" gradientUnits="userSpaceOnUse"><stop offset="0" stop-color="#b37cff"/><stop offset="1" stop-color="#f895e7"/></linearGradient><linearGradient id="linear-gradient-2" x1="-1049.76" y1="207.49" x2="-1165.33" y2="410.68" gradientTransform="matrix(-1, 0, 0, 1, -1031.16, 0)" gradientUnits="userSpaceOnUse"><stop offset="0" stop-color="#a737d5"/><stop offset="1" stop-color="#ef497a"/></linearGradient><linearGradient id="linear-gradient-3" x1="-7510.93" y1="268.96" x2="-7526.71" y2="205.83" gradientTransform="matrix(-1, 0, 0, 1, -7196.77, 0)" xlink:href="#linear-gradient"/><linearGradient id="linear-gradient-4" x1="6549.41" y1="207.49" x2="6433.84" y2="410.68" gradientTransform="translate(-6165.6)" xlink:href="#linear-gradient-2"/><linearGradient id="linear-gradient-5" x1="195.32" y1="136.75" x2="207.58" y2="428.03" gradientUnits="userSpaceOnUse"><stop offset="0" stop-color="#fdf53f"/><stop offset="1" stop-color="#d93c65"/></linearGradient><linearGradient id="linear-gradient-6" x1="195.21" y1="72.94" x2="207.07" y2="354.63" xlink:href="#linear-gradient-5"/><linearGradient id="linear-gradient-7" x1="225.73" y1="206.18" x2="327.6" y2="309.03" gradientUnits="userSpaceOnUse"><stop offset="0" stop-color="#cb236d"/><stop offset="1" stop-color="#4c246d"/></linearGradient><linearGradient id="linear-gradient-8" x1="4201.69" y1="316.24" x2="4214.64" y2="316.24" gradientTransform="translate(-3933.96)" gradientUnits="userSpaceOnUse"><stop offset="0" stop-color="#f9b776"/><stop offset="1" stop-color="#f47960"/></linearGradient><linearGradient id="linear-gradient-9" x1="4186.66" y1="130.84" x2="4188.52" y2="147.16" gradientTransform="translate(-3933.96)" xlink:href="#linear-gradient-7"/><linearGradient id="linear-gradient-10" x1="4186.48" y1="317.12" x2="4213.81" y2="317.12" xlink:href="#linear-gradient-8"/><linearGradient id="linear-gradient-11" x1="-524.85" y1="300.06" x2="-509" y2="331.07" gradientTransform="translate(808.21)" gradientUnits="userSpaceOnUse"><stop offset="0" stop-color="#2b3582"/><stop offset="1" stop-color="#150e42"/></linearGradient><linearGradient id="linear-gradient-12" x1="4167.7" y1="133.01" x2="4169.57" y2="149.33" gradientTransform="translate(-3933.96)" xlink:href="#linear-gradient-7"/><linearGradient id="linear-gradient-13" x1="4216.83" y1="277.52" x2="4231.35" y2="309.12" gradientTransform="translate(-3933.96)" gradientUnits="userSpaceOnUse"><stop offset="0" stop-color="#52f0c0"/><stop offset="1" stop-color="#9f71fb"/></linearGradient><linearGradient id="linear-gradient-14" x1="4217.18" y1="279.62" x2="4215.81" y2="270.85" xlink:href="#linear-gradient-8"/><linearGradient id="linear-gradient-15" x1="4211.27" y1="263.09" x2="4223.34" y2="271.29" xlink:href="#linear-gradient-8"/><linearGradient id="linear-gradient-16" x1="227.16" y1="204.77" x2="329.03" y2="307.62" xlink:href="#linear-gradient-7"/><linearGradient id="linear-gradient-17" x1="4211.99" y1="262.02" x2="4224.07" y2="270.22" xlink:href="#linear-gradient-8"/><linearGradient id="linear-gradient-18" x1="4225.02" y1="294.8" x2="4250.69" y2="294.8" xlink:href="#linear-gradient-8"/><linearGradient id="linear-gradient-19" x1="4220.14" y1="332" x2="4224.08" y2="307.24" gradientTransform="translate(-3933.96)" gradientUnits="userSpaceOnUse"><stop offset="0" stop-color="#53d8ff"/><stop offset="1" stop-color="#3840f7"/></linearGradient><linearGradient id="linear-gradient-20" x1="4221.72" y1="332.25" x2="4225.66" y2="307.49" xlink:href="#linear-gradient-19"/><linearGradient id="linear-gradient-21" x1="4218.68" y1="331.77" x2="4222.62" y2="307.01" xlink:href="#linear-gradient-19"/><linearGradient id="linear-gradient-22" x1="4159.16" y1="699.48" x2="4143" y2="703.91" gradientTransform="translate(-3897.17 -201.02) rotate(-2.83)" xlink:href="#linear-gradient-11"/><linearGradient id="linear-gradient-23" x1="4203.64" y1="281.72" x2="4192.17" y2="293.84" gradientTransform="translate(-3933.96)" xlink:href="#linear-gradient-11"/><linearGradient id="linear-gradient-24" x1="4164.68" y1="299.2" x2="4250.15" y2="299.2" gradientTransform="translate(-3933.96)" gradientUnits="userSpaceOnUse"><stop offset="0" stop-color="#9cfffb"/><stop offset="1" stop-color="#9bfffa"/></linearGradient><linearGradient id="linear-gradient-25" x1="4169.59" y1="317.93" x2="4186.46" y2="317.93" xlink:href="#linear-gradient-24"/><linearGradient id="linear-gradient-26" x1="4171.54" y1="317.93" x2="4188.41" y2="317.93" xlink:href="#linear-gradient-24"/><linearGradient id="linear-gradient-27" x1="4230.25" y1="317.93" x2="4247.12" y2="317.93" xlink:href="#linear-gradient-24"/><linearGradient id="linear-gradient-28" x1="4232.2" y1="317.93" x2="4249.07" y2="317.93" xlink:href="#linear-gradient-24"/><clipPath id="clip-path-3"><polygon id="SVGID" class="cls-1" points="89.58 192.65 200.15 259.4 304.42 196.59 304.42 99.37 98.26 99.37 89.58 192.65"/></clipPath><linearGradient id="linear-gradient-29" x1="256.3" y1="181.81" x2="143.54" y2="336.37" gradientTransform="matrix(1, 0, 0, 1, 0, 0)" xlink:href="#linear-gradient-19"/><linearGradient id="linear-gradient-30" x1="209.31" y1="105.85" x2="188.38" y2="325.04" gradientTransform="matrix(1, 0, 0, 1, 0, 0)" xlink:href="#linear-gradient-19"/><linearGradient id="linear-gradient-31" x1="368.85" y1="196.27" x2="369.39" y2="196.27" gradientTransform="matrix(1, 0, 0, 1, 0, 0)" xlink:href="#linear-gradient-24"/><linearGradient id="linear-gradient-32" x1="369.06" y1="200.5" x2="369.54" y2="200.5" gradientTransform="matrix(1, 0, 0, 1, 0, 0)" xlink:href="#linear-gradient-24"/><linearGradient id="linear-gradient-33" x1="368.8" y1="204.74" x2="369.43" y2="204.74" gradientTransform="matrix(1, 0, 0, 1, 0, 0)" xlink:href="#linear-gradient-24"/><linearGradient id="linear-gradient-34" x1="368.2" y1="208.94" x2="368.97" y2="208.94" gradientTransform="matrix(1, 0, 0, 1, 0, 0)" xlink:href="#linear-gradient-24"/><linearGradient id="linear-gradient-35" x1="367.25" y1="213.09" x2="368.17" y2="213.09" gradientTransform="matrix(1, 0, 0, 1, 0, 0)" xlink:href="#linear-gradient-24"/><linearGradient id="linear-gradient-36" x1="365.99" y1="217.16" x2="367.04" y2="217.16" gradientTransform="matrix(1, 0, 0, 1, 0, 0)" xlink:href="#linear-gradient-24"/><linearGradient id="linear-gradient-37" x1="364.42" y1="221.12" x2="365.61" y2="221.12" gradientTransform="matrix(1, 0, 0, 1, 0, 0)" xlink:href="#linear-gradient-24"/><linearGradient id="linear-gradient-38" x1="362.55" y1="224.96" x2="363.87" y2="224.96" gradientTransform="matrix(1, 0, 0, 1, 0, 0)" xlink:href="#linear-gradient-24"/><linearGradient id="linear-gradient-39" x1="360.41" y1="228.65" x2="361.86" y2="228.65" gradientTransform="matrix(1, 0, 0, 1, 0, 0)" xlink:href="#linear-gradient-24"/><linearGradient id="linear-gradient-40" x1="358" y1="232.18" x2="359.57" y2="232.18" gradientTransform="matrix(1, 0, 0, 1, 0, 0)" xlink:href="#linear-gradient-24"/><linearGradient id="linear-gradient-41" x1="355.34" y1="235.53" x2="357.03" y2="235.53" gradientTransform="matrix(1, 0, 0, 1, 0, 0)" xlink:href="#linear-gradient-24"/><linearGradient id="linear-gradient-42" x1="352.43" y1="238.67" x2="354.24" y2="238.67" gradientTransform="matrix(1, 0, 0, 1, 0, 0)" xlink:href="#linear-gradient-24"/><linearGradient id="linear-gradient-43" x1="349.29" y1="241.58" x2="351.21" y2="241.58" gradientTransform="matrix(1, 0, 0, 1, 0, 0)" xlink:href="#linear-gradient-24"/><linearGradient id="linear-gradient-44" x1="345.93" y1="244.24" x2="347.96" y2="244.24" gradientTransform="matrix(1, 0, 0, 1, 0, 0)" xlink:href="#linear-gradient-24"/><linearGradient id="linear-gradient-45" x1="342.38" y1="246.62" x2="344.5" y2="246.62" gradientTransform="matrix(1, 0, 0, 1, 0, 0)" xlink:href="#linear-gradient-24"/><linearGradient id="linear-gradient-46" x1="338.65" y1="248.7" x2="340.85" y2="248.7" gradientTransform="matrix(1, 0, 0, 1, 0, 0)" xlink:href="#linear-gradient-24"/><linearGradient id="linear-gradient-47" x1="334.76" y1="250.45" x2="337.03" y2="250.45" gradientTransform="matrix(1, 0, 0, 1, 0, 0)" xlink:href="#linear-gradient-24"/><linearGradient id="linear-gradient-48" x1="330.74" y1="251.87" x2="333.07" y2="251.87" gradientTransform="matrix(1, 0, 0, 1, 0, 0)" xlink:href="#linear-gradient-24"/><linearGradient id="linear-gradient-49" x1="326.62" y1="252.98" x2="329" y2="252.98" gradientTransform="matrix(1, 0, 0, 1, 0, 0)" xlink:href="#linear-gradient-24"/><linearGradient id="linear-gradient-50" x1="322.43" y1="253.77" x2="324.86" y2="253.77" gradientTransform="matrix(1, 0, 0, 1, 0, 0)" xlink:href="#linear-gradient-24"/><linearGradient id="linear-gradient-51" x1="318.21" y1="254.25" x2="320.66" y2="254.25" gradientTransform="matrix(1, 0, 0, 1, 0, 0)" xlink:href="#linear-gradient-24"/><linearGradient id="linear-gradient-52" x1="313.96" y1="254.44" x2="316.44" y2="254.44" gradientTransform="matrix(1, 0, 0, 1, 0, 0)" xlink:href="#linear-gradient-24"/><linearGradient id="linear-gradient-53" x1="309.71" y1="254.34" x2="312.22" y2="254.34" gradientTransform="matrix(1, 0, 0, 1, 0, 0)" xlink:href="#linear-gradient-24"/><linearGradient id="linear-gradient-54" x1="305.47" y1="253.98" x2="308" y2="253.98" gradientTransform="matrix(1, 0, 0, 1, 0, 0)" xlink:href="#linear-gradient-24"/><linearGradient id="linear-gradient-55" x1="301.27" y1="253.38" x2="303.81" y2="253.38" gradientTransform="matrix(1, 0, 0, 1, 0, 0)" xlink:href="#linear-gradient-24"/><linearGradient id="linear-gradient-56" x1="297.11" y1="252.54" x2="299.66" y2="252.54" gradientTransform="matrix(1, 0, 0, 1, 0, 0)" xlink:href="#linear-gradient-24"/><linearGradient id="linear-gradient-57" x1="293" y1="251.48" x2="295.56" y2="251.48" gradientTransform="matrix(1, 0, 0, 1, 0, 0)" xlink:href="#linear-gradient-24"/><linearGradient id="linear-gradient-58" x1="288.96" y1="250.2" x2="291.52" y2="250.2" gradientTransform="matrix(1, 0, 0, 1, 0, 0)" xlink:href="#linear-gradient-24"/><linearGradient id="linear-gradient-59" x1="284.98" y1="248.73" x2="287.54" y2="248.73" gradientTransform="matrix(1, 0, 0, 1, 0, 0)" xlink:href="#linear-gradient-24"/><linearGradient id="linear-gradient-60" x1="281.08" y1="247.07" x2="283.64" y2="247.07" gradientTransform="matrix(1, 0, 0, 1, 0, 0)" xlink:href="#linear-gradient-24"/><linearGradient id="linear-gradient-61" x1="277.26" y1="245.23" x2="279.82" y2="245.23" gradientTransform="matrix(1, 0, 0, 1, 0, 0)" xlink:href="#linear-gradient-24"/><linearGradient id="linear-gradient-62" x1="273.54" y1="243.21" x2="276.09" y2="243.21" gradientTransform="matrix(1, 0, 0, 1, 0, 0)" xlink:href="#linear-gradient-24"/><linearGradient id="linear-gradient-63" x1="269.91" y1="241.04" x2="272.44" y2="241.04" gradientTransform="matrix(1, 0, 0, 1, 0, 0)" xlink:href="#linear-gradient-24"/><linearGradient id="linear-gradient-64" x1="266.36" y1="238.74" x2="268.87" y2="238.74" gradientTransform="matrix(1, 0, 0, 1, 0, 0)" xlink:href="#linear-gradient-24"/><linearGradient id="linear-gradient-65" x1="262.89" y1="236.31" x2="265.39" y2="236.31" gradientTransform="matrix(1, 0, 0, 1, 0, 0)" xlink:href="#linear-gradient-24"/><linearGradient id="linear-gradient-66" x1="259.51" y1="233.77" x2="261.99" y2="233.77" gradientTransform="matrix(1, 0, 0, 1, 0, 0)" xlink:href="#linear-gradient-24"/><linearGradient id="linear-gradient-67" x1="256.2" y1="231.13" x2="258.66" y2="231.13" gradientTransform="matrix(1, 0, 0, 1, 0, 0)" xlink:href="#linear-gradient-24"/><linearGradient id="linear-gradient-68" x1="252.96" y1="228.4" x2="255.41" y2="228.4" gradientTransform="matrix(1, 0, 0, 1, 0, 0)" xlink:href="#linear-gradient-24"/><linearGradient id="linear-gradient-69" x1="249.78" y1="225.59" x2="252.22" y2="225.59" gradientTransform="matrix(1, 0, 0, 1, 0, 0)" xlink:href="#linear-gradient-24"/><linearGradient id="linear-gradient-70" x1="246.67" y1="222.72" x2="249.1" y2="222.72" gradientTransform="matrix(1, 0, 0, 1, 0, 0)" xlink:href="#linear-gradient-24"/><linearGradient id="linear-gradient-71" x1="243.61" y1="219.79" x2="246.04" y2="219.79" gradientTransform="matrix(1, 0, 0, 1, 0, 0)" xlink:href="#linear-gradient-24"/><linearGradient id="linear-gradient-72" x1="240.6" y1="216.81" x2="243.02" y2="216.81" gradientTransform="matrix(1, 0, 0, 1, 0, 0)" xlink:href="#linear-gradient-24"/><linearGradient id="linear-gradient-73" x1="237.63" y1="213.79" x2="240.04" y2="213.79" gradientTransform="matrix(1, 0, 0, 1, 0, 0)" xlink:href="#linear-gradient-24"/><linearGradient id="linear-gradient-74" x1="234.68" y1="210.73" x2="237.1" y2="210.73" gradientTransform="matrix(1, 0, 0, 1, 0, 0)" xlink:href="#linear-gradient-24"/><linearGradient id="linear-gradient-75" x1="231.77" y1="207.65" x2="234.18" y2="207.65" gradientTransform="matrix(1, 0, 0, 1, 0, 0)" xlink:href="#linear-gradient-24"/><linearGradient id="linear-gradient-76" x1="228.87" y1="204.55" x2="231.29" y2="204.55" gradientTransform="matrix(1, 0, 0, 1, 0, 0)" xlink:href="#linear-gradient-24"/><linearGradient id="linear-gradient-77" x1="225.98" y1="201.44" x2="228.4" y2="201.44" gradientTransform="matrix(1, 0, 0, 1, 0, 0)" xlink:href="#linear-gradient-24"/><linearGradient id="linear-gradient-78" x1="223.09" y1="198.33" x2="225.52" y2="198.33" gradientTransform="matrix(1, 0, 0, 1, 0, 0)" xlink:href="#linear-gradient-24"/><linearGradient id="linear-gradient-79" x1="220.19" y1="195.23" x2="222.64" y2="195.23" gradientTransform="matrix(1, 0, 0, 1, 0, 0)" xlink:href="#linear-gradient-24"/><linearGradient id="linear-gradient-80" x1="217.28" y1="192.14" x2="219.74" y2="192.14" gradientTransform="matrix(1, 0, 0, 1, 0, 0)" xlink:href="#linear-gradient-24"/><linearGradient id="linear-gradient-81" x1="214.35" y1="189.08" x2="216.82" y2="189.08" gradientTransform="matrix(1, 0, 0, 1, 0, 0)" xlink:href="#linear-gradient-24"/><linearGradient id="linear-gradient-82" x1="211.38" y1="186.04" x2="213.87" y2="186.04" gradientTransform="matrix(1, 0, 0, 1, 0, 0)" xlink:href="#linear-gradient-24"/><linearGradient id="linear-gradient-83" x1="208.37" y1="183.04" x2="210.89" y2="183.04" gradientTransform="matrix(1, 0, 0, 1, 0, 0)" xlink:href="#linear-gradient-24"/><linearGradient id="linear-gradient-84" x1="205.32" y1="180.08" x2="207.86" y2="180.08" gradientTransform="matrix(1, 0, 0, 1, 0, 0)" xlink:href="#linear-gradient-24"/><linearGradient id="linear-gradient-85" x1="202.22" y1="177.18" x2="204.77" y2="177.18" gradientTransform="matrix(1, 0, 0, 1, 0, 0)" xlink:href="#linear-gradient-24"/><linearGradient id="linear-gradient-86" x1="199.06" y1="174.35" x2="201.63" y2="174.35" gradientTransform="matrix(1, 0, 0, 1, 0, 0)" xlink:href="#linear-gradient-24"/><linearGradient id="linear-gradient-87" x1="195.84" y1="171.58" x2="198.42" y2="171.58" gradientTransform="matrix(1, 0, 0, 1, 0, 0)" xlink:href="#linear-gradient-24"/><linearGradient id="linear-gradient-88" x1="192.55" y1="168.91" x2="195.14" y2="168.91" gradientTransform="matrix(1, 0, 0, 1, 0, 0)" xlink:href="#linear-gradient-24"/><linearGradient id="linear-gradient-89" x1="189.18" y1="166.32" x2="191.79" y2="166.32" gradientTransform="matrix(1, 0, 0, 1, 0, 0)" xlink:href="#linear-gradient-24"/><linearGradient id="linear-gradient-90" x1="185.73" y1="163.85" x2="188.36" y2="163.85" gradientTransform="matrix(1, 0, 0, 1, 0, 0)" xlink:href="#linear-gradient-24"/><linearGradient id="linear-gradient-91" x1="182.2" y1="161.49" x2="184.85" y2="161.49" gradientTransform="matrix(1, 0, 0, 1, 0, 0)" xlink:href="#linear-gradient-24"/><linearGradient id="linear-gradient-92" x1="178.58" y1="159.26" x2="181.25" y2="159.26" gradientTransform="matrix(1, 0, 0, 1, 0, 0)" xlink:href="#linear-gradient-24"/><linearGradient id="linear-gradient-93" x1="174.89" y1="157.16" x2="177.57" y2="157.16" gradientTransform="matrix(1, 0, 0, 1, 0, 0)" xlink:href="#linear-gradient-24"/><linearGradient id="linear-gradient-94" x1="171.12" y1="155.2" x2="173.82" y2="155.2" gradientTransform="matrix(1, 0, 0, 1, 0, 0)" xlink:href="#linear-gradient-24"/><linearGradient id="linear-gradient-95" x1="167.28" y1="153.38" x2="170" y2="153.38" gradientTransform="matrix(1, 0, 0, 1, 0, 0)" xlink:href="#linear-gradient-24"/><linearGradient id="linear-gradient-96" x1="163.39" y1="151.7" x2="166.11" y2="151.7" gradientTransform="matrix(1, 0, 0, 1, 0, 0)" xlink:href="#linear-gradient-24"/><linearGradient id="linear-gradient-97" x1="159.43" y1="150.16" x2="162.17" y2="150.16" gradientTransform="matrix(1, 0, 0, 1, 0, 0)" xlink:href="#linear-gradient-24"/><linearGradient id="linear-gradient-98" x1="155.43" y1="148.76" x2="158.17" y2="148.76" gradientTransform="matrix(1, 0, 0, 1, 0, 0)" xlink:href="#linear-gradient-24"/><linearGradient id="linear-gradient-99" x1="151.37" y1="147.5" x2="154.13" y2="147.5" gradientTransform="matrix(1, 0, 0, 1, 0, 0)" xlink:href="#linear-gradient-24"/><linearGradient id="linear-gradient-100" x1="147.28" y1="146.38" x2="150.04" y2="146.38" gradientTransform="matrix(1, 0, 0, 1, 0, 0)" xlink:href="#linear-gradient-24"/><linearGradient id="linear-gradient-101" x1="143.15" y1="145.41" x2="145.91" y2="145.41" gradientTransform="matrix(1, 0, 0, 1, 0, 0)" xlink:href="#linear-gradient-24"/><linearGradient id="linear-gradient-102" x1="138.99" y1="144.58" x2="141.75" y2="144.58" gradientTransform="matrix(1, 0, 0, 1, 0, 0)" xlink:href="#linear-gradient-24"/><linearGradient id="linear-gradient-103" x1="134.8" y1="143.9" x2="137.57" y2="143.9" gradientTransform="matrix(1, 0, 0, 1, 0, 0)" xlink:href="#linear-gradient-24"/><linearGradient id="linear-gradient-104" x1="130.59" y1="143.37" x2="133.36" y2="143.37" gradientTransform="matrix(1, 0, 0, 1, 0, 0)" xlink:href="#linear-gradient-24"/><linearGradient id="linear-gradient-105" x1="126.37" y1="142.99" x2="129.14" y2="142.99" gradientTransform="matrix(1, 0, 0, 1, 0, 0)" xlink:href="#linear-gradient-24"/><linearGradient id="linear-gradient-106" x1="122.14" y1="142.76" x2="124.9" y2="142.76" gradientTransform="matrix(1, 0, 0, 1, 0, 0)" xlink:href="#linear-gradient-24"/><linearGradient id="linear-gradient-107" x1="117.9" y1="142.67" x2="120.66" y2="142.67" gradientTransform="matrix(1, 0, 0, 1, 0, 0)" xlink:href="#linear-gradient-24"/><linearGradient id="linear-gradient-108" x1="113.67" y1="142.74" x2="116.42" y2="142.74" gradientTransform="matrix(1, 0, 0, 1, 0, 0)" xlink:href="#linear-gradient-24"/><linearGradient id="linear-gradient-109" x1="109.44" y1="142.97" x2="112.18" y2="142.97" gradientTransform="matrix(1, 0, 0, 1, 0, 0)" xlink:href="#linear-gradient-24"/><linearGradient id="linear-gradient-110" x1="105.22" y1="143.35" x2="107.95" y2="143.35" gradientTransform="matrix(1, 0, 0, 1, 0, 0)" xlink:href="#linear-gradient-24"/><linearGradient id="linear-gradient-111" x1="101.02" y1="143.88" x2="103.74" y2="143.88" gradientTransform="matrix(1, 0, 0, 1, 0, 0)" xlink:href="#linear-gradient-24"/><linearGradient id="linear-gradient-112" x1="96.85" y1="144.58" x2="99.55" y2="144.58" gradientTransform="matrix(1, 0, 0, 1, 0, 0)" xlink:href="#linear-gradient-24"/><linearGradient id="linear-gradient-113" x1="92.71" y1="145.46" x2="95.39" y2="145.46" gradientTransform="matrix(1, 0, 0, 1, 0, 0)" xlink:href="#linear-gradient-24"/><linearGradient id="linear-gradient-114" x1="88.61" y1="146.52" x2="91.28" y2="146.52" gradientTransform="matrix(1, 0, 0, 1, 0, 0)" xlink:href="#linear-gradient-24"/><linearGradient id="linear-gradient-115" x1="84.58" y1="147.78" x2="87.21" y2="147.78" gradientTransform="matrix(1, 0, 0, 1, 0, 0)" xlink:href="#linear-gradient-24"/><linearGradient id="linear-gradient-116" x1="80.63" y1="149.24" x2="83.22" y2="149.24" gradientTransform="matrix(1, 0, 0, 1, 0, 0)" xlink:href="#linear-gradient-24"/><linearGradient id="linear-gradient-117" x1="76.76" y1="150.94" x2="79.31" y2="150.94" gradientTransform="matrix(1, 0, 0, 1, 0, 0)" xlink:href="#linear-gradient-24"/><linearGradient id="linear-gradient-118" x1="73.02" y1="152.87" x2="75.5" y2="152.87" gradientTransform="matrix(1, 0, 0, 1, 0, 0)" xlink:href="#linear-gradient-24"/><linearGradient id="linear-gradient-119" x1="69.41" y1="155.05" x2="71.83" y2="155.05" gradientTransform="matrix(1, 0, 0, 1, 0, 0)" xlink:href="#linear-gradient-24"/><linearGradient id="linear-gradient-120" x1="65.98" y1="157.49" x2="68.33" y2="157.49" gradientTransform="matrix(1, 0, 0, 1, 0, 0)" xlink:href="#linear-gradient-24"/><linearGradient id="linear-gradient-121" x1="62.76" y1="160.19" x2="65.02" y2="160.19" gradientTransform="matrix(1, 0, 0, 1, 0, 0)" xlink:href="#linear-gradient-24"/><linearGradient id="linear-gradient-122" x1="59.79" y1="163.16" x2="61.95" y2="163.16" gradientTransform="matrix(1, 0, 0, 1, 0, 0)" xlink:href="#linear-gradient-24"/><linearGradient id="linear-gradient-123" x1="57.1" y1="166.39" x2="59.15" y2="166.39" gradientTransform="matrix(1, 0, 0, 1, 0, 0)" xlink:href="#linear-gradient-24"/><linearGradient id="linear-gradient-124" x1="54.75" y1="169.88" x2="56.67" y2="169.88" gradientTransform="matrix(1, 0, 0, 1, 0, 0)" xlink:href="#linear-gradient-24"/><linearGradient id="linear-gradient-125" x1="52.75" y1="173.58" x2="54.55" y2="173.58" gradientTransform="matrix(1, 0, 0, 1, 0, 0)" xlink:href="#linear-gradient-24"/><linearGradient id="linear-gradient-126" x1="51.13" y1="177.47" x2="52.8" y2="177.47" gradientTransform="matrix(1, 0, 0, 1, 0, 0)" xlink:href="#linear-gradient-24"/><linearGradient id="linear-gradient-127" x1="49.87" y1="181.49" x2="51.4" y2="181.49" gradientTransform="matrix(1, 0, 0, 1, 0, 0)" xlink:href="#linear-gradient-24"/><linearGradient id="linear-gradient-128" x1="48.97" y1="185.62" x2="50.38" y2="185.62" gradientTransform="matrix(1, 0, 0, 1, 0, 0)" xlink:href="#linear-gradient-24"/><linearGradient id="linear-gradient-129" x1="48.43" y1="189.82" x2="49.71" y2="189.82" gradientTransform="matrix(1, 0, 0, 1, 0, 0)" xlink:href="#linear-gradient-24"/><linearGradient id="linear-gradient-130" x1="48.25" y1="194.05" x2="49.41" y2="194.05" gradientTransform="matrix(1, 0, 0, 1, 0, 0)" xlink:href="#linear-gradient-24"/><linearGradient id="linear-gradient-131" x1="48.33" y1="198.29" x2="49.54" y2="198.29" gradientTransform="matrix(1, 0, 0, 1, 0, 0)" xlink:href="#linear-gradient-24"/><linearGradient id="linear-gradient-132" x1="48.76" y1="202.5" x2="50.05" y2="202.5" gradientTransform="matrix(1, 0, 0, 1, 0, 0)" xlink:href="#linear-gradient-24"/><linearGradient id="linear-gradient-133" x1="49.53" y1="206.66" x2="50.92" y2="206.66" gradientTransform="matrix(1, 0, 0, 1, 0, 0)" xlink:href="#linear-gradient-24"/><linearGradient id="linear-gradient-134" x1="50.67" y1="210.73" x2="52.14" y2="210.73" gradientTransform="matrix(1, 0, 0, 1, 0, 0)" xlink:href="#linear-gradient-24"/><linearGradient id="linear-gradient-135" x1="52.16" y1="214.68" x2="53.72" y2="214.68" gradientTransform="matrix(1, 0, 0, 1, 0, 0)" xlink:href="#linear-gradient-24"/><linearGradient id="linear-gradient-136" x1="54" y1="218.47" x2="55.65" y2="218.47" gradientTransform="matrix(1, 0, 0, 1, 0, 0)" xlink:href="#linear-gradient-24"/><linearGradient id="linear-gradient-137" x1="56.21" y1="222.07" x2="57.93" y2="222.07" gradientTransform="matrix(1, 0, 0, 1, 0, 0)" xlink:href="#linear-gradient-24"/><linearGradient id="linear-gradient-138" x1="58.76" y1="225.42" x2="60.55" y2="225.42" gradientTransform="matrix(1, 0, 0, 1, 0, 0)" xlink:href="#linear-gradient-24"/><linearGradient id="linear-gradient-139" x1="61.64" y1="228.5" x2="63.5" y2="228.5" gradientTransform="matrix(1, 0, 0, 1, 0, 0)" xlink:href="#linear-gradient-24"/><linearGradient id="linear-gradient-140" x1="64.83" y1="231.26" x2="66.74" y2="231.26" gradientTransform="matrix(1, 0, 0, 1, 0, 0)" xlink:href="#linear-gradient-24"/><linearGradient id="linear-gradient-141" x1="68.28" y1="233.7" x2="70.23" y2="233.7" gradientTransform="matrix(1, 0, 0, 1, 0, 0)" xlink:href="#linear-gradient-24"/><linearGradient id="linear-gradient-142" x1="71.96" y1="235.79" x2="73.93" y2="235.79" gradientTransform="matrix(1, 0, 0, 1, 0, 0)" xlink:href="#linear-gradient-24"/><linearGradient id="linear-gradient-143" x1="75.81" y1="237.54" x2="77.79" y2="237.54" gradientTransform="matrix(1, 0, 0, 1, 0, 0)" xlink:href="#linear-gradient-24"/><linearGradient id="linear-gradient-144" x1="79.81" y1="238.95" x2="81.79" y2="238.95" gradientTransform="matrix(1, 0, 0, 1, 0, 0)" xlink:href="#linear-gradient-24"/><linearGradient id="linear-gradient-145" x1="83.92" y1="240" x2="85.9" y2="240" gradientTransform="matrix(1, 0, 0, 1, 0, 0)" xlink:href="#linear-gradient-24"/><linearGradient id="linear-gradient-146" x1="88.1" y1="240.71" x2="90.07" y2="240.71" gradientTransform="matrix(1, 0, 0, 1, 0, 0)" xlink:href="#linear-gradient-24"/><linearGradient id="linear-gradient-147" x1="92.34" y1="241.06" x2="94.28" y2="241.06" gradientTransform="matrix(1, 0, 0, 1, 0, 0)" xlink:href="#linear-gradient-24"/><linearGradient id="linear-gradient-148" x1="96.6" y1="241.06" x2="98.5" y2="241.06" gradientTransform="matrix(1, 0, 0, 1, 0, 0)" xlink:href="#linear-gradient-24"/><linearGradient id="linear-gradient-149" x1="100.84" y1="240.69" x2="102.71" y2="240.69" gradientTransform="matrix(1, 0, 0, 1, 0, 0)" xlink:href="#linear-gradient-24"/><linearGradient id="linear-gradient-150" x1="105.05" y1="239.96" x2="106.86" y2="239.96" gradientTransform="matrix(1, 0, 0, 1, 0, 0)" xlink:href="#linear-gradient-24"/><linearGradient id="linear-gradient-151" x1="109.17" y1="238.86" x2="110.92" y2="238.86" gradientTransform="matrix(1, 0, 0, 1, 0, 0)" xlink:href="#linear-gradient-24"/><linearGradient id="linear-gradient-152" x1="113.18" y1="237.38" x2="114.85" y2="237.38" gradientTransform="matrix(1, 0, 0, 1, 0, 0)" xlink:href="#linear-gradient-24"/><linearGradient id="linear-gradient-153" x1="117.04" y1="235.53" x2="118.62" y2="235.53" gradientTransform="matrix(1, 0, 0, 1, 0, 0)" xlink:href="#linear-gradient-24"/><linearGradient id="linear-gradient-154" x1="120.69" y1="233.38" x2="121.95" y2="233.38" gradientTransform="matrix(1, 0, 0, 1, 0, 0)" xlink:href="#linear-gradient-24"/><linearGradient id="linear-gradient-155" x1="336.7" y1="201.93" x2="364.05" y2="316.35" gradientTransform="matrix(1, 0, 0, 1, 0, 0)" xlink:href="#linear-gradient-19"/><linearGradient id="linear-gradient-156" x1="416.28" y1="358.09" x2="416.74" y2="344.25" gradientTransform="translate(-43.11)" gradientUnits="userSpaceOnUse"><stop offset="0" stop-color="#7c27dd"/><stop offset="1" stop-color="#2b41d9"/></linearGradient><linearGradient id="linear-gradient-157" x1="432.72" y1="322.66" x2="404.2" y2="345.06" gradientTransform="translate(-43.11)" xlink:href="#linear-gradient-19"/><linearGradient id="linear-gradient-158" x1="-1572.23" y1="323.01" x2="-1573.78" y2="336.52" gradientTransform="matrix(-1, 0, 0, 1, -1199.61, 0)" xlink:href="#linear-gradient-8"/><linearGradient id="linear-gradient-159" x1="-1545.95" y1="329.31" x2="-1573.53" y2="350.97" gradientTransform="matrix(-1, 0, 0, 1, -1199.61, 0)" xlink:href="#linear-gradient-19"/><linearGradient id="linear-gradient-160" x1="-1553.9" y1="366.65" x2="-1553.44" y2="352.81" gradientTransform="matrix(-1, 0, 0, 1, -1199.61, 0)" xlink:href="#linear-gradient-156"/><linearGradient id="linear-gradient-161" x1="-1555.92" y1="324.74" x2="-1557.37" y2="337.37" gradientTransform="matrix(-1, 0, 0, 1, -1199.61, 0)" xlink:href="#linear-gradient-8"/><linearGradient id="linear-gradient-162" x1="449.3" y1="324.33" x2="451.04" y2="269.9" gradientTransform="matrix(-1, 0, 0, 1, 814.55, 0)" gradientUnits="userSpaceOnUse"><stop offset="0" stop-color="#2c759e"/><stop offset="1" stop-color="#051042"/></linearGradient><linearGradient id="linear-gradient-163" x1="354.98" y1="197.57" x2="382.32" y2="311.98" gradientTransform="matrix(1, 0, 0, 1, 0, 0)" xlink:href="#linear-gradient-19"/><linearGradient id="linear-gradient-164" x1="-3382.96" y1="236.34" x2="-3376.02" y2="236.34" gradientTransform="matrix(-1, 0, 0, 1, -3011.45, 0)" xlink:href="#linear-gradient-8"/><linearGradient id="linear-gradient-165" x1="365.23" y1="195.12" x2="392.57" y2="309.53" gradientTransform="matrix(1, 0, 0, 1, 0, 0)" xlink:href="#linear-gradient-19"/><linearGradient id="linear-gradient-166" x1="-3381.27" y1="272.79" x2="-3393.63" y2="283.34" gradientTransform="matrix(-1, 0, 0, 1, -3011.45, 0)" xlink:href="#linear-gradient-8"/><linearGradient id="linear-gradient-167" x1="-8656.3" y1="-621.23" x2="-8660.83" y2="-616.44" gradientTransform="matrix(0.96, 0.29, -0.37, 1.22, 8406.5, 3485.07)" xlink:href="#linear-gradient-11"/><linearGradient id="linear-gradient-168" x1="337.76" y1="234.93" x2="338.27" y2="243.22" gradientTransform="matrix(1, 0, 0, 1, 0, 0)" xlink:href="#linear-gradient-8"/><linearGradient id="linear-gradient-169" x1="-7432.87" y1="-4095.65" x2="-7443.76" y2="-4081.24" gradientTransform="matrix(-0.99, -0.16, -0.16, 0.99, -7627.1, 3087.51)" xlink:href="#linear-gradient-8"/><linearGradient id="linear-gradient-170" x1="-7441.19" y1="-4092.19" x2="-7428.18" y2="-4092.19" gradientTransform="matrix(-0.99, -0.16, -0.16, 0.99, -7627.1, 3087.51)" xlink:href="#linear-gradient-11"/><linearGradient id="linear-gradient-171" x1="-7448.58" y1="-4084.41" x2="-7440.02" y2="-4093.18" gradientTransform="matrix(-0.99, -0.16, -0.16, 0.99, -7627.1, 3087.51)" xlink:href="#linear-gradient-8"/><linearGradient id="linear-gradient-172" x1="273.39" y1="291.04" x2="265.12" y2="331.64" gradientTransform="matrix(1, 0, 0, 1, 0, 0)" xlink:href="#linear-gradient-19"/><linearGradient id="linear-gradient-173" x1="-4582.89" y1="229.59" x2="-4599.69" y2="254.46" gradientTransform="matrix(-1, 0, 0, 1, -4335, 0)" xlink:href="#linear-gradient-19"/><linearGradient id="linear-gradient-174" x1="279.96" y1="226.57" x2="280.77" y2="243.86" gradientTransform="matrix(1, 0, 0, 1, 0, 0)" xlink:href="#linear-gradient-19"/><linearGradient id="linear-gradient-175" x1="-9610.11" y1="214.99" x2="-9550.42" y2="214.99" gradientTransform="matrix(-1, -0.02, -0.02, 1, -9483.15, -144.12)" xlink:href="#linear-gradient-11"/><linearGradient id="linear-gradient-176" x1="-9564.85" y1="191.26" x2="-9687.79" y2="348.53" gradientTransform="matrix(-1, -0.02, -0.02, 1, -9483.15, -144.12)" xlink:href="#linear-gradient-19"/><linearGradient id="linear-gradient-177" x1="90" y1="241.48" x2="90.95" y2="306.77" gradientTransform="translate(341.54 126.98) rotate(76.72)" xlink:href="#linear-gradient-19"/><linearGradient id="linear-gradient-178" x1="1246.46" y1="324.21" x2="1208.45" y2="365.56" gradientTransform="translate(-1198.53)" xlink:href="#linear-gradient-11"/><linearGradient id="linear-gradient-179" x1="1234.12" y1="327.28" x2="1237.5" y2="327.28" gradientTransform="translate(-1198.53)" xlink:href="#linear-gradient-8"/><linearGradient id="linear-gradient-180" x1="1228.01" y1="324.28" x2="1235.47" y2="280.93" gradientTransform="translate(-1198.53)" xlink:href="#linear-gradient-11"/><linearGradient id="linear-gradient-181" x1="1237.94" y1="316.37" x2="1199.92" y2="357.72" gradientTransform="translate(-1198.53)" xlink:href="#linear-gradient-11"/><linearGradient id="linear-gradient-182" x1="1221.95" y1="327.1" x2="1224.87" y2="327.1" gradientTransform="translate(-1198.53)" xlink:href="#linear-gradient-8"/><linearGradient id="linear-gradient-183" x1="1219.57" y1="322.82" x2="1227.03" y2="279.47" gradientTransform="translate(-1198.53)" xlink:href="#linear-gradient-11"/><linearGradient id="linear-gradient-184" x1="1214.3" y1="270.69" x2="1267.44" y2="232.45" gradientTransform="translate(-1198.53)" xlink:href="#linear-gradient-5"/><linearGradient id="linear-gradient-185" x1="1248.02" y1="239.18" x2="1265.27" y2="239.18" gradientTransform="translate(-1198.53)" xlink:href="#linear-gradient-8"/><linearGradient id="linear-gradient-186" x1="3356.35" y1="236.29" x2="3367.93" y2="262.63" gradientTransform="matrix(-1, 0, 0, 1, 3419.25, 0)" xlink:href="#linear-gradient-8"/><linearGradient id="linear-gradient-187" x1="1265.19" y1="227.52" x2="1270.02" y2="220.09" gradientTransform="translate(-1198.53)" xlink:href="#linear-gradient-8"/><linearGradient id="linear-gradient-188" x1="1207.27" y1="260.92" x2="1260.41" y2="222.68" gradientTransform="translate(-1198.53)" xlink:href="#linear-gradient-5"/><linearGradient id="linear-gradient-189" x1="1227.03" y1="240.28" x2="1235.67" y2="240.28" gradientTransform="translate(-1198.53)" xlink:href="#linear-gradient-8"/><linearGradient id="linear-gradient-190" x1="-5434.71" y1="-294.3" x2="-5437.94" y2="-304.94" gradientTransform="matrix(0.75, -0.67, 0.67, 0.75, 4289.46, -3164.64)" xlink:href="#linear-gradient-8"/><linearGradient id="linear-gradient-191" x1="-4852.55" y1="-968.93" x2="-4826.03" y2="-999.21" gradientTransform="matrix(0.75, -0.67, 0.67, 0.75, 4289.46, -3164.64)" xlink:href="#linear-gradient-11"/><linearGradient id="linear-gradient-192" x1="-5438.01" y1="-294.35" x2="-5440.91" y2="-303.92" gradientTransform="matrix(0.75, -0.67, 0.67, 0.75, 4289.46, -3164.64)" xlink:href="#linear-gradient-8"/><linearGradient id="linear-gradient-193" x1="1228.09" y1="275.82" x2="1210.32" y2="261.61" gradientTransform="translate(-1198.53)" xlink:href="#linear-gradient-8"/><linearGradient id="linear-gradient-194" x1="-8949.93" y1="-525.27" x2="-8954.47" y2="-520.47" gradientTransform="matrix(0.96, 0.29, -0.37, 1.22, 8406.5, 3485.07)" xlink:href="#linear-gradient-11"/><linearGradient id="linear-gradient-195" x1="23.33" y1="269.49" x2="20.03" y2="271.95" gradientTransform="matrix(1, 0, 0, 1, 0, 0)" xlink:href="#linear-gradient-8"/></defs><title>icons</title><g class="cls-2"><g id="Capa_1" data-name="Capa 1"><circle class="cls-3" cx="200" cy="200" r="200"/><g class="cls-4"><rect class="cls-5" x="-651" y="-11" width="661.5" height="441"/><path class="cls-6" d="M-17.85,342.82a11.24,11.24,0,0,0-10.68-7.71A11.25,11.25,0,0,0-39,342.33a18.39,18.39,0,0,0-16.72-8.44,18.5,18.5,0,0,0-16.62,14,18.15,18.15,0,0,0,.54,10.46,297,297,0,0,1-76.43,3.44,38.47,38.47,0,0,0,.32-17.24A38.62,38.62,0,0,0-186.42,314,38.76,38.76,0,0,0-202.61,318c0-.22,0-.45,0-.68a15.12,15.12,0,0,0-18.66-12.72,15.16,15.16,0,0,0-11.46,14.83,15.12,15.12,0,0,0,13.3,14.84,38.5,38.5,0,0,0-3.78,10.24,175.55,175.55,0,0,1-31.91-16.83,17,17,0,0,0,2.36-11.87,17,17,0,0,0-13.85-13.88,17,17,0,0,0-13.52,3.5c-10.17-12.26-16.66-26.21-18.36-41.57a19,19,0,0,0,3,.27,18.78,18.78,0,0,0,18.78-18.78c0-9.76-14.55-15.81-24.07-16.73-3.42-14.45,2.67-39.18,28.56-72.54-50.31,50.32-85.6,46.65-103.81,40.14a17.09,17.09,0,0,0,5-13.88A17.18,17.18,0,0,0-386.12,167a17.14,17.14,0,0,0-19.1,17,17.11,17.11,0,0,0,1,5.7l-.21-.08a4.74,4.74,0,0,0-5.93,2.72,37.27,37.27,0,0,1-37.06,23,37.36,37.36,0,0,1-34.5-33.57,37.29,37.29,0,0,1,17.48-35.3,6.5,6.5,0,0,0,2.67-7.93l-.05-.11a17.69,17.69,0,0,0,9.94,3.05c.26,0,.5,0,.76,0,1-.18,2.05-.31,3.1-.4a17.71,17.71,0,0,0,13.84-18.21,17.83,17.83,0,0,0-16.3-16.75,17.71,17.71,0,0,0-16.75,8.85c-3-34.09,7.28-90.8,53.32-125.92H-651V430H10.5V328.8A225.55,225.55,0,0,1-17.85,342.82ZM-466.27,50.53a2.56,2.56,0,0,1,2.55,2.56,2.55,2.55,0,0,1-2.55,2.55,2.55,2.55,0,0,1-2.55-2.55A2.56,2.56,0,0,1-466.27,50.53Zm-14.29,7.15A12.76,12.76,0,0,1-467.8,70.44,12.76,12.76,0,0,1-480.56,83.2a12.76,12.76,0,0,1-12.77-12.76A12.76,12.76,0,0,1-480.56,57.68Zm-18-41.91a3.44,3.44,0,0,1,3.43,3.43,3.43,3.43,0,0,1-3.43,3.43A3.43,3.43,0,0,1-502,19.2,3.44,3.44,0,0,1-498.6,15.77ZM-526,122.67a6.86,6.86,0,0,1-6.86-6.86A6.86,6.86,0,0,1-526,109a6.86,6.86,0,0,1,6.86,6.86A6.86,6.86,0,0,1-526,122.67Zm27.1,26.38a17.86,17.86,0,0,1-17.87-17.86,17.87,17.87,0,0,1,17.87-17.87,17.87,17.87,0,0,1,17.87,17.87A17.86,17.86,0,0,1-498.94,149.05Zm99.54,63.3a5.61,5.61,0,0,1-5.61-5.61,5.62,5.62,0,0,1,5.61-5.62,5.62,5.62,0,0,1,5.62,5.62A5.62,5.62,0,0,1-399.4,212.35Zm141.14,140.77a5.68,5.68,0,0,1-3.15-.95,17.85,17.85,0,0,1-17.61,15,17.87,17.87,0,0,1-17.87-17.86A17.87,17.87,0,0,1-279,331.42a17.86,17.86,0,0,1,16.83,11.92,5.65,5.65,0,0,1,3.93-1.59,5.69,5.69,0,0,1,5.69,5.69A5.68,5.68,0,0,1-258.26,353.12Zm20.61,28.19a4,4,0,0,1-4-4,4,4,0,0,1,4-4,4,4,0,0,1,4,4A4,4,0,0,1-237.65,381.31ZM-64.2,405a21.16,21.16,0,0,1-21.16-21.17A21.16,21.16,0,0,1-64.2,362.67,21.17,21.17,0,0,1-43,383.84,21.17,21.17,0,0,1-64.2,405Zm34.69-28.81A3.53,3.53,0,0,1-33,372.67a3.53,3.53,0,0,1,3.52-3.53A3.53,3.53,0,0,1-26,372.67,3.53,3.53,0,0,1-29.51,376.2Z"/></g><g class="cls-7"><path class="cls-8" d="M-18.76,191.69c5.2,9.18,13.45,16.91,19.8,25.5C19.41,242,.3,271.05,8.68,297.81c7.31,23.31,37.69,29.56,59.9,30.5,37.42,1.6,74.79-.79,110.87-10.94,25-7,50.1-16.26,76.49-16.82,27-.57,52.35,10.26,78.41,15.38,28.62,5.62,62.84-.48,69.74-32.44,4.28-19.8-7.23-38-8.31-57.52-1.42-25.8,24.3-40,27.63-64.09,2.1-15.21-5.74-28.8-16-39.8-10.8-11.61-25.31-21.87-42-22.82-17.41-1-33,8.14-49.22,12.5C270.53,124,244.58,83.13,202.5,77.42c-19-2.57-42.3-1.35-59.53,7.49-16,8.21-23.8,26.46-41.77,31.82-19,5.67-36.43-5.67-54.51-9.29a48.18,48.18,0,0,0-48.1,17.49C-12.77,139.08-25,157.71-23.64,176.38A36.41,36.41,0,0,0-18.76,191.69Z"/><path class="cls-9" d="M419,183.05c-5,9.55-12.92,17.59-19,26.52-17.65,25.8.72,56-7.34,83.82-7,24.24-36.22,30.74-57.56,31.73-36,1.65-71.88-.83-106.55-11.38-24.06-7.33-48.15-16.91-73.51-17.49-25.93-.6-50.31,10.66-75.36,16-27.5,5.85-60.39-.5-67-33.73-4.11-20.59,7-39.54,8-59.81C21.93,191.87-2.79,177.14-6,152.06c-2-15.82,5.52-29.95,15.36-41.39C19.74,98.6,33.69,87.93,49.7,86.94c16.73-1,31.66,8.47,47.29,13,44,12.76,68.89-29.77,109.33-35.7C224.56,61.56,247,62.83,263.53,72c15.4,8.54,22.87,27.51,40.14,33.08,18.28,5.9,35-5.88,52.38-9.65,18-3.9,35,3,46.23,18.19,10.91,14.71,22.72,34.08,21.36,53.5A40,40,0,0,1,419,183.05Z"/><path class="cls-10" d="M95.73,322.71c-11.16,2.23-25.4-9.93-30-23.21-4.73-13.68,3.93-19.4,3.87-38.38-.08-21.55-11.29-24.8-18.71-53.85-1.67-6.55-11.35-44.48.65-51.59,11.09-6.57,42.26,12.29,47.72,36.44,3.9,17.22-8.14,24.44-3.54,44.5,4,17.59,14.63,17.85,18.7,34.82C119.37,292.11,110.37,319.79,95.73,322.71Z"/><path class="cls-6" d="M94.92,327.94c3-23.22-2.86-59.05-8.31-85-5.91-28.11-12.6-51-12.67-51.27l-.93.27c.07.23,6.76,23.13,12.65,51.2C91.09,269,97,304.73,94,327.81Z"/><path class="cls-11" d="M82.88,320.12c14.63-7.62,19.64-33.8,11.32-42.31-5.62-5.75-13.68.3-21.45-5.66-9.93-7.61-2.63-21.94-10.43-40.53-6.64-15.81-22.58-30.78-31.88-27.71-9.75,3.22-14.88,27.07-6.56,41.42,5.41,9.33,13.7,9.79,15.49,18.47,2.09,10.08-8,14.67-8,24.44C31.23,305.78,63.52,330.21,82.88,320.12Z"/><path class="cls-6" d="M75,326.83a.58.58,0,0,0,.26-.06.6.6,0,0,0,.28-.8c-19.4-40-25.09-86.34-25.14-86.81a.6.6,0,0,0-1.19.14c.06.47,5.77,47,25.26,87.19A.59.59,0,0,0,75,326.83Z"/><path class="cls-12" d="M35.18,251.17a.28.28,0,0,0,.18-.06.28.28,0,0,0,0-.4c-6.12-7.86-12.91-19.66-10.47-31.28a20.42,20.42,0,0,1,5.59-10.57.28.28,0,0,0,0-.4.28.28,0,0,0-.4,0,20.59,20.59,0,0,0-5.77,10.88C23,225.84,23.73,236.65,35,251.06A.29.29,0,0,0,35.18,251.17Z"/><path class="cls-12" d="M84.2,316.63a.27.27,0,0,0,.23-.12C93.84,302.77,97.05,292.16,94,285c-2.74-6.4-9.66-7.59-9.73-7.6a.28.28,0,0,0-.32.24.27.27,0,0,0,.23.32c.07,0,6.69,1.16,9.3,7.27,3,7-.2,17.43-9.49,31a.28.28,0,0,0,.08.39A.24.24,0,0,0,84.2,316.63Z"/><path class="cls-13" d="M306.67,322.71c11.16,2.23,25.4-9.93,30-23.21,4.73-13.68-3.93-19.4-3.87-38.38.08-21.55,11.29-24.8,18.71-53.85,1.67-6.55,11.35-44.48-.65-51.59-11.09-6.57-42.26,12.29-47.72,36.44-3.9,17.22,8.14,24.44,3.54,44.5-4,17.59-14.63,17.85-18.7,34.82C283,292.11,292,319.79,306.67,322.71Z"/><path class="cls-6" d="M307.48,327.94c-3-23.22,2.86-59.05,8.31-85,5.91-28.11,12.6-51,12.67-51.27l.93.27c-.07.23-6.76,23.13-12.65,51.2-5.43,25.89-11.29,61.6-8.3,84.68Z"/><path class="cls-14" d="M319.52,320.12c-14.63-7.62-19.64-33.8-11.32-42.31,5.62-5.75,13.68.3,21.45-5.66,9.93-7.61,2.63-21.94,10.43-40.53,6.64-15.81,22.58-30.78,31.88-27.71,9.75,3.22,14.88,27.07,6.56,41.42-5.41,9.33-13.7,9.79-15.49,18.47-2.09,10.08,8,14.67,8,24.44C371.17,305.78,338.88,330.21,319.52,320.12Z"/><path class="cls-6" d="M327.42,326.83a.58.58,0,0,1-.26-.06.6.6,0,0,1-.28-.8c19.4-40,25.09-86.34,25.14-86.81a.6.6,0,0,1,1.19.14c-.06.47-5.77,47-25.26,87.19A.59.59,0,0,1,327.42,326.83Z"/><path class="cls-12" d="M367.22,251.17a.28.28,0,0,1-.18-.06.28.28,0,0,1-.05-.4c6.12-7.86,12.91-19.66,10.47-31.28a20.42,20.42,0,0,0-5.59-10.57.28.28,0,0,1,0-.4.28.28,0,0,1,.4,0A20.59,20.59,0,0,1,378,219.31c1.38,6.53.66,17.34-10.57,31.75A.29.29,0,0,1,367.22,251.17Z"/><path class="cls-12" d="M318.2,316.63a.27.27,0,0,1-.23-.12c-9.41-13.74-12.62-24.35-9.54-31.54,2.74-6.4,9.66-7.59,9.73-7.6a.28.28,0,0,1,.32.24.27.27,0,0,1-.23.32c-.07,0-6.69,1.16-9.3,7.27-3,7,.2,17.43,9.49,31a.28.28,0,0,1-.08.39A.24.24,0,0,1,318.2,316.63Z"/><path class="cls-15" d="M79.58,186.61V309c0,9,7.91,16.31,17.67,16.31h205.5c9.76,0,17.67-7.3,17.67-16.31V186.61Z"/><path class="cls-16" d="M260.34,150.17,208.1,118.56a15.4,15.4,0,0,0-16.2,0l-52.24,31.6-60.33,36.5,60.33,36.4L200,259.47,260.34,223l60.33-36.36Z"/><g class="cls-17"><path class="cls-6" d="M84.3,320a.42.42,0,0,1-.28-.1.43.43,0,0,1,0-.6l75.25-84.67a.43.43,0,0,1,.64.57L84.61,319.87A.43.43,0,0,1,84.3,320Z"/><path class="cls-6" d="M315.7,320a.43.43,0,0,1-.31-.14l-75.26-84.66a.43.43,0,0,1,.64-.57L316,319.31a.43.43,0,0,1,0,.6A.42.42,0,0,1,315.7,320Z"/></g><path class="cls-18" d="M279.38,262.16s-2.48-3,.89-4.81,8.68.18,9.35,4.08,4,1.58,5.48.73,5.55-2,6.58,2.43c.41,1.77-.11,4,.66,5.66,1.05,2.25,4.48,1.67,6.35,2.53,2.43,1.12,3.7,3.3,2.44,5.83-1.95,3.9-5.79,6.37-3.72,9.77s-6.28,11-9.14,3.94S291,286.45,287.36,286a5.07,5.07,0,0,1-4.44-6.72,5.83,5.83,0,0,0-1.65-6.4C279.93,271.54,275.42,265.75,279.38,262.16Z"/><path class="cls-19" d="M274.16,300.08a15.94,15.94,0,0,0-5.75,2.45,1.52,1.52,0,0,0-.67,1.45,64.46,64.46,0,0,0,6.81,21.35,2.33,2.33,0,0,1,.22,1.58l-.86,4-1.59,1.49h4.1l2.72-7.38-1.16-.37a2.2,2.2,0,0,1-1.54-2.07l-.14-7.92a9,9,0,0,0-2.17-6l6.55-.32Z"/><path class="cls-20" d="M270.72,333.11c-.38.49,4,1.14,6.23.07,0,0,3.08-5.35,3.08-8.11,0,0-.25-.56-2-.43,0,0-1,6.33-2.13,7s-3.05.08-3.05.08A6.35,6.35,0,0,0,270.72,333.11Z"/><path class="cls-21" d="M279.85,308.8c0-.06-7.05-.85-7.05-.85a16.32,16.32,0,0,1-.48,5.07c-.72,2.94-11,15.66-11,15.66l1.08,3.42a17.35,17.35,0,0,1-9.85.59l6.69-4s6.26-21.35,10.1-25.15l7-2.44Z"/><path class="cls-22" d="M295.58,296.38s4,6,4.38,8.75-1.11,3.86-5.35,4-15.56.18-15.56.18l-9.66-8.26s7-2.51,8.87-3.22S295.58,296.38,295.58,296.38Z"/><path class="cls-23" d="M262,331a2,2,0,0,1,.38,2.38s-9.21,1.63-11.71.89c0,0,.52-1.19,3.33-2.54l-.2.16a.34.34,0,0,0,.22.61C255.84,332.34,259.68,332,262,331Z"/><path class="cls-24" d="M284.65,295.58a92.77,92.77,0,0,1-7-7.45,6.28,6.28,0,0,1-1.06-5.66,76.33,76.33,0,0,1,3.1-7.83c.27-.88,5.54-.84,5.54-.84s10.39,6.73,14.47,18.15l-4.59,1.43a53.32,53.32,0,0,0-5.39-7.44s4.64,6.12,4.8,8.62Z"/><path class="cls-25" d="M279,269.72c0,.18,1.43,4.75,1.54,4.84a7.71,7.71,0,0,0,4.39-.68L282.64,269Z"/><path class="cls-26" d="M281.3,260.13a9.3,9.3,0,0,0-4.18,4.64c-1.69,3.59-.43,5.25,1.16,5.48a7.41,7.41,0,0,0,6.46-2.13C287.25,265.8,284.53,258.89,281.3,260.13Z"/><path class="cls-27" d="M283.06,266.21s1.87-5.26-2.79-5.32l-1.09.76s-1.71-2.91,1.09-4.3a6,6,0,0,1,8.19,3.63c1.2,3.78.5,6.22-1.49,8s-2.81-.24-2.81-.24,1.09-1.7.65-2.6-1.46.19-1.46.19Z"/><path class="cls-28" d="M283.58,266.79s.95-2.71,2.21-1.63-1,2.5-1.92,3Z"/><path class="cls-29" d="M275.07,295.92l3.45-3.34,4.79,2s4.76.74,7.48,0l2.73-.73,6.16-1.92,1,2.73a1.63,1.63,0,0,1-.6,1.89,10.67,10.67,0,0,1-1.55,1c-.81.36-20-.24-20-.24Z"/><g class="cls-17"><path class="cls-6" d="M300.18,266.52H300a2.91,2.91,0,0,0-.66-2.67c-1.17-1-3.59-.21-5.73.46a14.36,14.36,0,0,1-2.82.69,1.67,1.67,0,0,1-1.31-.43A2.2,2.2,0,0,1,289,263h.16a2.12,2.12,0,0,0,.49,1.43,1.51,1.51,0,0,0,1.18.39,14.25,14.25,0,0,0,2.78-.69c2.18-.67,4.64-1.44,5.88-.42C300.1,264.24,300.33,265.16,300.18,266.52Z"/></g><g class="cls-17"><path class="cls-6" d="M305.27,286.21c-.38-1.58.66-2.91,1.86-4.46a13.78,13.78,0,0,0,2.37-3.9,2.19,2.19,0,0,0-.16-2c-1.12-1.83-4.84-2.36-4.87-2.37l0-.16c.15,0,3.83.55,5,2.44a2.37,2.37,0,0,1,.18,2.12,14.17,14.17,0,0,1-2.4,3.94c-1.18,1.51-2.19,2.82-1.83,4.33Z"/></g><rect class="cls-30" x="286.7" y="313.21" width="1.82" height="19.7"/><path class="cls-31" d="M295.58,333.28H279.63a1.18,1.18,0,0,1,1.19-1.18H294.4a1.18,1.18,0,0,1,1.18,1.18Z"/><rect class="cls-32" x="277.89" y="308.8" width="20.06" height="5.69" rx="1.96"/><path class="cls-33" d="M288.15,297.49h0l-20.05,0a.9.9,0,1,1,0-1.8l20.06,0a.9.9,0,0,1,0,1.8Z"/><path class="cls-34" d="M250,279.28h16.7a3.18,3.18,0,0,1,2.88,1.82l7.72,16.38H256.57a1.93,1.93,0,0,1-1.8-1.23l-6-15.15A1.33,1.33,0,0,1,250,279.28Z"/><path class="cls-35" d="M316.18,298.22a.72.72,0,0,0-.17-.64.85.85,0,0,0-.64-.28H231.68a1,1,0,0,0-.81.41.86.86,0,0,0-.06.85l.91,1.84a1.28,1.28,0,0,0,1.15.69H314.8a.94.94,0,0,0,.94-.73Z"/><path class="cls-36" d="M236.37,337a.72.72,0,0,1-.29-.06.77.77,0,0,1-.39-1l15.41-36.64a.73.73,0,0,1,1-.39.77.77,0,0,1,.39,1L237,336.55A.74.74,0,0,1,236.37,337Z"/><path class="cls-37" d="M253.72,337a.74.74,0,0,1-.67-.45l-15.41-36.64a.76.76,0,0,1,.39-1,.73.73,0,0,1,1,.39L254.4,336a.77.77,0,0,1-.39,1A.72.72,0,0,1,253.72,337Z"/><path class="cls-38" d="M297,337a.72.72,0,0,1-.29-.06.76.76,0,0,1-.39-1l15.41-36.64a.73.73,0,0,1,1-.39.76.76,0,0,1,.38,1l-15.4,36.64A.74.74,0,0,1,297,337Z"/><path class="cls-39" d="M314.38,337a.74.74,0,0,1-.68-.45l-15.4-36.64a.76.76,0,0,1,.38-1,.73.73,0,0,1,1,.39L315.05,336a.76.76,0,0,1-.38,1A.75.75,0,0,1,314.38,337Z"/><g class="cls-40"><path class="cls-6" d="M274.92,127.39H106.34a5.57,5.57,0,0,0-5.44,5.55V269.75H299.1V152Z"/><path class="cls-41" d="M299,152l-22.13.2a2,2,0,0,1-1.46-.64A2.08,2.08,0,0,1,275,150V127.56Z"/><path class="cls-42" d="M243.72,199.85A39.05,39.05,0,0,1,241.26,214a23.29,23.29,0,0,1-7,10.05,16.1,16.1,0,0,1-10.44,3.64,13,13,0,0,1-7-1.9,10.88,10.88,0,0,1-4.39-5h-.86a18.37,18.37,0,0,1-14.73,6.91q-9.49,0-14.95-5.71t-5.47-15.61q0-11.31,7.18-18.22t18.75-6.91a66.05,66.05,0,0,1,10.16.88,56.09,56.09,0,0,1,9.13,2.12l-1.23,26.2c0,5,1.36,7.45,4.07,7.45q3.44,0,5.47-5t2-13.1a31.48,31.48,0,0,0-3.59-15.24,24.28,24.28,0,0,0-10.1-10.1,31,31,0,0,0-14.86-3.49,38.08,38.08,0,0,0-18.81,4.45,29.76,29.76,0,0,0-12.24,12.83,42.21,42.21,0,0,0-4.26,19.37q0,14.79,7.9,22.69t22.91,7.9a69,69,0,0,0,12.48-1.26,82.56,82.56,0,0,0,13.39-3.67v10.29a64.37,64.37,0,0,1-25.45,4.87q-20.36,0-31.74-10.71t-11.38-29.79a49.83,49.83,0,0,1,5.81-24,42.25,42.25,0,0,1,16.55-16.93,49,49,0,0,1,24.73-6.13,45,45,0,0,1,21,4.82,34.26,34.26,0,0,1,14.31,13.72A40.83,40.83,0,0,1,243.72,199.85Zm-54.86,6.7q0,11.31,9.22,11.31a8.57,8.57,0,0,0,7.34-3.41q2.52-3.39,3.05-11.06l.7-11.84A29.55,29.55,0,0,0,203,191q-6.7,0-10.42,4.18T188.86,206.55Z"/></g><path class="cls-6" d="M325.21,151.83a37.68,37.68,0,0,1,58.65-31.75L386,117.9a1.1,1.1,0,0,1,1.84.48L391.6,132a1.07,1.07,0,0,1-.28,1.06,1.12,1.12,0,0,1-1.06.3l-13.67-3.57a1.13,1.13,0,0,1-.79-.78,1.12,1.12,0,0,1,.28-1.06l2.42-2.45a30.1,30.1,0,1,0,14.62,26.07,1.2,1.2,0,0,1,1.08-1.22l5.27-.06a1,1,0,0,1,.75.41l0,0a1.42,1.42,0,0,1,.33.93,37.69,37.69,0,0,1-75.38.15Zm65.62-19.53s0-.05,0-.08l-3.75-13.62a.3.3,0,0,0-.21-.2.25.25,0,0,0-.27.08L384,121.13l-.29-.19a36.85,36.85,0,1,0,16.09,30.73h0a.6.6,0,0,0-.09-.34l0-.05a1.45,1.45,0,0,0-.19-.17l-5.24.06c-.11,0-.28.22-.28.42a31,31,0,1,1-14.57-26.51l.43.27-3.13,3.18a.29.29,0,0,0-.07.28.3.3,0,0,0,.21.2l13.67,3.57a.3.3,0,0,0,.27-.08A.27.27,0,0,0,390.83,132.3Z"/><path class="cls-6" d="M351.38,158.81H340.52v-2.28l3.9-3.94c1.16-1.19,1.91-2,2.27-2.46a5.37,5.37,0,0,0,.76-1.27,3.18,3.18,0,0,0,.24-1.21,1.8,1.8,0,0,0-.52-1.4,2,2,0,0,0-1.37-.45,3.92,3.92,0,0,0-1.76.41,8.92,8.92,0,0,0-1.77,1.18l-1.79-2.11a11.68,11.68,0,0,1,1.9-1.39,7.92,7.92,0,0,1,1.65-.62,8.75,8.75,0,0,1,2-.22,5.82,5.82,0,0,1,2.57.54,4.12,4.12,0,0,1,1.73,1.48,4,4,0,0,1,.62,2.19,5.42,5.42,0,0,1-.38,2,7.78,7.78,0,0,1-1.17,1.93,28,28,0,0,1-2.79,2.81l-2,1.88v.15h6.76Z"/><path class="cls-6" d="M364.16,155.59h-1.87v3.22h-3.21v-3.22h-6.63v-2.28l6.81-10h3V153h1.87ZM359.08,153v-2.63c0-.44,0-1.08.05-1.91s.07-1.33.09-1.46h-.09a12.35,12.35,0,0,1-.94,1.7l-2.85,4.3Z"/><path class="cls-6" d="M373.38,143.28l-5.79,15.53h-2.94l5.79-15.53Z"/><path class="cls-6" d="M375.9,158.81l5.83-12.75h-7.66V143.3h11.15v2.06l-5.88,13.45Z"/><path class="cls-43" d="M368.85,195.65l.1,1.26h0a.21.21,0,0,0,.23.2.22.22,0,0,0,.2-.24h0l-.12-1.27a.2.2,0,0,0-.23-.19.21.21,0,0,0-.19.22Z"/><path class="cls-44" d="M369.07,199.86v1.27h0a.24.24,0,1,0,.48,0h0v-1.28a.23.23,0,0,0-.23-.24.24.24,0,0,0-.23.24Z"/><path class="cls-45" d="M368.92,204.08l-.11,1.26h0a.27.27,0,0,0,.53,0h0l.1-1.27a.27.27,0,0,0-.24-.28.25.25,0,0,0-.27.23Z"/><path class="cls-46" d="M368.42,208.27l-.22,1.24h0a.28.28,0,0,0,.56.1h0l.21-1.26a.28.28,0,0,0-.55-.09Z"/><path class="cls-47" d="M367.58,212.4l-.32,1.22h0a.31.31,0,0,0,.22.37.3.3,0,0,0,.37-.22h0l.3-1.24a.3.3,0,0,0-.22-.36.29.29,0,0,0-.36.21Z"/><path class="cls-48" d="M366.42,216.45l-.41,1.2h0a.33.33,0,1,0,.62.21h0l.4-1.21a.33.33,0,0,0-.21-.41.33.33,0,0,0-.4.2Z"/><path class="cls-49" d="M365,220.4l-.5,1.16h0a.34.34,0,0,0,.18.46.36.36,0,0,0,.46-.19h0l.49-1.18a.34.34,0,1,0-.63-.27Z"/><path class="cls-50" d="M363.18,224.23l-.58,1.12h0a.37.37,0,1,0,.65.35h0l.58-1.14a.36.36,0,1,0-.64-.33Z"/><path class="cls-51" d="M361.14,227.91l-.67,1.07h0a.38.38,0,0,0,.13.54.39.39,0,0,0,.54-.13h0l.66-1.1a.39.39,0,0,0-.66-.4Z"/><path class="cls-52" d="M358.83,231.43l-.74,1h0a.41.41,0,0,0,.09.57.41.41,0,0,0,.58-.09h0l.75-1a.41.41,0,0,0-.67-.48Z"/><path class="cls-53" d="M356.26,234.76l-.81,1h0a.44.44,0,1,0,.66.57h0l.82-1a.44.44,0,0,0-.06-.61.43.43,0,0,0-.6.06Z"/><path class="cls-54" d="M353.46,237.89l-.89.9h0a.46.46,0,1,0,.65.64h0l.9-.92a.45.45,0,0,0-.65-.63Z"/><path class="cls-55" d="M350.42,240.8l-1,.83h0a.48.48,0,0,0,.63.73h0l1-.85a.48.48,0,0,0,0-.67.47.47,0,0,0-.66-.05Z"/><path class="cls-56" d="M347.16,243.46l-1,.74h0a.5.5,0,0,0-.11.7.51.51,0,0,0,.7.11h0l1-.77a.5.5,0,0,0-.59-.8Z"/><path class="cls-57" d="M343.71,245.84l-1.07.67h0a.52.52,0,1,0,.54.88h0l1.09-.68a.51.51,0,1,0-.54-.87Z"/><path class="cls-58" d="M340.08,247.94l-1.13.57h0a.53.53,0,0,0,.48,1h0l1.15-.59a.53.53,0,0,0-.48-.94Z"/><path class="cls-59" d="M336.28,249.71l-1.17.47h0a.54.54,0,1,0,.4,1h0l1.2-.48a.55.55,0,0,0,.29-.7.53.53,0,0,0-.7-.3Z"/><path class="cls-60" d="M332.34,251.16l-1.2.37h0a.55.55,0,1,0,.32,1.06h0l1.22-.38a.55.55,0,0,0-.32-1.06Z"/><path class="cls-61" d="M328.3,252.29l-1.23.27h0a.56.56,0,1,0,.25,1.1h0l1.25-.29a.56.56,0,0,0,.43-.67.57.57,0,0,0-.68-.43Z"/><path class="cls-62" d="M324.19,253.1l-1.25.19h0a.57.57,0,0,0-.49.65.58.58,0,0,0,.66.49h0l1.27-.19a.58.58,0,0,0,.48-.66.57.57,0,0,0-.65-.48Z"/><path class="cls-63" d="M320,253.61l-1.26.1h0a.58.58,0,0,0-.54.63.59.59,0,0,0,.63.55h0l1.28-.11a.58.58,0,0,0,.54-.63.59.59,0,0,0-.63-.54Z"/><path class="cls-64" d="M315.83,253.83h-1.27a.6.6,0,1,0,0,1.2h1.29a.6.6,0,0,0,.59-.61.59.59,0,0,0-.6-.59Z"/><path class="cls-65" d="M311.63,253.77l-1.26-.08h0a.62.62,0,0,0-.07,1.23h0l1.28.07a.63.63,0,0,0,.65-.58.61.61,0,0,0-.58-.64Z"/><path class="cls-66" d="M307.44,253.44l-1.25-.15h0a.63.63,0,0,0-.15,1.25h0l1.28.14a.62.62,0,1,0,.14-1.24Z"/><path class="cls-67" d="M303.28,252.86l-1.25-.22h0a.64.64,0,1,0-.22,1.26h0l1.27.22a.64.64,0,0,0,.22-1.26Z"/><path class="cls-68" d="M299.15,252.05l-1.23-.29h0a.65.65,0,1,0-.29,1.27h0l1.25.29a.65.65,0,0,0,.78-.49.66.66,0,0,0-.49-.78Z"/><path class="cls-69" d="M295.08,251l-1.22-.35h0a.67.67,0,0,0-.37,1.28h0l1.23.35a.66.66,0,0,0,.37-1.27Z"/><path class="cls-70" d="M291.06,249.77l-1.2-.41h0a.68.68,0,0,0-.44,1.28h0l1.21.41a.67.67,0,0,0,.44-1.27Z"/><path class="cls-71" d="M287.1,248.33l-1.17-.47h0a.69.69,0,0,0-.89.38.7.7,0,0,0,.38.9h0l1.2.47a.68.68,0,1,0,.5-1.27Z"/><path class="cls-72" d="M283.23,246.7l-1.15-.53h0a.7.7,0,1,0-.58,1.28h0l1.17.52a.69.69,0,0,0,.92-.34.71.71,0,0,0-.34-.93Z"/><path class="cls-73" d="M279.43,244.89l-1.12-.58h0a.71.71,0,0,0-1,.31.71.71,0,0,0,.31,1h0l1.14.58a.71.71,0,1,0,.65-1.26Z"/><path class="cls-74" d="M275.72,242.9l-1.1-.62h0a.72.72,0,0,0-.72,1.25h0l1.11.63a.71.71,0,1,0,.71-1.24Z"/><path class="cls-75" d="M272.09,240.76,271,240.1h0a.72.72,0,0,0-1,.23.73.73,0,0,0,.23,1h0l1.09.67a.72.72,0,0,0,.76-1.22Z"/><path class="cls-76" d="M268.55,238.49l-1.05-.71h0a.73.73,0,0,0-1,.19.73.73,0,0,0,.2,1h0l1.06.72a.73.73,0,1,0,.81-1.21Z"/><path class="cls-77" d="M265.08,236.09l-1-.74h0a.73.73,0,1,0-.86,1.18h0l1,.74a.72.72,0,0,0,1-.16.73.73,0,0,0-.16-1Z"/><path class="cls-78" d="M261.7,233.57l-1-.77h0a.73.73,0,0,0-.9,1.16h0l1,.78a.73.73,0,1,0,.9-1.16Z"/><path class="cls-79" d="M258.39,231l-1-.8h0a.74.74,0,0,0-1,.1.73.73,0,0,0,.11,1h0l1,.8a.74.74,0,0,0,.93-1.14Z"/><path class="cls-80" d="M255.15,228.25l-1-.83h0a.74.74,0,0,0-1.05.08.73.73,0,0,0,.07,1h0l1,.83a.74.74,0,0,0,1-.08.73.73,0,0,0-.08-1Z"/><path class="cls-81" d="M252,225.47l-.93-.85h0a.74.74,0,0,0-1.05.06.73.73,0,0,0,.05,1.05h0l.95.86a.75.75,0,0,0,1-1.11Z"/><path class="cls-82" d="M248.86,222.61l-.92-.87h0a.75.75,0,1,0-1,1.09h0l.93.87a.75.75,0,1,0,1-1.09Z"/><path class="cls-83" d="M245.81,219.69l-.91-.88h0a.75.75,0,0,0-1.07,0,.76.76,0,0,0,0,1.07h0l.92.89a.75.75,0,0,0,1.05-1.08Z"/><path class="cls-84" d="M242.79,216.72l-.89-.9h0a.76.76,0,0,0-1.08,1.07h0l.9.91a.76.76,0,0,0,1.07-1.08Z"/><path class="cls-85" d="M239.82,213.71l-.88-.91h0a.76.76,0,0,0-1.1,1.06h0l.89.91a.76.76,0,1,0,1.09-1.06Z"/><path class="cls-86" d="M236.88,210.66l-.87-.92a.77.77,0,0,0-1.09,0,.78.78,0,0,0,0,1.09h0l.88.92a.76.76,0,1,0,1.1-1.06Z"/><path class="cls-87" d="M234,207.59l-.87-.93a.77.77,0,0,0-1.09,0,.76.76,0,0,0,0,1.09h0l.87.93a.77.77,0,0,0,1.12-1Z"/><path class="cls-88" d="M231.08,204.49l-.87-.93a.77.77,0,0,0-1.13,1.05h0l.87.93a.76.76,0,0,0,1.09,0A.77.77,0,0,0,231.08,204.49Z"/><path class="cls-89" d="M228.19,201.38l-.86-.93a.78.78,0,0,0-1.1,0,.77.77,0,0,0,0,1.1h0l.86.93a.79.79,0,0,0,1.1,0A.77.77,0,0,0,228.19,201.38Z"/><path class="cls-90" d="M225.31,198.27l-.86-.93a.78.78,0,1,0-1.15,1.06h0l.87.93a.78.78,0,0,0,1.14-1.06Z"/><path class="cls-91" d="M222.43,195.16l-.87-.93a.79.79,0,1,0-1.15,1.07h0l.87.92a.78.78,0,0,0,1.11,0A.8.8,0,0,0,222.43,195.16Z"/><path class="cls-92" d="M219.52,192.06l-.87-.92a.79.79,0,0,0-1.12,0,.78.78,0,0,0,0,1.11h0l.87.92a.79.79,0,1,0,1.15-1.09Z"/><path class="cls-93" d="M216.6,189l-.89-.92a.79.79,0,1,0-1.14,1.1h0l.88.92h0a.81.81,0,0,0,1.13,0A.8.8,0,0,0,216.6,189Z"/><path class="cls-94" d="M213.64,185.93l-.89-.91a.8.8,0,1,0-1.14,1.13h0l.89.9h0a.8.8,0,1,0,1.14-1.12Z"/><path class="cls-95" d="M210.65,182.92l-.91-.9a.8.8,0,1,0-1.13,1.14h0l.91.9h0a.8.8,0,0,0,1.13,0A.79.79,0,0,0,210.65,182.92Z"/><path class="cls-96" d="M207.61,179.94l-.92-.88a.82.82,0,0,0-1.15,0,.83.83,0,0,0,0,1.15h0l.92.87h0a.81.81,0,0,0,1.14,0A.81.81,0,0,0,207.61,179.94Z"/><path class="cls-97" d="M204.51,177l-.94-.86a.81.81,0,0,0-1.14.05.79.79,0,0,0,0,1.13h0l.94.85h0a.81.81,0,1,0,1.09-1.19Z"/><path class="cls-98" d="M201.35,174.16l-1-.84a.8.8,0,1,0-1,1.21h0l.95.84h0a.82.82,0,0,0,1.14-.07.8.8,0,0,0-.08-1.13Z"/><path class="cls-99" d="M198.13,171.38l-1-.82a.8.8,0,0,0-1,1.23h0l1,.81h0a.8.8,0,0,0,1-1.23Z"/><path class="cls-100" d="M194.84,168.68l-1-.79a.79.79,0,1,0-1,1.24h0l1,.78h0a.8.8,0,1,0,1-1.25Z"/><path class="cls-101" d="M191.47,166.07l-1-.76a.79.79,0,0,0-1.11.16.8.8,0,0,0,.17,1.11h0l1,.76h0a.79.79,0,0,0,.95-1.27Z"/><path class="cls-102" d="M188,163.56l-1.05-.73a.79.79,0,0,0-.9,1.3h0l1,.73h0a.79.79,0,1,0,.9-1.3Z"/><path class="cls-103" d="M184.49,161.17l-1.08-.69a.79.79,0,1,0-.85,1.32h0l1.07.69h0a.78.78,0,0,0,1.09-.23.79.79,0,0,0-.23-1.09Z"/><path class="cls-104" d="M180.86,158.91l-1.1-.65a.78.78,0,0,0-.8,1.34h0l1.09.64h0a.79.79,0,0,0,.81-1.35Z"/><path class="cls-105" d="M177.16,156.78l-1.12-.61a.78.78,0,0,0-1.06.31.8.8,0,0,0,.31,1.06h0l1.11.61h0a.78.78,0,0,0,1.06-.31.79.79,0,0,0-.32-1.06Z"/><path class="cls-106" d="M173.39,154.79l-1.15-.57a.78.78,0,1,0-.69,1.39h0l1.13.56h0a.78.78,0,0,0,1.05-.34.79.79,0,0,0-.35-1.05Z"/><path class="cls-107" d="M169.54,152.94l-1.16-.53a.79.79,0,0,0-1,.39.77.77,0,0,0,.39,1h0l1.15.53h0a.77.77,0,1,0,.64-1.41Z"/><path class="cls-108" d="M165.63,151.23l-1.18-.49a.78.78,0,0,0-1,.42.77.77,0,0,0,.43,1h0l1.17.48h0a.77.77,0,1,0,.59-1.43Z"/><path class="cls-109" d="M161.67,149.66l-1.2-.45a.78.78,0,0,0-1,.46.76.76,0,0,0,.45,1h0l1.19.44h0a.77.77,0,0,0,1-.45.77.77,0,0,0-.45-1Z"/><path class="cls-110" d="M157.65,148.23l-1.22-.4a.76.76,0,0,0-.48,1.45h0l1.2.4h0a.75.75,0,0,0,1-.48.76.76,0,0,0-.48-1Z"/><path class="cls-111" d="M153.58,146.94l-1.23-.36a.77.77,0,0,0-.43,1.47h0l1.21.35h0a.77.77,0,0,0,.43-1.47Z"/><path class="cls-112" d="M149.47,145.8l-1.25-.31a.76.76,0,0,0-.92.55.77.77,0,0,0,.55.92h0l1.22.31h0a.76.76,0,0,0,.38-1.47Z"/><path class="cls-113" d="M145.32,144.8l-1.26-.27a.76.76,0,0,0-.31,1.48h0l1.24.27h0a.74.74,0,0,0,.89-.58.76.76,0,0,0-.57-.9Z"/><path class="cls-114" d="M141.13,144l-1.26-.22a.74.74,0,0,0-.87.6.77.77,0,0,0,.61.88h0l1.25.22h0a.75.75,0,0,0,.87-.61.76.76,0,0,0-.61-.88Z"/><path class="cls-115" d="M136.92,143.25l-1.26-.18a.75.75,0,1,0-.22,1.48h0l1.25.18h0a.75.75,0,0,0,.22-1.49Z"/><path class="cls-116" d="M132.69,142.7l-1.27-.14a.74.74,0,1,0-.16,1.48h0l1.25.14h0a.74.74,0,1,0,.16-1.48Z"/><path class="cls-117" d="M128.45,142.29l-1.28-.09a.75.75,0,0,0-.8.69.74.74,0,0,0,.69.79h0l1.26.1h0a.75.75,0,0,0,.11-1.49Z"/><path class="cls-118" d="M124.19,142l-1.28,0a.75.75,0,0,0-.77.71.74.74,0,0,0,.71.77h0l1.26.05h0a.75.75,0,0,0,.77-.71.73.73,0,0,0-.71-.77Z"/><path class="cls-119" d="M119.92,141.94h-1.28a.74.74,0,1,0,0,1.47h1.28a.74.74,0,1,0,0-1.47Z"/><path class="cls-120" d="M115.66,142l-1.28,0a.74.74,0,0,0-.71.76.72.72,0,0,0,.76.71h0l1.26,0h0a.75.75,0,0,0,.71-.76.74.74,0,0,0-.76-.71Z"/><path class="cls-121" d="M111.39,142.2l-1.27.09a.74.74,0,0,0-.68.78.73.73,0,0,0,.78.67h0l1.26-.09h0a.73.73,0,0,0,.68-.78.74.74,0,0,0-.78-.68Z"/><path class="cls-122" d="M107.14,142.56l-1.27.14a.72.72,0,0,0,.16,1.44h0l1.25-.13h0a.74.74,0,0,0,.65-.81.73.73,0,0,0-.81-.64Z"/><path class="cls-123" d="M102.91,143.08l-1.27.18a.73.73,0,0,0-.61.82.72.72,0,0,0,.82.61h0l1.25-.18h0a.73.73,0,0,0-.21-1.44Z"/><path class="cls-124" d="M98.69,143.75l-1.26.24a.73.73,0,0,0-.57.85.72.72,0,0,0,.84.57h0l1.24-.23h0a.72.72,0,0,0,.58-.84.73.73,0,0,0-.85-.58Z"/><path class="cls-125" d="M94.51,144.61l-1.25.29a.73.73,0,0,0-.53.87.71.71,0,0,0,.86.53h0l1.23-.29h0a.72.72,0,0,0-.33-1.4Z"/><path class="cls-126" d="M90.37,145.65l-1.24.36a.71.71,0,0,0,.39,1.37h0l1.22-.35h0a.71.71,0,0,0,.49-.88.72.72,0,0,0-.88-.5Z"/><path class="cls-127" d="M86.28,146.9l-1.22.41a.71.71,0,1,0,.46,1.34h0l1.19-.4h0a.71.71,0,1,0-.45-1.34Z"/><path class="cls-128" d="M82.25,148.36l-1.19.48a.7.7,0,0,0,.53,1.29h0l1.17-.47h0a.71.71,0,0,0,.39-.91.7.7,0,0,0-.91-.39Z"/><path class="cls-129" d="M78.32,150l-1.16.55a.69.69,0,1,0,.59,1.24h0l1.14-.53h0a.69.69,0,0,0-.59-1.25Z"/><path class="cls-130" d="M74.49,152l-1.12.63a.68.68,0,1,0,.66,1.18h0l1.1-.61h0a.68.68,0,0,0,.27-.92.69.69,0,0,0-.93-.27Z"/><path class="cls-131" d="M70.8,154.14l-1.08.7a.67.67,0,0,0-.2.92.68.68,0,0,0,.93.2h0l1.06-.68h0a.67.67,0,1,0-.73-1.13Z"/><path class="cls-132" d="M67.26,156.57l-1,.79a.65.65,0,0,0-.12.92.67.67,0,0,0,.93.12h0l1-.76h0a.66.66,0,1,0-.8-1.06Z"/><path class="cls-133" d="M63.93,159.28l-1,.86a.65.65,0,0,0,.87,1h0l.94-.84h0a.65.65,0,0,0-.87-1Z"/><path class="cls-134" d="M60.84,162.26l-.88.94a.64.64,0,1,0,.94.87h0l.86-.91v0a.64.64,0,0,0-.94-.88Z"/><path class="cls-135" d="M58,165.5l-.78,1a.63.63,0,1,0,1,.77h0l.77-1v0a.63.63,0,0,0-1-.78Z"/><path class="cls-136" d="M55.52,169l-.68,1.1a.62.62,0,0,0,.2.85.63.63,0,0,0,.86-.2h0l.66-1.06v0a.62.62,0,1,0-1.06-.66Z"/><path class="cls-137" d="M53.38,172.73l-.56,1.16a.61.61,0,0,0,1.1.54h0l.56-1.13h0a.61.61,0,1,0-1.1-.55Z"/><path class="cls-138" d="M51.62,176.65l-.45,1.21a.6.6,0,1,0,1.13.42h0l.45-1.17v0a.61.61,0,0,0-.35-.78.61.61,0,0,0-.79.35Z"/><path class="cls-139" d="M50.23,180.71,49.89,182a.59.59,0,1,0,1.14.32h0l.34-1.21h0a.6.6,0,0,0-.41-.74.6.6,0,0,0-.74.41Z"/><path class="cls-140" d="M49.21,184.88,49,186.15a.58.58,0,1,0,1.15.21h0l.23-1.24h0a.59.59,0,0,0-1.16-.22Z"/><path class="cls-141" d="M48.56,189.12l-.13,1.28a.58.58,0,0,0,1.15.11h0l.13-1.25h0a.58.58,0,0,0-.52-.64.57.57,0,0,0-.63.52Z"/><path class="cls-142" d="M48.27,193.4l0,1.28a.58.58,0,0,0,.56.58.57.57,0,0,0,.57-.56h0l0-1.26h0a.57.57,0,0,0-.56-.58.56.56,0,0,0-.58.56Z"/><path class="cls-143" d="M48.34,197.68l.09,1.29a.54.54,0,0,0,.59.51.55.55,0,0,0,.52-.59h0l-.09-1.26h0a.56.56,0,0,0-1.11.07Z"/><path class="cls-144" d="M48.76,202l.2,1.27a.56.56,0,0,0,.63.46.55.55,0,0,0,.45-.63h0l-.19-1.24v0a.54.54,0,0,0-.63-.46.56.56,0,0,0-.46.63Z"/><path class="cls-145" d="M49.55,206.16l.31,1.25a.53.53,0,1,0,1-.25v0l-.3-1.22h0a.54.54,0,1,0-1.05.25Z"/><path class="cls-146" d="M50.7,210.29l.41,1.22a.53.53,0,0,0,.67.33.52.52,0,0,0,.33-.67h0l-.4-1.19v0a.52.52,0,0,0-.67-.33.53.53,0,0,0-.34.67Z"/><path class="cls-147" d="M52.2,214.3l.52,1.18a.52.52,0,0,0,.69.26.51.51,0,0,0,.26-.68h0l-.51-1.15v0a.54.54,0,0,0-.69-.27.52.52,0,0,0-.27.69Z"/><path class="cls-148" d="M54.07,218.16l.63,1.12a.5.5,0,0,0,.69.2.51.51,0,0,0,.2-.69v0L55,217.68v0a.51.51,0,1,0-.89.5Z"/><path class="cls-149" d="M56.3,221.83l.73,1a.5.5,0,0,0,.69.12.48.48,0,0,0,.12-.68h0l-.72-1h0a.49.49,0,0,0-.69-.13.5.5,0,0,0-.13.69Z"/><path class="cls-150" d="M58.88,225.25l.83,1a.5.5,0,0,0,.68.05.48.48,0,0,0,0-.67v0l-.81-1v0a.49.49,0,0,0-.74.63Z"/><path class="cls-151" d="M61.79,228.4l.94.88a.46.46,0,0,0,.65,0,.47.47,0,0,0,0-.65h0l-.91-.87h0a.47.47,0,0,0-.66,0,.46.46,0,0,0,0,.66Z"/><path class="cls-152" d="M65,231.23l1,.78a.44.44,0,0,0,.54-.7h0l-1-.77h0a.45.45,0,0,0-.63.07.45.45,0,0,0,.07.63Z"/><path class="cls-153" d="M68.49,233.72l1.08.68a.43.43,0,0,0,.46-.72h0L69,233h0a.43.43,0,1,0-.47.73Z"/><path class="cls-154" d="M72.18,235.87l1.15.58a.41.41,0,0,0,.37-.73h0l-1.12-.58h0a.43.43,0,0,0-.56.18.42.42,0,0,0,.18.56Z"/><path class="cls-155" d="M76.06,237.68l1.19.47a.39.39,0,0,0,.51-.22.39.39,0,0,0-.21-.51h0l-1.17-.47h0a.39.39,0,0,0-.52.22.4.4,0,0,0,.22.52Z"/><path class="cls-156" d="M80.08,239.13l1.23.37a.38.38,0,0,0,.22-.73h0l-1.21-.37h0a.38.38,0,1,0-.22.73Z"/><path class="cls-157" d="M84.21,240.23l1.25.26a.37.37,0,0,0,.43-.28.38.38,0,0,0-.28-.43h0l-1.23-.27h0a.38.38,0,0,0-.44.28.38.38,0,0,0,.28.44Z"/><path class="cls-158" d="M88.41,241l1.27.16a.36.36,0,0,0,.39-.3.34.34,0,0,0-.3-.38h0l-1.25-.17h0a.35.35,0,0,0-.39.3.34.34,0,0,0,.3.39Z"/><path class="cls-159" d="M92.66,241.37l1.28,0a.33.33,0,0,0,0-.65h0l-1.26-.06h0a.33.33,0,0,0-.35.32.33.33,0,0,0,.32.35Z"/><path class="cls-160" d="M96.93,241.4l1.28-.06a.31.31,0,0,0,.29-.33.3.3,0,0,0-.32-.29h0l-1.26.05h0a.32.32,0,0,0,0,.63Z"/><path class="cls-161" d="M101.18,241.07l1.27-.17a.29.29,0,1,0-.08-.58h0l-1.26.16h0a.3.3,0,0,0-.26.33.3.3,0,0,0,.34.26Z"/><path class="cls-162" d="M105.39,240.37l1.25-.28a.28.28,0,0,0-.12-.54h0l-1.23.27h0a.29.29,0,0,0-.22.34.28.28,0,0,0,.34.21Z"/><path class="cls-163" d="M109.52,239.3l1.21-.39a.25.25,0,0,0,.17-.33.26.26,0,0,0-.32-.17h0l-1.21.37h0a.26.26,0,1,0,.16.5Z"/><path class="cls-164" d="M113.53,237.86l1.17-.51a.24.24,0,0,0,.13-.32.25.25,0,0,0-.32-.13h0l-1.16.49h0a.25.25,0,1,0,.2.46Z"/><path class="cls-165" d="M117.38,236l1.12-.62a.23.23,0,0,0,.09-.31.23.23,0,0,0-.31-.09h0l-1.11.6h0a.22.22,0,0,0-.1.31.24.24,0,0,0,.32.1Z"/><path class="cls-166" d="M121,233.84l.83-.57a.21.21,0,0,0,0-.29.21.21,0,0,0-.29-.06h0l-.82.56h0a.22.22,0,0,0,.24.36Z"/><path class="cls-6" d="M61.11,163.4a1.31,1.31,0,0,1-1.23-.87l-1.81-5.13A25.91,25.91,0,0,1,51,154.52L46.07,157a1.31,1.31,0,0,1-1.49-.24l-5-5a1.3,1.3,0,0,1-.26-1.48l2.35-4.92a26.44,26.44,0,0,1-3-7.07l-5.15-1.73a1.31,1.31,0,0,1-.89-1.22l-.06-7.07a1.31,1.31,0,0,1,.87-1.23l5.13-1.82a26.68,26.68,0,0,1,2.88-7.12L39,113.21a1.3,1.3,0,0,1,.24-1.49l5-5a1.32,1.32,0,0,1,1.49-.27l4.91,2.35a26.55,26.55,0,0,1,7.07-3l1.73-5.16a1.31,1.31,0,0,1,1.23-.89l7.06,0h0a1.31,1.31,0,0,1,1.23.86l1.81,5.13a26.25,26.25,0,0,1,7.12,2.89l4.88-2.43a1.31,1.31,0,0,1,1.49.24l5,5a1.31,1.31,0,0,1,.26,1.49l-2.35,4.91a26.29,26.29,0,0,1,3,7.08l5.16,1.73a1.29,1.29,0,0,1,.89,1.22l.06,7.06a1.31,1.31,0,0,1-.87,1.24l-5.13,1.82A26.68,26.68,0,0,1,87.38,145l2.42,4.87a1.29,1.29,0,0,1-.24,1.49l-5,5a1.3,1.3,0,0,1-1.49.26l-4.91-2.34a26.55,26.55,0,0,1-7.07,3l-1.73,5.16a1.3,1.3,0,0,1-1.23.88l-7.06.06ZM51,152.66l.39.23a24.61,24.61,0,0,0,7.46,3l.44.1,2,5.75,6.59-.06,1.94-5.78.44-.11a24.74,24.74,0,0,0,7.41-3.14l.38-.24,5.51,2.63,4.63-4.7-2.72-5.47.23-.38a24.8,24.8,0,0,0,3-7.46l.1-.44,5.75-2L94.57,128l-5.78-1.94-.11-.44a25.11,25.11,0,0,0-3.14-7.41l-.25-.38,2.63-5.51-4.7-4.62-5.46,2.72-.39-.24a24.59,24.59,0,0,0-7.46-3l-.44-.1-2-5.75-6.59,0-2,5.79-.43.1a24.76,24.76,0,0,0-7.41,3.15l-.38.24L45.17,108l-4.63,4.7,2.72,5.46-.23.39A24.59,24.59,0,0,0,40,126l-.1.44-5.75,2,.05,6.6L40,137l.11.44a25.22,25.22,0,0,0,3.14,7.41l.24.38-2.62,5.51,4.7,4.62Zm7.25-46.21h0Zm6,43.06a17.87,17.87,0,0,1-.14-35.73,18.42,18.42,0,0,1,3.78.37.82.82,0,1,1-.33,1.6,15.8,15.8,0,0,0-3.44-.33,16.23,16.23,0,1,0,16.37,16.1,16.32,16.32,0,0,0-2.37-8.32.81.81,0,1,1,1.39-.85,17.86,17.86,0,0,1-15.11,27.16Z"/><path class="cls-6" d="M64.38,138.63A7.1,7.1,0,0,1,58.27,128a7.09,7.09,0,0,1,4.33-3.28h0a7.09,7.09,0,1,1,3.58,13.72A7,7,0,0,1,64.38,138.63ZM63,126.25a5.46,5.46,0,0,0-3.33,2.52,5.46,5.46,0,1,0,10,1.38,5.47,5.47,0,0,0-6.66-3.9Z"/><path class="cls-6" d="M33.55,189.93a.86.86,0,0,1-.68-.34l-1.48-2a13,13,0,0,1-3.51-.32L26.06,189a.85.85,0,0,1-1,.13l-3-1.58a.83.83,0,0,1-.44-.87l.37-2.47a13.34,13.34,0,0,1-2.26-2.71l-2.49-.07a.84.84,0,0,1-.78-.59l-1-3.25a.85.85,0,0,1,.31-.93l2-1.48a12.56,12.56,0,0,1,.32-3.51l-1.72-1.82a.83.83,0,0,1-.13-1l1.57-3a.84.84,0,0,1,.88-.44l2.47.37a13.29,13.29,0,0,1,2.7-2.26L24,161a.85.85,0,0,1,.59-.79l3.24-1a.84.84,0,0,1,.93.3l1.49,2a13,13,0,0,1,3.51.31l1.81-1.71a.86.86,0,0,1,1-.14l3,1.58a.85.85,0,0,1,.44.88l-.37,2.47a12.67,12.67,0,0,1,2.25,2.7l2.5.08a.83.83,0,0,1,.78.59l1,3.24a.85.85,0,0,1-.31.93l-2,1.49a12.91,12.91,0,0,1-.32,3.5l1.72,1.82a.83.83,0,0,1,.13,1l-1.57,3a.87.87,0,0,1-.88.44l-2.47-.38a12.72,12.72,0,0,1-2.71,2.26l-.07,2.5a.85.85,0,0,1-.59.78l-3.24,1A1.15,1.15,0,0,1,33.55,189.93Zm-.11-1.2ZM32,186.31l1.72,2.34,2.73-.86.08-2.89.29-.18a11.53,11.53,0,0,0,2.92-2.43l.22-.26,2.87.44,1.32-2.53-2-2.11.09-.33a11.79,11.79,0,0,0,.34-3.79l0-.33,2.34-1.72L44,168.93l-2.9-.08-.17-.29a11.78,11.78,0,0,0-2.44-2.92l-.26-.22.44-2.87-2.53-1.33-2.11,2-.33-.08a11.76,11.76,0,0,0-3.78-.34l-.34,0-1.72-2.33-2.73.85-.08,2.9-.29.17a11.78,11.78,0,0,0-2.92,2.44l-.22.25-2.87-.43-1.32,2.53,2,2.11-.09.33a11.76,11.76,0,0,0-.34,3.78l0,.34-2.33,1.72.85,2.73,2.9.08.17.29a11.78,11.78,0,0,0,2.44,2.92l.25.22-.43,2.87,2.53,1.32,2.11-2,.33.09a11.76,11.76,0,0,0,3.78.34ZM25.66,188Zm-3-1.58Zm21.67-6.32Zm-.38-11.46Zm-25.43-2h0Zm20.43-3.94Zm-13.77-1.62Zm-.61,0Zm3.59-.64Zm2.62,23a8.81,8.81,0,0,1-2.63-17.22,9,9,0,0,1,1.84-.37.61.61,0,0,1,.11,1.22,7.86,7.86,0,0,0-1.59.32A7.59,7.59,0,1,0,35.82,169a.63.63,0,0,1,0-.87.61.61,0,0,1,.86,0,8.81,8.81,0,0,1-5.86,15.39Z"/><path class="cls-167" d="M353.92,243.34a24.76,24.76,0,0,0-6.27,12.39c-1.55,7.94-5.25-11.21-5.25-11.21h-3.73s-1.41,19.73,9.13,21.3a5.68,5.68,0,0,0,5.29-2.09c1.92-2.45,4.92-6.8,5.65-10.94A13.3,13.3,0,0,0,353.92,243.34Z"/><path class="cls-168" d="M377.83,334.7a.52.52,0,0,0,0-.17c-.88-3.5-4.49-5.3-4.49-5.3l-1.74.14c-1,3.08-1.64,4.59-1.48,5.43a.14.14,0,0,0,0,.07A41,41,0,0,0,377.83,334.7Z"/><path class="cls-169" d="M370.12,334.87a.75.75,0,0,0,.55.56,23.61,23.61,0,0,0,6.63-.1.64.64,0,0,0,.53-.63A41,41,0,0,1,370.12,334.87Z"/><path class="cls-170" d="M374.75,326.53l-.76,3.66a.59.59,0,0,1-.51.49,4.73,4.73,0,0,1-1.18,0,.75.75,0,0,1-.6-.88l.53-3.25Z"/><path class="cls-171" d="M355.36,334.84a10,10,0,0,0,3.31-.47v.56a.37.37,0,0,1-.35.38l-10.19-.07a.47.47,0,0,1-.37-.68C349.09,334.67,352.5,334.92,355.36,334.84Z"/><path class="cls-172" d="M347.76,334.56a.25.25,0,0,1,0-.07,13,13,0,0,1,7.72-4.85l2.17-.07a10.56,10.56,0,0,1,1,4.8,10,10,0,0,1-3.31.47C352.5,334.92,349.09,334.67,347.76,334.56Z"/><path class="cls-173" d="M358.09,326.28c0,.17-.32,2.63-.44,3.58a.47.47,0,0,1-.4.43,5,5,0,0,1-1.49,0,.63.63,0,0,1-.48-.64v-3.86Z"/><path class="cls-174" d="M373.3,278.47s3.47,30.88,1.54,50.18a15.09,15.09,0,0,1-3.47-.38s-3.61-30.2-4.78-38.84a.29.29,0,0,0-.58,0c-1.44,7.27-7.1,35.78-7.77,38.47a4.81,4.81,0,0,1-3.47,0s3.08-41.31,5.4-48.64Z"/><path class="cls-175" d="M380.25,242.56s-14.67-2.31-26.26.78l.78,12s3.08,16.6,5.4,23.94c0,0,8.88,1.54,13.13-.77,0,0,3.47-20.85,5.4-23.94C378.7,254.53,380.63,246.42,380.25,242.56Z"/><path class="cls-176" d="M370,230l1.57,11.94s-4.09,1.87-6.95-.08l.62-7Z"/><path class="cls-177" d="M380.25,242.56s22.77,24.71-4.06,34.17V274.8s10-8.49,2.32-20.08C378.51,254.72,379.47,243.72,380.25,242.56Z"/><path class="cls-178" d="M376,275s-3.48-2.31-5-1.54a2.38,2.38,0,0,0-1.54,1.93s.77,1.54,1.93,1.16,3.86.38,5,0C376.38,276.54,376.77,275,376,275Z"/><path class="cls-179" d="M338.44,232l4.9,1.65a1.62,1.62,0,0,1,1.05,1.54l-.25,8.18c.08,1.28-1,2.4-2,2.11l-3.93-1.34a1,1,0,0,1-.64-1L337.51,233C337.5,232.39,338,231.9,338.44,232Z"/><path class="cls-180" d="M337.51,242.56s-1.54-4.91-.76-5.74,2.34-3.11,2.44-1.24S340.23,245.51,337.51,242.56Z"/><path class="cls-181" d="M361,227.94c0,.14,1.72,9.48,1.72,9.48l5.31-1.11-.34-9.09S361.35,225.57,361,227.94Z"/><path class="cls-182" d="M366.07,228.7a.74.74,0,0,1,.37.58L367,234a.74.74,0,0,1,0,.21c-.06.39-.37,1.62-1.63,1.24a6.92,6.92,0,0,0-2.79-.48.79.79,0,0,0-.63.92A29.87,29.87,0,0,0,363,240a.78.78,0,0,0,.94.48,21.68,21.68,0,0,0,4.54-1.77.77.77,0,0,0,.39-.7c0-1.26-.1-4.81,0-5.82s1.25-1.48,1.79-1.69a.78.78,0,0,0,.44-.45,1.71,1.71,0,0,0-1.08-2.46.78.78,0,0,1-.45-1,1.73,1.73,0,0,0-1-2.34,2.43,2.43,0,0,0-2.87.59.8.8,0,0,1-1,.14.51.51,0,0,0-.51,0,.75.75,0,0,1-1-.33,2,2,0,0,0-2.27-1.13c-2.38.37-2.69,3-2.09,4.54s3.15,1,4.44.25A2.78,2.78,0,0,1,366.07,228.7Z"/><path class="cls-183" d="M368.85,233.79s-.67-2.58.34-3.23,2.49-.28,2.13,1.69C370.87,234.7,368.85,233.79,368.85,233.79Z"/><path class="cls-6" d="M358.47,226.51a.08.08,0,0,1-.07,0c-.87-1.84,1.15-3.32,1.17-3.33a.08.08,0,0,1,.11,0,.08.08,0,0,1,0,.12s-1.92,1.41-1.11,3.13a.09.09,0,0,1,0,.11Z"/><path class="cls-184" d="M321.1,232.3v16.88c0,1.37-.83,2.49-1.87,2.49H257.76a2.06,2.06,0,0,0-1.82,1.88l-1.1,5.88c-.15.78-1,.84-1.18.09l-1.42-5a2,2,0,0,0-1.75-1.61h-2.64c-1,0-1.87-1.11-1.87-2.49V233.12a2.25,2.25,0,0,1,1.86-2.49l71.38-.82C320.26,229.8,321.1,230.92,321.1,232.3Z"/><ellipse class="cls-185" cx="255.49" cy="240.85" rx="7.54" ry="7.74"/><path class="cls-6" d="M258.23,237.71a2.54,2.54,0,1,1-5,0,2.52,2.52,0,0,1,5,0Z"/><path class="cls-6" d="M252.59,246h6.14a1.5,1.5,0,0,0,1.42-1l.33-1a1.48,1.48,0,0,0-.9-1.84,11.44,11.44,0,0,0-7.74.08,1.48,1.48,0,0,0-.94,1.8l.25.93A1.49,1.49,0,0,0,252.59,246Z"/><path class="cls-6" d="M315.23,242.86a1.5,1.5,0,0,1-1.52,1.47H268.84a1.51,1.51,0,0,1-1.53-1.47h0a1.5,1.5,0,0,1,1.53-1.46h44.87a1.49,1.49,0,0,1,1.52,1.46Z"/><path class="cls-6" d="M294,247.56a1.34,1.34,0,0,1-1.33,1.33H269.13a1.34,1.34,0,0,1-1.33-1.33h0a1.33,1.33,0,0,1,1.33-1.33h23.53a1.33,1.33,0,0,1,1.33,1.33Z"/><path class="cls-6" d="M315.26,247.56a1.34,1.34,0,0,1-1.33,1.33H297a1.34,1.34,0,0,1-1.33-1.33h0a1.33,1.33,0,0,1,1.33-1.33h17a1.33,1.33,0,0,1,1.33,1.33Z"/><rect class="cls-186" x="267.19" y="233.75" width="26.39" height="3.89" rx="1.87"/><path class="cls-187" d="M188.53,99c-1.93-2.77-4.81-3.91-7.64-3.08-3.08.9-4.82,4.35-7.69,5.73-5,2.41-11.92-2.35-15.71,3.86-4.65,7.58-8.24,1.89-8.24,7s32.1,1.35,47.94,1.63c2.28,0,12.22-.16,7.94-5.72-1.33-1.73-3.22-2-5-2.43-2.3-.52-7.78-.81-9.44-2.91-.9-1.13-1.25-2.75-2.06-4A.91.91,0,0,0,188.53,99Z"/><path class="cls-187" d="M246.52,88.23a4.1,4.1,0,0,0-4.59-1.84c-1.85.54-2.89,2.61-4.62,3.44-3,1.44-7.16-1.41-9.44,2.31-2.79,4.56-5,1.14-5,4.24s19.29.81,28.8,1c1.38,0,7.34-.09,4.78-3.43a4.61,4.61,0,0,0-3-1.46c-1.39-.32-4.68-.49-5.68-1.75-.54-.68-.74-1.65-1.23-2.38Z"/><path class="cls-188" d="M120.23,241.4c0,14.84-.13,66-1,84.12a3.41,3.41,0,0,1-3.09,3.45c-8.12.13-37.9.26-51.16-.68-2.76-.2-4.91-2.87-4.89-6.11.07-15.57.43-59.35,2.32-79.37a4.7,4.7,0,0,1,3.94-4.47c8.86-.84,38.8-2.71,50.25-1.58A4.42,4.42,0,0,1,120.23,241.4Z"/><path class="cls-189" d="M116.51,245.87c.17,12,.67,51.82-.09,66.53a3.94,3.94,0,0,1-3.44,4c-7.58.35-33.42.92-44.49-.37a4.41,4.41,0,0,1-3.58-4.5c-.29-12.22-1.08-49.33-.34-63.87a4.36,4.36,0,0,1,3.68-4.35c8.2-.68,35.68-2.12,45.09-1.31A3.79,3.79,0,0,1,116.51,245.87Z"/><g class="cls-190"><path class="cls-6" d="M113.54,249.36c.15,10.6.59,45.89-.09,58.92a3.46,3.46,0,0,1-3,3.49c-6.71.31-29.59.81-39.4-.32a3.91,3.91,0,0,1-3.16-4c-.26-10.82-1-43.68-.31-56.57A3.88,3.88,0,0,1,70.8,247c7.27-.6,31.59-1.87,39.93-1.15A3.34,3.34,0,0,1,113.54,249.36Z"/></g><path class="cls-9" d="M100.21,239h0a.8.8,0,0,1-.71.83c-1.92.08-7.32.29-9.74.4a.82.82,0,0,1-.74-1l0-.09a.78.78,0,0,1,.67-.68,81.06,81.06,0,0,1,9.82-.31A.81.81,0,0,1,100.21,239Z"/><circle class="cls-191" cx="90.55" cy="279.27" r="19.03" transform="translate(-202.06 303.23) rotate(-76.72)"/><path class="cls-6" d="M102.25,284.25a3.35,3.35,0,0,0-2-2.23l-1.37-.55a2.64,2.64,0,0,0-3.07.87L94.58,284a10,10,0,0,1-6.08-2.13A10.12,10.12,0,0,1,84.84,277a.06.06,0,0,1,0-.07,0,0,0,0,1,.07,0l1.1-1.47a3,3,0,0,0,0-3.66l-.91-1.15a3.45,3.45,0,0,0-5.44.08,4.43,4.43,0,0,0-.72,1.48c-1,3.56,1.86,9,7.16,12.92s11.28,5.2,14.42,3.23a4.44,4.44,0,0,0,1.22-1.11A3.38,3.38,0,0,0,102.25,284.25Z"/><path class="cls-6" d="M67.89,325.65A5.85,5.85,0,0,1,62,319.84v-9.93a.2.2,0,0,1,.2-.21.21.21,0,0,1,.21.21v9.93a5.44,5.44,0,0,0,5.44,5.39.21.21,0,0,1,.21.21A.21.21,0,0,1,67.89,325.65Z"/><path class="cls-192" d="M35.92,327.29s-.4,2.23-.59,4.43a1.53,1.53,0,0,0,1.46,1.65c2.93.12,9.22.36,11.47.26a.5.5,0,0,0,.44-.68h0a1.1,1.1,0,0,0-.57-.59l-10.38-4.78Z"/><path class="cls-193" d="M35.6,326l.31,2.66s1.82.85,3.06-.1l-.75-3Z"/><path class="cls-194" d="M35.83,275.86c-.13.69-.73,34.74,2.91,50a.53.53,0,0,1-.3.6,8.94,8.94,0,0,1-3,.6.89.89,0,0,1-.88-.64c-1-3.54-6-21.28-6.68-38.22-.73-18.93,0-.64,0-.64l.43-11.71Z"/><path class="cls-195" d="M24,328.45a16.08,16.08,0,0,0-1.24,4.12.93.93,0,0,0,.82,1.11c1,.09,2.46.21,3.66.21a.93.93,0,0,0,.91-1,7.71,7.71,0,0,0-1.82-4.27Z"/><path class="cls-196" d="M23.43,325l.73,4a2.6,2.6,0,0,0,2.18.15L26,324.86Z"/><path class="cls-197" d="M21.43,276.9c-3,18,.64,44.4,1.87,49.57a.79.79,0,0,0,.65.61,5.23,5.23,0,0,0,2.33-.09.75.75,0,0,0,.53-.68c.16-4.18-.13-29.86,2.64-40a2.29,2.29,0,0,1,.89-1.27l5.38-3.83.41-6.18Z"/><path class="cls-198" d="M40.39,242.86a84.08,84.08,0,0,0-18.76,2.35c-2.66,15.51-.46,33.4-.46,33.4,6.9,1.82,14.69-1.1,14.69-1.1,1.15-6.49,6.51-24.74,6.51-24.74a29.45,29.45,0,0,0,10.9-3.46,19.16,19.16,0,0,1-3.78-7.9A29.73,29.73,0,0,1,40.39,242.86Z"/><path class="cls-199" d="M66.74,229.73a1.7,1.7,0,0,0-2-.56c-1.32,5.54-8.2,10-15.27,12.24a19.16,19.16,0,0,0,3.78,7.9C65,242.71,66.74,229.73,66.74,229.73Z"/><path class="cls-200" d="M66.53,230c.09.3-1,.74-1.6-.45,0-.57-.36-3,0-3.49a45.46,45.46,0,0,1,5.34-5.58.83.83,0,0,1,.11,1.16l-1.71,1.78a8.53,8.53,0,0,1,1,2,2.36,2.36,0,0,1-.24,1.76c-.3.54-.71,1.24-1.09,1.8A2.36,2.36,0,0,1,66.53,230Z"/><path class="cls-201" d="M67.9,224.57l-1.56,1.32-.49,1.32,1.39,1.54a18.65,18.65,0,0,1,.81-3.18C68.4,225,68.22,224.73,67.9,224.57Z"/><path class="cls-202" d="M25.05,253.84l-3.42-8.63s-8.33,5.66-9.7,12.83a19.17,19.17,0,0,1,7,2C20.21,257.16,25.05,253.84,25.05,253.84Z"/><path class="cls-203" d="M31.36,235.62l-2.84,8.21a.29.29,0,0,0,.14.36,6.69,6.69,0,0,0,6.92-.47,1.4,1.4,0,0,0,.64-1l.92-7.11Z"/><path class="cls-204" d="M37.54,228s3.11,5.87,2.71,8.24-4.26,2.2-7.63.27l-2.36-6.33Z"/><path class="cls-205" d="M32.77,233.42a.24.24,0,0,0,.1-.35,6.31,6.31,0,0,1-.87-1.84s-.56-.36,1.43-.84,5-1.21,5.57-2.9-1-5.8-3.53-2.49a.24.24,0,0,1-.38,0,2.51,2.51,0,0,0-3-1,2.29,2.29,0,0,0-1.57,2.21.24.24,0,0,1-.28.25A2.79,2.79,0,0,0,26.94,228c-.66,1.46-.23,2.29.16,2.69a.24.24,0,0,1-.1.4,1.45,1.45,0,0,0-1,1.66c.08,1.53,1.8,1.39,2.28,1.32a.27.27,0,0,1,.22.08c.42.46,2.3,2.43,4.34,2.67a.25.25,0,0,0,.26-.33l-.88-2.56a.24.24,0,0,1,.13-.3Z"/><path class="cls-206" d="M33.12,233.79s-2.22-1.53-2.38-.24,2,1.85,3.07,1.38Z"/><path class="cls-207" d="M12,258.11s-5.7,13,8.22,14.87l1.9-1.58s-7-3.8-3.16-11.39C19,260,14.84,256.53,12,258.11Z"/><path class="cls-208" d="M22,264.94l4.9,1.65a1.64,1.64,0,0,1,1.05,1.54l-.26,8.18c.08,1.28-1,2.41-2,2.11l-3.93-1.34a1,1,0,0,1-.64-1l-.09-10.19C21.05,265.3,21.53,264.81,22,264.94Z"/><path class="cls-209" d="M20.72,274.64a6.66,6.66,0,0,1-.81-4.07c.23-2.24-.21-3.25.84-3.16s1.91.26,1.79,1.36S22.75,276.89,20.72,274.64Z"/></g></g></g></svg>