<svg id="Capa_1" data-name="Capa 1" xmlns="http://www.w3.org/2000/svg" viewBox="0 0 400 278"><defs><style>.cls-1{fill:#f4ae0e;}.cls-2{fill:#009ac5;}</style></defs><title>index-icon</title><path class="cls-1" d="M199.73,255H121c-13.32,0-22.67-9.35-22.68-22.68q0-17.73,0-35.47a43.53,43.53,0,0,1,32.71-42.48c7.47-2,15-3.7,22.5-5.62a4.08,4.08,0,0,1,3.56.55c28.54,17.61,57.13,18.16,85.7,0a3.69,3.69,0,0,1,3.26-.68c8,2.1,16,3.87,23.92,6.08a43.26,43.26,0,0,1,31.62,41.46c.06,12.22,0,24.44,0,36.66,0,12.68-9.58,22.13-22.33,22.13Q239.52,255,199.73,255Z"/><path class="cls-1" d="M200.05,23a63.47,63.47,0,1,1-63.56,63.39A63.46,63.46,0,0,1,200.05,23Z"/><path class="cls-2" d="M74,165.57a42.31,42.31,0,1,1,42.62-42.18A42.2,42.2,0,0,1,74,165.57Z"/><path class="cls-2" d="M368.11,123.47a42.35,42.35,0,1,1-42-42.52A42.18,42.18,0,0,1,368.11,123.47Z"/><path class="cls-2" d="M304.76,169.61c7,2.62,14.15,4.49,21.74,4.39a49.24,49.24,0,0,0,26.95-8.21,4.69,4.69,0,0,1,4.13-.81c4.69,1.26,9.44,2.32,14.13,3.59a28.89,28.89,0,0,1,21.82,28.5q0,11.49,0,23c0,9.59-5.95,15.66-15.59,15.69-17.39.07-34.79,0-52.18,0-4,0-8-.11-11.93,0-2.05.08-2.67-.48-2.64-2.62.12-11-.13-22.07.11-33.09a58.19,58.19,0,0,0-7-30.06Z"/><path class="cls-2" d="M95.21,169.68c.42,1.4-.42,2.14-.83,3a53.38,53.38,0,0,0-5.63,23.82c0,12.21,0,24.43.06,36.65,0,2.07-.48,2.67-2.59,2.66-21.36-.08-42.71,0-64.07-.06-9.79,0-15.67-6.08-15.68-15.89,0-7.64,0-15.29,0-22.94a28.86,28.86,0,0,1,21.38-28.21c4.86-1.37,9.8-2.46,14.7-3.72a4.27,4.27,0,0,1,3.62.56c15.26,9.49,31.26,11.21,48,4.41A8,8,0,0,1,95.21,169.68Z"/><path class="cls-1" d="M304.27,170l-.09-.67.58.26Z"/></svg>