<svg id="Capa_1" data-name="Capa 1" xmlns="http://www.w3.org/2000/svg" viewBox="0 0 400 278"><defs><style>.cls-1{fill:#009ac5;}.cls-2{fill:#009a37;}</style></defs><title>index-icon</title><path class="cls-1" d="M265,7h57.09c14.16,0,22.85,8.73,22.87,22.93s0,28.19,0,42.28S336.14,95,322.24,95c-21,0-42,0-62.95,0a5.85,5.85,0,0,0-5.16,2.5c-8.32,10.33-16.76,20.57-25.17,30.83-2.62,3.2-5.08,4.18-8,3.05-3.29-1.29-4.06-4-4-7.24.07-8.74-.06-17.49.08-26.23,0-2.33-.66-3-2.95-2.92-3.8.09-7.61.37-11.4-.28A20.69,20.69,0,0,1,185.08,74q-.11-22.68,0-45.37c0-12.59,9-21.58,21.58-21.62C226.09,7,245.54,7,265,7Zm2.12,71.6a12.3,12.3,0,0,0,12.25-12.41A12.41,12.41,0,1,0,267.1,78.62Zm44.07-25A12.38,12.38,0,1,0,323.52,66,12.28,12.28,0,0,0,311.17,53.66Zm-88.45,0a12.38,12.38,0,0,0-.05,24.75,12.38,12.38,0,1,0,.05-24.75Z"/><path class="cls-2" d="M175,271q-54.31,0-108.64,0a21.58,21.58,0,0,1-4.89-.38A8.09,8.09,0,0,1,55.11,262a7.8,7.8,0,0,1,8.09-7c11.63-.07,23.25,0,34.88,0,5,0,5,0,5-5.11.05-8.82-.45-17.64,2.68-26.23,6-16.47,22.4-28.45,39.94-28.53q29.33-.15,58.64,0c22.84.14,42.3,19.6,42.59,42.41.05,4.32,0,8.64,0,13,0,4.49,0,4.5,4.37,4.5h33.95c6.06,0,9.78,3.06,9.69,7.91s-4,8.1-9.76,8.11Q230.1,271,175,271Zm-.25-16c17.49,0,35-.05,52.47,0,2.81,0,3.83-.87,3.72-3.72-.19-4.72,0-9.46-.1-14.19-.37-13.56-12.63-25.72-26.19-26-5.76-.11-11.52,0-17.28,0-4.1,0-4.52.38-4.55,4.63-.05,6.38,0,12.76,0,19.13,0,5-3.32,8.44-7.85,8.41s-7.71-3.5-7.74-8.52c0-6.59-.12-13.17,0-19.75.07-2.88-.78-4.07-3.83-4-5.76.2-11.52,0-17.28.07a27.6,27.6,0,0,0-27,27c0,4.22,0,8.44,0,12.66s0,4.14,4.11,4.14Z"/><path class="cls-2" d="M175.21,118a32,32,0,0,1,31.54,31.82c-.12,17.21-14.44,31.62-31.46,31.66a32.12,32.12,0,0,1-32-32.05C143.33,132.24,157.88,117.93,175.21,118Z"/></svg>