<svg id="Capa_1" data-name="Capa 1" xmlns="http://www.w3.org/2000/svg" xmlns:xlink="http://www.w3.org/1999/xlink" viewBox="0 0 400 400"><defs><style>.cls-1{fill:none;}.cls-2{fill:#fabf97;}.cls-3{fill:#bc5b59;}.cls-4{clip-path:url(#clip-path);}.cls-5{clip-path:url(#clip-path-2);}.cls-6{fill:#fff;}.cls-7{fill:#132144;}.cls-8{fill:#009ac5;}.cls-9{fill:#009a37;}.cls-10{clip-path:url(#clip-path-3);}.cls-11{fill:#70514f;}.cls-12{fill:#eaa182;}.cls-13{clip-path:url(#clip-path-4);}.cls-14{fill:#775a58;}.cls-15{fill:#454547;}.cls-16{fill:#d9f0ff;}.cls-17{fill:#3ba0b9;}.cls-18{fill:#df4853;}.cls-19{clip-path:url(#clip-path-5);}.cls-20{fill:#db8b99;}.cls-21{fill:#ec6050;}.cls-22{fill:#5e7985;}.cls-23{fill:#3c3c3b;}.cls-24{fill:#ed6958;}.cls-25{clip-path:url(#clip-path-7);}.cls-26{clip-path:url(#clip-path-8);}.cls-27{clip-path:url(#clip-path-9);}.cls-28{fill:#e7a320;}.cls-29{clip-path:url(#clip-path-10);}.cls-30{fill:#54717e;}.cls-31{fill:#4f4f50;}.cls-32{fill:#ec6266;}.cls-33{clip-path:url(#clip-path-11);}.cls-34{clip-path:url(#clip-path-12);}.cls-35{clip-path:url(#clip-path-13);}.cls-36{fill:#4b6977;}.cls-37{clip-path:url(#clip-path-14);}</style><clipPath id="clip-path"><circle class="cls-1" cx="620" cy="200" r="200"/></clipPath><clipPath id="clip-path-2"><path id="SVGID" class="cls-1" d="M736.15,108.53C722.52,43.38,750.49-11.44,612-28.11S412.22,15.23,406.56,38.77c-7.82,32.51,79.43,38,65.44,66.54-7.74,15.78-27.37,32.87-39.44,52.76-9.76,16.07-14.58,34-4.22,54.45,5.38,10.64-69.73,179.22,113.8,203.7C627,427.53,736.06,382.64,815.8,316.59c156.71-129.81-66-142.92-79.65-208.06Z"/></clipPath><clipPath id="clip-path-3"><circle class="cls-1" cx="200" cy="200" r="200"/></clipPath><clipPath id="clip-path-4"><polygon id="SVGID-2" data-name="SVGID" class="cls-2" points="245.3 171.37 248.54 218.34 267.98 218.34 271.22 171.37 245.3 171.37 245.3 171.37"/></clipPath><clipPath id="clip-path-5"><path id="SVGID-3" data-name="SVGID" class="cls-3" d="M258.25,185.6c7.7,0,13.95-4.42,13.95-9.87s-6.25-9.88-13.95-9.88-13.95,4.42-13.95,9.88,6.25,9.87,13.95,9.87Z"/></clipPath><clipPath id="clip-path-7"><path id="SVGID-5" data-name="SVGID" class="cls-3" d="M245.33,167.58H271c12.41,0,2.37,15.28-11.49,16.45-.33,0-1.22.07-1.34.07s-1,0-1.33-.07c-13.86-1.17-23.9-16.45-11.49-16.45Z"/></clipPath><clipPath id="clip-path-8"><polygon id="SVGID-6" data-name="SVGID" class="cls-2" points="162.88 166.99 158.68 219.99 133.51 219.99 129.32 166.99 162.88 166.99 162.88 166.99"/></clipPath><clipPath id="clip-path-9"><path id="SVGID-7" data-name="SVGID" class="cls-3" d="M130.79,169.8h30.62c14.81,0,2.83,14.78-13.72,15.91-.39,0-1.45.07-1.59.07s-1.2,0-1.59-.07C128,184.58,116,169.8,130.79,169.8Z"/></clipPath><clipPath id="clip-path-10"><polygon id="SVGID-8" data-name="SVGID" class="cls-2" points="51.99 240.9 55.59 293.1 77.19 293.1 80.79 240.9 51.99 240.9 51.99 240.9"/></clipPath><clipPath id="clip-path-11"><polygon id="SVGID-9" data-name="SVGID" class="cls-2" points="315.41 231.07 320.07 294.92 348.04 294.92 352.7 231.07 315.41 231.07 315.41 231.07"/></clipPath><clipPath id="clip-path-12"><path id="SVGID-10" data-name="SVGID" class="cls-2" d="M334.06,269.21c7.16,0,26.75-9.3,34.07-19.2,5-6.76,2.72-16.1,2.72-28.44,0-30.43,11.43-67.53-36.79-67.53s-36.79,37.1-36.79,67.53c0,12.54-2.17,21.75,3,28.53,7.32,9.66,26.66,19.11,33.82,19.11Z"/></clipPath><clipPath id="clip-path-13"><polygon id="SVGID-11" data-name="SVGID" class="cls-2" points="182.78 298.92 186.74 356.34 210.5 356.34 214.46 298.92 182.78 298.92 182.78 298.92"/></clipPath><clipPath id="clip-path-14"><path id="SVGID-12" data-name="SVGID" class="cls-3" d="M182.72,294.29h31.36c15.16,0,2.89,18.68-14,20.11-.41.05-1.5.09-1.64.08s-1.22,0-1.63-.08c-16.94-1.43-29.21-20.11-14.05-20.11Z"/></clipPath></defs><title>icons</title><g class="cls-4"><g id="Layer_1"><g id="_187700000" data-name=" 187700000"><g class="cls-5"><path id="_185668848" data-name=" 185668848" class="cls-6" d="M523.35,211.26c15.54,21.18,19.46,38.65,17.17,64.56l-127.37,41-21.08-79.27,131.28-26.32Z"/><path id="_184523880" data-name=" 184523880" class="cls-7" d="M513,211.18c15.54,21.17,21.15,45,18.85,70.9l-127.36,41L381.76,237.5,513,211.18Z"/></g><path id="_186382408" data-name=" 186382408" class="cls-8" d="M456.58,416.22s.2-16.48-22.35-13c0,0-7.38-11.07-18.87-11.07-10.66,0-15.58,10.25-15.58,10.25s-8.41,0-8.61,8.09c0,0-6.36-.55-8.41,5.73Z"/></g></g></g><circle class="cls-9" cx="200" cy="200" r="200"/><g class="cls-10"><path id="_184523544" data-name=" 184523544" class="cls-6" d="M278.43,131.6c-11-52.45,11.54-96.59-100-110S17.62,56.48,13.06,75.44C6.76,101.61,77,106,65.74,129c-6.23,12.7-22,26.47-31.75,42.48-7.86,12.93-11.74,27.34-3.4,43.84,4.33,8.57-56.14,144.3,91.63,164,68.3,9.11,156.13-27,220.33-80.21C468.73,194.6,289.41,184.05,278.43,131.6Z"/><path class="cls-11" d="M215.33,129.35s.66,61.76,6.48,67.59c8.53,8.52,64.39,8.29,72.68,0,6-6,6.48-67.59,6.48-67.59Z"/><path class="cls-2" d="M313,244.65c-3.19-13.84-7.53-24.06-13.42-26-17.48-5.65-37.13-6.94-33-19.34,2.64-7.84-18.8-7.84-16.16,0,4.17,12.4-13.32,13.69-30.8,19.34-7.59,2.45-12.78,12.47-16.34,25.88a163.69,163.69,0,0,0,109.68.08Z"/><path class="cls-12" d="M231.59,157.12c3.28-1.32,4.18-6.76,2-12.13s-6.59-8.66-9.87-7.33-4.18,6.75-2,12.13,6.59,8.66,9.87,7.33Z"/><path class="cls-12" d="M284.72,157.12c-3.29-1.32-4.19-6.76-2-12.13s6.59-8.66,9.87-7.33,4.18,6.75,2,12.13-6.59,8.66-9.87,7.33Z"/><polygon id="SVGID-13" data-name="SVGID" class="cls-2" points="245.3 171.37 248.54 218.34 267.98 218.34 271.22 171.37 245.3 171.37 245.3 171.37"/><g class="cls-13"><path class="cls-12" d="M258.26,200.26c15.51,0,32.4-21.44,32.4-47.88s9.5-47.87-32.4-47.87-32.4,21.43-32.4,47.87,16.89,47.88,32.4,47.88Z"/></g><path class="cls-2" d="M258.26,193.78c15.51,0,32.4-21.44,32.4-47.88S300.16,98,258.26,98s-32.4,21.44-32.4,47.87,16.89,47.88,32.4,47.88Z"/><path class="cls-14" d="M301,131.07c0-42.76-26-55.17-42.5-55.17s-43.15,12.41-43.15,55.17c0,19.87,4.21,16.38,4.21,16.38s20-5.8,35.77-11.61,18-28.45,18-28.45,2.88,14.29,6.54,22.71,17.28,15.66,17.28,15.66,3.89,5.18,3.89-14.69Z"/><path class="cls-15" d="M313,244.65c-3.19-13.84-7.53-24.06-13.42-26-6.68-2.16-13.68-3.68-19.54-5.43-4.47,5.66-12.59,9.45-21.88,9.45-9,0-16.87-3.55-21.42-8.91-5.11,1.53-11.1,3-17.08,4.89-7.59,2.45-12.78,12.47-16.34,25.88a163.69,163.69,0,0,0,109.68.08Z"/><path class="cls-16" d="M226.61,127.58s-5.13.49-5.83,5.6l-3.37,24.6s-.7,5.12,4.46,4.85l36.41-1.9,35.64,1.89s5.15.28,4.48-4.84l-3.21-24.59s-.67-5.12-5.8-5.6c0,0-7.11-3-31.65-3s-31.13,3-31.13,3Z"/><path class="cls-17" d="M226.88,128.8s-6,.36-6.8,6.37L217.24,158s-.74,6,5.31,5.7c0,0,20.33-1.85,35.82-1.85s35.09,1.66,35.09,1.66,6,.51,5.29-5.51l-2.83-22.79s-.75-6-6.8-6.37c0,0-6.84-1.81-31.38-1.81s-30.86,1.81-30.86,1.81Z"/><path class="cls-16" d="M231.39,133.56s-5.16.25-5.87,5.36l-2,14.23s-.7,5.11,4.45,4.84c0,0,17.43-1.53,30-1.53s30,1.39,30,1.39,5.14.41,4.43-4.7l-2-14.23s-.7-5.11-5.86-5.36c0,0-5.86-1.27-26.83-1.27s-26.39,1.27-26.39,1.27Z"/><path class="cls-17" d="M281,155a.24.24,0,0,0,.14.05h1a.3.3,0,0,0,.14-.05.23.23,0,0,0,.1-.12l2.24-5a.11.11,0,0,0,0-.12.11.11,0,0,0-.11-.06h-1.22a.23.23,0,0,0-.14,0,.31.31,0,0,0-.11.12l-1.28,2.95a.12.12,0,0,1-.1.06.1.1,0,0,1-.09-.06l-1.29-2.95a.41.41,0,0,0-.11-.12.25.25,0,0,0-.14,0h-1.2a.14.14,0,0,0-.13.06.16.16,0,0,0,0,.15l2.21,5a.32.32,0,0,0,.11.12Zm5.6,0a.17.17,0,0,0,.05-.12v-1.19a.13.13,0,0,1,.05-.12.14.14,0,0,1,.12-.06H287a.37.37,0,0,1,.16.05.27.27,0,0,1,.12.09c.15.22.3.43.46.64l.46.63a.25.25,0,0,0,.13.09.33.33,0,0,0,.16.05h1.36a.11.11,0,0,0,.1-.08.14.14,0,0,0,0-.12c-.16-.22-.34-.45-.55-.71s-.4-.51-.58-.76a.14.14,0,0,1,0-.12.21.21,0,0,1,.08-.11,1.14,1.14,0,0,0,.31-.27,1.85,1.85,0,0,0,.25-.37,2.07,2.07,0,0,0,.15-.44,1.82,1.82,0,0,0,.06-.46,1.94,1.94,0,0,0-.15-.78,1.68,1.68,0,0,0-.39-.61,1.85,1.85,0,0,0-.61-.4,2,2,0,0,0-.79-.14H285.4a.17.17,0,0,0-.17.17v5a.13.13,0,0,0,0,.12.14.14,0,0,0,.12.06h1.1a.18.18,0,0,0,.13-.06Zm.1-2.88a.17.17,0,0,1-.05-.13v-.78a.17.17,0,0,1,.17-.17h.78a.49.49,0,0,1,.25.06.42.42,0,0,1,.17.15.82.82,0,0,1,.09.19.67.67,0,0,1,0,.18.6.6,0,0,1-.05.24.58.58,0,0,1-.14.17.42.42,0,0,1-.17.1.74.74,0,0,1-.18,0h-.78a.17.17,0,0,1-.12,0Z"/><path class="cls-18" d="M230.19,140.15a2,2,0,1,0-1.95-2,1.94,1.94,0,0,0,1.95,2Z"/><path id="SVGID-14" data-name="SVGID" class="cls-3" d="M258.25,185.6c7.7,0,13.95-4.42,13.95-9.87s-6.25-9.88-13.95-9.88-13.95,4.42-13.95,9.88,6.25,9.87,13.95,9.87Z"/><g class="cls-19"><path class="cls-6" d="M266.57,161.29a2.18,2.18,0,0,1,2.23,2.23v4a2.19,2.19,0,0,1-2.23,2.24H249.93a2.19,2.19,0,0,1-2.23-2.24v-4a2.18,2.18,0,0,1,2.23-2.23Z"/><path class="cls-20" d="M243.66,191.26h29.18c14.11,0,2.69-14.08-13.07-15.16-.38,0-1.39-.06-1.52-.06s-1.14,0-1.52.06c-15.76,1.08-27.18,15.16-13.07,15.16Z"/></g><path class="cls-21" d="M215.33,129.35s.66,61.76,6.48,67.59c8.53,8.52,64.39,8.29,72.68,0,6-6,6.48-67.59,6.48-67.59Z"/><path class="cls-2" d="M313,244.65c-3.19-13.84-7.53-24.06-13.42-26-17.48-5.65-37.13-6.94-33-19.34,2.64-7.84-18.8-7.84-16.16,0,4.17,12.4-13.32,13.69-30.8,19.34-7.59,2.45-12.78,12.47-16.34,25.88a163.69,163.69,0,0,0,109.68.08Z"/><path class="cls-12" d="M231.59,157.12c3.28-1.32,4.18-6.76,2-12.13s-6.59-8.66-9.87-7.33-4.18,6.75-2,12.13,6.59,8.66,9.87,7.33Z"/><path class="cls-12" d="M284.72,157.12c-3.29-1.32-4.19-6.76-2-12.13s6.59-8.66,9.87-7.33,4.18,6.75,2,12.13-6.59,8.66-9.87,7.33Z"/><polygon id="SVGID-15" data-name="SVGID" class="cls-2" points="245.3 171.37 248.54 218.34 267.98 218.34 271.22 171.37 245.3 171.37 245.3 171.37"/><g class="cls-13"><path class="cls-12" d="M258.26,200.26c15.51,0,32.4-21.44,32.4-47.88s9.5-47.87-32.4-47.87-32.4,21.43-32.4,47.87,16.89,47.88,32.4,47.88Z"/></g><path class="cls-2" d="M258.26,193.78c15.51,0,32.4-21.44,32.4-47.88S300.16,98,258.26,98s-32.4,21.44-32.4,47.87,16.89,47.88,32.4,47.88Z"/><path class="cls-22" d="M313,244.65c-3.19-13.84-7.53-24.06-13.42-26-6.68-2.16-13.68-3.68-19.54-5.43-4.47,5.66-12.59,9.45-21.88,9.45-9,0-16.87-3.55-21.42-8.91-5.11,1.53-11.1,3-17.08,4.89-7.59,2.45-12.78,12.47-16.34,25.88a163.69,163.69,0,0,0,109.68.08Z"/><path class="cls-23" d="M242.28,143c3.43.24,6.69,2.69,7-.48.34-3.66-3.06-6.07-6.49-6.43-2.67-.27-6.48,2.51-6.35,5.7.14,3.55,2.41,1,5.85,1.21Z"/><path class="cls-23" d="M274,143c-3.44.24-6.7,2.69-7-.48-.34-3.66,3.06-6.07,6.49-6.43,2.66-.27,6.47,2.51,6.35,5.7-.14,3.55-2.41,1-5.85,1.21Z"/><path class="cls-24" d="M301,131.07c0-42.76-26-55.17-42.5-55.17s-43.15,12.41-43.15,55.17c0,19.87,4.21,16.38,4.21,16.38s20-5.8,35.77-11.61,18-28.45,18-28.45,2.88,14.29,6.54,22.71,17.28,15.66,17.28,15.66,3.89,5.18,3.89-14.69Z"/><path id="SVGID-16" data-name="SVGID" class="cls-3" d="M245.33,167.58H271c12.41,0,2.37,15.28-11.49,16.45-.33,0-1.22.07-1.34.07s-1,0-1.33-.07c-13.86-1.17-23.9-16.45-11.49-16.45Z"/><g class="cls-25"><path class="cls-6" d="M269.28,162.3a2.92,2.92,0,0,1,3,3v3.24a2.92,2.92,0,0,1-3,3H247a2.92,2.92,0,0,1-3-3v-3.24a2.92,2.92,0,0,1,3-3Z"/><path class="cls-20" d="M245.33,189H271c12.41,0,2.37-15.28-11.49-16.45-.33-.05-1.22-.07-1.34-.07s-1,0-1.33.07C243,173.75,232.92,189,245.33,189Z"/><path class="cls-6" d="M266.26,180.11a2.13,2.13,0,0,1,2.18,2.17v2.37a2.13,2.13,0,0,1-2.18,2.17H250.05a2.13,2.13,0,0,1-2.18-2.17v-2.37a2.13,2.13,0,0,1,2.18-2.17Z"/></g><path class="cls-12" d="M175.74,158.88c-3.4-1.38-4.33-7-2.08-12.57s6.83-9,10.23-7.6,4.33,7,2.08,12.57-6.83,9-10.23,7.6Z"/><path class="cls-12" d="M116.46,158.88c3.4-1.38,4.33-7,2.08-12.57s-6.83-9-10.23-7.6-4.33,7-2.08,12.57,6.83,9,10.23,7.6Z"/><polygon id="SVGID-17" data-name="SVGID" class="cls-2" points="162.88 166.99 158.68 219.99 133.51 219.99 129.32 166.99 162.88 166.99 162.88 166.99"/><g class="cls-26"><path class="cls-12" d="M146.1,202.16c-20.08,0-41.95-30-41.95-64.22S91.85,76,146.1,76s42,27.75,42,62-21.87,64.22-42,64.22Z"/></g><path class="cls-2" d="M146.1,196.85c-6.44,0-24.08-8.37-30.67-17.29-4.49-6.08-2.44-10-2.44-21.12,0-27.39-10.29-60.77,33.11-60.77s33.11,33.38,33.11,60.77c0,11.29,1.95,15.1-2.67,21.2-6.59,8.7-24,17.21-30.44,17.21Z"/><path class="cls-15" d="M130.31,144.94c3.44.24,6.71,2.69,7-.49.34-3.66-3.07-6.08-6.5-6.44-2.67-.27-6.49,2.52-6.36,5.71.14,3.56,2.41,1,5.86,1.22Z"/><path class="cls-15" d="M161.89,144.94c-3.44.24-6.71,2.69-7-.49-.34-3.66,3.07-6.08,6.5-6.44,2.67-.27,6.49,2.52,6.36,5.71-.14,3.56-2.41,1-5.86,1.22Z"/><path class="cls-23" d="M130.22,145c3.44.24,6.7,2.69,7-.48.34-3.66-3.06-6.08-6.48-6.43-2.67-.28-6.48,2.51-6.35,5.7.14,3.55,2.41,1,5.84,1.21Z"/><path class="cls-23" d="M162,145c-3.44.24-6.7,2.69-7-.48-.34-3.66,3.06-6.08,6.48-6.43,2.67-.28,6.48,2.51,6.35,5.7-.14,3.55-2.41,1-5.84,1.21Z"/><path id="SVGID-18" data-name="SVGID" class="cls-3" d="M130.79,169.8h30.62c14.81,0,2.83,14.78-13.72,15.91-.39,0-1.45.07-1.59.07s-1.2,0-1.59-.07C128,184.58,116,169.8,130.79,169.8Z"/><g class="cls-27"><path class="cls-6" d="M159.38,164.7s3.56,0,3.56,3.56V170s0,3.56-3.56,3.56H132.82s-3.56,0-3.56-3.56v-1.78s0-3.56,3.56-3.56Z"/><path class="cls-20" d="M130.79,190.55h30.62c14.81,0,2.83-14.78-13.72-15.91-.39,0-1.45-.07-1.59-.07s-1.2,0-1.59.07C128,175.77,116,190.55,130.79,190.55Z"/><path class="cls-6" d="M155.78,181.92a2.54,2.54,0,0,1,2.59,2.6v1.3a2.54,2.54,0,0,1-2.59,2.59H136.42a2.54,2.54,0,0,1-2.59-2.59v-1.3a2.54,2.54,0,0,1,2.59-2.6Z"/></g><path class="cls-28" d="M186,97.42c-.24-1.93-2.21-1.64-4.15-1.52-6.06.38-7.54-1.66-19.92-9s-25-4.36-33.36,1.89c-38.69,8.93-16,61.44-16,61.44s-.14-27.64,11.82-36c20,13.66,40.51,14.4,52.17,6.28,4.49,10.49,3,29.76,3,29.76s7.73-19.5,3.51-36.75A24.9,24.9,0,0,0,186,97.42Z"/><path class="cls-22" d="M200.65,244.43c-6.27-16.82-12.44-31.24-12.44-31.24a.69.69,0,0,0-.43-.33c-8.38-6-28-7.65-28-7.65h0s-.88,10.08-13.69,10.08-13.7-10.08-13.7-10.08-19.68,1.62-28,7.68a.65.65,0,0,0-.35.3s-6.18,14.42-12.44,31.24A154.15,154.15,0,0,0,114.78,251h0c1.1.22,2.2.43,3.31.62l.93.16c.93.16,1.85.31,2.78.45l.73.12c1.07.16,2.15.3,3.24.44l1.29.16,2.14.23c.47.05.94.11,1.42.15,1,.1,2,.18,3,.26h0q6.15.48,12.44.49c4.17,0,8.3-.17,12.39-.48h0c1-.08,2-.17,3-.27l1.41-.14,2.15-.24,1.28-.15q1.62-.21,3.24-.45l.71-.11c.94-.14,1.87-.29,2.81-.45l.9-.16a154.5,154.5,0,0,0,26.58-7.17l.07,0Z"/><path class="cls-2" d="M127.2,322.32c-3.54-15.37-8.37-26.73-14.91-28.84C92.87,287.21,71,285.76,75.67,272c2.93-8.7-20.89-8.7-18,0,4.63,13.77-14.8,15.22-34.22,21.49-8.43,2.72-14.2,13.86-18.15,28.75a179.6,179.6,0,0,0,61.05,10.56,179.77,179.77,0,0,0,60.81-10.47Z"/><path class="cls-12" d="M36.75,225.07c3.65-1.47,4.65-7.51,2.24-13.48s-7.33-9.62-11-8.15-4.65,7.51-2.24,13.49,7.33,9.62,11,8.14Z"/><path class="cls-12" d="M95.78,225.07c-3.64-1.47-4.64-7.51-2.23-13.48s7.32-9.62,11-8.15,4.65,7.51,2.23,13.49-7.32,9.62-11,8.14Z"/><polygon id="SVGID-19" data-name="SVGID" class="cls-2" points="51.99 240.9 55.59 293.1 77.19 293.1 80.79 240.9 51.99 240.9 51.99 240.9"/><g class="cls-29"><path class="cls-12" d="M66.39,273c17.23,0,36-23.82,36-53.19s10.55-53.19-36-53.19-36,23.81-36,53.19S49.16,273,66.39,273Z"/></g><path class="cls-2" d="M66.39,265.8c17.23,0,36-23.82,36-53.19s10.55-53.19-36-53.19-36,23.81-36,53.19,18.77,53.19,36,53.19Z"/><path class="cls-30" d="M127.2,322.32c-3.54-15.37-8.37-26.73-14.91-28.84-7.43-2.4-15.2-4.09-21.72-6-5,6.3-14,10.51-24.3,10.51-10,0-18.75-3.95-23.8-9.9-5.69,1.7-12.34,3.28-19,5.43-8.43,2.72-14.2,13.86-18.15,28.75a179.6,179.6,0,0,0,61.05,10.56,179.77,179.77,0,0,0,60.81-10.47Z"/><path class="cls-15" d="M66.69,155.93c14.27,0,25.83-10.57,25.83-23.61S81,108.71,66.69,108.71s-25.82,10.57-25.82,23.61,11.56,23.61,25.82,23.61Z"/><path class="cls-31" d="M114.26,196.56c0-47.77-29-61.63-47.47-61.63s-48.21,13.86-48.21,61.63c0,22.19,4.35,16.4,4.35,16.4l36.19-12.67,7.3-30.19,7.3,30.19L109.92,213s4.34,5.79,4.34-16.4Z"/><path class="cls-23" d="M48.63,212.44c3.82.26,7.44,3,7.77-.54.37-4.07-3.41-6.75-7.21-7.14-3-.31-7.2,2.79-7.06,6.33.16,3.94,2.68,1.08,6.5,1.35Z"/><path class="cls-23" d="M83.91,212.44c-3.82.26-7.44,3-7.77-.54-.37-4.07,3.4-6.75,7.21-7.14,3-.31,7.2,2.79,7.06,6.33-.16,3.94-2.68,1.08-6.5,1.35Z"/><path class="cls-32" d="M80.88,244.11c-.48-.67-2.5,2.33-9.74-.67-2-.83-4.28,1.3-4.87,1.91-.59-.61-2.86-2.74-4.87-1.91-7.24,3-9.26,0-9.74.67-.18.25,5.7,8.36,14.61,8.36s14.79-8.11,14.61-8.36Z"/><path class="cls-12" d="M301.12,222.05c3.78-1.53,4.81-7.78,2.32-14s-7.59-10-11.37-8.43-4.81,7.78-2.31,14,7.58,10,11.36,8.44Z"/><path class="cls-12" d="M367,222.05c-3.78-1.53-4.81-7.78-2.31-14s7.59-10,11.36-8.43,4.82,7.78,2.32,14-7.59,10-11.37,8.44Z"/><polygon id="SVGID-20" data-name="SVGID" class="cls-2" points="315.41 231.07 320.07 294.92 348.04 294.92 352.7 231.07 315.41 231.07 315.41 231.07"/><g class="cls-33"><path class="cls-12" d="M334.06,275.11c22.31,0,46.61-33.32,46.61-71.36s13.67-68.87-46.61-68.87-46.61,30.84-46.61,68.87,24.3,71.36,46.61,71.36Z"/></g><path id="SVGID-21" data-name="SVGID" class="cls-2" d="M334.06,269.21c7.16,0,26.75-9.3,34.07-19.2,5-6.76,2.72-16.1,2.72-28.44,0-30.43,11.43-67.53-36.79-67.53s-36.79,37.1-36.79,67.53c0,12.54-2.17,21.75,3,28.53,7.32,9.66,26.66,19.11,33.82,19.11Z"/><g class="cls-34"><path class="cls-31" d="M370.67,207.82s-1.37,19.18-6.54,22.63A45.72,45.72,0,0,1,352,235.69H316.1A45.72,45.72,0,0,1,304,230.45c-5.17-3.45-6.53-22.63-6.53-22.63-1.62,6.54-1.39,25.91-.74,32.27a22.81,22.81,0,0,0,4,10.72s20.53,21.08,22.14,22c1.41.79,9.17.48,11.17.39,2,.09,9.76.4,11.16-.39,1.62-.91,22.14-22,22.14-22a22.69,22.69,0,0,0,4-10.72c.65-6.36.88-25.73-.73-32.27Z"/></g><path class="cls-15" d="M351.6,206.56c-3.82.27-7.45,3-7.78-.53-.38-4.08,3.41-6.77,7.22-7.16,3-.31,7.21,2.8,7.07,6.34-.15,3.95-2.68,1.09-6.51,1.35Z"/><path class="cls-15" d="M316.51,206.56c3.82.27,7.46,3,7.78-.53.38-4.08-3.41-6.77-7.22-7.16-3-.31-7.21,2.8-7.07,6.34.16,3.95,2.68,1.09,6.51,1.35Z"/><path class="cls-23" d="M351.7,206.6c-3.82.27-7.44,3-7.77-.54-.38-4.06,3.4-6.75,7.21-7.14,3-.31,7.19,2.79,7.05,6.33-.15,3.94-2.68,1.08-6.49,1.35Z"/><path class="cls-23" d="M316.42,206.6c3.81.27,7.44,3,7.76-.54.38-4.06-3.4-6.75-7.21-7.14-3-.31-7.19,2.79-7.05,6.33.15,3.94,2.68,1.08,6.5,1.35Z"/><path class="cls-31" d="M369.15,161.42s7.66,1.58,7.44,9.24-5.48,41-5.48,41l-10.75-34.2,8.79-16Z"/><path class="cls-15" d="M363.43,230.74c-7.45,3.88-8.13-3.93-16-5.92s-11.69,3.52-13.37,5.12c-1.69-1.6-6.58-6.5-13.38-5.12-7.87,2-8.55,9.8-16,5.92-.72,0,19.84,20.55,29.38,6.23,9.54,14.32,30.09-6.23,29.37-6.23Z"/><path class="cls-15" d="M328.59,140l-4.06-5.64s45.59-5,45.52,20.06c-.09,33.35-29.74,40.33-29.74,40.33l2.25-9-17.8,9.46,2.25-5.41-14.87,5.41,5.41-12.39-13.3,5s-5.2,13.16-7.12,23.83c0,0-10.34-35.29-3.69-38L291,172.24l3.15-6.31-4.73-2,4.06-5.86-1.8-2.48,9-5.18-4.73-2.48S311,135.28,328.59,140Z"/><path class="cls-30" d="M394.66,322.08c-7-18.69-13.81-34.71-13.81-34.71a.79.79,0,0,0-.49-.36c-9.31-6.71-31.12-8.51-31.12-8.51h0s-1,11.21-15.21,11.21-15.21-11.21-15.21-11.21-21.88,1.8-31.17,8.54a.77.77,0,0,0-.39.33s-6.85,16-13.81,34.71a171,171,0,0,0,25.8,7.28h.07c1.21.25,2.44.47,3.67.69l1,.18c1,.18,2.05.34,3.09.5l.81.13c1.19.17,2.39.34,3.59.49l1.43.17c.79.1,1.59.18,2.38.27l1.58.16c1.11.11,2.21.21,3.33.29h0c4.55.35,9.16.54,13.82.54s9.22-.19,13.76-.54h0c1.12-.09,2.23-.19,3.34-.3l1.58-.16,2.39-.26,1.41-.17c1.21-.16,2.41-.32,3.61-.5l.78-.12,3.13-.5,1-.18a171.45,171.45,0,0,0,29.54-8l.07,0Z"/><path class="cls-14" d="M128.81,325.61c-3.68-4.79-1.24-9.39,4.32-12.44,8-4.39,6-11.26-3.87-15.65s-11.75-17.59-1.34-24.86,13.09-13.1,5.74-23S131.82,223,143,220.84s9.53-3.48,11.92-12.19c4.17-15.13,22.13-26.68,31.74-16.79C200.45,175.54,231.36,188,237,203.1c5.93,16,11.3,15.84,20.12,20.26s11.69,24.37,5,32.69c-8.85,11-4,15.91,6.84,21.12s8.17,12.92-.45,17.24-14,12-5.94,16.43c5.87,3.21,7.6,7.8,5.34,14.8-10.72,33.2-109.33,38.68-139.07,0Z"/><path class="cls-2" d="M265.51,388.49c-3.9-16.91-9.21-29.4-16.4-31.73-21.37-6.9-45.39-8.49-40.29-23.64,3.22-9.57-23-9.57-19.75,0,5.1,15.15-16.28,16.74-37.65,23.64-9.27,3-15.62,15.25-20,31.63a200.09,200.09,0,0,0,134,.1Z"/><path class="cls-12" d="M166,281.51c4-1.62,5.11-8.26,2.46-14.83s-8.06-10.58-12.07-9S151.3,266,154,272.55s8.06,10.58,12.07,9Z"/><path class="cls-12" d="M231,281.51c-4-1.62-5.11-8.26-2.46-14.83s8.06-10.58,12.07-9,5.11,8.26,2.46,14.83-8.06,10.58-12.07,9Z"/><polygon id="SVGID-22" data-name="SVGID" class="cls-2" points="182.78 298.92 186.74 356.34 210.5 356.34 214.46 298.92 182.78 298.92 182.78 298.92"/><g class="cls-35"><path class="cls-12" d="M198.62,334.23c18.95,0,39.59-26.19,39.59-58.51s11.62-58.51-39.59-58.51S159,243.41,159,275.72s20.64,58.51,39.6,58.51Z"/></g><path class="cls-2" d="M198.62,326.31c18.95,0,39.59-26.19,39.59-58.51s11.62-58.51-39.59-58.51S159,235.49,159,267.8s20.64,58.51,39.6,58.51Z"/><path class="cls-36" d="M265.51,388.49c-3.9-16.91-9.21-29.4-16.4-31.73-8.17-2.64-16.72-4.5-23.89-6.64-5.46,6.92-15.39,11.56-26.74,11.56-11,0-20.62-4.34-26.18-10.89-6.25,1.87-13.56,3.61-20.88,6-9.27,3-15.62,15.25-20,31.63a200.09,200.09,0,0,0,134,.1Z"/><path class="cls-14" d="M244.63,247c0-42.61-28-55-45.79-55s-46.5,12.35-46.5,55c0,19.8,4.19,14.63,4.19,14.63s19.21-9.14,41.95-9.14,42,9.14,42,9.14,4.19,5.17,4.19-14.63Z"/><path id="SVGID-23" data-name="SVGID" class="cls-3" d="M182.72,294.29h31.36c15.16,0,2.89,18.68-14,20.11-.41.05-1.5.09-1.64.08s-1.22,0-1.63-.08c-16.94-1.43-29.21-20.11-14.05-20.11Z"/><g class="cls-37"><path class="cls-6" d="M212,287.84s3.64,0,3.64,3.65v3.95s0,3.65-3.64,3.65H184.81s-3.64,0-3.64-3.65v-3.95s0-3.65,3.64-3.65Z"/><path class="cls-20" d="M182.72,320.51h31.36c15.16,0,2.89-18.67-14-20.11-.41,0-1.5-.08-1.64-.08s-1.22,0-1.63.08c-16.94,1.44-29.21,20.11-14.05,20.11Z"/><path class="cls-6" d="M208.31,309.61a2.61,2.61,0,0,1,2.66,2.66v2.88a2.61,2.61,0,0,1-2.66,2.66H188.49a2.6,2.6,0,0,1-2.65-2.66v-2.88a2.6,2.6,0,0,1,2.65-2.66Z"/></g><path class="cls-23" d="M179.08,266.66c4.2.3,8.19,3.29,8.54-.59.42-4.47-3.74-7.42-7.93-7.86-3.25-.33-7.91,3.08-7.76,7,.17,4.34,2.95,1.19,7.15,1.48Z"/><path class="cls-23" d="M217.89,266.66c-4.2.3-8.19,3.29-8.54-.59-.42-4.47,3.74-7.42,7.92-7.86,3.26-.33,7.92,3.08,7.77,7-.18,4.34-2.95,1.19-7.15,1.48Z"/></g></svg>