<svg id="Capa_1" data-name="Capa 1" xmlns="http://www.w3.org/2000/svg" viewBox="0 0 400 278"><defs><style>.cls-1{fill:#e13c2d;}.cls-2{fill:#009ac5;}</style></defs><title>index-icon</title><path class="cls-1" d="M259.48,212.89c3.4,0,6.84-.38,10.18.08,15.44,2.1,28.85-2.71,41.7-10.9,9.57-6.09,19.71-11.3,29.75-16.63a23.43,23.43,0,0,0,9.62-9.43c6-10.36,12-20.66,18.07-31a19.32,19.32,0,0,1,9.67-8.53c4.51-1.81,8.79-2.29,12.88,1.14s4.38,8.31,2.71,12.59c-7.27,18.6-17.05,36-26.53,53.53a10.44,10.44,0,0,1-3,2.86q-22.81,17.4-45.7,34.76c-7.25,5.47-15.85,8.33-24.07,11.84-15.38,6.59-30.65,13.73-47.43,16-30,4.15-60.06,5.39-90.07.9-31-4.64-62-8.67-93.31-9.7-3.3-.11-4.51-1.29-4.49-4.68.13-18.36.19-36.73,0-55.1,0-4.49,1.88-5.45,5.75-5.23,13.92.8,27.7-.73,40.59-5.85,15.74-6.25,31.1-13.5,46.41-20.75,7-3.32,14-5.37,21.8-5.37,27.15,0,54.3-.23,81.45-.29,3.58,0,7.18.18,10.53,1.77,7.64,3.64,6.89,10.45,6.39,17.07a15.05,15.05,0,0,1-11.19,13.3,48.85,48.85,0,0,1-13.57,1.93c-13.38-.11-26.76,0-40.13,0-1.36,0-3.12-.47-3.75,1.06s1,2.46,1.92,3.42c7.32,7.65,16.5,11,26.89,11.15C241.51,213,250.5,212.89,259.48,212.89Z"/><path class="cls-1" d="M54.12,228.76c0,11.36-.11,22.72.07,34.08.06,3.68-.7,5.43-4.9,5.36C36.14,268,23,268,9.82,268.17c-3.6,0-4.89-1.26-4.88-4.9q.18-34.68,0-69.36c0-4.27,1.56-5.52,5.63-5.46,12.75.18,25.51.21,38.27,0,4.32-.08,5.44,1.6,5.37,5.64-.2,11.55-.07,23.12-.07,34.68Z"/><path class="cls-2" d="M310.9,58.73c.69-3.14,2.34-5.52,3.57-8Q325.06,29,335.82,7.38c.43-.86.59-2.31,1.57-2.38,1.29-.09,1.44,1.46,1.91,2.4q11.85,24,23.66,48.11c.42.85,1.52,1.78.82,2.66s-1.86.16-2.79-.15c-7.17-2.37-14.35-4.72-21.51-7.12a5.71,5.71,0,0,0-3.86.26c-7.6,2.49-15.23,4.88-22.86,7.28A12.65,12.65,0,0,1,310.9,58.73Z"/><path class="cls-2" d="M256.13,130.77c-.45,1.52-1.4.72-2.12.49-6.56-2.09-13.27-3.83-19.62-6.45-4.48-1.85-8.07.1-11.91,1.19-5.55,1.57-11,3.49-16.52,5.24-.69.22-1.51.89-2.15.14s.18-1.45.5-2.09q9-18.42,18-36.82,3.15-6.42,6.28-12.87c.29-.6.45-1.33,1.28-1.32s1,.73,1.26,1.33Q243.22,104.3,255.32,129C255.61,129.57,255.86,130.18,256.13,130.77Z"/><path class="cls-2" d="M285.27,93.83l-12.71,4.09c-3.6,1.15-7.19,2.31-10.8,3.42-.81.25-1.81.75-2.48-.12-.52-.68,0-1.46.34-2.17,5.15-10.65,10.42-21.24,15.5-31.93,2.63-5.54,5.49-11.05,8.38-16.5.4-.77.61-1.82,1.73-1.76,1,0,1,1.09,1.35,1.74q9.12,18.34,18.16,36.72c2,4,3.92,8,5.91,12,.39.78,1.23,1.56.54,2.39s-1.66,0-2.43-.27c-7.2-2.29-14.38-4.64-21.56-7C286.57,94.21,285.93,94,285.27,93.83Z"/><path class="cls-2" d="M337.52,72.21c-8.56,0-8.62,0-8.52-8.53,0-2-1.11-4.77.74-6a17.13,17.13,0,0,1,8.09-2.65c2.39-.11,4.9,1.19,7.24,2.15,1.33.55,1.6,13.9.35,14.6-1.41.8-3,.29-4.58.37C339.74,72.25,338.62,72.21,337.52,72.21Z"/><path class="cls-2" d="M285.29,109.52h-2.67c-5.72,0-5.62,0-5.85-5.79a2.9,2.9,0,0,1,2.35-3.38c3.7-1.22,7.22-2.42,11.23-.56,2.1,1,3.29,1.72,3.17,4.23-.27,5.94,1,5.48-5.55,5.5C287.08,109.53,286.19,109.52,285.29,109.52Z"/><path class="cls-2" d="M337.49,153.94h-4.34c-4,0-5.4-2-4.17-5.82.43-1.31,1.42-1.23,2.41-1.24,4.11,0,8.23.07,12.35,0,3-.07,2.29,2,2.32,3.69s.56,3.55-2.23,3.42C341.72,153.86,339.61,153.94,337.49,153.94Z"/><path class="cls-2" d="M229.81,137c-1.45,0-2.9.11-4.33,0s-3.63.95-3.88-1.77c-.21-2.35-.34-4.48,2.82-5.37,3.42-1,6.53-2.19,10.23-.59,2.52,1.09,3.8,2.15,3.55,5-.17,1.93-.65,2.89-2.73,2.76C233.59,136.9,231.7,137,229.81,137Z"/><path class="cls-2" d="M337.58,99.65c-1.67,0-3.34-.08-5,0-2.29.14-3.71-.17-3.74-3.14s1.37-3.21,3.67-3.14c3.65.11,7.32.15,11,0,2.49-.11,2.64,1.25,2.62,3.12s0,3.38-2.55,3.18C341.58,99.52,339.58,99.65,337.58,99.65Z"/><path class="cls-2" d="M337.23,90.52c-1.55,0-3.11-.06-4.65,0-2.21.11-3.75,0-3.74-3.05s1.39-3.45,3.86-3.36c3.54.13,7.1.17,10.63,0,2.64-.14,2.76,1.28,2.81,3.29,0,2.18-.45,3.36-2.93,3.14C341.23,90.38,339.22,90.52,337.23,90.52Z"/><path class="cls-2" d="M337.78,126.62c-1.88,0-3.78-.13-5.64,0-2.45.21-3.3-.65-3.28-3.17s.83-3.34,3.29-3.24c3.87.16,7.75.13,11.62,0,2.4-.07,2.35,1.39,2.32,3s.34,3.49-2.34,3.35C341.77,126.54,339.77,126.62,337.78,126.62Z"/><path class="cls-2" d="M337.47,135.74c-1.55,0-3.1-.07-4.65,0-2.32.13-4,0-4-3.2s1.63-3.06,3.78-3c3.55.07,7.1.16,10.63,0,2.55-.13,2.86,1.1,2.9,3.2,0,2.27-.64,3.27-3,3.06C341.25,135.6,339.36,135.73,337.47,135.74Z"/><path class="cls-2" d="M285,137.2c-1.55,0-3.1,0-4.65,0-3.69,0-4.14-.59-3.76-4.26.15-1.35.66-2,2.05-2,4.31,0,8.63,0,12.94,0,2.09,0,2.23,1.36,2.17,2.93s.3,3.3-2.12,3.3H285Z"/><path class="cls-2" d="M285.08,128.05H280.4c-3.76,0-4.17-.55-3.78-4.27a2,2,0,0,1,2.36-2.11c4.12,0,8.24,0,12.36,0,2.56-.05,2.43,1.6,2.44,3.37s0,3.15-2.36,3C289.31,128,287.19,128.05,285.08,128.05Z"/><path class="cls-2" d="M285.09,118.86c-1.65,0-3.32-.13-5,0-2.47.22-3.55-.46-3.57-3.25,0-2.95,1.6-2.84,3.6-2.81,3.64.06,7.3.1,10.94,0,2,0,2.79.57,2.72,2.65s-.13,3.55-2.74,3.41C289.08,118.77,287.09,118.86,285.09,118.86Z"/><path class="cls-2" d="M285,146c-1.65,0-3.32-.07-5,0-2.14.13-3.49-.09-3.49-2.92s1.23-3.3,3.62-3.21c3.64.14,7.3.11,10.95,0,2.34-.06,2.64,1.19,2.68,3.14.05,2.12-.6,3.1-2.81,3C289,145.88,287,146,285,146Z"/><path class="cls-2" d="M230,139.89a43.71,43.71,0,0,0,5,0c3-.33,3.55,1.23,3.41,3.76-.08,1.66-.62,2.41-2.36,2.39-4.11-.07-8.22-.1-12.32,0-2.34.06-2.39-1.32-2.38-3s0-3.17,2.33-3.1C225.77,139.94,227.88,139.89,230,139.89Z"/><path class="cls-2" d="M337.48,111.44a39.52,39.52,0,0,0,5,0c3-.39,3.93.85,3.67,3.75-.15,1.74-.77,2.36-2.41,2.35-4,0-8-.08-12,0-2.53.08-2.8-1.22-2.86-3.32-.07-2.29.84-2.94,2.93-2.81C333.7,111.53,335.59,111.44,337.48,111.44Z"/><path class="cls-2" d="M337.46,81.2c-1.78,0-3.57-.13-5.34,0-2.48.23-3.25-.71-3.26-3.21,0-2.7,1.4-2.77,3.38-2.73,3.67.08,7.34.1,11,0,2.15-.08,2.91.66,2.91,2.88s-.63,3.28-3,3.07C341.25,81.07,339.35,81.2,337.46,81.2Z"/><path class="cls-2" d="M337.73,102.59c1.67,0,3.34.1,5,0,2.26-.17,3.5.27,3.45,3s-1.31,2.87-3.36,2.83c-3.78-.09-7.57-.09-11.35,0-2.16,0-2.58-1-2.55-2.91s.2-3,2.46-2.92S335.61,102.59,337.73,102.59Z"/><path class="cls-2" d="M337.78,144c-2,0-4-.06-6,0-1.82.08-2.89-.29-2.89-2.51s.74-3,2.89-2.95q6,.12,12,0c2,0,2.36,1,2.35,2.73s-.28,2.83-2.35,2.72S339.78,144,337.78,144Z"/><path class="cls-2" d="M229.81,154.4c-1.88,0-3.77-.09-5.64,0s-2.84-.54-2.87-2.6.79-2.92,2.95-2.85c3.86.14,7.74.1,11.6,0,1.91,0,2.53.81,2.54,2.59s-.45,3-2.62,2.85C233.79,154.31,231.8,154.41,229.81,154.4Z"/><path class="cls-2" d="M284.93,154c-1.89,0-3.79-.07-5.68,0s-2.63-.43-2.66-2.41.84-2.68,2.79-2.63c3.89.11,7.79.07,11.68,0,1.68,0,2.74.36,2.75,2.39s-1,2.7-2.88,2.62S286.93,154,284.93,154Z"/></svg>