<svg id="Capa_1" data-name="Capa 1" xmlns="http://www.w3.org/2000/svg" xmlns:xlink="http://www.w3.org/1999/xlink" viewBox="0 0 400 400"><defs><style>.cls-1{fill:#82c6f7;}.cls-2{fill:#b0deff;}.cls-3{fill:url(#Degradado_sin_nombre_7);}.cls-4{fill:#60c798;}.cls-5{fill:#41b986;}.cls-6{fill:#fff;}.cls-7{fill:#cae9ff;}.cls-8{fill:#2c2355;}.cls-9{fill:#ff3a6e;}.cls-10{fill:#ffc55c;}.cls-11{fill:#ff99ac;}.cls-12{fill:none;stroke:#2c2355;stroke-linecap:round;stroke-linejoin:round;}.cls-13{fill:#663e85;}.cls-14{fill:#5e377d;}.cls-15{fill:#ff8096;}.cls-16{fill:#ffb550;}.cls-17{fill:#e72a5b;}.cls-18{fill:#00b29a;}</style><linearGradient id="Degradado_sin_nombre_7" x1="200.49" y1="357.57" x2="200.49" y2="162.88" gradientUnits="userSpaceOnUse"><stop offset="0.64" stop-color="#008d78"/><stop offset="1" stop-color="#00b29a"/></linearGradient></defs><title>valores</title><path class="cls-1" d="M125.51,115.83H168.3s-2.29-13.58-11.14-8.58c0,0-1.34-12.11-12.88-12.31s-9.42,13.85-9.42,13.85S125.19,106.73,125.51,115.83Z"/><path class="cls-1" d="M299.63,84.41s-2.75-18.16-13.45-18-11,17.76-11,17.76S272,68.31,260.66,70.28,248.2,87.06,248.2,87.06c-9.33-4.32-11.59,6.19-11.59,6.19h73.86C309.5,84.5,299.63,84.41,299.63,84.41Z"/><path class="cls-1" d="M192.94,357.05C99,364.6,21.19,289.24,11,221.05s56.05-119,177.16-77.33c0,0,103.86-58.87,172.06-13.11S387.81,341.37,192.94,357.05Z"/><path class="cls-2" d="M68.63,195.13H25.84s2.29-13.58,11.13-8.58c0,0,1.35-12.11,12.89-12.3s9.42,13.84,9.42,13.84S69,186,68.63,195.13Z"/><path class="cls-2" d="M369.25,181.84s-2.75-18.15-13.45-18-11,17.77-11,17.77-3.24-15.9-14.53-13.94-12.46,16.78-12.46,16.78c-9.33-4.31-11.59,6.2-11.59,6.2h73.86C379.12,181.94,369.25,181.84,369.25,181.84Z"/><path class="cls-3" d="M390.52,185.52c-8.89,4.31-7.47,17.87-13.45,17.88-7.29,0-10-16.89-26.67-16.89s-19,34.35-19,34.35-4.56-52-27.82-51.68S280.42,214.09,267.61,207s-6-26.67-24.75-27.84-30.6,40.48-30.6,40.48l-19.32-.59c.26-12.51-10.13-32.53-28.24-33s-20.46,26.35-27.82,21.49-2.5-47.26-25.18-44.61S98,214.38,87.41,210.85,77.4,191,65,191.42s-16.37,24.44-16.37,24.44-6.3-28.27-21.61-28.38c-6.64,0-12.42,6.52-16.84,14A89.1,89.1,0,0,0,11,221.05c10.19,68.19,88,143.55,181.94,136C337.32,345.43,397,251.85,390.52,185.52Z"/><path class="cls-4" d="M387,225.14c-30.65-43.23-48.11-7-48.11-7-15.67-6.53-17.11,8.36-19.33,15.55s-7.19,5.09-6.93.13-2.74-19.34-15-18.79-14.24,14.09-19.73,11.6-7.18-11.49-18.42-9.66-12,12.41-12,12.41S176,232,164,232s-15.49-17.44-29.89-17-15.09,12.05-18.32,19.5-10.39,5.39-11.76.81a21.21,21.21,0,0,0-20.28-14.33c-12.64.09-17.35,8.13-26,16.65s-23.12-3-32.92-1a30.22,30.22,0,0,0-9.22,3.6c20.31,62.31,92.23,123.58,177.34,116.73C310.14,347.62,371.55,284.17,387,225.14Z"/><path class="cls-5" d="M249.07,314.27s59.82,38.26,84.21-27.18L185.77,272.68,56.66,291s12.85,30.87,43.58,32.72c27.7,1.67,42.46-11,42.46-11l-4.61,39.38a163.57,163.57,0,0,0,54.85,4.93,308.61,308.61,0,0,0,59.46-10.44Z"/><path class="cls-6" d="M274.55,155c-10.87,2.36-9.87,23,2.95,19.31S284.9,152.7,274.55,155Z"/><path class="cls-7" d="M267.21,167.35c.66,4.77,4.09,8.68,10.29,6.91,4.52-1.29,6.76-4.34,7.33-7.66C278.53,169.2,271.74,168.43,267.21,167.35Z"/><path class="cls-6" d="M259.42,197.64c-7.22,1.16-3.36,10.51,1.59,9.3C265.46,205.84,265.9,196.6,259.42,197.64Z"/><path class="cls-7" d="M256.43,204.84a4.37,4.37,0,0,0,4.58,2.1c2-.5,3.22-2.69,3.31-4.82A13.49,13.49,0,0,1,256.43,204.84Z"/><path class="cls-6" d="M297.5,141.83c52.71,26,114.59-51.26,44.44-85.81C280,25.52,245.05,115.93,297.5,141.83Z"/><path class="cls-7" d="M364.33,123.76c-35.67,15.31-68.74,8.63-83.82,4a45.59,45.59,0,0,0,17,14.08C322.93,154.39,350.49,142.9,364.33,123.76Z"/><path class="cls-8" d="M327.72,101.91l10.51-11.28a3.71,3.71,0,1,0-5.44-5.06L322.64,96.46,312.49,85.57a3.71,3.71,0,1,0-5.43,5.06l10.51,11.28-10.51,11.28a3.71,3.71,0,1,0,5.43,5.07l10.15-10.9,10.15,10.9a3.72,3.72,0,0,0,5.44-5.07Z"/><polygon class="cls-9" points="328.07 42.43 325.35 55.55 331.35 57.48 327.92 68.67 341.89 55.07 333.43 51.43 337.41 45.07 328.07 42.43"/><polygon class="cls-9" points="364.73 147.06 356.01 136.88 350.81 140.45 344.05 130.91 346.29 150.27 354.33 145.8 356.93 152.84 364.73 147.06"/><polygon class="cls-10" points="272.89 58.91 283.03 67.68 279.43 72.86 288.95 79.67 269.59 77.34 274.11 69.31 267.08 66.68 272.89 58.91"/><path class="cls-11" d="M56.66,243s-4.91-6.22-6.24-9.25S47,224.23,45,224.67s.11,10.46,3.69,16.75c0,0-4.72-5.14-6.44-8.86s-3.43-5.88-4.7-4.95c-1.7,1.24,1.74,11.33,7.13,16.81L37.88,237c-2-2.21-3.66-6.13-5.48-5.05-2.55,1.52,3.51,10.41,8.7,16.34a45.05,45.05,0,0,0-3.46-3.65c-1.23-1-4.27-3.57-5.44-2.2S36.9,250,38.72,252c0,0,3.33,9,8.52,14.31C47.24,266.27,62.27,255.55,56.66,243Z"/><path class="cls-12" d="M51,240.3s-5.39,1.62-11.12,9.55"/><path class="cls-12" d="M56.66,243s-4.91-6.22-6.24-9.25S47,224.23,45,224.67s.11,10.46,3.69,16.75c0,0-4.72-5.14-6.44-8.86s-3.43-5.88-4.7-4.95c-1.7,1.24,1.74,11.33,7.13,16.81L37.88,237c-2-2.21-3.66-6.13-5.48-5.05-2.55,1.52,3.51,10.41,8.7,16.34a45.05,45.05,0,0,0-3.46-3.65c-1.23-1-4.27-3.57-5.44-2.2S36.9,250,38.72,252"/><path class="cls-11" d="M47.24,266.27,58,259.46l4.23-7.4s-2.42-6.13-2.66-10.24.44-8.23-1.47-8.38-3.73,3.63-2.84,9.6c0,0-7.5,2.75-6.47,11Z"/><path class="cls-12" d="M59.54,241.82c-.25-4.12.44-8.23-1.47-8.38s-3.73,3.63-2.84,9.6c0,0-7.5,2.75-6.47,11"/><path class="cls-11" d="M340.43,272.68c5.19-5.34,8.52-14.3,8.52-14.3,1.81-2,7.69-8.18,6.52-9.56S351.25,250,350,251a43.93,43.93,0,0,0-3.47,3.65c5.2-5.93,11.26-14.82,8.71-16.34-1.83-1.09-3.48,2.84-5.49,5L343,250.84c5.39-5.48,8.84-15.57,7.14-16.81-1.28-.93-3,1.22-4.71,4.95s-6.44,8.86-6.44,8.86c3.58-6.29,5.66-16.31,3.7-16.75s-4.12,6-5.44,9.06-6.79,10.34-6.79,10.34Z"/><path class="cls-12" d="M336.65,246.72s5.39,1.61,11.12,9.55"/><path class="cls-12" d="M349,258.38c1.81-2,7.69-8.18,6.52-9.56S351.25,250,350,251a43.93,43.93,0,0,0-3.47,3.65c5.2-5.93,11.26-14.82,8.71-16.34-1.83-1.09-3.48,2.84-5.49,5L343,250.84c5.39-5.48,8.84-15.57,7.14-16.81-1.28-.93-3,1.22-4.71,4.95s-6.44,8.86-6.44,8.86c3.58-6.29,5.66-16.31,3.7-16.75s-4.12,6-5.44,9.06-6.79,10.34-6.79,10.34"/><path class="cls-11" d="M340.43,272.68l-10.73-6.81-4.23-7.39s2.41-6.13,2.66-10.24-.44-8.23,1.47-8.38,3.72,3.62,2.84,9.6c0,0,7.5,2.75,6.47,11C338.91,260.48,342.54,267.57,340.43,272.68Z"/><path class="cls-12" d="M328.13,248.24c.24-4.12-.44-8.23,1.47-8.38s3.72,3.62,2.84,9.6c0,0,7.5,2.75,6.47,11"/><path class="cls-13" d="M325.47,258.48l-2.75,3.39c-8.82-1.17-14.24,6.47-21.42,14.57a12.87,12.87,0,0,1-21.95-4.31c-3-8.75-8.89-31.62-28-52S197,207.91,197,207.91s-29.26-6.46-45.59,2.68-23.65,30-28.22,45.47S111.6,282.71,101.8,281s-15.94-13.67-20.1-16-10.88-4.51-16.27-8.67l-3.23-4.26s-10,1.69-16.75,12.15L48,268.34s2.81,17.08,11,28.35,18.23,21.75,40.18,22.73c28,1.25,43.11-11.46,48.89-26l-1.36,60.69a162.71,162.71,0,0,0,46.22,2.9,313.65,313.65,0,0,0,53.65-8.86l-1-47.07c7.91,11.25,20.83,21.85,41.34,21.14,42.91-1.47,51.34-46.15,51.34-46.15l2.16-3.43C332.88,261.61,325.47,258.48,325.47,258.48Z"/><path class="cls-14" d="M336.42,282.71c-5,8.53-17.74,25.36-41.87,29.34-32.67,5.38-49.26-25.34-49.26-25.34l.3,14.41c7.91,11.25,20.83,21.85,41.34,21.14C319.47,321.15,332.18,295.19,336.42,282.71Z"/><path class="cls-14" d="M148.08,293.46l.27-11.83S131.15,309,99,312.05c-22.91,2.18-40-19.66-48.16-32.41A61.94,61.94,0,0,0,59,296.69c8.23,11.27,18.23,21.75,40.18,22.73C127.14,320.67,142.3,308,148.08,293.46Z"/><path class="cls-12" d="M49.54,267.43a33.67,33.67,0,0,0,14.24-9.84"/><path class="cls-12" d="M323.43,262.84s7.44,8.72,13.22,12.29"/><path class="cls-12" d="M168.17,270.82s24.4,11.57,50.56,4.31c0,0-7.06,13.92-27,28.22"/><path class="cls-12" d="M192.27,329.42s14.31-23.13,18.82-33.61,6-15,9.75-15.14"/><polyline class="cls-12" points="246.45 341.76 245.59 301.12 244.69 258.47"/><polyline class="cls-12" points="146.9 346.19 148.08 293.46 148.93 255.54"/><path class="cls-12" d="M245.59,301.12c7.91,11.25,20.83,21.85,41.34,21.14,42.91-1.47,51.34-46.15,51.34-46.15"/><path class="cls-12" d="M48.46,270.82C49.57,276,52.7,288,59,296.69c8.23,11.27,18.23,21.75,40.18,22.73,28,1.25,43.11-11.46,48.89-26"/><path class="cls-13" d="M183.55,206s-1.42-8.16.69-10.41,21-2.35,22.63,0,1.42,10.83,1.42,10.83S198.58,215.55,183.55,206Z"/><path class="cls-14" d="M208.17,201.64c-.16-2.34-.52-4.89-1.3-6-1.61-2.35-20.53-2.25-22.63,0-1.05,1.13-1.23,3.73-1.14,6C188.28,203,198.24,204.78,208.17,201.64Z"/><path class="cls-12" d="M207.24,207.26c-2.77,1.93-10.9,6.13-22.33-.41"/><path class="cls-8" d="M156,166.6s-8.75,16.89,6.34,25.57,41.87,12.29,64.47.66,9.93-30.05,9.93-30.05l.13-13.07a67.25,67.25,0,0,0,9.38-26.12c2.25-15.68-3.44-19.06-7.45-19s-9.26,2.25-17.89.49c0,0,2.14-2.32.58-3.92s-10.72.78-19.14,1.57-36.16.09-45.76,20.77c-8.57,18.44-3.12,32.69-3.12,32.69Z"/><path class="cls-11" d="M159.27,146.28s-14.37-9.93-19.2,5,14.24,20.58,19.2,12.54C159.27,163.85,156.07,153.27,159.27,146.28Z"/><path class="cls-12" d="M144.38,155.3s1.47-6.72,9.06-5.79"/><path class="cls-12" d="M151.34,156.76s-3.59-2.16-3.68-6.12"/><path class="cls-11" d="M235,147.26s7.54-6.86,14.79,3.38-5.84,22.42-13.73,16.29a24.72,24.72,0,0,0-1.06-8C233.68,154.58,235,147.26,235,147.26Z"/><path class="cls-12" d="M238.53,151.93s5.76-1.8,8.65,4.36"/><path class="cls-12" d="M239.11,158.16a11.06,11.06,0,0,0,4.37-5.82"/><path class="cls-11" d="M163.86,143.57s-6.53,13.85,1.57,19.47,22.61-4.63,29.41-4.31,13.63,6.07,21.73,5.09,13.66-6,13.72-16.62a15.86,15.86,0,0,1-12.44-9.8,33.12,33.12,0,0,1-29.1-7.74S182.77,143.67,163.86,143.57Z"/><path class="cls-12" d="M195.77,151a12.86,12.86,0,0,1-5,4.61,8.47,8.47,0,0,0,4.28,1.62"/><circle class="cls-11" cx="199.81" cy="167.67" r="1.51"/><path class="cls-12" d="M206,141.56a19.06,19.06,0,0,1,14.72,4.31"/><path class="cls-8" d="M209.2,150.15c0,.95-.46,1.72-1,1.72s-1-.77-1-1.72.46-1.72,1-1.72S209.2,149.2,209.2,150.15Z"/><ellipse class="cls-8" cx="174.13" cy="150.4" rx="1.03" ry="1.72"/><path class="cls-12" d="M171.08,146.61s5.77,0,14,.76"/><path class="cls-15" d="M175.93,164.18a6.37,6.37,0,0,0-12-2.47,9,9,0,0,0,1.52,1.33C168.32,165.05,172,165,175.93,164.18Z"/><path class="cls-15" d="M213.18,163.86a17.3,17.3,0,0,0,11.69-3.26,6.37,6.37,0,0,0-11.69,3.26Z"/><path class="cls-6" d="M61.72,63.24c-58.79-.06-80.16,96.62-2,96.62C128.78,159.86,120.21,63.3,61.72,63.24Z"/><path class="cls-7" d="M16.14,141.37c7.65,10.91,21.73,18.49,43.62,18.49,22.29,0,36.48-10.08,43.51-23.72C62.84,159.76,31.21,149.45,16.14,141.37Z"/><circle class="cls-10" cx="42.85" cy="84.88" r="9.28"/><path class="cls-16" d="M52.12,85.16C47.55,91.8,39.93,91.63,35.86,91a9.26,9.26,0,0,0,16.26-5.8Z"/><path class="cls-12" d="M40.7,83.45a1.55,1.55,0,0,0-3.09,0"/><path class="cls-12" d="M45,83.45a1.55,1.55,0,0,1,3.1,0"/><path class="cls-12" d="M38.19,85.57a5.39,5.39,0,0,0,9.33,0"/><circle class="cls-10" cx="103.07" cy="122.83" r="9.28" transform="matrix(0.86, -0.5, 0.5, 0.86, -47.84, 68.65)"/><path class="cls-16" d="M112,125.46c-6.11,5.26-13.43,3.16-17.19,1.47A9.26,9.26,0,0,0,112,125.46Z"/><path class="cls-12" d="M101.35,120.9a1.54,1.54,0,0,0-1.1-1.89,1.56,1.56,0,0,0-1.89,1.1"/><path class="cls-12" d="M105.51,122a1.55,1.55,0,0,1,3,.78"/><path class="cls-12" d="M98.39,122.31a5.37,5.37,0,0,0,9,2.37"/><path class="cls-9" d="M50.35,152.66c.59-4,7.71-4.51,7.19,1.64-.38,4.36-3.85,7.18-5.83,8.44a2.57,2.57,0,0,1-2.72,0c-2-1.26-5.45-4.08-5.82-8.44C42.64,148.15,49.76,148.61,50.35,152.66Z"/><path class="cls-17" d="M57.54,154.29a1.93,1.93,0,0,1,0-.24c-3.46,5.53-8.13,6.67-11,6.8A16,16,0,0,0,49,162.74a2.57,2.57,0,0,0,2.72,0C53.69,161.48,57.16,158.66,57.54,154.29Z"/><path class="cls-9" d="M35.57,139.65c.54-3.74,7.11-4.16,6.63,1.51-.34,4-3.55,6.63-5.38,7.8a2.37,2.37,0,0,1-2.51,0c-1.82-1.17-5-3.76-5.38-7.8C28.45,135.49,35,135.91,35.57,139.65Z"/><path class="cls-17" d="M42.2,141.16a1.77,1.77,0,0,0,0-.23c-3.19,5.11-7.5,6.17-10.13,6.28A15.08,15.08,0,0,0,34.31,149a2.37,2.37,0,0,0,2.51,0C38.65,147.79,41.86,145.2,42.2,141.16Z"/><path class="cls-18" d="M58.5,131.66a3.69,3.69,0,0,1-2.72-1.18L40.49,114A3.72,3.72,0,1,1,45.94,109L57.77,121.7,71.14,98.09a3.72,3.72,0,0,1,6.47,3.66l-15.88,28a3.71,3.71,0,0,1-2.8,1.86Z"/><path class="cls-6" d="M111.15,157.81c-11.12-.28-15,20-1.7,19.46S121.73,158.07,111.15,157.81Z"/><path class="cls-7" d="M101.39,172c.89,3.11,3.43,5.44,8.06,5.25,5.06-.19,8-3,9.22-6.44C112.41,174.89,105.47,173.5,101.39,172Z"/><path class="cls-6" d="M130.47,184.71c-7.29-.58-5.75,9.42-.65,9.41C134.4,194.11,137,185.24,130.47,184.71Z"/><path class="cls-7" d="M134,190.87a10.26,10.26,0,0,1-8,.36,4.27,4.27,0,0,0,3.86,2.89A4.78,4.78,0,0,0,134,190.87Z"/><path class="cls-8" d="M195.89,68.75v3.17a2.33,2.33,0,0,1-2.39,2.38,2.39,2.39,0,0,1-2.38-2.38V66.86s0,0,0-.1,0-.05,0-.1a2.45,2.45,0,0,1,2.38-2.38,5.45,5.45,0,1,0,0-10.9,5.39,5.39,0,0,0-4.67,2.67,2.4,2.4,0,0,1-3.31.88,2.37,2.37,0,0,1-.82-3.26,10.22,10.22,0,1,1,11.19,15.08Zm0,10.66v.88a2.33,2.33,0,0,1-2.39,2.38,2.39,2.39,0,0,1-2.38-2.38v-.88A2.42,2.42,0,0,1,193.5,77,2.36,2.36,0,0,1,195.89,79.41Z"/><path class="cls-8" d="M169.78,76.82l-.09-2.47a1.82,1.82,0,0,1,1.8-1.92,1.87,1.87,0,0,1,1.92,1.79l.13,3.94s0,0,0,.08,0,0,0,.08a1.92,1.92,0,0,1-1.79,1.92,4.24,4.24,0,1,0,.29,8.48,4.18,4.18,0,0,0,3.57-2.21,1.87,1.87,0,0,1,2.55-.77,1.85,1.85,0,0,1,.73,2.52,8,8,0,1,1-9.12-11.44Zm-.29-8.3,0-.68a1.81,1.81,0,0,1,1.79-1.92,1.86,1.86,0,0,1,1.92,1.79l0,.68a1.88,1.88,0,0,1-1.79,1.92A1.84,1.84,0,0,1,169.49,68.52Z"/><path class="cls-8" d="M216.65,80.86,215,82.68a1.82,1.82,0,0,1-2.63.11,1.86,1.86,0,0,1-.11-2.62l2.67-2.91s.05,0,.08,0,0,0,0-.08a1.9,1.9,0,0,1,2.62-.11,4.25,4.25,0,1,0,5.75-6.26,4.21,4.21,0,0,0-4.09-.93,1.86,1.86,0,0,1-2.36-1.24,1.83,1.83,0,0,1,1.24-2.3,8,8,0,1,1-1.53,14.55ZM211,87l-.46.5a1.82,1.82,0,0,1-2.63.11,1.86,1.86,0,0,1-.11-2.62l.46-.5a1.89,1.89,0,0,1,2.63-.12A1.85,1.85,0,0,1,211,87Z"/></svg>